{
	"patcher" : 	{
		"fileversion" : 1,
		"rect" : [ 15.0, 56.0, 811.0, 350.0 ],
		"bglocked" : 0,
		"defrect" : [ 15.0, 56.0, 811.0, 350.0 ],
		"openrect" : [ 0.0, 0.0, 0.0, 0.0 ],
		"openinpresentation" : 0,
		"default_fontsize" : 11.0,
		"default_fontface" : 0,
		"default_fontname" : "Verdana",
		"gridonopen" : 0,
		"gridsize" : [ 15.0, 15.0 ],
		"gridsnaponopen" : 0,
		"toolbarvisible" : 1,
		"boxanimatetime" : 200,
		"imprint" : 0,
		"boxes" : [ 			{
				"box" : 				{
					"maxclass" : "comment",
					"text" : "daisychain for learning multiple",
					"patching_rect" : [ 604.0, 210.0, 183.0, 20.0 ],
					"id" : "obj-48",
					"numinlets" : 1,
					"fontname" : "Verdana",
					"numoutlets" : 0,
					"fontsize" : 11.0
				}

			}
, 			{
				"box" : 				{
					"maxclass" : "message",
					"patching_rect" : [ 643.0, 295.0, 136.0, 18.0 ],
					"id" : "obj-42",
					"numinlets" : 2,
					"fontname" : "Verdana",
					"numoutlets" : 1,
					"outlettype" : [ "" ],
					"fontsize" : 11.0
				}

			}
, 			{
				"box" : 				{
					"maxclass" : "flonum",
					"bgcolor" : [ 0.866667, 0.866667, 0.866667, 1.0 ],
					"triscale" : 0.9,
					"htextcolor" : [ 0.870588, 0.870588, 0.870588, 1.0 ],
					"patching_rect" : [ 732.0, 271.0, 33.0, 20.0 ],
					"id" : "obj-43",
					"numinlets" : 1,
					"fontname" : "Verdana",
					"numoutlets" : 2,
					"outlettype" : [ "float", "bang" ],
					"fontsize" : 11.0
				}

			}
, 			{
				"box" : 				{
					"maxclass" : "flonum",
					"bgcolor" : [ 0.866667, 0.866667, 0.866667, 1.0 ],
					"triscale" : 0.9,
					"htextcolor" : [ 0.870588, 0.870588, 0.870588, 1.0 ],
					"patching_rect" : [ 688.0, 271.0, 42.0, 20.0 ],
					"id" : "obj-44",
					"numinlets" : 1,
					"fontname" : "Verdana",
					"numoutlets" : 2,
					"outlettype" : [ "float", "bang" ],
					"fontsize" : 11.0
				}

			}
, 			{
				"box" : 				{
					"maxclass" : "flonum",
					"bgcolor" : [ 0.866667, 0.866667, 0.866667, 1.0 ],
					"triscale" : 0.9,
					"htextcolor" : [ 0.870588, 0.870588, 0.870588, 1.0 ],
					"patching_rect" : [ 644.0, 271.0, 42.0, 20.0 ],
					"id" : "obj-45",
					"numinlets" : 1,
					"fontname" : "Verdana",
					"numoutlets" : 2,
					"outlettype" : [ "float", "bang" ],
					"fontsize" : 11.0
				}

			}
, 			{
				"box" : 				{
					"maxclass" : "newobj",
					"text" : "ctl.in",
					"patching_rect" : [ 663.0, 243.0, 118.0, 20.0 ],
					"id" : "obj-46",
					"numinlets" : 3,
					"fontname" : "Verdana",
					"numoutlets" : 5,
					"outlettype" : [ "", "", "", "", "" ],
					"fontsize" : 11.0
				}

			}
, 			{
				"box" : 				{
					"maxclass" : "message",
					"text" : "all",
					"patching_rect" : [ 566.0, 210.0, 29.0, 18.0 ],
					"id" : "obj-27",
					"numinlets" : 2,
					"fontname" : "Verdana",
					"numoutlets" : 1,
					"outlettype" : [ "" ],
					"fontsize" : 11.0
				}

			}
, 			{
				"box" : 				{
					"maxclass" : "message",
					"patching_rect" : [ 504.0, 295.0, 136.0, 18.0 ],
					"id" : "obj-38",
					"numinlets" : 2,
					"fontname" : "Verdana",
					"numoutlets" : 1,
					"outlettype" : [ "" ],
					"fontsize" : 11.0
				}

			}
, 			{
				"box" : 				{
					"maxclass" : "flonum",
					"bgcolor" : [ 0.866667, 0.866667, 0.866667, 1.0 ],
					"triscale" : 0.9,
					"htextcolor" : [ 0.870588, 0.870588, 0.870588, 1.0 ],
					"patching_rect" : [ 593.0, 271.0, 33.0, 20.0 ],
					"id" : "obj-36",
					"numinlets" : 1,
					"fontname" : "Verdana",
					"numoutlets" : 2,
					"outlettype" : [ "float", "bang" ],
					"fontsize" : 11.0
				}

			}
, 			{
				"box" : 				{
					"maxclass" : "flonum",
					"bgcolor" : [ 0.866667, 0.866667, 0.866667, 1.0 ],
					"triscale" : 0.9,
					"htextcolor" : [ 0.870588, 0.870588, 0.870588, 1.0 ],
					"patching_rect" : [ 549.0, 271.0, 42.0, 20.0 ],
					"id" : "obj-35",
					"numinlets" : 1,
					"fontname" : "Verdana",
					"numoutlets" : 2,
					"outlettype" : [ "float", "bang" ],
					"fontsize" : 11.0
				}

			}
, 			{
				"box" : 				{
					"maxclass" : "flonum",
					"bgcolor" : [ 0.866667, 0.866667, 0.866667, 1.0 ],
					"triscale" : 0.9,
					"htextcolor" : [ 0.870588, 0.870588, 0.870588, 1.0 ],
					"patching_rect" : [ 505.0, 271.0, 42.0, 20.0 ],
					"id" : "obj-20",
					"numinlets" : 1,
					"fontname" : "Verdana",
					"numoutlets" : 2,
					"outlettype" : [ "float", "bang" ],
					"fontsize" : 11.0
				}

			}
, 			{
				"box" : 				{
					"maxclass" : "message",
					"text" : "learn",
					"patching_rect" : [ 524.0, 210.0, 40.0, 18.0 ],
					"id" : "obj-19",
					"numinlets" : 2,
					"fontname" : "Verdana",
					"numoutlets" : 1,
					"outlettype" : [ "" ],
					"fontsize" : 11.0
				}

			}
, 			{
				"box" : 				{
					"maxclass" : "newobj",
					"text" : "ctl.in",
					"patching_rect" : [ 524.0, 243.0, 118.0, 20.0 ],
					"id" : "obj-1",
					"numinlets" : 3,
					"fontname" : "Verdana",
					"numoutlets" : 5,
					"outlettype" : [ "", "", "", "", "" ],
					"fontsize" : 11.0
				}

			}
, 			{
				"box" : 				{
					"maxclass" : "slider",
					"size" : 169.0,
					"patching_rect" : [ 258.0, 234.0, 23.0, 73.0 ],
					"id" : "obj-30",
					"numinlets" : 1,
					"orientation" : 2,
					"numoutlets" : 1,
					"outlettype" : [ "" ]
				}

			}
, 			{
				"box" : 				{
					"maxclass" : "flonum",
					"bgcolor" : [ 0.866667, 0.866667, 0.866667, 1.0 ],
					"triscale" : 0.9,
					"htextcolor" : [ 0.870588, 0.870588, 0.870588, 1.0 ],
					"patching_rect" : [ 166.0, 234.0, 48.0, 20.0 ],
					"id" : "obj-31",
					"numinlets" : 1,
					"fontname" : "Verdana",
					"numoutlets" : 2,
					"outlettype" : [ "float", "bang" ],
					"fontsize" : 11.0
				}

			}
, 			{
				"box" : 				{
					"maxclass" : "newobj",
					"varname" : "subpatcher[2]",
					"text" : "p subpatcher[2]",
					"patching_rect" : [ 217.0, 208.0, 100.0, 20.0 ],
					"id" : "obj-32",
					"numinlets" : 0,
					"fontname" : "Verdana",
					"numoutlets" : 3,
					"outlettype" : [ "", "", "" ],
					"fontsize" : 11.0,
					"patcher" : 					{
						"fileversion" : 1,
						"rect" : [ 462.0, 450.0, 449.0, 260.0 ],
						"bglocked" : 0,
						"defrect" : [ 462.0, 450.0, 449.0, 260.0 ],
						"openrect" : [ 0.0, 0.0, 0.0, 0.0 ],
						"openinpresentation" : 0,
						"default_fontsize" : 11.0,
						"default_fontface" : 0,
						"default_fontname" : "Verdana",
						"gridonopen" : 0,
						"gridsize" : [ 15.0, 15.0 ],
						"gridsnaponopen" : 0,
						"toolbarvisible" : 1,
						"boxanimatetime" : 200,
						"imprint" : 0,
						"visible" : 1,
						"boxes" : [ 							{
								"box" : 								{
									"maxclass" : "comment",
									"text" : "CtlNo",
									"patching_rect" : [ 314.081085, 142.890518, 40.0, 20.0 ],
									"id" : "obj-18",
									"numinlets" : 1,
									"fontname" : "Verdana",
									"numoutlets" : 0,
									"fontsize" : 11.0
								}

							}
, 							{
								"box" : 								{
									"maxclass" : "number",
									"bgcolor" : [ 0.866667, 0.866667, 0.866667, 1.0 ],
									"triscale" : 0.9,
									"htextcolor" : [ 0.870588, 0.870588, 0.870588, 1.0 ],
									"patching_rect" : [ 314.857147, 116.116791, 37.0, 20.0 ],
									"id" : "obj-19",
									"numinlets" : 1,
									"fontname" : "Verdana",
									"numoutlets" : 2,
									"outlettype" : [ "int", "bang" ],
									"fontsize" : 11.0
								}

							}
, 							{
								"box" : 								{
									"maxclass" : "outlet",
									"patching_rect" : [ 292.505798, 116.116791, 20.0, 20.0 ],
									"id" : "obj-17",
									"numinlets" : 1,
									"numoutlets" : 0,
									"comment" : ""
								}

							}
, 							{
								"box" : 								{
									"maxclass" : "newobj",
									"text" : "ctl.in 7 0+",
									"patching_rect" : [ 292.505798, 90.905113, 110.0, 20.0 ],
									"id" : "obj-1",
									"numinlets" : 3,
									"fontname" : "Verdana",
									"numoutlets" : 5,
									"outlettype" : [ "", "", "", "", "" ],
									"fontsize" : 11.0
								}

							}
, 							{
								"box" : 								{
									"maxclass" : "comment",
									"text" : "port",
									"patching_rect" : [ 212.0, 168.0, 38.0, 20.0 ],
									"id" : "obj-16",
									"numinlets" : 1,
									"fontname" : "Verdana",
									"numoutlets" : 0,
									"fontsize" : 11.0
								}

							}
, 							{
								"box" : 								{
									"maxclass" : "message",
									"patching_rect" : [ 27.0, 169.0, 182.0, 18.0 ],
									"id" : "obj-3",
									"numinlets" : 2,
									"fontname" : "Verdana",
									"numoutlets" : 1,
									"outlettype" : [ "" ],
									"fontsize" : 11.0
								}

							}
, 							{
								"box" : 								{
									"maxclass" : "comment",
									"text" : "CtlNo",
									"patching_rect" : [ 61.081085, 145.890518, 40.0, 20.0 ],
									"id" : "obj-14",
									"numinlets" : 1,
									"fontname" : "Verdana",
									"numoutlets" : 0,
									"fontsize" : 11.0
								}

							}
, 							{
								"box" : 								{
									"maxclass" : "number",
									"bgcolor" : [ 0.866667, 0.866667, 0.866667, 1.0 ],
									"triscale" : 0.9,
									"htextcolor" : [ 0.870588, 0.870588, 0.870588, 1.0 ],
									"patching_rect" : [ 99.714294, 119.116791, 37.0, 20.0 ],
									"id" : "obj-13",
									"numinlets" : 1,
									"fontname" : "Verdana",
									"numoutlets" : 2,
									"outlettype" : [ "int", "bang" ],
									"fontsize" : 11.0
								}

							}
, 							{
								"box" : 								{
									"maxclass" : "comment",
									"text" : "Patcher No.",
									"patching_rect" : [ 128.714294, 145.890518, 73.0, 20.0 ],
									"id" : "obj-2",
									"numinlets" : 1,
									"fontname" : "Verdana",
									"numoutlets" : 0,
									"fontsize" : 11.0
								}

							}
, 							{
								"box" : 								{
									"maxclass" : "number",
									"bgcolor" : [ 0.866667, 0.866667, 0.866667, 1.0 ],
									"triscale" : 0.9,
									"htextcolor" : [ 0.870588, 0.870588, 0.870588, 1.0 ],
									"patching_rect" : [ 146.714294, 119.116791, 37.0, 20.0 ],
									"id" : "obj-4",
									"numinlets" : 1,
									"fontname" : "Verdana",
									"numoutlets" : 2,
									"outlettype" : [ "int", "bang" ],
									"fontsize" : 11.0
								}

							}
, 							{
								"box" : 								{
									"maxclass" : "number",
									"bgcolor" : [ 0.866667, 0.866667, 0.866667, 1.0 ],
									"triscale" : 0.9,
									"htextcolor" : [ 0.870588, 0.870588, 0.870588, 1.0 ],
									"patching_rect" : [ 59.85714, 119.116791, 37.0, 20.0 ],
									"id" : "obj-5",
									"numinlets" : 1,
									"fontname" : "Verdana",
									"numoutlets" : 2,
									"outlettype" : [ "int", "bang" ],
									"fontsize" : 11.0
								}

							}
, 							{
								"box" : 								{
									"maxclass" : "newobj",
									"text" : "ctl.in 32+ 1",
									"patching_rect" : [ 207.505798, 90.905113, 82.0, 20.0 ],
									"id" : "obj-6",
									"numinlets" : 3,
									"fontname" : "Verdana",
									"numoutlets" : 5,
									"outlettype" : [ "", "", "", "", "" ],
									"fontsize" : 11.0
								}

							}
, 							{
								"box" : 								{
									"maxclass" : "newobj",
									"text" : "ctl.in 0+",
									"patching_rect" : [ 31.0, 90.905113, 135.0, 20.0 ],
									"id" : "obj-7",
									"numinlets" : 3,
									"fontname" : "Verdana",
									"numoutlets" : 5,
									"outlettype" : [ "", "", "", "", "" ],
									"fontsize" : 11.0
								}

							}
, 							{
								"box" : 								{
									"maxclass" : "outlet",
									"patching_rect" : [ 31.0, 119.116791, 20.0, 20.0 ],
									"id" : "obj-8",
									"numinlets" : 1,
									"numoutlets" : 0,
									"comment" : ""
								}

							}
, 							{
								"box" : 								{
									"maxclass" : "outlet",
									"patching_rect" : [ 207.505798, 116.116791, 20.0, 20.0 ],
									"id" : "obj-9",
									"numinlets" : 1,
									"numoutlets" : 0,
									"comment" : ""
								}

							}
, 							{
								"box" : 								{
									"maxclass" : "comment",
									"text" : "Ch",
									"patching_rect" : [ 103.081085, 145.890518, 25.0, 20.0 ],
									"id" : "obj-10",
									"numinlets" : 1,
									"fontname" : "Verdana",
									"numoutlets" : 0,
									"fontsize" : 11.0
								}

							}
, 							{
								"box" : 								{
									"maxclass" : "comment",
									"text" : "If you use a x+ notation the resulting number is composed out of the argument + patcher number. If you want patcher number 1 to listen to controller number 0, you'd need -1+ as argument...",
									"linecount" : 3,
									"patching_rect" : [ 31.0, 21.0, 398.0, 47.0 ],
									"id" : "obj-11",
									"numinlets" : 1,
									"fontname" : "Verdana",
									"numoutlets" : 0,
									"fontsize" : 11.0
								}

							}
 ],
						"lines" : [ 							{
								"patchline" : 								{
									"source" : [ "obj-1", 0 ],
									"destination" : [ "obj-17", 0 ],
									"hidden" : 0,
									"midpoints" : [  ]
								}

							}
, 							{
								"patchline" : 								{
									"source" : [ "obj-1", 1 ],
									"destination" : [ "obj-19", 0 ],
									"hidden" : 0,
									"midpoints" : [  ]
								}

							}
, 							{
								"patchline" : 								{
									"source" : [ "obj-6", 0 ],
									"destination" : [ "obj-9", 0 ],
									"hidden" : 0,
									"midpoints" : [  ]
								}

							}
, 							{
								"patchline" : 								{
									"source" : [ "obj-7", 3 ],
									"destination" : [ "obj-3", 1 ],
									"hidden" : 0,
									"midpoints" : [ 127.5, 115.0, 199.5, 115.0 ]
								}

							}
, 							{
								"patchline" : 								{
									"source" : [ "obj-7", 4 ],
									"destination" : [ "obj-4", 0 ],
									"hidden" : 0,
									"midpoints" : [  ]
								}

							}
, 							{
								"patchline" : 								{
									"source" : [ "obj-7", 2 ],
									"destination" : [ "obj-13", 0 ],
									"hidden" : 0,
									"midpoints" : [  ]
								}

							}
, 							{
								"patchline" : 								{
									"source" : [ "obj-7", 0 ],
									"destination" : [ "obj-8", 0 ],
									"hidden" : 0,
									"midpoints" : [  ]
								}

							}
, 							{
								"patchline" : 								{
									"source" : [ "obj-7", 1 ],
									"destination" : [ "obj-5", 0 ],
									"hidden" : 0,
									"midpoints" : [  ]
								}

							}
 ]
					}
,
					"saved_object_attributes" : 					{
						"default_fontsize" : 11.0,
						"fontname" : "Verdana",
						"default_fontface" : 0,
						"globalpatchername" : "",
						"default_fontname" : "Verdana",
						"fontface" : 0,
						"fontsize" : 11.0
					}

				}

			}
, 			{
				"box" : 				{
					"maxclass" : "slider",
					"size" : 169.0,
					"patching_rect" : [ 298.0, 234.0, 23.0, 73.0 ],
					"id" : "obj-33",
					"numinlets" : 1,
					"orientation" : 2,
					"numoutlets" : 1,
					"outlettype" : [ "" ]
				}

			}
, 			{
				"box" : 				{
					"maxclass" : "slider",
					"size" : 169.0,
					"patching_rect" : [ 217.0, 234.0, 23.0, 73.0 ],
					"id" : "obj-34",
					"numinlets" : 1,
					"orientation" : 2,
					"numoutlets" : 1,
					"outlettype" : [ "" ]
				}

			}
, 			{
				"box" : 				{
					"maxclass" : "slider",
					"size" : 169.0,
					"patching_rect" : [ 99.0, 233.0, 23.0, 73.0 ],
					"id" : "obj-29",
					"numinlets" : 1,
					"orientation" : 2,
					"numoutlets" : 1,
					"outlettype" : [ "" ]
				}

			}
, 			{
				"box" : 				{
					"maxclass" : "comment",
					"text" : "Attention, the behavior has changed compared to earlier versions",
					"linecount" : 3,
					"patching_rect" : [ 338.0, 303.0, 144.0, 47.0 ],
					"id" : "obj-28",
					"numinlets" : 1,
					"fontname" : "Verdana",
					"numoutlets" : 0,
					"fontsize" : 11.0
				}

			}
, 			{
				"box" : 				{
					"maxclass" : "flonum",
					"bgcolor" : [ 0.866667, 0.866667, 0.866667, 1.0 ],
					"triscale" : 0.9,
					"htextcolor" : [ 0.870588, 0.870588, 0.870588, 1.0 ],
					"patching_rect" : [ 7.0, 233.0, 48.0, 20.0 ],
					"id" : "obj-2",
					"numinlets" : 1,
					"fontname" : "Verdana",
					"numoutlets" : 2,
					"outlettype" : [ "float", "bang" ],
					"fontsize" : 11.0
				}

			}
, 			{
				"box" : 				{
					"maxclass" : "newobj",
					"text" : "ST.MidiInport IAC",
					"patching_rect" : [ 29.0, 4.0, 109.0, 20.0 ],
					"hidden" : 1,
					"id" : "obj-3",
					"numinlets" : 1,
					"fontname" : "Verdana",
					"numoutlets" : 3,
					"outlettype" : [ "", "", "int" ],
					"fontsize" : 11.0
				}

			}
, 			{
				"box" : 				{
					"maxclass" : "umenu",
					"items" : [ "IAC Driver Bus 1", ",", "to MaxMSP 1", ",", "to MaxMSP 2" ],
					"types" : [  ],
					"patching_rect" : [ 29.0, 27.0, 90.0, 20.0 ],
					"id" : "obj-4",
					"numinlets" : 1,
					"fontname" : "Verdana",
					"numoutlets" : 3,
					"outlettype" : [ "int", "", "" ],
					"fontsize" : 11.0
				}

			}
, 			{
				"box" : 				{
					"maxclass" : "number",
					"bgcolor" : [ 0.866667, 0.866667, 0.866667, 1.0 ],
					"triscale" : 0.9,
					"htextcolor" : [ 0.870588, 0.870588, 0.870588, 1.0 ],
					"patching_rect" : [ 605.0, 58.0, 37.0, 20.0 ],
					"id" : "obj-5",
					"numinlets" : 1,
					"fontname" : "Verdana",
					"minimum" : 0,
					"numoutlets" : 2,
					"maximum" : 32,
					"outlettype" : [ "int", "bang" ],
					"fontsize" : 11.0
				}

			}
, 			{
				"box" : 				{
					"maxclass" : "number",
					"bgcolor" : [ 0.866667, 0.866667, 0.866667, 1.0 ],
					"triscale" : 0.9,
					"htextcolor" : [ 0.870588, 0.870588, 0.870588, 1.0 ],
					"patching_rect" : [ 552.0, 58.0, 37.0, 20.0 ],
					"id" : "obj-6",
					"numinlets" : 1,
					"fontname" : "Verdana",
					"minimum" : 0,
					"numoutlets" : 2,
					"maximum" : 32,
					"outlettype" : [ "int", "bang" ],
					"fontsize" : 11.0
				}

			}
, 			{
				"box" : 				{
					"maxclass" : "newobj",
					"text" : "ST.MidiOutport IAC",
					"patching_rect" : [ 551.0, 12.0, 118.0, 20.0 ],
					"hidden" : 1,
					"id" : "obj-7",
					"numinlets" : 1,
					"fontname" : "Verdana",
					"numoutlets" : 3,
					"outlettype" : [ "int", "", "int" ],
					"fontsize" : 11.0
				}

			}
, 			{
				"box" : 				{
					"maxclass" : "umenu",
					"items" : [ "AU DLS Synth 1", ",", "IAC Driver Bus 1", ",", "from MaxMSP 1", ",", "from MaxMSP 2" ],
					"types" : [  ],
					"patching_rect" : [ 551.0, 35.0, 99.0, 20.0 ],
					"id" : "obj-8",
					"numinlets" : 1,
					"fontname" : "Verdana",
					"numoutlets" : 3,
					"outlettype" : [ "int", "", "" ],
					"fontsize" : 11.0
				}

			}
, 			{
				"box" : 				{
					"maxclass" : "flonum",
					"bgcolor" : [ 0.866667, 0.866667, 0.866667, 1.0 ],
					"triscale" : 0.9,
					"htextcolor" : [ 0.870588, 0.870588, 0.870588, 1.0 ],
					"patching_rect" : [ 499.0, 58.0, 50.0, 20.0 ],
					"id" : "obj-9",
					"numinlets" : 1,
					"fontname" : "Verdana",
					"minimum" : 0.0,
					"numoutlets" : 2,
					"maximum" : 128.0,
					"outlettype" : [ "float", "bang" ],
					"fontsize" : 11.0
				}

			}
, 			{
				"box" : 				{
					"maxclass" : "newobj",
					"text" : "ctl.out 7 1",
					"patching_rect" : [ 499.0, 90.0, 125.0, 20.0 ],
					"id" : "obj-10",
					"numinlets" : 3,
					"fontname" : "Verdana",
					"numoutlets" : 0,
					"fontsize" : 11.0
				}

			}
, 			{
				"box" : 				{
					"maxclass" : "number",
					"bgcolor" : [ 0.866667, 0.866667, 0.866667, 1.0 ],
					"triscale" : 0.9,
					"htextcolor" : [ 0.870588, 0.870588, 0.870588, 1.0 ],
					"patching_rect" : [ 93.0, 54.0, 37.0, 20.0 ],
					"id" : "obj-11",
					"numinlets" : 1,
					"fontname" : "Verdana",
					"minimum" : 0,
					"numoutlets" : 2,
					"maximum" : 96,
					"outlettype" : [ "int", "bang" ],
					"fontsize" : 11.0
				}

			}
, 			{
				"box" : 				{
					"maxclass" : "number",
					"bgcolor" : [ 0.866667, 0.866667, 0.866667, 1.0 ],
					"triscale" : 0.9,
					"htextcolor" : [ 0.870588, 0.870588, 0.870588, 1.0 ],
					"patching_rect" : [ 339.0, 208.0, 37.0, 20.0 ],
					"id" : "obj-12",
					"numinlets" : 1,
					"fontname" : "Verdana",
					"minimum" : 0,
					"numoutlets" : 2,
					"maximum" : 95,
					"outlettype" : [ "int", "bang" ],
					"fontsize" : 11.0
				}

			}
, 			{
				"box" : 				{
					"maxclass" : "newobj",
					"text" : "s subpatcherbase",
					"patching_rect" : [ 339.0, 271.0, 113.0, 20.0 ],
					"id" : "obj-13",
					"numinlets" : 1,
					"fontname" : "Verdana",
					"numoutlets" : 0,
					"fontsize" : 11.0
				}

			}
, 			{
				"box" : 				{
					"maxclass" : "number",
					"bgcolor" : [ 0.866667, 0.866667, 0.866667, 1.0 ],
					"triscale" : 0.9,
					"htextcolor" : [ 0.870588, 0.870588, 0.870588, 1.0 ],
					"patching_rect" : [ 55.0, 54.0, 37.0, 20.0 ],
					"id" : "obj-14",
					"numinlets" : 1,
					"fontname" : "Verdana",
					"minimum" : 0,
					"numoutlets" : 2,
					"maximum" : 96,
					"outlettype" : [ "int", "bang" ],
					"fontsize" : 11.0
				}

			}
, 			{
				"box" : 				{
					"maxclass" : "comment",
					"text" : "change the controler number / Midi channel",
					"patching_rect" : [ 132.0, 53.0, 251.0, 20.0 ],
					"id" : "obj-15",
					"numinlets" : 1,
					"fontname" : "Verdana",
					"numoutlets" : 0,
					"fontsize" : 11.0
				}

			}
, 			{
				"box" : 				{
					"maxclass" : "flonum",
					"bgcolor" : [ 0.866667, 0.866667, 0.866667, 1.0 ],
					"triscale" : 0.9,
					"htextcolor" : [ 0.870588, 0.870588, 0.870588, 1.0 ],
					"patching_rect" : [ 30.0, 105.0, 50.0, 20.0 ],
					"id" : "obj-16",
					"numinlets" : 1,
					"fontname" : "Verdana",
					"numoutlets" : 2,
					"outlettype" : [ "float", "bang" ],
					"fontsize" : 11.0
				}

			}
, 			{
				"box" : 				{
					"maxclass" : "newobj",
					"text" : "ctl.in 7 1",
					"patching_rect" : [ 30.0, 81.0, 82.0, 20.0 ],
					"id" : "obj-17",
					"numinlets" : 3,
					"fontname" : "Verdana",
					"numoutlets" : 5,
					"outlettype" : [ "", "", "", "", "" ],
					"fontsize" : 11.0
				}

			}
, 			{
				"box" : 				{
					"maxclass" : "newobj",
					"varname" : "subpatcher[1]",
					"text" : "p subpatcher[1]",
					"patching_rect" : [ 58.0, 207.0, 100.0, 20.0 ],
					"id" : "obj-21",
					"numinlets" : 0,
					"fontname" : "Verdana",
					"numoutlets" : 3,
					"outlettype" : [ "", "", "" ],
					"fontsize" : 11.0,
					"patcher" : 					{
						"fileversion" : 1,
						"rect" : [ 13.0, 450.0, 449.0, 260.0 ],
						"bglocked" : 0,
						"defrect" : [ 13.0, 450.0, 449.0, 260.0 ],
						"openrect" : [ 0.0, 0.0, 0.0, 0.0 ],
						"openinpresentation" : 0,
						"default_fontsize" : 11.0,
						"default_fontface" : 0,
						"default_fontname" : "Verdana",
						"gridonopen" : 0,
						"gridsize" : [ 15.0, 15.0 ],
						"gridsnaponopen" : 0,
						"toolbarvisible" : 1,
						"boxanimatetime" : 200,
						"imprint" : 0,
						"visible" : 1,
						"boxes" : [ 							{
								"box" : 								{
									"maxclass" : "comment",
									"text" : "CtlNo",
									"patching_rect" : [ 314.081085, 142.890518, 40.0, 20.0 ],
									"id" : "obj-18",
									"numinlets" : 1,
									"fontname" : "Verdana",
									"numoutlets" : 0,
									"fontsize" : 11.0
								}

							}
, 							{
								"box" : 								{
									"maxclass" : "number",
									"bgcolor" : [ 0.866667, 0.866667, 0.866667, 1.0 ],
									"triscale" : 0.9,
									"htextcolor" : [ 0.870588, 0.870588, 0.870588, 1.0 ],
									"patching_rect" : [ 314.857147, 116.116791, 37.0, 20.0 ],
									"id" : "obj-19",
									"numinlets" : 1,
									"fontname" : "Verdana",
									"numoutlets" : 2,
									"outlettype" : [ "int", "bang" ],
									"fontsize" : 11.0
								}

							}
, 							{
								"box" : 								{
									"maxclass" : "outlet",
									"patching_rect" : [ 292.505798, 116.116791, 20.0, 20.0 ],
									"id" : "obj-17",
									"numinlets" : 1,
									"numoutlets" : 0,
									"comment" : ""
								}

							}
, 							{
								"box" : 								{
									"maxclass" : "newobj",
									"text" : "ctl.in 7 0+",
									"patching_rect" : [ 292.505798, 90.905113, 110.0, 20.0 ],
									"id" : "obj-1",
									"numinlets" : 3,
									"fontname" : "Verdana",
									"numoutlets" : 5,
									"outlettype" : [ "", "", "", "", "" ],
									"fontsize" : 11.0
								}

							}
, 							{
								"box" : 								{
									"maxclass" : "comment",
									"text" : "port",
									"patching_rect" : [ 212.0, 168.0, 38.0, 20.0 ],
									"id" : "obj-16",
									"numinlets" : 1,
									"fontname" : "Verdana",
									"numoutlets" : 0,
									"fontsize" : 11.0
								}

							}
, 							{
								"box" : 								{
									"maxclass" : "message",
									"patching_rect" : [ 27.0, 169.0, 182.0, 18.0 ],
									"id" : "obj-3",
									"numinlets" : 2,
									"fontname" : "Verdana",
									"numoutlets" : 1,
									"outlettype" : [ "" ],
									"fontsize" : 11.0
								}

							}
, 							{
								"box" : 								{
									"maxclass" : "comment",
									"text" : "CtlNo",
									"patching_rect" : [ 61.081085, 145.890518, 40.0, 20.0 ],
									"id" : "obj-14",
									"numinlets" : 1,
									"fontname" : "Verdana",
									"numoutlets" : 0,
									"fontsize" : 11.0
								}

							}
, 							{
								"box" : 								{
									"maxclass" : "number",
									"bgcolor" : [ 0.866667, 0.866667, 0.866667, 1.0 ],
									"triscale" : 0.9,
									"htextcolor" : [ 0.870588, 0.870588, 0.870588, 1.0 ],
									"patching_rect" : [ 99.714294, 119.116791, 37.0, 20.0 ],
									"id" : "obj-13",
									"numinlets" : 1,
									"fontname" : "Verdana",
									"numoutlets" : 2,
									"outlettype" : [ "int", "bang" ],
									"fontsize" : 11.0
								}

							}
, 							{
								"box" : 								{
									"maxclass" : "comment",
									"text" : "Patcher No.",
									"patching_rect" : [ 128.714294, 145.890518, 73.0, 20.0 ],
									"id" : "obj-2",
									"numinlets" : 1,
									"fontname" : "Verdana",
									"numoutlets" : 0,
									"fontsize" : 11.0
								}

							}
, 							{
								"box" : 								{
									"maxclass" : "number",
									"bgcolor" : [ 0.866667, 0.866667, 0.866667, 1.0 ],
									"triscale" : 0.9,
									"htextcolor" : [ 0.870588, 0.870588, 0.870588, 1.0 ],
									"patching_rect" : [ 146.714294, 119.116791, 37.0, 20.0 ],
									"id" : "obj-4",
									"numinlets" : 1,
									"fontname" : "Verdana",
									"numoutlets" : 2,
									"outlettype" : [ "int", "bang" ],
									"fontsize" : 11.0
								}

							}
, 							{
								"box" : 								{
									"maxclass" : "number",
									"bgcolor" : [ 0.866667, 0.866667, 0.866667, 1.0 ],
									"triscale" : 0.9,
									"htextcolor" : [ 0.870588, 0.870588, 0.870588, 1.0 ],
									"patching_rect" : [ 59.85714, 119.116791, 37.0, 20.0 ],
									"id" : "obj-5",
									"numinlets" : 1,
									"fontname" : "Verdana",
									"numoutlets" : 2,
									"outlettype" : [ "int", "bang" ],
									"fontsize" : 11.0
								}

							}
, 							{
								"box" : 								{
									"maxclass" : "newobj",
									"text" : "ctl.in 32+ 1",
									"patching_rect" : [ 207.505798, 90.905113, 82.0, 20.0 ],
									"id" : "obj-6",
									"numinlets" : 3,
									"fontname" : "Verdana",
									"numoutlets" : 5,
									"outlettype" : [ "", "", "", "", "" ],
									"fontsize" : 11.0
								}

							}
, 							{
								"box" : 								{
									"maxclass" : "newobj",
									"text" : "ctl.in 0+",
									"patching_rect" : [ 31.0, 90.905113, 135.0, 20.0 ],
									"id" : "obj-7",
									"numinlets" : 3,
									"fontname" : "Verdana",
									"numoutlets" : 5,
									"outlettype" : [ "", "", "", "", "" ],
									"fontsize" : 11.0
								}

							}
, 							{
								"box" : 								{
									"maxclass" : "outlet",
									"patching_rect" : [ 31.0, 119.116791, 20.0, 20.0 ],
									"id" : "obj-8",
									"numinlets" : 1,
									"numoutlets" : 0,
									"comment" : ""
								}

							}
, 							{
								"box" : 								{
									"maxclass" : "outlet",
									"patching_rect" : [ 207.505798, 116.116791, 20.0, 20.0 ],
									"id" : "obj-9",
									"numinlets" : 1,
									"numoutlets" : 0,
									"comment" : ""
								}

							}
, 							{
								"box" : 								{
									"maxclass" : "comment",
									"text" : "Ch",
									"patching_rect" : [ 103.081085, 145.890518, 25.0, 20.0 ],
									"id" : "obj-10",
									"numinlets" : 1,
									"fontname" : "Verdana",
									"numoutlets" : 0,
									"fontsize" : 11.0
								}

							}
, 							{
								"box" : 								{
									"maxclass" : "comment",
									"text" : "If you use a x+ notation the resulting number is composed out of the argument + patcher number. If you want patcher number 1 to listen to controller number 0, you'd need -1+ as argument...",
									"linecount" : 3,
									"patching_rect" : [ 31.0, 21.0, 398.0, 47.0 ],
									"id" : "obj-11",
									"numinlets" : 1,
									"fontname" : "Verdana",
									"numoutlets" : 0,
									"fontsize" : 11.0
								}

							}
 ],
						"lines" : [ 							{
								"patchline" : 								{
									"source" : [ "obj-1", 1 ],
									"destination" : [ "obj-19", 0 ],
									"hidden" : 0,
									"midpoints" : [  ]
								}

							}
, 							{
								"patchline" : 								{
									"source" : [ "obj-1", 0 ],
									"destination" : [ "obj-17", 0 ],
									"hidden" : 0,
									"midpoints" : [  ]
								}

							}
, 							{
								"patchline" : 								{
									"source" : [ "obj-6", 0 ],
									"destination" : [ "obj-9", 0 ],
									"hidden" : 0,
									"midpoints" : [  ]
								}

							}
, 							{
								"patchline" : 								{
									"source" : [ "obj-7", 1 ],
									"destination" : [ "obj-5", 0 ],
									"hidden" : 0,
									"midpoints" : [  ]
								}

							}
, 							{
								"patchline" : 								{
									"source" : [ "obj-7", 0 ],
									"destination" : [ "obj-8", 0 ],
									"hidden" : 0,
									"midpoints" : [  ]
								}

							}
, 							{
								"patchline" : 								{
									"source" : [ "obj-7", 2 ],
									"destination" : [ "obj-13", 0 ],
									"hidden" : 0,
									"midpoints" : [  ]
								}

							}
, 							{
								"patchline" : 								{
									"source" : [ "obj-7", 4 ],
									"destination" : [ "obj-4", 0 ],
									"hidden" : 0,
									"midpoints" : [  ]
								}

							}
, 							{
								"patchline" : 								{
									"source" : [ "obj-7", 3 ],
									"destination" : [ "obj-3", 1 ],
									"hidden" : 0,
									"midpoints" : [ 127.5, 115.0, 199.5, 115.0 ]
								}

							}
 ]
					}
,
					"saved_object_attributes" : 					{
						"default_fontsize" : 11.0,
						"fontname" : "Verdana",
						"default_fontface" : 0,
						"globalpatchername" : "",
						"default_fontname" : "Verdana",
						"fontface" : 0,
						"fontsize" : 11.0
					}

				}

			}
, 			{
				"box" : 				{
					"maxclass" : "slider",
					"size" : 169.0,
					"patching_rect" : [ 139.0, 233.0, 23.0, 73.0 ],
					"id" : "obj-22",
					"numinlets" : 1,
					"orientation" : 2,
					"numoutlets" : 1,
					"outlettype" : [ "" ]
				}

			}
, 			{
				"box" : 				{
					"maxclass" : "slider",
					"size" : 169.0,
					"patching_rect" : [ 58.0, 233.0, 23.0, 73.0 ],
					"id" : "obj-23",
					"numinlets" : 1,
					"orientation" : 2,
					"numoutlets" : 1,
					"outlettype" : [ "" ]
				}

			}
, 			{
				"box" : 				{
					"maxclass" : "comment",
					"text" : "inside the named subpatchers the ctl.in can listen to a controler number + patcher name number. The name has to be like \"name[xx]\"\rYou can switch off the higher than 7-bit resolution with an @14bit 0 attribute....",
					"linecount" : 3,
					"patching_rect" : [ 45.0, 151.0, 488.0, 47.0 ],
					"id" : "obj-24",
					"numinlets" : 1,
					"fontname" : "Verdana",
					"numoutlets" : 0,
					"fontsize" : 11.0
				}

			}
, 			{
				"box" : 				{
					"maxclass" : "comment",
					"text" : "ctl.in will listen to up to 14-bit precision Midi controlers. It will output them as a float between 0. and 128. And thus can directly replace a ctlin...\nthe outlets though remain fix, a fourth will tell you which port is firering...",
					"linecount" : 5,
					"patching_rect" : [ 132.0, 73.0, 321.0, 73.0 ],
					"id" : "obj-25",
					"numinlets" : 1,
					"fontname" : "Verdana",
					"numoutlets" : 0,
					"fontsize" : 11.0
				}

			}
, 			{
				"box" : 				{
					"maxclass" : "comment",
					"text" : "you can change the offset for the controller number for a complete subpatcher class",
					"linecount" : 4,
					"patching_rect" : [ 378.0, 208.0, 151.0, 60.0 ],
					"id" : "obj-26",
					"numinlets" : 1,
					"fontname" : "Verdana",
					"numoutlets" : 0,
					"fontsize" : 11.0
				}

			}
 ],
		"lines" : [ 			{
				"patchline" : 				{
					"source" : [ "obj-46", 0 ],
					"destination" : [ "obj-45", 0 ],
					"hidden" : 0,
					"midpoints" : [  ]
				}

			}
, 			{
				"patchline" : 				{
					"source" : [ "obj-46", 1 ],
					"destination" : [ "obj-44", 0 ],
					"hidden" : 0,
					"midpoints" : [  ]
				}

			}
, 			{
				"patchline" : 				{
					"source" : [ "obj-46", 2 ],
					"destination" : [ "obj-43", 0 ],
					"hidden" : 0,
					"midpoints" : [  ]
				}

			}
, 			{
				"patchline" : 				{
					"source" : [ "obj-46", 3 ],
					"destination" : [ "obj-42", 1 ],
					"hidden" : 0,
					"midpoints" : [ 746.75, 267.0, 769.5, 267.0 ]
				}

			}
, 			{
				"patchline" : 				{
					"source" : [ "obj-1", 4 ],
					"destination" : [ "obj-46", 0 ],
					"hidden" : 0,
					"midpoints" : [  ]
				}

			}
, 			{
				"patchline" : 				{
					"source" : [ "obj-1", 3 ],
					"destination" : [ "obj-38", 1 ],
					"hidden" : 0,
					"midpoints" : [ 607.75, 267.0, 630.5, 267.0 ]
				}

			}
, 			{
				"patchline" : 				{
					"source" : [ "obj-1", 2 ],
					"destination" : [ "obj-36", 0 ],
					"hidden" : 0,
					"midpoints" : [  ]
				}

			}
, 			{
				"patchline" : 				{
					"source" : [ "obj-1", 1 ],
					"destination" : [ "obj-35", 0 ],
					"hidden" : 0,
					"midpoints" : [  ]
				}

			}
, 			{
				"patchline" : 				{
					"source" : [ "obj-1", 0 ],
					"destination" : [ "obj-20", 0 ],
					"hidden" : 0,
					"midpoints" : [  ]
				}

			}
, 			{
				"patchline" : 				{
					"source" : [ "obj-19", 0 ],
					"destination" : [ "obj-1", 0 ],
					"hidden" : 0,
					"midpoints" : [  ]
				}

			}
, 			{
				"patchline" : 				{
					"source" : [ "obj-27", 0 ],
					"destination" : [ "obj-1", 0 ],
					"hidden" : 0,
					"midpoints" : [ 575.5, 234.0, 533.5, 234.0 ]
				}

			}
, 			{
				"patchline" : 				{
					"source" : [ "obj-11", 0 ],
					"destination" : [ "obj-17", 2 ],
					"hidden" : 0,
					"midpoints" : [  ]
				}

			}
, 			{
				"patchline" : 				{
					"source" : [ "obj-14", 0 ],
					"destination" : [ "obj-17", 1 ],
					"hidden" : 0,
					"midpoints" : [  ]
				}

			}
, 			{
				"patchline" : 				{
					"source" : [ "obj-17", 0 ],
					"destination" : [ "obj-16", 0 ],
					"hidden" : 0,
					"midpoints" : [  ]
				}

			}
, 			{
				"patchline" : 				{
					"source" : [ "obj-4", 1 ],
					"destination" : [ "obj-17", 0 ],
					"hidden" : 0,
					"midpoints" : [ 74.0, 50.0, 39.5, 50.0 ]
				}

			}
, 			{
				"patchline" : 				{
					"source" : [ "obj-32", 1 ],
					"destination" : [ "obj-30", 0 ],
					"hidden" : 0,
					"midpoints" : [  ]
				}

			}
, 			{
				"patchline" : 				{
					"source" : [ "obj-32", 2 ],
					"destination" : [ "obj-33", 0 ],
					"hidden" : 0,
					"midpoints" : [  ]
				}

			}
, 			{
				"patchline" : 				{
					"source" : [ "obj-32", 0 ],
					"destination" : [ "obj-31", 0 ],
					"hidden" : 0,
					"midpoints" : [  ]
				}

			}
, 			{
				"patchline" : 				{
					"source" : [ "obj-32", 0 ],
					"destination" : [ "obj-34", 0 ],
					"hidden" : 0,
					"midpoints" : [  ]
				}

			}
, 			{
				"patchline" : 				{
					"source" : [ "obj-21", 1 ],
					"destination" : [ "obj-29", 0 ],
					"hidden" : 0,
					"midpoints" : [  ]
				}

			}
, 			{
				"patchline" : 				{
					"source" : [ "obj-21", 2 ],
					"destination" : [ "obj-22", 0 ],
					"hidden" : 0,
					"midpoints" : [  ]
				}

			}
, 			{
				"patchline" : 				{
					"source" : [ "obj-5", 0 ],
					"destination" : [ "obj-10", 2 ],
					"hidden" : 0,
					"midpoints" : [  ]
				}

			}
, 			{
				"patchline" : 				{
					"source" : [ "obj-7", 0 ],
					"destination" : [ "obj-8", 0 ],
					"hidden" : 1,
					"midpoints" : [  ]
				}

			}
, 			{
				"patchline" : 				{
					"source" : [ "obj-6", 0 ],
					"destination" : [ "obj-10", 1 ],
					"hidden" : 0,
					"midpoints" : [  ]
				}

			}
, 			{
				"patchline" : 				{
					"source" : [ "obj-9", 0 ],
					"destination" : [ "obj-10", 0 ],
					"hidden" : 0,
					"midpoints" : [  ]
				}

			}
, 			{
				"patchline" : 				{
					"source" : [ "obj-8", 1 ],
					"destination" : [ "obj-10", 0 ],
					"hidden" : 0,
					"midpoints" : [ 600.5, 82.0, 508.5, 82.0 ]
				}

			}
, 			{
				"patchline" : 				{
					"source" : [ "obj-12", 0 ],
					"destination" : [ "obj-13", 0 ],
					"hidden" : 0,
					"midpoints" : [  ]
				}

			}
, 			{
				"patchline" : 				{
					"source" : [ "obj-21", 0 ],
					"destination" : [ "obj-2", 0 ],
					"hidden" : 0,
					"midpoints" : [  ]
				}

			}
, 			{
				"patchline" : 				{
					"source" : [ "obj-21", 0 ],
					"destination" : [ "obj-23", 0 ],
					"hidden" : 0,
					"midpoints" : [  ]
				}

			}
, 			{
				"patchline" : 				{
					"source" : [ "obj-3", 0 ],
					"destination" : [ "obj-4", 0 ],
					"hidden" : 1,
					"midpoints" : [  ]
				}

			}
 ]
	}

}
