{
	"patcher" : 	{
		"fileversion" : 1,
		"rect" : [ 20.0, 74.0, 633.0, 334.0 ],
		"bglocked" : 1,
		"defrect" : [ 20.0, 74.0, 633.0, 334.0 ],
		"openrect" : [ 0.0, 0.0, 0.0, 0.0 ],
		"openinpresentation" : 0,
		"default_fontsize" : 11.0,
		"default_fontface" : 0,
		"default_fontname" : "Verdana",
		"gridonopen" : 0,
		"gridsize" : [ 15.0, 15.0 ],
		"gridsnaponopen" : 0,
		"toolbarvisible" : 1,
		"boxanimatetime" : 200,
		"imprint" : 0,
		"metadata" : [  ],
		"boxes" : [ 			{
				"box" : 				{
					"maxclass" : "comment",
					"text" : "ms",
					"fontname" : "Verdana",
					"patching_rect" : [ 168.515717, 69.262299, 27.0, 20.0 ],
					"fontsize" : 11.0,
					"id" : "obj-1",
					"numinlets" : 1,
					"numoutlets" : 0
				}

			}
, 			{
				"box" : 				{
					"maxclass" : "button",
					"outlettype" : [ "bang" ],
					"patching_rect" : [ 107.84906, 119.786888, 15.0, 15.0 ],
					"id" : "obj-2",
					"numinlets" : 1,
					"numoutlets" : 1
				}

			}
, 			{
				"box" : 				{
					"maxclass" : "newobj",
					"text" : "t set",
					"outlettype" : [ "set" ],
					"hidden" : 1,
					"fontname" : "Verdana",
					"patching_rect" : [ 207.157227, 173.967209, 37.0, 20.0 ],
					"fontsize" : 11.0,
					"id" : "obj-3",
					"numinlets" : 1,
					"numoutlets" : 1
				}

			}
, 			{
				"box" : 				{
					"maxclass" : "newobj",
					"text" : "loadmess 50",
					"outlettype" : [ "" ],
					"hidden" : 1,
					"fontname" : "Verdana",
					"patching_rect" : [ 127.308182, 44.0, 80.0, 20.0 ],
					"fontsize" : 11.0,
					"id" : "obj-4",
					"numinlets" : 1,
					"numoutlets" : 1
				}

			}
, 			{
				"box" : 				{
					"maxclass" : "number",
					"minimum" : 10,
					"outlettype" : [ "int", "bang" ],
					"fontname" : "Verdana",
					"triscale" : 0.9,
					"htextcolor" : [ 0.870588, 0.870588, 0.870588, 1.0 ],
					"patching_rect" : [ 127.308182, 67.065575, 38.0, 20.0 ],
					"fontsize" : 11.0,
					"id" : "obj-5",
					"bgcolor" : [ 0.866667, 0.866667, 0.866667, 1.0 ],
					"numinlets" : 1,
					"numoutlets" : 2
				}

			}
, 			{
				"box" : 				{
					"maxclass" : "newobj",
					"text" : "loadmess 1",
					"outlettype" : [ "" ],
					"hidden" : 1,
					"fontname" : "Verdana",
					"patching_rect" : [ 22.0, 44.0, 71.0, 20.0 ],
					"fontsize" : 11.0,
					"id" : "obj-6",
					"numinlets" : 1,
					"numoutlets" : 1
				}

			}
, 			{
				"box" : 				{
					"maxclass" : "toggle",
					"outlettype" : [ "int" ],
					"patching_rect" : [ 22.0, 67.065575, 20.0, 20.0 ],
					"id" : "obj-7",
					"numinlets" : 1,
					"numoutlets" : 1
				}

			}
, 			{
				"box" : 				{
					"maxclass" : "newobj",
					"text" : "p create data to test",
					"outlettype" : [ "int", "int" ],
					"fontname" : "Verdana",
					"patching_rect" : [ 22.0, 91.229507, 124.0, 20.0 ],
					"fontsize" : 11.0,
					"id" : "obj-8",
					"numinlets" : 2,
					"numoutlets" : 2,
					"patcher" : 					{
						"fileversion" : 1,
						"rect" : [ 258.0, 352.0, 384.0, 356.0 ],
						"bglocked" : 0,
						"defrect" : [ 258.0, 352.0, 384.0, 356.0 ],
						"openrect" : [ 0.0, 0.0, 0.0, 0.0 ],
						"openinpresentation" : 0,
						"default_fontsize" : 11.0,
						"default_fontface" : 0,
						"default_fontname" : "Verdana",
						"gridonopen" : 0,
						"gridsize" : [ 15.0, 15.0 ],
						"gridsnaponopen" : 0,
						"toolbarvisible" : 1,
						"boxanimatetime" : 200,
						"imprint" : 0,
						"metadata" : [  ],
						"boxes" : [ 							{
								"box" : 								{
									"maxclass" : "inlet",
									"outlettype" : [ "int" ],
									"patching_rect" : [ 90.0, 69.0, 15.0, 15.0 ],
									"id" : "obj-1",
									"numinlets" : 0,
									"numoutlets" : 1,
									"comment" : ""
								}

							}
, 							{
								"box" : 								{
									"maxclass" : "inlet",
									"outlettype" : [ "int" ],
									"patching_rect" : [ 50.0, 69.0, 15.0, 15.0 ],
									"id" : "obj-2",
									"numinlets" : 0,
									"numoutlets" : 1,
									"comment" : ""
								}

							}
, 							{
								"box" : 								{
									"maxclass" : "newobj",
									"text" : "loadmess scalarmode 1",
									"linecount" : 2,
									"outlettype" : [ "" ],
									"fontname" : "Verdana",
									"patching_rect" : [ 186.0, 167.0, 113.0, 28.0 ],
									"fontsize" : 9.0,
									"id" : "obj-3",
									"numinlets" : 1,
									"numoutlets" : 1
								}

							}
, 							{
								"box" : 								{
									"maxclass" : "newobj",
									"text" : "itoa",
									"outlettype" : [ "int" ],
									"fontname" : "Verdana",
									"patching_rect" : [ 126.0, 221.0, 50.0, 17.0 ],
									"fontsize" : 9.0,
									"id" : "obj-4",
									"numinlets" : 3,
									"numoutlets" : 1
								}

							}
, 							{
								"box" : 								{
									"maxclass" : "newobj",
									"text" : "vexpr $i1+ 32",
									"outlettype" : [ "" ],
									"fontname" : "Verdana",
									"patching_rect" : [ 126.0, 197.0, 87.0, 17.0 ],
									"fontsize" : 9.0,
									"id" : "obj-5",
									"numinlets" : 1,
									"numoutlets" : 1
								}

							}
, 							{
								"box" : 								{
									"maxclass" : "newobj",
									"text" : "b",
									"outlettype" : [ "bang", "bang" ],
									"fontname" : "Verdana",
									"patching_rect" : [ 115.0, 91.0, 16.0, 17.0 ],
									"fontsize" : 9.0,
									"id" : "obj-6",
									"numinlets" : 1,
									"numoutlets" : 2
								}

							}
, 							{
								"box" : 								{
									"maxclass" : "newobj",
									"text" : "itoa",
									"outlettype" : [ "int" ],
									"fontname" : "Verdana",
									"patching_rect" : [ 50.0, 221.0, 50.0, 17.0 ],
									"fontsize" : 9.0,
									"id" : "obj-7",
									"numinlets" : 3,
									"numoutlets" : 1
								}

							}
, 							{
								"box" : 								{
									"maxclass" : "newobj",
									"text" : "zl group",
									"outlettype" : [ "", "" ],
									"fontname" : "Verdana",
									"patching_rect" : [ 50.0, 164.0, 75.0, 17.0 ],
									"fontsize" : 9.0,
									"id" : "obj-8",
									"numinlets" : 2,
									"numoutlets" : 2
								}

							}
, 							{
								"box" : 								{
									"maxclass" : "newobj",
									"text" : "metro 50",
									"outlettype" : [ "bang" ],
									"fontname" : "Verdana",
									"patching_rect" : [ 50.0, 91.0, 50.0, 17.0 ],
									"fontsize" : 9.0,
									"id" : "obj-9",
									"numinlets" : 2,
									"numoutlets" : 1
								}

							}
, 							{
								"box" : 								{
									"maxclass" : "newobj",
									"text" : "+ 5",
									"outlettype" : [ "int" ],
									"fontname" : "Verdana",
									"patching_rect" : [ 115.0, 136.0, 50.0, 17.0 ],
									"fontsize" : 9.0,
									"id" : "obj-10",
									"numinlets" : 2,
									"numoutlets" : 1
								}

							}
, 							{
								"box" : 								{
									"maxclass" : "newobj",
									"text" : "+ 65",
									"outlettype" : [ "int" ],
									"fontname" : "Verdana",
									"patching_rect" : [ 50.0, 136.0, 50.0, 17.0 ],
									"fontsize" : 9.0,
									"id" : "obj-11",
									"numinlets" : 2,
									"numoutlets" : 1
								}

							}
, 							{
								"box" : 								{
									"maxclass" : "newobj",
									"text" : "random 5",
									"outlettype" : [ "int" ],
									"fontname" : "Verdana",
									"patching_rect" : [ 115.0, 113.0, 63.0, 17.0 ],
									"fontsize" : 9.0,
									"id" : "obj-12",
									"numinlets" : 2,
									"numoutlets" : 1
								}

							}
, 							{
								"box" : 								{
									"maxclass" : "newobj",
									"text" : "random 26",
									"outlettype" : [ "int" ],
									"fontname" : "Verdana",
									"patching_rect" : [ 50.0, 113.0, 63.0, 17.0 ],
									"fontsize" : 9.0,
									"id" : "obj-13",
									"numinlets" : 2,
									"numoutlets" : 1
								}

							}
, 							{
								"box" : 								{
									"maxclass" : "outlet",
									"patching_rect" : [ 50.0, 243.0, 15.0, 15.0 ],
									"id" : "obj-14",
									"numinlets" : 1,
									"numoutlets" : 0,
									"comment" : ""
								}

							}
, 							{
								"box" : 								{
									"maxclass" : "outlet",
									"patching_rect" : [ 126.0, 243.0, 15.0, 15.0 ],
									"id" : "obj-15",
									"numinlets" : 1,
									"numoutlets" : 0,
									"comment" : ""
								}

							}
 ],
						"lines" : [ 							{
								"patchline" : 								{
									"source" : [ "obj-4", 0 ],
									"destination" : [ "obj-15", 0 ],
									"hidden" : 0,
									"midpoints" : [  ]
								}

							}
, 							{
								"patchline" : 								{
									"source" : [ "obj-5", 0 ],
									"destination" : [ "obj-4", 0 ],
									"hidden" : 0,
									"midpoints" : [  ]
								}

							}
, 							{
								"patchline" : 								{
									"source" : [ "obj-3", 0 ],
									"destination" : [ "obj-5", 0 ],
									"hidden" : 0,
									"midpoints" : [ 195.5, 190.0, 135.5, 190.0 ]
								}

							}
, 							{
								"patchline" : 								{
									"source" : [ "obj-8", 0 ],
									"destination" : [ "obj-5", 0 ],
									"hidden" : 0,
									"midpoints" : [ 59.5, 190.0, 135.5, 190.0 ]
								}

							}
, 							{
								"patchline" : 								{
									"source" : [ "obj-10", 0 ],
									"destination" : [ "obj-8", 1 ],
									"hidden" : 0,
									"midpoints" : [  ]
								}

							}
, 							{
								"patchline" : 								{
									"source" : [ "obj-12", 0 ],
									"destination" : [ "obj-10", 0 ],
									"hidden" : 0,
									"midpoints" : [  ]
								}

							}
, 							{
								"patchline" : 								{
									"source" : [ "obj-6", 0 ],
									"destination" : [ "obj-12", 0 ],
									"hidden" : 0,
									"midpoints" : [  ]
								}

							}
, 							{
								"patchline" : 								{
									"source" : [ "obj-8", 0 ],
									"destination" : [ "obj-6", 0 ],
									"hidden" : 0,
									"midpoints" : [ 59.5, 186.0, 181.0, 186.0, 181.0, 86.0, 124.5, 86.0 ]
								}

							}
, 							{
								"patchline" : 								{
									"source" : [ "obj-1", 0 ],
									"destination" : [ "obj-9", 1 ],
									"hidden" : 0,
									"midpoints" : [  ]
								}

							}
, 							{
								"patchline" : 								{
									"source" : [ "obj-7", 0 ],
									"destination" : [ "obj-14", 0 ],
									"hidden" : 0,
									"midpoints" : [  ]
								}

							}
, 							{
								"patchline" : 								{
									"source" : [ "obj-8", 0 ],
									"destination" : [ "obj-7", 0 ],
									"hidden" : 0,
									"midpoints" : [  ]
								}

							}
, 							{
								"patchline" : 								{
									"source" : [ "obj-11", 0 ],
									"destination" : [ "obj-8", 0 ],
									"hidden" : 0,
									"midpoints" : [  ]
								}

							}
, 							{
								"patchline" : 								{
									"source" : [ "obj-13", 0 ],
									"destination" : [ "obj-11", 0 ],
									"hidden" : 0,
									"midpoints" : [  ]
								}

							}
, 							{
								"patchline" : 								{
									"source" : [ "obj-9", 0 ],
									"destination" : [ "obj-13", 0 ],
									"hidden" : 0,
									"midpoints" : [  ]
								}

							}
, 							{
								"patchline" : 								{
									"source" : [ "obj-2", 0 ],
									"destination" : [ "obj-9", 0 ],
									"hidden" : 0,
									"midpoints" : [  ]
								}

							}
 ]
					}
,
					"saved_object_attributes" : 					{
						"fontname" : "Verdana",
						"default_fontface" : 0,
						"default_fontname" : "Verdana",
						"fontface" : 0,
						"fontsize" : 11.0,
						"default_fontsize" : 11.0,
						"globalpatchername" : ""
					}

				}

			}
, 			{
				"box" : 				{
					"maxclass" : "message",
					"text" : "off",
					"outlettype" : [ "" ],
					"fontname" : "Verdana",
					"patching_rect" : [ 314.138367, 110.688522, 32.0, 18.0 ],
					"fontsize" : 11.0,
					"id" : "obj-9",
					"numinlets" : 2,
					"numoutlets" : 1
				}

			}
, 			{
				"box" : 				{
					"maxclass" : "toggle",
					"outlettype" : [ "int" ],
					"patching_rect" : [ 428.73584, 110.688522, 20.0, 20.0 ],
					"id" : "obj-10",
					"numinlets" : 1,
					"numoutlets" : 1
				}

			}
, 			{
				"box" : 				{
					"maxclass" : "toggle",
					"outlettype" : [ "int" ],
					"patching_rect" : [ 370.937103, 110.688522, 20.0, 20.0 ],
					"id" : "obj-11",
					"numinlets" : 1,
					"numoutlets" : 1
				}

			}
, 			{
				"box" : 				{
					"maxclass" : "message",
					"text" : "recv $1",
					"outlettype" : [ "" ],
					"fontname" : "Verdana",
					"patching_rect" : [ 428.73584, 145.049179, 54.0, 18.0 ],
					"fontsize" : 11.0,
					"id" : "obj-12",
					"numinlets" : 2,
					"numoutlets" : 1
				}

			}
, 			{
				"box" : 				{
					"maxclass" : "message",
					"text" : "print $1",
					"outlettype" : [ "" ],
					"fontname" : "Verdana",
					"patching_rect" : [ 370.937103, 145.049179, 54.0, 18.0 ],
					"fontsize" : 11.0,
					"id" : "obj-13",
					"numinlets" : 2,
					"numoutlets" : 1
				}

			}
, 			{
				"box" : 				{
					"maxclass" : "toggle",
					"outlettype" : [ "int" ],
					"patching_rect" : [ 348.477997, 110.688522, 20.0, 20.0 ],
					"id" : "obj-14",
					"numinlets" : 1,
					"numoutlets" : 1
				}

			}
, 			{
				"box" : 				{
					"maxclass" : "toggle",
					"outlettype" : [ "int" ],
					"patching_rect" : [ 291.534576, 110.688522, 20.0, 20.0 ],
					"id" : "obj-15",
					"numinlets" : 1,
					"numoutlets" : 1
				}

			}
, 			{
				"box" : 				{
					"maxclass" : "message",
					"text" : "print $1",
					"outlettype" : [ "" ],
					"fontname" : "Verdana",
					"patching_rect" : [ 291.534576, 145.049179, 54.0, 18.0 ],
					"fontsize" : 11.0,
					"id" : "obj-16",
					"numinlets" : 2,
					"numoutlets" : 1
				}

			}
, 			{
				"box" : 				{
					"maxclass" : "toggle",
					"outlettype" : [ "int" ],
					"patching_rect" : [ 268.930817, 110.688522, 20.0, 20.0 ],
					"id" : "obj-17",
					"numinlets" : 1,
					"numoutlets" : 1
				}

			}
, 			{
				"box" : 				{
					"maxclass" : "message",
					"outlettype" : [ "" ],
					"fontname" : "Verdana",
					"patching_rect" : [ 268.930817, 225.229507, 264.0, 18.0 ],
					"fontsize" : 11.0,
					"id" : "obj-18",
					"numinlets" : 2,
					"numoutlets" : 1
				}

			}
, 			{
				"box" : 				{
					"maxclass" : "newobj",
					"text" : "r demon",
					"outlettype" : [ "" ],
					"fontname" : "Verdana",
					"patching_rect" : [ 268.930817, 199.967209, 55.0, 20.0 ],
					"fontsize" : 11.0,
					"id" : "obj-19",
					"numinlets" : 0,
					"numoutlets" : 1
				}

			}
, 			{
				"box" : 				{
					"maxclass" : "newobj",
					"text" : "prepend send",
					"outlettype" : [ "" ],
					"fontname" : "Verdana",
					"patching_rect" : [ 485.534576, 143.950821, 84.0, 20.0 ],
					"fontsize" : 11.0,
					"id" : "obj-20",
					"numinlets" : 1,
					"numoutlets" : 1
				}

			}
, 			{
				"box" : 				{
					"maxclass" : "umenu",
					"outlettype" : [ "int", "", "" ],
					"fontname" : "Verdana",
					"items" : [ "testmedebug", ",", "testthatdebug" ],
					"labelclick" : 1,
					"patching_rect" : [ 463.534576, 110.688522, 106.0, 20.0 ],
					"fontsize" : 11.0,
					"id" : "obj-21",
					"numinlets" : 1,
					"types" : [  ],
					"numoutlets" : 3
				}

			}
, 			{
				"box" : 				{
					"maxclass" : "newobj",
					"text" : "forward testmedebug",
					"fontname" : "Verdana",
					"patching_rect" : [ 348.477997, 172.508194, 129.0, 20.0 ],
					"fontsize" : 11.0,
					"id" : "obj-22",
					"numinlets" : 1,
					"numoutlets" : 0
				}

			}
, 			{
				"box" : 				{
					"maxclass" : "newobj",
					"text" : "s debug",
					"fontname" : "Verdana",
					"patching_rect" : [ 268.930817, 172.508194, 55.0, 20.0 ],
					"fontsize" : 11.0,
					"id" : "obj-23",
					"numinlets" : 1,
					"numoutlets" : 0
				}

			}
, 			{
				"box" : 				{
					"maxclass" : "message",
					"outlettype" : [ "" ],
					"fontname" : "Verdana",
					"patching_rect" : [ 127.308182, 149.442627, 73.0, 18.0 ],
					"fontsize" : 11.0,
					"id" : "obj-24",
					"numinlets" : 2,
					"numoutlets" : 1
				}

			}
, 			{
				"box" : 				{
					"maxclass" : "newobj",
					"text" : "debug testthat",
					"outlettype" : [ "" ],
					"fontname" : "Verdana",
					"patching_rect" : [ 127.308182, 118.688522, 90.0, 20.0 ],
					"fontsize" : 11.0,
					"id" : "obj-25",
					"numinlets" : 2,
					"numoutlets" : 1
				}

			}
, 			{
				"box" : 				{
					"maxclass" : "newobj",
					"text" : "debug testme",
					"outlettype" : [ "" ],
					"fontname" : "Verdana",
					"patching_rect" : [ 22.0, 118.688522, 88.0, 20.0 ],
					"fontsize" : 11.0,
					"id" : "obj-26",
					"numinlets" : 2,
					"numoutlets" : 1
				}

			}
, 			{
				"box" : 				{
					"maxclass" : "comment",
					"text" : "put this in the main patcher or into a seperate patcher",
					"linecount" : 2,
					"fontname" : "Verdana",
					"patching_rect" : [ 308.18869, 52.295082, 196.0, 38.0 ],
					"fontsize" : 13.0,
					"id" : "obj-27",
					"numinlets" : 1,
					"numoutlets" : 0
				}

			}
, 			{
				"box" : 				{
					"maxclass" : "panel",
					"border" : 1,
					"patching_rect" : [ 223.0, 39.0, 360.0, 213.0 ],
					"rounded" : 10,
					"id" : "obj-28",
					"bgcolor" : [ 0.521569, 0.698039, 0.835294, 1.0 ],
					"background" : 1,
					"numinlets" : 1,
					"numoutlets" : 0
				}

			}
, 			{
				"box" : 				{
					"maxclass" : "message",
					"outlettype" : [ "" ],
					"fontname" : "Verdana",
					"patching_rect" : [ 22.0, 149.442627, 73.0, 18.0 ],
					"fontsize" : 11.0,
					"id" : "obj-29",
					"numinlets" : 2,
					"numoutlets" : 1
				}

			}
, 			{
				"box" : 				{
					"maxclass" : "comment",
					"text" : "speed:",
					"fontname" : "Verdana",
					"patching_rect" : [ 84.955978, 69.262299, 46.0, 20.0 ],
					"fontsize" : 11.0,
					"id" : "obj-30",
					"numinlets" : 1,
					"numoutlets" : 0
				}

			}
 ],
		"lines" : [ 			{
				"patchline" : 				{
					"source" : [ "obj-8", 1 ],
					"destination" : [ "obj-25", 0 ],
					"hidden" : 0,
					"midpoints" : [  ]
				}

			}
, 			{
				"patchline" : 				{
					"source" : [ "obj-25", 0 ],
					"destination" : [ "obj-24", 0 ],
					"hidden" : 0,
					"midpoints" : [  ]
				}

			}
, 			{
				"patchline" : 				{
					"source" : [ "obj-8", 0 ],
					"destination" : [ "obj-26", 0 ],
					"hidden" : 0,
					"midpoints" : [  ]
				}

			}
, 			{
				"patchline" : 				{
					"source" : [ "obj-26", 0 ],
					"destination" : [ "obj-29", 0 ],
					"hidden" : 0,
					"midpoints" : [  ]
				}

			}
, 			{
				"patchline" : 				{
					"source" : [ "obj-21", 1 ],
					"destination" : [ "obj-20", 0 ],
					"hidden" : 0,
					"midpoints" : [ 516.534546, 138.459015, 495.034576, 138.459015 ]
				}

			}
, 			{
				"patchline" : 				{
					"source" : [ "obj-10", 0 ],
					"destination" : [ "obj-12", 0 ],
					"hidden" : 0,
					"midpoints" : [  ]
				}

			}
, 			{
				"patchline" : 				{
					"source" : [ "obj-11", 0 ],
					"destination" : [ "obj-13", 0 ],
					"hidden" : 0,
					"midpoints" : [  ]
				}

			}
, 			{
				"patchline" : 				{
					"source" : [ "obj-12", 0 ],
					"destination" : [ "obj-22", 0 ],
					"hidden" : 0,
					"midpoints" : [ 438.23584, 168.114761, 357.977997, 168.114761 ]
				}

			}
, 			{
				"patchline" : 				{
					"source" : [ "obj-13", 0 ],
					"destination" : [ "obj-22", 0 ],
					"hidden" : 0,
					"midpoints" : [ 380.437103, 168.114761, 357.977997, 168.114761 ]
				}

			}
, 			{
				"patchline" : 				{
					"source" : [ "obj-14", 0 ],
					"destination" : [ "obj-22", 0 ],
					"hidden" : 0,
					"midpoints" : [  ]
				}

			}
, 			{
				"patchline" : 				{
					"source" : [ "obj-20", 0 ],
					"destination" : [ "obj-22", 0 ],
					"hidden" : 0,
					"midpoints" : [ 495.034576, 168.114761, 357.977997, 168.114761 ]
				}

			}
, 			{
				"patchline" : 				{
					"source" : [ "obj-15", 0 ],
					"destination" : [ "obj-16", 0 ],
					"hidden" : 0,
					"midpoints" : [  ]
				}

			}
, 			{
				"patchline" : 				{
					"source" : [ "obj-19", 0 ],
					"destination" : [ "obj-18", 0 ],
					"hidden" : 0,
					"midpoints" : [  ]
				}

			}
, 			{
				"patchline" : 				{
					"source" : [ "obj-3", 0 ],
					"destination" : [ "obj-18", 0 ],
					"hidden" : 1,
					"midpoints" : [  ]
				}

			}
, 			{
				"patchline" : 				{
					"source" : [ "obj-16", 0 ],
					"destination" : [ "obj-23", 0 ],
					"hidden" : 0,
					"midpoints" : [ 301.034576, 168.114761, 278.430817, 168.114761 ]
				}

			}
, 			{
				"patchline" : 				{
					"source" : [ "obj-17", 0 ],
					"destination" : [ "obj-23", 0 ],
					"hidden" : 0,
					"midpoints" : [  ]
				}

			}
, 			{
				"patchline" : 				{
					"source" : [ "obj-9", 0 ],
					"destination" : [ "obj-23", 0 ],
					"hidden" : 0,
					"midpoints" : [ 323.638367, 139.557373, 278.430817, 139.557373 ]
				}

			}
, 			{
				"patchline" : 				{
					"source" : [ "obj-9", 0 ],
					"destination" : [ "obj-3", 0 ],
					"hidden" : 1,
					"midpoints" : [ 323.638367, 139.557373, 216.657227, 139.557373 ]
				}

			}
, 			{
				"patchline" : 				{
					"source" : [ "obj-3", 0 ],
					"destination" : [ "obj-24", 0 ],
					"hidden" : 1,
					"midpoints" : [  ]
				}

			}
, 			{
				"patchline" : 				{
					"source" : [ "obj-5", 0 ],
					"destination" : [ "obj-8", 1 ],
					"hidden" : 0,
					"midpoints" : [  ]
				}

			}
, 			{
				"patchline" : 				{
					"source" : [ "obj-4", 0 ],
					"destination" : [ "obj-5", 0 ],
					"hidden" : 1,
					"midpoints" : [  ]
				}

			}
, 			{
				"patchline" : 				{
					"source" : [ "obj-8", 0 ],
					"destination" : [ "obj-2", 0 ],
					"hidden" : 0,
					"midpoints" : [ 31.5, 114.295082, 116.84906, 114.295082 ]
				}

			}
, 			{
				"patchline" : 				{
					"source" : [ "obj-3", 0 ],
					"destination" : [ "obj-29", 0 ],
					"hidden" : 1,
					"midpoints" : [  ]
				}

			}
, 			{
				"patchline" : 				{
					"source" : [ "obj-7", 0 ],
					"destination" : [ "obj-8", 0 ],
					"hidden" : 0,
					"midpoints" : [  ]
				}

			}
, 			{
				"patchline" : 				{
					"source" : [ "obj-6", 0 ],
					"destination" : [ "obj-7", 0 ],
					"hidden" : 1,
					"midpoints" : [  ]
				}

			}
 ]
	}

}
