{
	"patcher" : 	{
		"fileversion" : 1,
		"rect" : [ 30.0, 89.0, 479.0, 345.0 ],
		"bglocked" : 0,
		"defrect" : [ 30.0, 89.0, 479.0, 345.0 ],
		"openrect" : [ 0.0, 0.0, 0.0, 0.0 ],
		"openinpresentation" : 0,
		"default_fontsize" : 11.0,
		"default_fontface" : 0,
		"default_fontname" : "Verdana",
		"gridonopen" : 0,
		"gridsize" : [ 15.0, 15.0 ],
		"gridsnaponopen" : 0,
		"toolbarvisible" : 1,
		"boxanimatetime" : 200,
		"imprint" : 0,
		"metadata" : [  ],
		"boxes" : [ 			{
				"box" : 				{
					"maxclass" : "number",
					"varname" : "that",
					"fontname" : "Verdana",
					"htextcolor" : [ 0.870588, 0.870588, 0.870588, 1.0 ],
					"patching_rect" : [ 309.252441, 230.458878, 37.0, 20.0 ],
					"outlettype" : [ "int", "bang" ],
					"bgcolor" : [ 0.866667, 0.866667, 0.866667, 1.0 ],
					"fontsize" : 11.0,
					"triscale" : 0.9,
					"numinlets" : 1,
					"id" : "obj-1",
					"numoutlets" : 2
				}

			}
, 			{
				"box" : 				{
					"maxclass" : "number",
					"varname" : "this",
					"fontname" : "Verdana",
					"htextcolor" : [ 0.870588, 0.870588, 0.870588, 1.0 ],
					"patching_rect" : [ 222.035599, 230.458878, 37.0, 20.0 ],
					"outlettype" : [ "int", "bang" ],
					"bgcolor" : [ 0.866667, 0.866667, 0.866667, 1.0 ],
					"fontsize" : 11.0,
					"triscale" : 0.9,
					"numinlets" : 1,
					"id" : "obj-2",
					"numoutlets" : 2
				}

			}
, 			{
				"box" : 				{
					"maxclass" : "message",
					"text" : "controller $1",
					"fontname" : "Verdana",
					"patching_rect" : [ 255.087372, 53.627705, 84.0, 18.0 ],
					"outlettype" : [ "" ],
					"fontsize" : 11.0,
					"numinlets" : 2,
					"id" : "obj-3",
					"numoutlets" : 1
				}

			}
, 			{
				"box" : 				{
					"maxclass" : "number",
					"fontname" : "Verdana",
					"htextcolor" : [ 0.870588, 0.870588, 0.870588, 1.0 ],
					"patching_rect" : [ 255.087372, 28.0, 37.0, 20.0 ],
					"outlettype" : [ "int", "bang" ],
					"bgcolor" : [ 0.866667, 0.866667, 0.866667, 1.0 ],
					"fontsize" : 11.0,
					"triscale" : 0.9,
					"numinlets" : 1,
					"id" : "obj-4",
					"numoutlets" : 2
				}

			}
, 			{
				"box" : 				{
					"maxclass" : "number",
					"fontname" : "Verdana",
					"htextcolor" : [ 0.870588, 0.870588, 0.870588, 1.0 ],
					"patching_rect" : [ 118.695793, 28.0, 37.0, 20.0 ],
					"outlettype" : [ "int", "bang" ],
					"bgcolor" : [ 0.866667, 0.866667, 0.866667, 1.0 ],
					"fontsize" : 11.0,
					"triscale" : 0.9,
					"numinlets" : 1,
					"id" : "obj-5",
					"numoutlets" : 2
				}

			}
, 			{
				"box" : 				{
					"maxclass" : "message",
					"text" : "bindto that",
					"fontname" : "Verdana",
					"patching_rect" : [ 184.391586, 28.0, 69.0, 18.0 ],
					"outlettype" : [ "" ],
					"fontsize" : 11.0,
					"numinlets" : 2,
					"id" : "obj-6",
					"numoutlets" : 1
				}

			}
, 			{
				"box" : 				{
					"maxclass" : "message",
					"text" : "bindto this",
					"fontname" : "Verdana",
					"patching_rect" : [ 51.0, 28.0, 67.0, 18.0 ],
					"outlettype" : [ "" ],
					"fontsize" : 11.0,
					"numinlets" : 2,
					"id" : "obj-7",
					"numoutlets" : 1
				}

			}
, 			{
				"box" : 				{
					"maxclass" : "message",
					"text" : "max 20",
					"fontname" : "Verdana",
					"patching_rect" : [ 184.391586, 53.627705, 52.0, 18.0 ],
					"outlettype" : [ "" ],
					"fontsize" : 11.0,
					"numinlets" : 2,
					"id" : "obj-8",
					"numoutlets" : 1
				}

			}
, 			{
				"box" : 				{
					"maxclass" : "message",
					"text" : "min -10",
					"fontname" : "Verdana",
					"patching_rect" : [ 131.155334, 53.627705, 52.0, 18.0 ],
					"outlettype" : [ "" ],
					"fontsize" : 11.0,
					"numinlets" : 2,
					"id" : "obj-9",
					"numoutlets" : 1
				}

			}
, 			{
				"box" : 				{
					"maxclass" : "number",
					"fontname" : "Verdana",
					"htextcolor" : [ 0.870588, 0.870588, 0.870588, 1.0 ],
					"patching_rect" : [ 174.462784, 298.372284, 37.0, 20.0 ],
					"outlettype" : [ "int", "bang" ],
					"bgcolor" : [ 0.866667, 0.866667, 0.866667, 1.0 ],
					"fontsize" : 11.0,
					"triscale" : 0.9,
					"numinlets" : 1,
					"id" : "obj-10",
					"numoutlets" : 2
				}

			}
, 			{
				"box" : 				{
					"maxclass" : "newobj",
					"varname" : "dialin[4]",
					"text" : "dtlin 67 2 0 -100 100",
					"fontname" : "Verdana",
					"patching_rect" : [ 174.462784, 263.774902, 132.0, 20.0 ],
					"outlettype" : [ "" ],
					"fontsize" : 11.0,
					"numinlets" : 2,
					"id" : "obj-11",
					"numoutlets" : 1
				}

			}
, 			{
				"box" : 				{
					"maxclass" : "number",
					"fontname" : "Verdana",
					"htextcolor" : [ 0.870588, 0.870588, 0.870588, 1.0 ],
					"patching_rect" : [ 51.0, 298.372284, 37.0, 20.0 ],
					"outlettype" : [ "int", "bang" ],
					"bgcolor" : [ 0.866667, 0.866667, 0.866667, 1.0 ],
					"fontsize" : 11.0,
					"triscale" : 0.9,
					"numinlets" : 1,
					"id" : "obj-12",
					"numoutlets" : 2
				}

			}
, 			{
				"box" : 				{
					"maxclass" : "newobj",
					"varname" : "dialin[3]",
					"text" : "dtlin 66 2 64 0 127",
					"fontname" : "Verdana",
					"patching_rect" : [ 51.0, 263.774902, 119.0, 20.0 ],
					"outlettype" : [ "" ],
					"fontsize" : 11.0,
					"numinlets" : 2,
					"id" : "obj-13",
					"numoutlets" : 1
				}

			}
, 			{
				"box" : 				{
					"maxclass" : "message",
					"text" : "default 64",
					"fontname" : "Verdana",
					"patching_rect" : [ 60.061489, 53.627705, 65.0, 18.0 ],
					"outlettype" : [ "" ],
					"fontsize" : 11.0,
					"numinlets" : 2,
					"id" : "obj-14",
					"numoutlets" : 1
				}

			}
, 			{
				"box" : 				{
					"maxclass" : "number",
					"fontname" : "Verdana",
					"htextcolor" : [ 0.870588, 0.870588, 0.870588, 1.0 ],
					"patching_rect" : [ 101.501617, 203.549789, 38.0, 20.0 ],
					"outlettype" : [ "int", "bang" ],
					"bgcolor" : [ 0.866667, 0.866667, 0.866667, 1.0 ],
					"fontsize" : 11.0,
					"triscale" : 0.9,
					"numinlets" : 1,
					"id" : "obj-15",
					"numoutlets" : 2
				}

			}
, 			{
				"box" : 				{
					"maxclass" : "number",
					"fontname" : "Verdana",
					"htextcolor" : [ 0.870588, 0.870588, 0.870588, 1.0 ],
					"patching_rect" : [ 51.0, 203.549789, 37.0, 20.0 ],
					"outlettype" : [ "int", "bang" ],
					"bgcolor" : [ 0.866667, 0.866667, 0.866667, 1.0 ],
					"fontsize" : 11.0,
					"triscale" : 0.9,
					"numinlets" : 1,
					"id" : "obj-16",
					"numoutlets" : 2
				}

			}
, 			{
				"box" : 				{
					"maxclass" : "newobj",
					"varname" : "dialin[2]",
					"text" : "dtlin -1 16",
					"fontname" : "Verdana",
					"patching_rect" : [ 51.0, 168.952377, 70.0, 20.0 ],
					"outlettype" : [ "", "int" ],
					"fontsize" : 11.0,
					"numinlets" : 2,
					"id" : "obj-17",
					"numoutlets" : 2
				}

			}
, 			{
				"box" : 				{
					"maxclass" : "number",
					"fontname" : "Verdana",
					"htextcolor" : [ 0.870588, 0.870588, 0.870588, 1.0 ],
					"patching_rect" : [ 177.595474, 135.636368, 37.0, 20.0 ],
					"outlettype" : [ "int", "bang" ],
					"bgcolor" : [ 0.866667, 0.866667, 0.866667, 1.0 ],
					"fontsize" : 11.0,
					"triscale" : 0.9,
					"numinlets" : 1,
					"id" : "obj-18",
					"numoutlets" : 2
				}

			}
, 			{
				"box" : 				{
					"maxclass" : "number",
					"fontname" : "Verdana",
					"htextcolor" : [ 0.870588, 0.870588, 0.870588, 1.0 ],
					"patching_rect" : [ 131.155334, 135.636368, 37.0, 20.0 ],
					"outlettype" : [ "int", "bang" ],
					"bgcolor" : [ 0.866667, 0.866667, 0.866667, 1.0 ],
					"fontsize" : 11.0,
					"triscale" : 0.9,
					"numinlets" : 1,
					"id" : "obj-19",
					"numoutlets" : 2
				}

			}
, 			{
				"box" : 				{
					"maxclass" : "number",
					"fontname" : "Verdana",
					"htextcolor" : [ 0.870588, 0.870588, 0.870588, 1.0 ],
					"patching_rect" : [ 51.0, 135.636368, 37.0, 20.0 ],
					"outlettype" : [ "int", "bang" ],
					"bgcolor" : [ 0.866667, 0.866667, 0.866667, 1.0 ],
					"fontsize" : 11.0,
					"triscale" : 0.9,
					"numinlets" : 1,
					"id" : "obj-20",
					"numoutlets" : 2
				}

			}
, 			{
				"box" : 				{
					"maxclass" : "newobj",
					"varname" : "dialin[1]",
					"text" : "dtlin 65",
					"fontname" : "Verdana",
					"patching_rect" : [ 131.155334, 101.038963, 66.0, 20.0 ],
					"outlettype" : [ "", "int" ],
					"fontsize" : 11.0,
					"numinlets" : 2,
					"id" : "obj-21",
					"numoutlets" : 2
				}

			}
, 			{
				"box" : 				{
					"maxclass" : "newobj",
					"varname" : "dialin",
					"text" : "dtlin 64 1",
					"fontname" : "Verdana",
					"patching_rect" : [ 51.0, 101.038963, 70.0, 20.0 ],
					"outlettype" : [ "" ],
					"fontsize" : 11.0,
					"numinlets" : 2,
					"id" : "obj-22",
					"numoutlets" : 1
				}

			}
, 			{
				"box" : 				{
					"maxclass" : "comment",
					"text" : "a simplified dialin, it will only store one value, but it contains a pattr and therefore it will store its one value within the pattr system. The right inlet set a value. Parameters 3 to 5 determine default value, min and max.",
					"linecount" : 9,
					"fontname" : "Verdana",
					"patching_rect" : [ 221.035599, 91.099564, 162.0, 127.0 ],
					"fontsize" : 11.0,
					"numinlets" : 1,
					"id" : "obj-23",
					"numoutlets" : 0
				}

			}
 ],
		"lines" : [ 			{
				"patchline" : 				{
					"source" : [ "obj-4", 0 ],
					"destination" : [ "obj-3", 0 ],
					"hidden" : 0,
					"midpoints" : [  ]
				}

			}
, 			{
				"patchline" : 				{
					"source" : [ "obj-5", 0 ],
					"destination" : [ "obj-22", 1 ],
					"hidden" : 0,
					"midpoints" : [ 128.195801, 92.069267, 111.5, 92.069267 ]
				}

			}
, 			{
				"patchline" : 				{
					"source" : [ "obj-22", 0 ],
					"destination" : [ "obj-20", 0 ],
					"hidden" : 0,
					"midpoints" : [  ]
				}

			}
, 			{
				"patchline" : 				{
					"source" : [ "obj-14", 0 ],
					"destination" : [ "obj-22", 0 ],
					"hidden" : 0,
					"midpoints" : [  ]
				}

			}
, 			{
				"patchline" : 				{
					"source" : [ "obj-7", 0 ],
					"destination" : [ "obj-22", 0 ],
					"hidden" : 0,
					"midpoints" : [  ]
				}

			}
, 			{
				"patchline" : 				{
					"source" : [ "obj-6", 0 ],
					"destination" : [ "obj-22", 0 ],
					"hidden" : 0,
					"midpoints" : [ 193.891586, 49.78355, 60.5, 49.78355 ]
				}

			}
, 			{
				"patchline" : 				{
					"source" : [ "obj-21", 1 ],
					"destination" : [ "obj-18", 0 ],
					"hidden" : 0,
					"midpoints" : [  ]
				}

			}
, 			{
				"patchline" : 				{
					"source" : [ "obj-21", 0 ],
					"destination" : [ "obj-19", 0 ],
					"hidden" : 0,
					"midpoints" : [  ]
				}

			}
, 			{
				"patchline" : 				{
					"source" : [ "obj-3", 0 ],
					"destination" : [ "obj-21", 0 ],
					"hidden" : 0,
					"midpoints" : [ 264.587372, 79.255409, 140.655334, 79.255409 ]
				}

			}
, 			{
				"patchline" : 				{
					"source" : [ "obj-8", 0 ],
					"destination" : [ "obj-21", 0 ],
					"hidden" : 0,
					"midpoints" : [  ]
				}

			}
, 			{
				"patchline" : 				{
					"source" : [ "obj-9", 0 ],
					"destination" : [ "obj-21", 0 ],
					"hidden" : 0,
					"midpoints" : [  ]
				}

			}
, 			{
				"patchline" : 				{
					"source" : [ "obj-17", 1 ],
					"destination" : [ "obj-15", 0 ],
					"hidden" : 0,
					"midpoints" : [  ]
				}

			}
, 			{
				"patchline" : 				{
					"source" : [ "obj-17", 0 ],
					"destination" : [ "obj-16", 0 ],
					"hidden" : 0,
					"midpoints" : [  ]
				}

			}
, 			{
				"patchline" : 				{
					"source" : [ "obj-13", 0 ],
					"destination" : [ "obj-12", 0 ],
					"hidden" : 0,
					"midpoints" : [  ]
				}

			}
, 			{
				"patchline" : 				{
					"source" : [ "obj-11", 0 ],
					"destination" : [ "obj-10", 0 ],
					"hidden" : 0,
					"midpoints" : [  ]
				}

			}
 ]
	}

}
