{
	"patcher" : 	{
		"fileversion" : 1,
		"appversion" : 		{
			"major" : 5,
			"minor" : 1,
			"revision" : 9
		}
,
		"rect" : [ 577.0, 102.0, 640.0, 480.0 ],
		"bglocked" : 0,
		"defrect" : [ 577.0, 102.0, 640.0, 480.0 ],
		"openrect" : [ 0.0, 0.0, 0.0, 0.0 ],
		"openinpresentation" : 0,
		"default_fontsize" : 11.0,
		"default_fontface" : 0,
		"default_fontname" : "Verdana",
		"gridonopen" : 0,
		"gridsize" : [ 15.0, 15.0 ],
		"gridsnaponopen" : 0,
		"toolbarvisible" : 1,
		"boxanimatetime" : 200,
		"imprint" : 0,
		"enablehscroll" : 1,
		"enablevscroll" : 1,
		"devicewidth" : 0.0,
		"boxes" : [ 			{
				"box" : 				{
					"maxclass" : "newobj",
					"text" : "pack",
					"patching_rect" : [ 25.0, 133.0, 100.0, 20.0 ],
					"numinlets" : 2,
					"id" : "obj-31",
					"fontname" : "Verdana",
					"numoutlets" : 1,
					"outlettype" : [ "" ],
					"fontsize" : 11.0
				}

			}
, 			{
				"box" : 				{
					"maxclass" : "newobj",
					"text" : "+ 1",
					"patching_rect" : [ 106.0, 104.0, 32.5, 20.0 ],
					"numinlets" : 2,
					"id" : "obj-30",
					"fontname" : "Verdana",
					"numoutlets" : 1,
					"outlettype" : [ "int" ],
					"fontsize" : 11.0
				}

			}
, 			{
				"box" : 				{
					"maxclass" : "newobj",
					"text" : "random 127",
					"patching_rect" : [ 106.0, 75.0, 77.0, 20.0 ],
					"numinlets" : 2,
					"id" : "obj-29",
					"fontname" : "Verdana",
					"numoutlets" : 1,
					"outlettype" : [ "int" ],
					"fontsize" : 11.0
				}

			}
, 			{
				"box" : 				{
					"maxclass" : "newobj",
					"text" : "+ 21",
					"patching_rect" : [ 25.0, 105.0, 77.0, 20.0 ],
					"numinlets" : 2,
					"id" : "obj-28",
					"fontname" : "Verdana",
					"numoutlets" : 1,
					"outlettype" : [ "int" ],
					"fontsize" : 11.0
				}

			}
, 			{
				"box" : 				{
					"maxclass" : "newobj",
					"text" : "random 88",
					"patching_rect" : [ 25.0, 75.0, 77.0, 20.0 ],
					"numinlets" : 2,
					"id" : "obj-27",
					"fontname" : "Verdana",
					"numoutlets" : 1,
					"outlettype" : [ "int" ],
					"fontsize" : 11.0
				}

			}
, 			{
				"box" : 				{
					"maxclass" : "toggle",
					"patching_rect" : [ 25.0, 15.0, 20.0, 20.0 ],
					"numinlets" : 1,
					"id" : "obj-26",
					"numoutlets" : 1,
					"outlettype" : [ "int" ]
				}

			}
, 			{
				"box" : 				{
					"maxclass" : "newobj",
					"text" : "retro 300 900",
					"patching_rect" : [ 25.0, 46.0, 100.0, 20.0 ],
					"numinlets" : 3,
					"id" : "obj-24",
					"fontname" : "Verdana",
					"numoutlets" : 2,
					"outlettype" : [ "bang", "int" ],
					"fontsize" : 11.0
				}

			}
, 			{
				"box" : 				{
					"maxclass" : "comment",
					"text" : "monote will turn a polyphonic input in a monophonic one. ",
					"linecount" : 3,
					"patching_rect" : [ 293.0, 104.0, 150.0, 47.0 ],
					"numinlets" : 1,
					"id" : "obj-23",
					"fontname" : "Verdana",
					"numoutlets" : 0,
					"fontsize" : 11.0
				}

			}
, 			{
				"box" : 				{
					"maxclass" : "comment",
					"text" : "Maximum note length.\n0 for infinity...",
					"linecount" : 2,
					"patching_rect" : [ 497.0, 218.0, 140.0, 33.0 ],
					"numinlets" : 1,
					"id" : "obj-21",
					"fontname" : "Verdana",
					"numoutlets" : 0,
					"fontsize" : 11.0
				}

			}
, 			{
				"box" : 				{
					"maxclass" : "newobj",
					"text" : "monote",
					"patching_rect" : [ 124.0, 262.0, 338.5, 20.0 ],
					"numinlets" : 3,
					"id" : "obj-17",
					"fontname" : "Verdana",
					"numoutlets" : 1,
					"outlettype" : [ "" ],
					"fontsize" : 11.0
				}

			}
, 			{
				"box" : 				{
					"maxclass" : "number",
					"patching_rect" : [ 444.0, 219.0, 50.0, 20.0 ],
					"numinlets" : 1,
					"id" : "obj-13",
					"fontname" : "Verdana",
					"numoutlets" : 2,
					"outlettype" : [ "int", "bang" ],
					"fontsize" : 11.0
				}

			}
, 			{
				"box" : 				{
					"maxclass" : "kslider",
					"prototypename" : "smallkeyboard",
					"mode" : 1,
					"patching_rect" : [ 124.0, 320.0, 364.0, 34.0 ],
					"numinlets" : 2,
					"id" : "obj-3",
					"hkeycolor" : [ 1.0, 0.411765, 0.411765, 1.0 ],
					"numoutlets" : 2,
					"offset" : 21,
					"range" : 88,
					"outlettype" : [ "int", "int" ]
				}

			}
, 			{
				"box" : 				{
					"maxclass" : "kslider",
					"prototypename" : "smallkeyboard",
					"mode" : 1,
					"patching_rect" : [ 124.0, 171.0, 364.0, 34.0 ],
					"numinlets" : 2,
					"id" : "obj-2",
					"hkeycolor" : [ 1.0, 0.411765, 0.411765, 1.0 ],
					"numoutlets" : 2,
					"offset" : 21,
					"range" : 88,
					"outlettype" : [ "int", "int" ]
				}

			}
 ],
		"lines" : [ 			{
				"patchline" : 				{
					"source" : [ "obj-31", 0 ],
					"destination" : [ "obj-17", 0 ],
					"hidden" : 0,
					"midpoints" : [  ]
				}

			}
, 			{
				"patchline" : 				{
					"source" : [ "obj-30", 0 ],
					"destination" : [ "obj-31", 1 ],
					"hidden" : 0,
					"midpoints" : [  ]
				}

			}
, 			{
				"patchline" : 				{
					"source" : [ "obj-28", 0 ],
					"destination" : [ "obj-31", 0 ],
					"hidden" : 0,
					"midpoints" : [  ]
				}

			}
, 			{
				"patchline" : 				{
					"source" : [ "obj-24", 0 ],
					"destination" : [ "obj-29", 0 ],
					"hidden" : 0,
					"midpoints" : [  ]
				}

			}
, 			{
				"patchline" : 				{
					"source" : [ "obj-29", 0 ],
					"destination" : [ "obj-30", 0 ],
					"hidden" : 0,
					"midpoints" : [  ]
				}

			}
, 			{
				"patchline" : 				{
					"source" : [ "obj-24", 0 ],
					"destination" : [ "obj-27", 0 ],
					"hidden" : 0,
					"midpoints" : [  ]
				}

			}
, 			{
				"patchline" : 				{
					"source" : [ "obj-27", 0 ],
					"destination" : [ "obj-28", 0 ],
					"hidden" : 0,
					"midpoints" : [  ]
				}

			}
, 			{
				"patchline" : 				{
					"source" : [ "obj-26", 0 ],
					"destination" : [ "obj-24", 0 ],
					"hidden" : 0,
					"midpoints" : [  ]
				}

			}
, 			{
				"patchline" : 				{
					"source" : [ "obj-17", 0 ],
					"destination" : [ "obj-3", 0 ],
					"hidden" : 0,
					"midpoints" : [  ]
				}

			}
, 			{
				"patchline" : 				{
					"source" : [ "obj-13", 0 ],
					"destination" : [ "obj-17", 2 ],
					"hidden" : 0,
					"midpoints" : [  ]
				}

			}
, 			{
				"patchline" : 				{
					"source" : [ "obj-2", 1 ],
					"destination" : [ "obj-17", 1 ],
					"hidden" : 0,
					"midpoints" : [  ]
				}

			}
, 			{
				"patchline" : 				{
					"source" : [ "obj-2", 0 ],
					"destination" : [ "obj-17", 0 ],
					"hidden" : 0,
					"midpoints" : [  ]
				}

			}
 ]
	}

}
