{
	"patcher" : 	{
		"fileversion" : 1,
		"appversion" : 		{
			"major" : 5,
			"minor" : 1,
			"revision" : 9
		}
,
		"rect" : [ 98.0, 111.0, 640.0, 480.0 ],
		"bglocked" : 0,
		"defrect" : [ 98.0, 111.0, 640.0, 480.0 ],
		"openrect" : [ 0.0, 0.0, 0.0, 0.0 ],
		"openinpresentation" : 0,
		"default_fontsize" : 11.0,
		"default_fontface" : 0,
		"default_fontname" : "Verdana",
		"gridonopen" : 0,
		"gridsize" : [ 15.0, 15.0 ],
		"gridsnaponopen" : 0,
		"toolbarvisible" : 1,
		"boxanimatetime" : 200,
		"imprint" : 0,
		"enablehscroll" : 1,
		"enablevscroll" : 1,
		"devicewidth" : 0.0,
		"boxes" : [ 			{
				"box" : 				{
					"maxclass" : "comment",
					"text" : "notelim is a bit like speedlim, but for midi notes, to maintain the note offs",
					"linecount" : 2,
					"patching_rect" : [ 214.0, 31.0, 285.0, 33.0 ],
					"numinlets" : 1,
					"id" : "obj-23",
					"fontname" : "Verdana",
					"numoutlets" : 0,
					"fontsize" : 11.0
				}

			}
, 			{
				"box" : 				{
					"maxclass" : "message",
					"text" : "clear",
					"patching_rect" : [ 181.0, 250.0, 37.0, 18.0 ],
					"numinlets" : 2,
					"id" : "obj-21",
					"fontname" : "Verdana",
					"numoutlets" : 1,
					"outlettype" : [ "" ],
					"fontsize" : 11.0
				}

			}
, 			{
				"box" : 				{
					"maxclass" : "kslider",
					"prototypename" : "smallkeyboard",
					"mode" : 1,
					"patching_rect" : [ 49.0, 289.0, 518.0, 34.0 ],
					"numinlets" : 2,
					"id" : "obj-19",
					"hkeycolor" : [ 1.0, 0.356863, 0.356863, 1.0 ],
					"numoutlets" : 2,
					"offset" : 0,
					"range" : 127,
					"outlettype" : [ "int", "int" ]
				}

			}
, 			{
				"box" : 				{
					"maxclass" : "kslider",
					"prototypename" : "smallkeyboard",
					"mode" : 1,
					"patching_rect" : [ 32.0, 347.0, 518.0, 34.0 ],
					"numinlets" : 2,
					"id" : "obj-18",
					"hkeycolor" : [ 1.0, 0.356863, 0.356863, 1.0 ],
					"numoutlets" : 2,
					"offset" : 0,
					"range" : 127,
					"outlettype" : [ "int", "int" ]
				}

			}
, 			{
				"box" : 				{
					"maxclass" : "newobj",
					"text" : "speedlim",
					"patching_rect" : [ 32.0, 249.0, 60.0, 20.0 ],
					"numinlets" : 2,
					"id" : "obj-17",
					"fontname" : "Verdana",
					"numoutlets" : 1,
					"outlettype" : [ "" ],
					"fontsize" : 11.0
				}

			}
, 			{
				"box" : 				{
					"maxclass" : "number",
					"minimum" : 30,
					"patching_rect" : [ 81.0, 26.0, 50.0, 20.0 ],
					"numinlets" : 1,
					"id" : "obj-16",
					"fontname" : "Verdana",
					"numoutlets" : 2,
					"outlettype" : [ "int", "bang" ],
					"fontsize" : 11.0
				}

			}
, 			{
				"box" : 				{
					"maxclass" : "toggle",
					"patching_rect" : [ 32.0, 26.0, 20.0, 20.0 ],
					"numinlets" : 1,
					"id" : "obj-14",
					"numoutlets" : 1,
					"outlettype" : [ "int" ]
				}

			}
, 			{
				"box" : 				{
					"maxclass" : "newobj",
					"text" : "metro 200",
					"patching_rect" : [ 32.0, 54.0, 68.0, 20.0 ],
					"numinlets" : 2,
					"id" : "obj-11",
					"fontname" : "Verdana",
					"numoutlets" : 1,
					"outlettype" : [ "bang" ],
					"fontsize" : 11.0
				}

			}
, 			{
				"box" : 				{
					"maxclass" : "newobj",
					"text" : "makenote 60 200",
					"patching_rect" : [ 32.0, 111.0, 518.0, 20.0 ],
					"numinlets" : 3,
					"id" : "obj-10",
					"fontname" : "Verdana",
					"numoutlets" : 2,
					"outlettype" : [ "float", "float" ],
					"fontsize" : 11.0
				}

			}
, 			{
				"box" : 				{
					"maxclass" : "newobj",
					"text" : "random 128",
					"patching_rect" : [ 117.0, 83.0, 78.0, 20.0 ],
					"numinlets" : 2,
					"id" : "obj-7",
					"fontname" : "Verdana",
					"numoutlets" : 1,
					"outlettype" : [ "int" ],
					"fontsize" : 11.0
				}

			}
, 			{
				"box" : 				{
					"maxclass" : "newobj",
					"text" : "random 128",
					"patching_rect" : [ 32.0, 83.0, 78.0, 20.0 ],
					"numinlets" : 2,
					"id" : "obj-6",
					"fontname" : "Verdana",
					"numoutlets" : 1,
					"outlettype" : [ "int" ],
					"fontsize" : 11.0
				}

			}
, 			{
				"box" : 				{
					"maxclass" : "number",
					"minimum" : 0,
					"patching_rect" : [ 138.0, 214.0, 50.0, 20.0 ],
					"numinlets" : 1,
					"id" : "obj-5",
					"fontname" : "Verdana",
					"numoutlets" : 2,
					"outlettype" : [ "int", "bang" ],
					"fontsize" : 11.0
				}

			}
, 			{
				"box" : 				{
					"maxclass" : "newobj",
					"text" : "pack",
					"patching_rect" : [ 32.0, 181.0, 518.0, 20.0 ],
					"numinlets" : 2,
					"id" : "obj-3",
					"fontname" : "Verdana",
					"numoutlets" : 1,
					"outlettype" : [ "" ],
					"fontsize" : 11.0
				}

			}
, 			{
				"box" : 				{
					"maxclass" : "newobj",
					"text" : "notelim",
					"patching_rect" : [ 105.0, 249.0, 52.0, 20.0 ],
					"numinlets" : 2,
					"id" : "obj-2",
					"fontname" : "Verdana",
					"numoutlets" : 1,
					"outlettype" : [ "" ],
					"fontsize" : 11.0
				}

			}
, 			{
				"box" : 				{
					"maxclass" : "kslider",
					"prototypename" : "smallkeyboard",
					"mode" : 1,
					"patching_rect" : [ 32.0, 140.0, 518.0, 34.0 ],
					"numinlets" : 2,
					"id" : "obj-1",
					"hkeycolor" : [ 1.0, 0.356863, 0.356863, 1.0 ],
					"numoutlets" : 2,
					"offset" : 0,
					"range" : 127,
					"outlettype" : [ "int", "int" ]
				}

			}
 ],
		"lines" : [ 			{
				"patchline" : 				{
					"source" : [ "obj-21", 0 ],
					"destination" : [ "obj-18", 0 ],
					"hidden" : 1,
					"midpoints" : [  ]
				}

			}
, 			{
				"patchline" : 				{
					"source" : [ "obj-21", 0 ],
					"destination" : [ "obj-19", 0 ],
					"hidden" : 1,
					"midpoints" : [  ]
				}

			}
, 			{
				"patchline" : 				{
					"source" : [ "obj-17", 0 ],
					"destination" : [ "obj-18", 0 ],
					"hidden" : 0,
					"midpoints" : [  ]
				}

			}
, 			{
				"patchline" : 				{
					"source" : [ "obj-2", 0 ],
					"destination" : [ "obj-19", 0 ],
					"hidden" : 0,
					"midpoints" : [  ]
				}

			}
, 			{
				"patchline" : 				{
					"source" : [ "obj-3", 0 ],
					"destination" : [ "obj-2", 0 ],
					"hidden" : 0,
					"midpoints" : [  ]
				}

			}
, 			{
				"patchline" : 				{
					"source" : [ "obj-3", 0 ],
					"destination" : [ "obj-17", 0 ],
					"hidden" : 0,
					"midpoints" : [  ]
				}

			}
, 			{
				"patchline" : 				{
					"source" : [ "obj-5", 0 ],
					"destination" : [ "obj-17", 1 ],
					"hidden" : 0,
					"midpoints" : [  ]
				}

			}
, 			{
				"patchline" : 				{
					"source" : [ "obj-16", 0 ],
					"destination" : [ "obj-11", 1 ],
					"hidden" : 0,
					"midpoints" : [  ]
				}

			}
, 			{
				"patchline" : 				{
					"source" : [ "obj-14", 0 ],
					"destination" : [ "obj-11", 0 ],
					"hidden" : 0,
					"midpoints" : [  ]
				}

			}
, 			{
				"patchline" : 				{
					"source" : [ "obj-11", 0 ],
					"destination" : [ "obj-6", 0 ],
					"hidden" : 0,
					"midpoints" : [  ]
				}

			}
, 			{
				"patchline" : 				{
					"source" : [ "obj-11", 0 ],
					"destination" : [ "obj-7", 0 ],
					"hidden" : 0,
					"midpoints" : [  ]
				}

			}
, 			{
				"patchline" : 				{
					"source" : [ "obj-1", 0 ],
					"destination" : [ "obj-3", 0 ],
					"hidden" : 0,
					"midpoints" : [  ]
				}

			}
, 			{
				"patchline" : 				{
					"source" : [ "obj-1", 1 ],
					"destination" : [ "obj-3", 1 ],
					"hidden" : 0,
					"midpoints" : [  ]
				}

			}
, 			{
				"patchline" : 				{
					"source" : [ "obj-10", 0 ],
					"destination" : [ "obj-1", 0 ],
					"hidden" : 0,
					"midpoints" : [  ]
				}

			}
, 			{
				"patchline" : 				{
					"source" : [ "obj-10", 1 ],
					"destination" : [ "obj-1", 1 ],
					"hidden" : 0,
					"midpoints" : [  ]
				}

			}
, 			{
				"patchline" : 				{
					"source" : [ "obj-7", 0 ],
					"destination" : [ "obj-10", 1 ],
					"hidden" : 0,
					"midpoints" : [  ]
				}

			}
, 			{
				"patchline" : 				{
					"source" : [ "obj-6", 0 ],
					"destination" : [ "obj-10", 0 ],
					"hidden" : 0,
					"midpoints" : [  ]
				}

			}
, 			{
				"patchline" : 				{
					"source" : [ "obj-5", 0 ],
					"destination" : [ "obj-2", 1 ],
					"hidden" : 0,
					"midpoints" : [  ]
				}

			}
 ]
	}

}
