{
	"patcher" : 	{
		"fileversion" : 1,
		"appversion" : 		{
			"major" : 5,
			"minor" : 1,
			"revision" : 9
		}
,
		"rect" : [ 25.0, 69.0, 406.0, 312.0 ],
		"bglocked" : 0,
		"defrect" : [ 25.0, 69.0, 406.0, 312.0 ],
		"openrect" : [ 0.0, 0.0, 0.0, 0.0 ],
		"openinpresentation" : 0,
		"default_fontsize" : 11.0,
		"default_fontface" : 0,
		"default_fontname" : "Verdana",
		"gridonopen" : 0,
		"gridsize" : [ 15.0, 15.0 ],
		"gridsnaponopen" : 0,
		"toolbarvisible" : 1,
		"boxanimatetime" : 200,
		"imprint" : 0,
		"enablehscroll" : 1,
		"enablevscroll" : 1,
		"devicewidth" : 0.0,
		"boxes" : [ 			{
				"box" : 				{
					"maxclass" : "button",
					"id" : "obj-2",
					"numinlets" : 1,
					"numoutlets" : 1,
					"patching_rect" : [ 126.0, 128.0, 20.0, 20.0 ],
					"outlettype" : [ "bang" ]
				}

			}
, 			{
				"box" : 				{
					"maxclass" : "comment",
					"text" : "randomgate - left inlet sets the likelyhood that a message will be passed.\nRight outlet passes the rejected events...",
					"linecount" : 5,
					"id" : "obj-9",
					"fontname" : "Verdana",
					"numinlets" : 1,
					"fontsize" : 11.0,
					"numoutlets" : 0,
					"patching_rect" : [ 162.0, 70.0, 156.0, 73.0 ]
				}

			}
, 			{
				"box" : 				{
					"maxclass" : "button",
					"id" : "obj-7",
					"numinlets" : 1,
					"numoutlets" : 1,
					"patching_rect" : [ 126.0, 69.0, 20.0, 20.0 ],
					"outlettype" : [ "bang" ]
				}

			}
, 			{
				"box" : 				{
					"maxclass" : "button",
					"id" : "obj-5",
					"numinlets" : 1,
					"numoutlets" : 1,
					"patching_rect" : [ 68.0, 128.0, 20.0, 20.0 ],
					"outlettype" : [ "bang" ]
				}

			}
, 			{
				"box" : 				{
					"maxclass" : "flonum",
					"prototypename" : "0.-1.",
					"id" : "obj-3",
					"fontname" : "Verdana",
					"minimum" : 0.0,
					"maximum" : 1.0,
					"numinlets" : 1,
					"fontsize" : 11.0,
					"numoutlets" : 2,
					"patching_rect" : [ 68.0, 69.0, 50.0, 20.0 ],
					"outlettype" : [ "float", "bang" ]
				}

			}
, 			{
				"box" : 				{
					"maxclass" : "newobj",
					"text" : "rgate 0.5",
					"id" : "obj-1",
					"fontname" : "Verdana",
					"numinlets" : 2,
					"fontsize" : 11.0,
					"numoutlets" : 2,
					"patching_rect" : [ 68.0, 98.0, 77.0, 20.0 ],
					"outlettype" : [ "", "" ]
				}

			}
 ],
		"lines" : [ 			{
				"patchline" : 				{
					"source" : [ "obj-1", 1 ],
					"destination" : [ "obj-2", 0 ],
					"hidden" : 0,
					"midpoints" : [  ]
				}

			}
, 			{
				"patchline" : 				{
					"source" : [ "obj-7", 0 ],
					"destination" : [ "obj-1", 1 ],
					"hidden" : 0,
					"midpoints" : [  ]
				}

			}
, 			{
				"patchline" : 				{
					"source" : [ "obj-1", 0 ],
					"destination" : [ "obj-5", 0 ],
					"hidden" : 0,
					"midpoints" : [  ]
				}

			}
, 			{
				"patchline" : 				{
					"source" : [ "obj-3", 0 ],
					"destination" : [ "obj-1", 0 ],
					"hidden" : 0,
					"midpoints" : [  ]
				}

			}
 ]
	}

}
