{
	"patcher" : 	{
		"fileversion" : 1,
		"rect" : [ 105.0, 115.0, 478.0, 551.0 ],
		"bglocked" : 0,
		"defrect" : [ 105.0, 115.0, 478.0, 551.0 ],
		"openrect" : [ 0.0, 0.0, 0.0, 0.0 ],
		"openinpresentation" : 0,
		"default_fontsize" : 11.0,
		"default_fontface" : 0,
		"default_fontname" : "Verdana",
		"gridonopen" : 0,
		"gridsize" : [ 15.0, 15.0 ],
		"gridsnaponopen" : 0,
		"toolbarvisible" : 1,
		"boxanimatetime" : 200,
		"imprint" : 0,
		"boxes" : [ 			{
				"box" : 				{
					"fontname" : "Verdana",
					"fontsize" : 11.0,
					"id" : "obj-32",
					"maxclass" : "newobj",
					"numinlets" : 0,
					"numoutlets" : 1,
					"outlettype" : [ "" ],
					"patcher" : 					{
						"fileversion" : 1,
						"rect" : [ 0.0, 0.0, 640.0, 480.0 ],
						"bglocked" : 0,
						"defrect" : [ 0.0, 0.0, 640.0, 480.0 ],
						"openrect" : [ 0.0, 0.0, 0.0, 0.0 ],
						"openinpresentation" : 0,
						"default_fontsize" : 11.0,
						"default_fontface" : 0,
						"default_fontname" : "Verdana",
						"gridonopen" : 0,
						"gridsize" : [ 15.0, 15.0 ],
						"gridsnaponopen" : 0,
						"toolbarvisible" : 1,
						"boxanimatetime" : 200,
						"imprint" : 0,
						"boxes" : [ 							{
								"box" : 								{
									"fontname" : "Verdana",
									"fontsize" : 11.0,
									"id" : "obj-21",
									"maxclass" : "newobj",
									"numinlets" : 2,
									"numoutlets" : 2,
									"outlettype" : [ "", "" ],
									"patching_rect" : [ 50.0, 166.0, 100.0, 20.0 ],
									"text" : "levels~ 4 0.5"
								}

							}
, 							{
								"box" : 								{
									"fontname" : "Verdana",
									"fontsize" : 11.0,
									"id" : "obj-20",
									"maxclass" : "newobj",
									"numinlets" : 1,
									"numoutlets" : 1,
									"outlettype" : [ "signal" ],
									"patching_rect" : [ 337.0, 100.0, 50.0, 20.0 ],
									"text" : "sig~ 1."
								}

							}
, 							{
								"box" : 								{
									"fontname" : "Verdana",
									"fontsize" : 11.0,
									"id" : "obj-10",
									"maxclass" : "newobj",
									"numinlets" : 2,
									"numoutlets" : 1,
									"outlettype" : [ "signal" ],
									"patching_rect" : [ 263.0, 100.0, 70.0, 20.0 ],
									"text" : "cycle~ 0.2"
								}

							}
, 							{
								"box" : 								{
									"fontname" : "Verdana",
									"fontsize" : 11.0,
									"id" : "obj-16",
									"maxclass" : "newobj",
									"numinlets" : 2,
									"numoutlets" : 1,
									"outlettype" : [ "signal" ],
									"patching_rect" : [ 192.0, 100.0, 70.0, 20.0 ],
									"text" : "cycle~ 0.3"
								}

							}
, 							{
								"box" : 								{
									"fontname" : "Verdana",
									"fontsize" : 11.0,
									"id" : "obj-17",
									"maxclass" : "newobj",
									"numinlets" : 2,
									"numoutlets" : 1,
									"outlettype" : [ "signal" ],
									"patching_rect" : [ 121.0, 100.0, 70.0, 20.0 ],
									"text" : "cycle~ 0.5"
								}

							}
, 							{
								"box" : 								{
									"fontname" : "Verdana",
									"fontsize" : 11.0,
									"id" : "obj-18",
									"maxclass" : "newobj",
									"numinlets" : 2,
									"numoutlets" : 1,
									"outlettype" : [ "signal" ],
									"patching_rect" : [ 50.0, 100.0, 66.0, 20.0 ],
									"text" : "cycle~ 1"
								}

							}
, 							{
								"box" : 								{
									"fontname" : "Verdana",
									"fontsize" : 11.0,
									"id" : "obj-1",
									"maxclass" : "newobj",
									"numinlets" : 4,
									"numoutlets" : 1,
									"outlettype" : [ "signal" ],
									"patching_rect" : [ 50.0, 139.0, 232.0, 20.0 ],
									"text" : "multicore~ 4"
								}

							}
, 							{
								"box" : 								{
									"comment" : "",
									"id" : "obj-30",
									"maxclass" : "outlet",
									"numinlets" : 1,
									"numoutlets" : 0,
									"patching_rect" : [ 50.0, 246.0, 25.0, 25.0 ]
								}

							}
 ],
						"lines" : [ 							{
								"patchline" : 								{
									"destination" : [ "obj-21", 0 ],
									"hidden" : 0,
									"midpoints" : [  ],
									"source" : [ "obj-1", 0 ]
								}

							}
, 							{
								"patchline" : 								{
									"destination" : [ "obj-1", 0 ],
									"hidden" : 0,
									"midpoints" : [ 346.5, 129.0, 59.5, 129.0 ],
									"source" : [ "obj-20", 0 ]
								}

							}
, 							{
								"patchline" : 								{
									"destination" : [ "obj-1", 1 ],
									"hidden" : 0,
									"midpoints" : [ 346.5, 129.0, 130.5, 129.0 ],
									"source" : [ "obj-20", 0 ]
								}

							}
, 							{
								"patchline" : 								{
									"destination" : [ "obj-1", 2 ],
									"hidden" : 0,
									"midpoints" : [ 346.5, 129.0, 201.5, 129.0 ],
									"source" : [ "obj-20", 0 ]
								}

							}
, 							{
								"patchline" : 								{
									"destination" : [ "obj-1", 3 ],
									"hidden" : 0,
									"midpoints" : [ 346.5, 129.0, 272.5, 129.0 ],
									"source" : [ "obj-20", 0 ]
								}

							}
, 							{
								"patchline" : 								{
									"destination" : [ "obj-1", 3 ],
									"hidden" : 0,
									"midpoints" : [  ],
									"source" : [ "obj-10", 0 ]
								}

							}
, 							{
								"patchline" : 								{
									"destination" : [ "obj-1", 0 ],
									"hidden" : 0,
									"midpoints" : [  ],
									"source" : [ "obj-18", 0 ]
								}

							}
, 							{
								"patchline" : 								{
									"destination" : [ "obj-1", 1 ],
									"hidden" : 0,
									"midpoints" : [  ],
									"source" : [ "obj-17", 0 ]
								}

							}
, 							{
								"patchline" : 								{
									"destination" : [ "obj-1", 2 ],
									"hidden" : 0,
									"midpoints" : [  ],
									"source" : [ "obj-16", 0 ]
								}

							}
, 							{
								"patchline" : 								{
									"destination" : [ "obj-30", 0 ],
									"hidden" : 0,
									"midpoints" : [  ],
									"source" : [ "obj-21", 0 ]
								}

							}
 ]
					}
,
					"patching_rect" : [ 47.0, 208.0, 74.0, 20.0 ],
					"saved_object_attributes" : 					{
						"default_fontface" : 0,
						"default_fontname" : "Verdana",
						"fontname" : "Verdana",
						"default_fontsize" : 11.0,
						"globalpatchername" : "",
						"fontface" : 0,
						"fontsize" : 11.0
					}
,
					"text" : "p 4 cycle~s"
				}

			}
, 			{
				"box" : 				{
					"id" : "obj-5",
					"maxclass" : "meter~",
					"nhotleds" : 4,
					"ntepidleds" : 4,
					"numinlets" : 1,
					"numleds" : 20,
					"numoutlets" : 1,
					"nwarmleds" : 4,
					"outlettype" : [ "float" ],
					"patching_rect" : [ 145.0, 396.0, 16.0, 90.0 ],
					"prototypename" : "20 Leds"
				}

			}
, 			{
				"box" : 				{
					"id" : "obj-22",
					"maxclass" : "meter~",
					"nhotleds" : 4,
					"ntepidleds" : 4,
					"numinlets" : 1,
					"numleds" : 20,
					"numoutlets" : 1,
					"nwarmleds" : 4,
					"outlettype" : [ "float" ],
					"patching_rect" : [ 118.0, 396.0, 16.0, 90.0 ],
					"prototypename" : "20 Leds"
				}

			}
, 			{
				"box" : 				{
					"fontname" : "Verdana",
					"fontsize" : 11.0,
					"id" : "obj-29",
					"maxclass" : "newobj",
					"numinlets" : 1,
					"numoutlets" : 3,
					"outlettype" : [ "", "", "" ],
					"patching_rect" : [ 125.0, 371.0, 70.0, 20.0 ],
					"text" : "route~ 2 2"
				}

			}
, 			{
				"box" : 				{
					"fontname" : "Verdana",
					"fontsize" : 11.0,
					"id" : "obj-31",
					"maxclass" : "newobj",
					"numinlets" : 0,
					"numoutlets" : 1,
					"outlettype" : [ "signal" ],
					"patcher" : 					{
						"fileversion" : 1,
						"rect" : [ 50.0, 94.0, 266.0, 303.0 ],
						"bglocked" : 0,
						"defrect" : [ 50.0, 94.0, 266.0, 303.0 ],
						"openrect" : [ 0.0, 0.0, 0.0, 0.0 ],
						"openinpresentation" : 0,
						"default_fontsize" : 11.0,
						"default_fontface" : 0,
						"default_fontname" : "Verdana",
						"gridonopen" : 0,
						"gridsize" : [ 15.0, 15.0 ],
						"gridsnaponopen" : 0,
						"toolbarvisible" : 1,
						"boxanimatetime" : 200,
						"imprint" : 0,
						"boxes" : [ 							{
								"box" : 								{
									"fontname" : "Verdana",
									"fontsize" : 11.0,
									"id" : "obj-2",
									"maxclass" : "newobj",
									"numinlets" : 2,
									"numoutlets" : 1,
									"outlettype" : [ "signal" ],
									"patching_rect" : [ 50.0, 143.0, 48.0, 20.0 ],
									"text" : "*~ 0.5"
								}

							}
, 							{
								"box" : 								{
									"fontname" : "Verdana",
									"fontsize" : 11.0,
									"id" : "obj-1",
									"maxclass" : "newobj",
									"numinlets" : 1,
									"numoutlets" : 1,
									"outlettype" : [ "signal" ],
									"patching_rect" : [ 133.0, 100.0, 46.0, 20.0 ],
									"text" : "sig~ 1"
								}

							}
, 							{
								"box" : 								{
									"fontname" : "Verdana",
									"fontsize" : 11.0,
									"id" : "obj-5",
									"maxclass" : "newobj",
									"numinlets" : 2,
									"numoutlets" : 1,
									"outlettype" : [ "signal" ],
									"patching_rect" : [ 50.0, 100.0, 69.0, 20.0 ],
									"text" : "cycle~ 0.1"
								}

							}
, 							{
								"box" : 								{
									"comment" : "",
									"id" : "obj-30",
									"maxclass" : "outlet",
									"numinlets" : 1,
									"numoutlets" : 0,
									"patching_rect" : [ 50.0, 180.0, 25.0, 25.0 ]
								}

							}
 ],
						"lines" : [ 							{
								"patchline" : 								{
									"destination" : [ "obj-2", 0 ],
									"hidden" : 0,
									"midpoints" : [  ],
									"source" : [ "obj-5", 0 ]
								}

							}
, 							{
								"patchline" : 								{
									"destination" : [ "obj-30", 0 ],
									"hidden" : 0,
									"midpoints" : [  ],
									"source" : [ "obj-2", 0 ]
								}

							}
, 							{
								"patchline" : 								{
									"destination" : [ "obj-2", 0 ],
									"hidden" : 0,
									"midpoints" : [ 142.5, 127.0, 59.5, 127.0 ],
									"source" : [ "obj-1", 0 ]
								}

							}
 ]
					}
,
					"patching_rect" : [ 47.0, 78.0, 79.0, 20.0 ],
					"saved_object_attributes" : 					{
						"default_fontface" : 0,
						"default_fontname" : "Verdana",
						"fontname" : "Verdana",
						"default_fontsize" : 11.0,
						"globalpatchername" : "",
						"fontface" : 0,
						"fontsize" : 11.0
					}
,
					"text" : "p cycle~ 0.1"
				}

			}
, 			{
				"box" : 				{
					"id" : "obj-26",
					"maxclass" : "meter~",
					"nhotleds" : 4,
					"ntepidleds" : 4,
					"numinlets" : 1,
					"numleds" : 20,
					"numoutlets" : 1,
					"nwarmleds" : 4,
					"outlettype" : [ "float" ],
					"patching_rect" : [ 225.0, 397.0, 16.0, 90.0 ],
					"prototypename" : "20 Leds"
				}

			}
, 			{
				"box" : 				{
					"id" : "obj-27",
					"maxclass" : "meter~",
					"nhotleds" : 4,
					"ntepidleds" : 4,
					"numinlets" : 1,
					"numleds" : 20,
					"numoutlets" : 1,
					"nwarmleds" : 4,
					"outlettype" : [ "float" ],
					"patching_rect" : [ 198.0, 397.0, 16.0, 90.0 ],
					"prototypename" : "20 Leds"
				}

			}
, 			{
				"box" : 				{
					"fontname" : "Verdana",
					"fontsize" : 11.0,
					"id" : "obj-28",
					"maxclass" : "newobj",
					"numinlets" : 1,
					"numoutlets" : 3,
					"outlettype" : [ "", "", "" ],
					"patching_rect" : [ 198.0, 372.0, 88.0, 20.0 ],
					"text" : "route~ 2 map"
				}

			}
, 			{
				"box" : 				{
					"id" : "obj-23",
					"maxclass" : "meter~",
					"nhotleds" : 4,
					"ntepidleds" : 4,
					"numinlets" : 1,
					"numleds" : 20,
					"numoutlets" : 1,
					"nwarmleds" : 4,
					"outlettype" : [ "float" ],
					"patching_rect" : [ 91.0, 395.0, 16.0, 90.0 ],
					"prototypename" : "20 Leds"
				}

			}
, 			{
				"box" : 				{
					"id" : "obj-24",
					"maxclass" : "meter~",
					"nhotleds" : 4,
					"ntepidleds" : 4,
					"numinlets" : 1,
					"numleds" : 20,
					"numoutlets" : 1,
					"nwarmleds" : 4,
					"outlettype" : [ "float" ],
					"patching_rect" : [ 64.0, 395.0, 16.0, 90.0 ],
					"prototypename" : "20 Leds"
				}

			}
, 			{
				"box" : 				{
					"fontname" : "Verdana",
					"fontsize" : 11.0,
					"id" : "obj-25",
					"maxclass" : "newobj",
					"numinlets" : 1,
					"numoutlets" : 3,
					"outlettype" : [ "", "", "" ],
					"patching_rect" : [ 64.0, 370.0, 60.0, 20.0 ],
					"text" : "route~ 2"
				}

			}
, 			{
				"box" : 				{
					"id" : "obj-19",
					"maxclass" : "ezdac~",
					"numinlets" : 2,
					"numoutlets" : 0,
					"patching_rect" : [ 275.0, 419.0, 45.0, 45.0 ]
				}

			}
, 			{
				"box" : 				{
					"id" : "obj-11",
					"maxclass" : "meter~",
					"nhotleds" : 4,
					"ntepidleds" : 4,
					"numinlets" : 1,
					"numleds" : 20,
					"numoutlets" : 1,
					"nwarmleds" : 4,
					"outlettype" : [ "float" ],
					"patching_rect" : [ 145.0, 271.0, 16.0, 90.0 ],
					"prototypename" : "20 Leds"
				}

			}
, 			{
				"box" : 				{
					"fontname" : "Verdana",
					"fontsize" : 11.0,
					"id" : "obj-13",
					"linecount" : 7,
					"maxclass" : "comment",
					"numinlets" : 1,
					"numoutlets" : 0,
					"patching_rect" : [ 199.0, 243.0, 226.0, 100.0 ],
					"text" : "It is also a decoder for multicore  signals (up to 24 channels)\n\na second parameter defines an offset.\nin case this its \"map\", it will enable mapping of the rest of the channels to the existing ouputs."
				}

			}
, 			{
				"box" : 				{
					"id" : "obj-12",
					"maxclass" : "meter~",
					"nhotleds" : 4,
					"ntepidleds" : 4,
					"numinlets" : 1,
					"numleds" : 20,
					"numoutlets" : 1,
					"nwarmleds" : 4,
					"outlettype" : [ "float" ],
					"patching_rect" : [ 118.0, 271.0, 16.0, 90.0 ],
					"prototypename" : "20 Leds"
				}

			}
, 			{
				"box" : 				{
					"id" : "obj-8",
					"maxclass" : "meter~",
					"nhotleds" : 4,
					"ntepidleds" : 4,
					"numinlets" : 1,
					"numleds" : 20,
					"numoutlets" : 1,
					"nwarmleds" : 4,
					"outlettype" : [ "float" ],
					"patching_rect" : [ 91.0, 271.0, 16.0, 90.0 ],
					"prototypename" : "20 Leds"
				}

			}
, 			{
				"box" : 				{
					"id" : "obj-14",
					"maxclass" : "meter~",
					"nhotleds" : 4,
					"ntepidleds" : 4,
					"numinlets" : 1,
					"numleds" : 20,
					"numoutlets" : 1,
					"nwarmleds" : 4,
					"outlettype" : [ "float" ],
					"patching_rect" : [ 64.0, 271.0, 16.0, 90.0 ],
					"prototypename" : "20 Leds"
				}

			}
, 			{
				"box" : 				{
					"fontname" : "Verdana",
					"fontsize" : 11.0,
					"id" : "obj-15",
					"maxclass" : "newobj",
					"numinlets" : 1,
					"numoutlets" : 5,
					"outlettype" : [ "", "", "", "", "" ],
					"patching_rect" : [ 64.0, 245.0, 127.0, 20.0 ],
					"text" : "route~ 4"
				}

			}
, 			{
				"box" : 				{
					"fontname" : "Verdana",
					"fontsize" : 11.0,
					"id" : "obj-9",
					"maxclass" : "message",
					"numinlets" : 2,
					"numoutlets" : 1,
					"outlettype" : [ "" ],
					"patching_rect" : [ 48.0, 173.0, 98.0, 18.0 ]
				}

			}
, 			{
				"box" : 				{
					"bgcolor" : [ 0.866667, 0.866667, 0.866667, 1.0 ],
					"fontname" : "Verdana",
					"fontsize" : 11.0,
					"htextcolor" : [ 0.870588, 0.870588, 0.870588, 1.0 ],
					"id" : "obj-2",
					"maxclass" : "number",
					"numinlets" : 1,
					"numoutlets" : 2,
					"outlettype" : [ "int", "bang" ],
					"patching_rect" : [ 230.0, 79.0, 37.0, 20.0 ],
					"triscale" : 0.9
				}

			}
, 			{
				"box" : 				{
					"fontname" : "Verdana",
					"fontsize" : 11.0,
					"id" : "obj-3",
					"maxclass" : "message",
					"numinlets" : 2,
					"numoutlets" : 1,
					"outlettype" : [ "" ],
					"patching_rect" : [ 131.0, 79.0, 96.0, 18.0 ],
					"text" : "other messages"
				}

			}
, 			{
				"box" : 				{
					"id" : "obj-4",
					"maxclass" : "meter~",
					"nhotleds" : 4,
					"ntepidleds" : 4,
					"numinlets" : 1,
					"numleds" : 20,
					"numoutlets" : 1,
					"nwarmleds" : 4,
					"outlettype" : [ "float" ],
					"patching_rect" : [ 47.0, 148.0, 85.0, 16.0 ],
					"prototypename" : "20 Leds"
				}

			}
, 			{
				"box" : 				{
					"fontname" : "Verdana",
					"fontsize" : 11.0,
					"id" : "obj-6",
					"maxclass" : "newobj",
					"numinlets" : 1,
					"numoutlets" : 2,
					"outlettype" : [ "", "" ],
					"patching_rect" : [ 47.0, 119.0, 99.0, 20.0 ],
					"text" : "route~"
				}

			}
, 			{
				"box" : 				{
					"fontname" : "Verdana",
					"fontsize" : 11.0,
					"id" : "obj-7",
					"linecount" : 4,
					"maxclass" : "comment",
					"numinlets" : 1,
					"numoutlets" : 0,
					"patching_rect" : [ 165.0, 130.0, 147.0, 60.0 ],
					"text" : "route~ will route signals out of the left outlet, anything else will go out the most right outlet..."
				}

			}
 ],
		"lines" : [ 			{
				"patchline" : 				{
					"destination" : [ "obj-15", 0 ],
					"hidden" : 0,
					"midpoints" : [ 56.5, 237.5, 73.5, 237.5 ],
					"source" : [ "obj-32", 0 ]
				}

			}
, 			{
				"patchline" : 				{
					"destination" : [ "obj-28", 0 ],
					"hidden" : 0,
					"midpoints" : [ 56.5, 366.0, 207.5, 366.0 ],
					"source" : [ "obj-32", 0 ]
				}

			}
, 			{
				"patchline" : 				{
					"destination" : [ "obj-25", 0 ],
					"hidden" : 0,
					"midpoints" : [ 56.5, 366.0, 73.5, 366.0 ],
					"source" : [ "obj-32", 0 ]
				}

			}
, 			{
				"patchline" : 				{
					"destination" : [ "obj-29", 0 ],
					"hidden" : 0,
					"midpoints" : [ 56.5, 366.5, 134.5, 366.5 ],
					"source" : [ "obj-32", 0 ]
				}

			}
, 			{
				"patchline" : 				{
					"destination" : [ "obj-22", 0 ],
					"hidden" : 0,
					"midpoints" : [  ],
					"source" : [ "obj-29", 0 ]
				}

			}
, 			{
				"patchline" : 				{
					"destination" : [ "obj-5", 0 ],
					"hidden" : 0,
					"midpoints" : [  ],
					"source" : [ "obj-29", 1 ]
				}

			}
, 			{
				"patchline" : 				{
					"destination" : [ "obj-27", 0 ],
					"hidden" : 0,
					"midpoints" : [  ],
					"source" : [ "obj-28", 0 ]
				}

			}
, 			{
				"patchline" : 				{
					"destination" : [ "obj-26", 0 ],
					"hidden" : 0,
					"midpoints" : [  ],
					"source" : [ "obj-28", 1 ]
				}

			}
, 			{
				"patchline" : 				{
					"destination" : [ "obj-23", 0 ],
					"hidden" : 0,
					"midpoints" : [  ],
					"source" : [ "obj-25", 1 ]
				}

			}
, 			{
				"patchline" : 				{
					"destination" : [ "obj-24", 0 ],
					"hidden" : 0,
					"midpoints" : [  ],
					"source" : [ "obj-25", 0 ]
				}

			}
, 			{
				"patchline" : 				{
					"destination" : [ "obj-11", 0 ],
					"hidden" : 0,
					"midpoints" : [  ],
					"source" : [ "obj-15", 3 ]
				}

			}
, 			{
				"patchline" : 				{
					"destination" : [ "obj-12", 0 ],
					"hidden" : 0,
					"midpoints" : [  ],
					"source" : [ "obj-15", 2 ]
				}

			}
, 			{
				"patchline" : 				{
					"destination" : [ "obj-8", 0 ],
					"hidden" : 0,
					"midpoints" : [  ],
					"source" : [ "obj-15", 1 ]
				}

			}
, 			{
				"patchline" : 				{
					"destination" : [ "obj-14", 0 ],
					"hidden" : 0,
					"midpoints" : [  ],
					"source" : [ "obj-15", 0 ]
				}

			}
, 			{
				"patchline" : 				{
					"destination" : [ "obj-6", 0 ],
					"hidden" : 0,
					"midpoints" : [  ],
					"source" : [ "obj-31", 0 ]
				}

			}
, 			{
				"patchline" : 				{
					"destination" : [ "obj-4", 0 ],
					"hidden" : 0,
					"midpoints" : [  ],
					"source" : [ "obj-6", 0 ]
				}

			}
, 			{
				"patchline" : 				{
					"destination" : [ "obj-9", 1 ],
					"hidden" : 0,
					"midpoints" : [  ],
					"source" : [ "obj-6", 1 ]
				}

			}
, 			{
				"patchline" : 				{
					"destination" : [ "obj-6", 0 ],
					"hidden" : 0,
					"midpoints" : [  ],
					"source" : [ "obj-3", 0 ]
				}

			}
, 			{
				"patchline" : 				{
					"destination" : [ "obj-6", 0 ],
					"hidden" : 0,
					"midpoints" : [  ],
					"source" : [ "obj-2", 0 ]
				}

			}
 ]
	}

}
