{
	"patcher" : 	{
		"fileversion" : 1,
		"rect" : [ 100.0, 150.0, 311.0, 241.0 ],
		"bglocked" : 0,
		"defrect" : [ 100.0, 150.0, 311.0, 241.0 ],
		"openrect" : [ 0.0, 0.0, 0.0, 0.0 ],
		"openinpresentation" : 0,
		"default_fontsize" : 11.0,
		"default_fontface" : 0,
		"default_fontname" : "Verdana",
		"gridonopen" : 0,
		"gridsize" : [ 15.0, 15.0 ],
		"gridsnaponopen" : 0,
		"toolbarvisible" : 1,
		"boxanimatetime" : 200,
		"imprint" : 0,
		"metadata" : [  ],
		"boxes" : [ 			{
				"box" : 				{
					"maxclass" : "message",
					"text" : "other",
					"outlettype" : [ "" ],
					"fontsize" : 11.0,
					"numinlets" : 2,
					"patching_rect" : [ 146.0, 149.0, 44.0, 18.0 ],
					"numoutlets" : 1,
					"id" : "obj-17",
					"fontname" : "Verdana"
				}

			}
, 			{
				"box" : 				{
					"maxclass" : "message",
					"text" : "0.",
					"outlettype" : [ "" ],
					"fontsize" : 11.0,
					"numinlets" : 2,
					"patching_rect" : [ 111.0, 149.0, 32.0, 18.0 ],
					"numoutlets" : 1,
					"id" : "obj-16",
					"fontname" : "Verdana"
				}

			}
, 			{
				"box" : 				{
					"maxclass" : "message",
					"text" : "0",
					"outlettype" : [ "" ],
					"fontsize" : 11.0,
					"numinlets" : 2,
					"patching_rect" : [ 75.0, 149.0, 32.0, 18.0 ],
					"numoutlets" : 1,
					"id" : "obj-15",
					"fontname" : "Verdana"
				}

			}
, 			{
				"box" : 				{
					"maxclass" : "message",
					"text" : "#k",
					"outlettype" : [ "" ],
					"fontsize" : 11.0,
					"numinlets" : 2,
					"patching_rect" : [ 39.0, 149.0, 32.0, 18.0 ],
					"numoutlets" : 1,
					"id" : "obj-14",
					"fontname" : "Verdana"
				}

			}
, 			{
				"box" : 				{
					"maxclass" : "newobj",
					"text" : "print",
					"fontsize" : 11.0,
					"numinlets" : 1,
					"patching_rect" : [ 79.0, 214.0, 57.0, 20.0 ],
					"numoutlets" : 0,
					"id" : "obj-8",
					"fontname" : "Verdana"
				}

			}
, 			{
				"box" : 				{
					"maxclass" : "button",
					"outlettype" : [ "bang" ],
					"numinlets" : 1,
					"patching_rect" : [ 39.0, 214.0, 20.0, 20.0 ],
					"numoutlets" : 1,
					"id" : "obj-9"
				}

			}
, 			{
				"box" : 				{
					"maxclass" : "newobj",
					"text" : "sel# 0",
					"outlettype" : [ "bang", "int" ],
					"fontsize" : 11.0,
					"numinlets" : 1,
					"patching_rect" : [ 39.0, 181.0, 59.0, 20.0 ],
					"numoutlets" : 2,
					"id" : "obj-10",
					"fontname" : "Verdana"
				}

			}
, 			{
				"box" : 				{
					"maxclass" : "newobj",
					"text" : "Abhaxions.Copyright",
					"fontsize" : 11.0,
					"numinlets" : 1,
					"patching_rect" : [ 168.0, 192.0, 127.0, 20.0 ],
					"numoutlets" : 0,
					"id" : "obj-1",
					"fontname" : "Verdana"
				}

			}
, 			{
				"box" : 				{
					"maxclass" : "newobj",
					"text" : "print",
					"fontsize" : 11.0,
					"numinlets" : 1,
					"patching_rect" : [ 77.0, 114.0, 57.0, 20.0 ],
					"numoutlets" : 0,
					"id" : "obj-2",
					"fontname" : "Verdana"
				}

			}
, 			{
				"box" : 				{
					"maxclass" : "button",
					"outlettype" : [ "bang" ],
					"numinlets" : 1,
					"patching_rect" : [ 37.0, 114.0, 20.0, 20.0 ],
					"numoutlets" : 1,
					"id" : "obj-3"
				}

			}
, 			{
				"box" : 				{
					"maxclass" : "message",
					"text" : "this and that, 0, nothing, #9, 2345, 3.678",
					"linecount" : 3,
					"outlettype" : [ "" ],
					"fontsize" : 11.0,
					"numinlets" : 2,
					"patching_rect" : [ 89.0, 21.0, 115.0, 45.0 ],
					"numoutlets" : 1,
					"id" : "obj-4",
					"fontname" : "Verdana"
				}

			}
, 			{
				"box" : 				{
					"maxclass" : "message",
					"text" : "#1",
					"outlettype" : [ "" ],
					"fontsize" : 11.0,
					"numinlets" : 2,
					"patching_rect" : [ 37.0, 46.0, 28.0, 18.0 ],
					"numoutlets" : 1,
					"id" : "obj-5",
					"fontname" : "Verdana"
				}

			}
, 			{
				"box" : 				{
					"maxclass" : "newobj",
					"text" : "sel#",
					"outlettype" : [ "bang", "" ],
					"fontsize" : 11.0,
					"numinlets" : 1,
					"patching_rect" : [ 37.0, 81.0, 59.0, 20.0 ],
					"numoutlets" : 2,
					"id" : "obj-6",
					"fontname" : "Verdana"
				}

			}
, 			{
				"box" : 				{
					"maxclass" : "comment",
					"text" : "sel# is the abhaxion to prevent #1 arguments to be fired when you edit the original",
					"linecount" : 5,
					"fontsize" : 11.0,
					"numinlets" : 1,
					"patching_rect" : [ 181.0, 74.0, 123.0, 73.0 ],
					"numoutlets" : 0,
					"id" : "obj-7",
					"fontname" : "Verdana"
				}

			}
 ],
		"lines" : [ 			{
				"patchline" : 				{
					"source" : [ "obj-10", 1 ],
					"destination" : [ "obj-8", 0 ],
					"hidden" : 0,
					"midpoints" : [  ]
				}

			}
, 			{
				"patchline" : 				{
					"source" : [ "obj-10", 0 ],
					"destination" : [ "obj-9", 0 ],
					"hidden" : 0,
					"midpoints" : [  ]
				}

			}
, 			{
				"patchline" : 				{
					"source" : [ "obj-14", 0 ],
					"destination" : [ "obj-10", 0 ],
					"hidden" : 0,
					"midpoints" : [  ]
				}

			}
, 			{
				"patchline" : 				{
					"source" : [ "obj-15", 0 ],
					"destination" : [ "obj-10", 0 ],
					"hidden" : 0,
					"midpoints" : [  ]
				}

			}
, 			{
				"patchline" : 				{
					"source" : [ "obj-16", 0 ],
					"destination" : [ "obj-10", 0 ],
					"hidden" : 0,
					"midpoints" : [  ]
				}

			}
, 			{
				"patchline" : 				{
					"source" : [ "obj-17", 0 ],
					"destination" : [ "obj-10", 0 ],
					"hidden" : 0,
					"midpoints" : [  ]
				}

			}
, 			{
				"patchline" : 				{
					"source" : [ "obj-6", 1 ],
					"destination" : [ "obj-2", 0 ],
					"hidden" : 0,
					"midpoints" : [  ]
				}

			}
, 			{
				"patchline" : 				{
					"source" : [ "obj-6", 0 ],
					"destination" : [ "obj-3", 0 ],
					"hidden" : 0,
					"midpoints" : [  ]
				}

			}
, 			{
				"patchline" : 				{
					"source" : [ "obj-4", 0 ],
					"destination" : [ "obj-6", 0 ],
					"hidden" : 0,
					"midpoints" : [  ]
				}

			}
, 			{
				"patchline" : 				{
					"source" : [ "obj-5", 0 ],
					"destination" : [ "obj-6", 0 ],
					"hidden" : 0,
					"midpoints" : [  ]
				}

			}
 ]
	}

}
