{
	"patcher" : 	{
		"fileversion" : 1,
		"rect" : [ 32.0, 116.0, 671.0, 429.0 ],
		"bglocked" : 0,
		"defrect" : [ 32.0, 116.0, 671.0, 429.0 ],
		"openrect" : [ 0.0, 0.0, 0.0, 0.0 ],
		"openinpresentation" : 0,
		"default_fontsize" : 11.0,
		"default_fontface" : 0,
		"default_fontname" : "Verdana",
		"gridonopen" : 0,
		"gridsize" : [ 15.0, 15.0 ],
		"gridsnaponopen" : 0,
		"toolbarvisible" : 1,
		"boxanimatetime" : 200,
		"imprint" : 0,
		"boxes" : [ 			{
				"box" : 				{
					"maxclass" : "newobj",
					"text" : "r~ Hallo 8",
					"outlettype" : [ "" ],
					"fontsize" : 11.0,
					"patching_rect" : [ 251.0, 204.0, 69.0, 20.0 ],
					"id" : "obj-36",
					"numinlets" : 1,
					"fontname" : "Verdana",
					"numoutlets" : 1
				}

			}
, 			{
				"box" : 				{
					"maxclass" : "newobj",
					"text" : "r~ Halli 8",
					"outlettype" : [ "" ],
					"fontsize" : 11.0,
					"patching_rect" : [ 62.0, 204.0, 69.0, 20.0 ],
					"id" : "obj-35",
					"numinlets" : 1,
					"fontname" : "Verdana",
					"numoutlets" : 1
				}

			}
, 			{
				"box" : 				{
					"maxclass" : "newobj",
					"text" : "abhaXions.CopyRight 2005-2008",
					"linecount" : 2,
					"fontsize" : 11.0,
					"patching_rect" : [ 442.0, 213.0, 130.0, 33.0 ],
					"id" : "obj-1",
					"numinlets" : 1,
					"fontname" : "Verdana",
					"numoutlets" : 0
				}

			}
, 			{
				"box" : 				{
					"maxclass" : "newobj",
					"text" : "cycle~ 0.6",
					"outlettype" : [ "signal" ],
					"fontsize" : 11.0,
					"patching_rect" : [ 271.70105, 129.0, 68.0, 20.0 ],
					"id" : "obj-2",
					"numinlets" : 2,
					"fontname" : "Verdana",
					"numoutlets" : 1
				}

			}
, 			{
				"box" : 				{
					"maxclass" : "newobj",
					"text" : "cycle~ 0.7",
					"outlettype" : [ "signal" ],
					"fontsize" : 11.0,
					"patching_rect" : [ 203.467361, 129.0, 68.0, 20.0 ],
					"id" : "obj-3",
					"numinlets" : 2,
					"fontname" : "Verdana",
					"numoutlets" : 1
				}

			}
, 			{
				"box" : 				{
					"maxclass" : "newobj",
					"text" : "cycle~ 0.8",
					"outlettype" : [ "signal" ],
					"fontsize" : 11.0,
					"patching_rect" : [ 133.233688, 129.0, 68.0, 20.0 ],
					"id" : "obj-4",
					"numinlets" : 2,
					"fontname" : "Verdana",
					"numoutlets" : 1
				}

			}
, 			{
				"box" : 				{
					"maxclass" : "newobj",
					"text" : "cycle~ 0.1",
					"outlettype" : [ "signal" ],
					"fontsize" : 11.0,
					"patching_rect" : [ 548.635803, 129.0, 68.0, 20.0 ],
					"id" : "obj-5",
					"numinlets" : 2,
					"fontname" : "Verdana",
					"numoutlets" : 1
				}

			}
, 			{
				"box" : 				{
					"maxclass" : "newobj",
					"text" : "cycle~ 0.2",
					"outlettype" : [ "signal" ],
					"fontsize" : 11.0,
					"patching_rect" : [ 480.4021, 129.0, 68.0, 20.0 ],
					"id" : "obj-6",
					"numinlets" : 2,
					"fontname" : "Verdana",
					"numoutlets" : 1
				}

			}
, 			{
				"box" : 				{
					"maxclass" : "newobj",
					"text" : "cycle~ 0.3",
					"outlettype" : [ "signal" ],
					"fontsize" : 11.0,
					"patching_rect" : [ 410.168427, 129.0, 68.0, 20.0 ],
					"id" : "obj-7",
					"numinlets" : 2,
					"fontname" : "Verdana",
					"numoutlets" : 1
				}

			}
, 			{
				"box" : 				{
					"maxclass" : "newobj",
					"text" : "cycle~ 0.5",
					"outlettype" : [ "signal" ],
					"fontsize" : 11.0,
					"patching_rect" : [ 340.934723, 129.0, 68.0, 20.0 ],
					"id" : "obj-8",
					"numinlets" : 2,
					"fontname" : "Verdana",
					"numoutlets" : 1
				}

			}
, 			{
				"box" : 				{
					"maxclass" : "message",
					"text" : "set Halli",
					"outlettype" : [ "" ],
					"fontsize" : 11.0,
					"patching_rect" : [ 64.0, 105.0, 53.0, 18.0 ],
					"id" : "obj-9",
					"numinlets" : 2,
					"fontname" : "Verdana",
					"numoutlets" : 1
				}

			}
, 			{
				"box" : 				{
					"maxclass" : "message",
					"text" : "set Hallo",
					"outlettype" : [ "" ],
					"fontsize" : 11.0,
					"patching_rect" : [ 119.0, 105.0, 60.0, 18.0 ],
					"id" : "obj-10",
					"numinlets" : 2,
					"fontname" : "Verdana",
					"numoutlets" : 1
				}

			}
, 			{
				"box" : 				{
					"maxclass" : "meter~",
					"bgcolor" : [ 0.403922, 0.403922, 0.403922, 1.0 ],
					"outlettype" : [ "float" ],
					"warmcolor" : [ 0.85098, 0.85098, 0.0, 1.0 ],
					"patching_rect" : [ 400.0, 256.0, 13.0, 59.0 ],
					"id" : "obj-11",
					"tepidcolor" : [ 0.6, 0.729412, 0.0, 1.0 ],
					"numinlets" : 1,
					"numoutlets" : 1,
					"coldcolor" : [ 0.0, 0.658824, 0.0, 1.0 ]
				}

			}
, 			{
				"box" : 				{
					"maxclass" : "meter~",
					"bgcolor" : [ 0.403922, 0.403922, 0.403922, 1.0 ],
					"outlettype" : [ "float" ],
					"warmcolor" : [ 0.85098, 0.85098, 0.0, 1.0 ],
					"patching_rect" : [ 379.0, 256.0, 13.0, 59.0 ],
					"id" : "obj-12",
					"tepidcolor" : [ 0.6, 0.729412, 0.0, 1.0 ],
					"numinlets" : 1,
					"numoutlets" : 1,
					"coldcolor" : [ 0.0, 0.658824, 0.0, 1.0 ]
				}

			}
, 			{
				"box" : 				{
					"maxclass" : "meter~",
					"bgcolor" : [ 0.403922, 0.403922, 0.403922, 1.0 ],
					"outlettype" : [ "float" ],
					"warmcolor" : [ 0.85098, 0.85098, 0.0, 1.0 ],
					"patching_rect" : [ 358.0, 256.0, 13.0, 59.0 ],
					"id" : "obj-13",
					"tepidcolor" : [ 0.6, 0.729412, 0.0, 1.0 ],
					"numinlets" : 1,
					"numoutlets" : 1,
					"coldcolor" : [ 0.0, 0.658824, 0.0, 1.0 ]
				}

			}
, 			{
				"box" : 				{
					"maxclass" : "meter~",
					"bgcolor" : [ 0.403922, 0.403922, 0.403922, 1.0 ],
					"outlettype" : [ "float" ],
					"warmcolor" : [ 0.85098, 0.85098, 0.0, 1.0 ],
					"patching_rect" : [ 337.0, 256.0, 13.0, 59.0 ],
					"id" : "obj-14",
					"tepidcolor" : [ 0.6, 0.729412, 0.0, 1.0 ],
					"numinlets" : 1,
					"numoutlets" : 1,
					"coldcolor" : [ 0.0, 0.658824, 0.0, 1.0 ]
				}

			}
, 			{
				"box" : 				{
					"maxclass" : "meter~",
					"bgcolor" : [ 0.403922, 0.403922, 0.403922, 1.0 ],
					"outlettype" : [ "float" ],
					"warmcolor" : [ 0.85098, 0.85098, 0.0, 1.0 ],
					"patching_rect" : [ 316.0, 256.0, 13.0, 59.0 ],
					"id" : "obj-15",
					"tepidcolor" : [ 0.6, 0.729412, 0.0, 1.0 ],
					"numinlets" : 1,
					"numoutlets" : 1,
					"coldcolor" : [ 0.0, 0.658824, 0.0, 1.0 ]
				}

			}
, 			{
				"box" : 				{
					"maxclass" : "meter~",
					"bgcolor" : [ 0.403922, 0.403922, 0.403922, 1.0 ],
					"outlettype" : [ "float" ],
					"warmcolor" : [ 0.85098, 0.85098, 0.0, 1.0 ],
					"patching_rect" : [ 295.0, 256.0, 13.0, 59.0 ],
					"id" : "obj-16",
					"tepidcolor" : [ 0.6, 0.729412, 0.0, 1.0 ],
					"numinlets" : 1,
					"numoutlets" : 1,
					"coldcolor" : [ 0.0, 0.658824, 0.0, 1.0 ]
				}

			}
, 			{
				"box" : 				{
					"maxclass" : "meter~",
					"bgcolor" : [ 0.403922, 0.403922, 0.403922, 1.0 ],
					"outlettype" : [ "float" ],
					"warmcolor" : [ 0.85098, 0.85098, 0.0, 1.0 ],
					"patching_rect" : [ 274.0, 256.0, 13.0, 59.0 ],
					"id" : "obj-17",
					"tepidcolor" : [ 0.6, 0.729412, 0.0, 1.0 ],
					"numinlets" : 1,
					"numoutlets" : 1,
					"coldcolor" : [ 0.0, 0.658824, 0.0, 1.0 ]
				}

			}
, 			{
				"box" : 				{
					"maxclass" : "meter~",
					"bgcolor" : [ 0.403922, 0.403922, 0.403922, 1.0 ],
					"outlettype" : [ "float" ],
					"warmcolor" : [ 0.85098, 0.85098, 0.0, 1.0 ],
					"patching_rect" : [ 253.0, 256.0, 13.0, 59.0 ],
					"id" : "obj-18",
					"tepidcolor" : [ 0.6, 0.729412, 0.0, 1.0 ],
					"numinlets" : 1,
					"numoutlets" : 1,
					"coldcolor" : [ 0.0, 0.658824, 0.0, 1.0 ]
				}

			}
, 			{
				"box" : 				{
					"maxclass" : "newobj",
					"text" : "route~ 8",
					"outlettype" : [ "", "", "", "", "", "", "", "", "" ],
					"fontsize" : 11.0,
					"patching_rect" : [ 251.0, 229.0, 187.0, 20.0 ],
					"id" : "obj-19",
					"numinlets" : 1,
					"fontname" : "Verdana",
					"numoutlets" : 9
				}

			}
, 			{
				"box" : 				{
					"maxclass" : "meter~",
					"bgcolor" : [ 0.403922, 0.403922, 0.403922, 1.0 ],
					"outlettype" : [ "float" ],
					"warmcolor" : [ 0.85098, 0.85098, 0.0, 1.0 ],
					"patching_rect" : [ 211.0, 256.0, 13.0, 59.0 ],
					"id" : "obj-20",
					"tepidcolor" : [ 0.6, 0.729412, 0.0, 1.0 ],
					"numinlets" : 1,
					"numoutlets" : 1,
					"coldcolor" : [ 0.0, 0.658824, 0.0, 1.0 ]
				}

			}
, 			{
				"box" : 				{
					"maxclass" : "meter~",
					"bgcolor" : [ 0.403922, 0.403922, 0.403922, 1.0 ],
					"outlettype" : [ "float" ],
					"warmcolor" : [ 0.85098, 0.85098, 0.0, 1.0 ],
					"patching_rect" : [ 190.0, 256.0, 13.0, 59.0 ],
					"id" : "obj-21",
					"tepidcolor" : [ 0.6, 0.729412, 0.0, 1.0 ],
					"numinlets" : 1,
					"numoutlets" : 1,
					"coldcolor" : [ 0.0, 0.658824, 0.0, 1.0 ]
				}

			}
, 			{
				"box" : 				{
					"maxclass" : "meter~",
					"bgcolor" : [ 0.403922, 0.403922, 0.403922, 1.0 ],
					"outlettype" : [ "float" ],
					"warmcolor" : [ 0.85098, 0.85098, 0.0, 1.0 ],
					"patching_rect" : [ 169.0, 256.0, 13.0, 59.0 ],
					"id" : "obj-22",
					"tepidcolor" : [ 0.6, 0.729412, 0.0, 1.0 ],
					"numinlets" : 1,
					"numoutlets" : 1,
					"coldcolor" : [ 0.0, 0.658824, 0.0, 1.0 ]
				}

			}
, 			{
				"box" : 				{
					"maxclass" : "meter~",
					"bgcolor" : [ 0.403922, 0.403922, 0.403922, 1.0 ],
					"outlettype" : [ "float" ],
					"warmcolor" : [ 0.85098, 0.85098, 0.0, 1.0 ],
					"patching_rect" : [ 148.0, 256.0, 13.0, 59.0 ],
					"id" : "obj-23",
					"tepidcolor" : [ 0.6, 0.729412, 0.0, 1.0 ],
					"numinlets" : 1,
					"numoutlets" : 1,
					"coldcolor" : [ 0.0, 0.658824, 0.0, 1.0 ]
				}

			}
, 			{
				"box" : 				{
					"maxclass" : "meter~",
					"bgcolor" : [ 0.403922, 0.403922, 0.403922, 1.0 ],
					"outlettype" : [ "float" ],
					"warmcolor" : [ 0.85098, 0.85098, 0.0, 1.0 ],
					"patching_rect" : [ 127.0, 256.0, 13.0, 59.0 ],
					"id" : "obj-24",
					"tepidcolor" : [ 0.6, 0.729412, 0.0, 1.0 ],
					"numinlets" : 1,
					"numoutlets" : 1,
					"coldcolor" : [ 0.0, 0.658824, 0.0, 1.0 ]
				}

			}
, 			{
				"box" : 				{
					"maxclass" : "meter~",
					"bgcolor" : [ 0.403922, 0.403922, 0.403922, 1.0 ],
					"outlettype" : [ "float" ],
					"warmcolor" : [ 0.85098, 0.85098, 0.0, 1.0 ],
					"patching_rect" : [ 106.0, 256.0, 13.0, 59.0 ],
					"id" : "obj-25",
					"tepidcolor" : [ 0.6, 0.729412, 0.0, 1.0 ],
					"numinlets" : 1,
					"numoutlets" : 1,
					"coldcolor" : [ 0.0, 0.658824, 0.0, 1.0 ]
				}

			}
, 			{
				"box" : 				{
					"maxclass" : "meter~",
					"bgcolor" : [ 0.403922, 0.403922, 0.403922, 1.0 ],
					"outlettype" : [ "float" ],
					"warmcolor" : [ 0.85098, 0.85098, 0.0, 1.0 ],
					"patching_rect" : [ 85.0, 256.0, 13.0, 59.0 ],
					"id" : "obj-26",
					"tepidcolor" : [ 0.6, 0.729412, 0.0, 1.0 ],
					"numinlets" : 1,
					"numoutlets" : 1,
					"coldcolor" : [ 0.0, 0.658824, 0.0, 1.0 ]
				}

			}
, 			{
				"box" : 				{
					"maxclass" : "meter~",
					"bgcolor" : [ 0.403922, 0.403922, 0.403922, 1.0 ],
					"outlettype" : [ "float" ],
					"warmcolor" : [ 0.85098, 0.85098, 0.0, 1.0 ],
					"patching_rect" : [ 64.0, 256.0, 13.0, 59.0 ],
					"id" : "obj-27",
					"tepidcolor" : [ 0.6, 0.729412, 0.0, 1.0 ],
					"numinlets" : 1,
					"numoutlets" : 1,
					"coldcolor" : [ 0.0, 0.658824, 0.0, 1.0 ]
				}

			}
, 			{
				"box" : 				{
					"maxclass" : "ezdac~",
					"patching_rect" : [ 483.0, 266.0, 45.0, 45.0 ],
					"id" : "obj-28",
					"numinlets" : 2,
					"numoutlets" : 0
				}

			}
, 			{
				"box" : 				{
					"maxclass" : "newobj",
					"text" : "route~ 8",
					"outlettype" : [ "", "", "", "", "", "", "", "", "" ],
					"fontsize" : 11.0,
					"patching_rect" : [ 62.0, 229.0, 187.0, 20.0 ],
					"id" : "obj-29",
					"numinlets" : 1,
					"fontname" : "Verdana",
					"numoutlets" : 9
				}

			}
, 			{
				"box" : 				{
					"maxclass" : "newobj",
					"text" : "cycle~ 1.",
					"outlettype" : [ "signal" ],
					"fontsize" : 11.0,
					"patching_rect" : [ 64.0, 129.0, 67.0, 20.0 ],
					"id" : "obj-30",
					"numinlets" : 2,
					"fontname" : "Verdana",
					"numoutlets" : 1
				}

			}
, 			{
				"box" : 				{
					"maxclass" : "newobj",
					"text" : "s~ Halli 8",
					"fontsize" : 11.0,
					"patching_rect" : [ 64.0, 159.0, 504.0, 20.0 ],
					"id" : "obj-31",
					"numinlets" : 8,
					"fontname" : "Verdana",
					"numoutlets" : 0
				}

			}
, 			{
				"box" : 				{
					"maxclass" : "comment",
					"text" : "multiple sends~ with setable parameter. Internaly the name is parameter1_x.\rThe second parameter determines the number of inputs (default 2).\nIt accepts multicore~ input...",
					"linecount" : 5,
					"fontsize" : 11.0,
					"patching_rect" : [ 189.0, 46.0, 242.0, 73.0 ],
					"id" : "obj-32",
					"numinlets" : 1,
					"fontname" : "Verdana",
					"numoutlets" : 0
				}

			}
 ],
		"lines" : [ 			{
				"patchline" : 				{
					"source" : [ "obj-30", 0 ],
					"destination" : [ "obj-31", 0 ],
					"hidden" : 0,
					"midpoints" : [  ]
				}

			}
, 			{
				"patchline" : 				{
					"source" : [ "obj-9", 0 ],
					"destination" : [ "obj-31", 0 ],
					"hidden" : 1,
					"midpoints" : [  ]
				}

			}
, 			{
				"patchline" : 				{
					"source" : [ "obj-10", 0 ],
					"destination" : [ "obj-31", 0 ],
					"hidden" : 1,
					"midpoints" : [  ]
				}

			}
, 			{
				"patchline" : 				{
					"source" : [ "obj-4", 0 ],
					"destination" : [ "obj-31", 1 ],
					"hidden" : 0,
					"midpoints" : [  ]
				}

			}
, 			{
				"patchline" : 				{
					"source" : [ "obj-3", 0 ],
					"destination" : [ "obj-31", 2 ],
					"hidden" : 0,
					"midpoints" : [  ]
				}

			}
, 			{
				"patchline" : 				{
					"source" : [ "obj-2", 0 ],
					"destination" : [ "obj-31", 3 ],
					"hidden" : 0,
					"midpoints" : [  ]
				}

			}
, 			{
				"patchline" : 				{
					"source" : [ "obj-8", 0 ],
					"destination" : [ "obj-31", 4 ],
					"hidden" : 0,
					"midpoints" : [  ]
				}

			}
, 			{
				"patchline" : 				{
					"source" : [ "obj-7", 0 ],
					"destination" : [ "obj-31", 5 ],
					"hidden" : 0,
					"midpoints" : [  ]
				}

			}
, 			{
				"patchline" : 				{
					"source" : [ "obj-6", 0 ],
					"destination" : [ "obj-31", 6 ],
					"hidden" : 0,
					"midpoints" : [  ]
				}

			}
, 			{
				"patchline" : 				{
					"source" : [ "obj-5", 0 ],
					"destination" : [ "obj-31", 7 ],
					"hidden" : 0,
					"midpoints" : [  ]
				}

			}
, 			{
				"patchline" : 				{
					"source" : [ "obj-29", 0 ],
					"destination" : [ "obj-27", 0 ],
					"hidden" : 0,
					"midpoints" : [  ]
				}

			}
, 			{
				"patchline" : 				{
					"source" : [ "obj-29", 1 ],
					"destination" : [ "obj-26", 0 ],
					"hidden" : 0,
					"midpoints" : [  ]
				}

			}
, 			{
				"patchline" : 				{
					"source" : [ "obj-29", 2 ],
					"destination" : [ "obj-25", 0 ],
					"hidden" : 0,
					"midpoints" : [  ]
				}

			}
, 			{
				"patchline" : 				{
					"source" : [ "obj-29", 3 ],
					"destination" : [ "obj-24", 0 ],
					"hidden" : 0,
					"midpoints" : [  ]
				}

			}
, 			{
				"patchline" : 				{
					"source" : [ "obj-29", 4 ],
					"destination" : [ "obj-23", 0 ],
					"hidden" : 0,
					"midpoints" : [  ]
				}

			}
, 			{
				"patchline" : 				{
					"source" : [ "obj-29", 5 ],
					"destination" : [ "obj-22", 0 ],
					"hidden" : 0,
					"midpoints" : [  ]
				}

			}
, 			{
				"patchline" : 				{
					"source" : [ "obj-29", 6 ],
					"destination" : [ "obj-21", 0 ],
					"hidden" : 0,
					"midpoints" : [  ]
				}

			}
, 			{
				"patchline" : 				{
					"source" : [ "obj-29", 7 ],
					"destination" : [ "obj-20", 0 ],
					"hidden" : 0,
					"midpoints" : [  ]
				}

			}
, 			{
				"patchline" : 				{
					"source" : [ "obj-35", 0 ],
					"destination" : [ "obj-29", 0 ],
					"hidden" : 0,
					"midpoints" : [  ]
				}

			}
, 			{
				"patchline" : 				{
					"source" : [ "obj-19", 7 ],
					"destination" : [ "obj-11", 0 ],
					"hidden" : 0,
					"midpoints" : [  ]
				}

			}
, 			{
				"patchline" : 				{
					"source" : [ "obj-19", 6 ],
					"destination" : [ "obj-12", 0 ],
					"hidden" : 0,
					"midpoints" : [  ]
				}

			}
, 			{
				"patchline" : 				{
					"source" : [ "obj-19", 5 ],
					"destination" : [ "obj-13", 0 ],
					"hidden" : 0,
					"midpoints" : [  ]
				}

			}
, 			{
				"patchline" : 				{
					"source" : [ "obj-19", 4 ],
					"destination" : [ "obj-14", 0 ],
					"hidden" : 0,
					"midpoints" : [  ]
				}

			}
, 			{
				"patchline" : 				{
					"source" : [ "obj-19", 3 ],
					"destination" : [ "obj-15", 0 ],
					"hidden" : 0,
					"midpoints" : [  ]
				}

			}
, 			{
				"patchline" : 				{
					"source" : [ "obj-19", 2 ],
					"destination" : [ "obj-16", 0 ],
					"hidden" : 0,
					"midpoints" : [  ]
				}

			}
, 			{
				"patchline" : 				{
					"source" : [ "obj-19", 1 ],
					"destination" : [ "obj-17", 0 ],
					"hidden" : 0,
					"midpoints" : [  ]
				}

			}
, 			{
				"patchline" : 				{
					"source" : [ "obj-19", 0 ],
					"destination" : [ "obj-18", 0 ],
					"hidden" : 0,
					"midpoints" : [  ]
				}

			}
, 			{
				"patchline" : 				{
					"source" : [ "obj-36", 0 ],
					"destination" : [ "obj-19", 0 ],
					"hidden" : 0,
					"midpoints" : [  ]
				}

			}
 ]
	}

}
