{
	"patcher" : 	{
		"fileversion" : 1,
		"rect" : [ 25.0, 69.0, 640.0, 480.0 ],
		"bglocked" : 0,
		"defrect" : [ 25.0, 69.0, 640.0, 480.0 ],
		"openrect" : [ 0.0, 0.0, 0.0, 0.0 ],
		"openinpresentation" : 0,
		"default_fontsize" : 11.0,
		"default_fontface" : 0,
		"default_fontname" : "Verdana",
		"gridonopen" : 0,
		"gridsize" : [ 15.0, 15.0 ],
		"gridsnaponopen" : 0,
		"toolbarvisible" : 1,
		"boxanimatetime" : 200,
		"imprint" : 0,
		"enablehscroll" : 1,
		"enablevscroll" : 1,
		"devicewidth" : 0.0,
		"boxes" : [ 			{
				"box" : 				{
					"fontname" : "Verdana",
					"fontsize" : 11.0,
					"id" : "obj-21",
					"maxclass" : "comment",
					"numinlets" : 1,
					"numoutlets" : 0,
					"patching_rect" : [ 324.0, 192.0, 80.0, 20.0 ],
					"text" : "smooth time"
				}

			}
, 			{
				"box" : 				{
					"fontname" : "Verdana",
					"fontsize" : 11.0,
					"id" : "obj-19",
					"maxclass" : "number",
					"numinlets" : 1,
					"numoutlets" : 2,
					"outlettype" : [ "int", "bang" ],
					"patching_rect" : [ 273.0, 191.0, 50.0, 20.0 ]
				}

			}
, 			{
				"box" : 				{
					"id" : "obj-13",
					"maxclass" : "meter~",
					"nhotleds" : 4,
					"ntepidleds" : 4,
					"numinlets" : 1,
					"numleds" : 20,
					"numoutlets" : 1,
					"nwarmleds" : 4,
					"outlettype" : [ "float" ],
					"patching_rect" : [ 220.0, 263.0, 20.0, 90.0 ]
				}

			}
, 			{
				"box" : 				{
					"fontname" : "Verdana",
					"fontsize" : 11.0,
					"id" : "obj-9",
					"maxclass" : "flonum",
					"maximum" : 1.0,
					"minimum" : -132.0,
					"numinlets" : 1,
					"numoutlets" : 2,
					"outlettype" : [ "float", "bang" ],
					"patching_rect" : [ 271.0, 151.0, 50.0, 20.0 ]
				}

			}
, 			{
				"box" : 				{
					"fontname" : "Verdana",
					"fontsize" : 11.0,
					"id" : "obj-10",
					"maxclass" : "newobj",
					"numinlets" : 1,
					"numoutlets" : 1,
					"outlettype" : [ "signal" ],
					"patching_rect" : [ 221.0, 151.0, 48.0, 20.0 ],
					"text" : "noise~"
				}

			}
, 			{
				"box" : 				{
					"fontname" : "Verdana",
					"fontsize" : 11.0,
					"id" : "obj-12",
					"maxclass" : "newobj",
					"numinlets" : 3,
					"numoutlets" : 1,
					"outlettype" : [ "signal" ],
					"patching_rect" : [ 220.0, 219.0, 72.0, 20.0 ],
					"text" : "*l~ @dB"
				}

			}
, 			{
				"box" : 				{
					"fontname" : "Verdana",
					"fontsize" : 11.0,
					"id" : "obj-8",
					"linecount" : 5,
					"maxclass" : "comment",
					"numinlets" : 1,
					"numoutlets" : 0,
					"patching_rect" : [ 227.0, 64.0, 150.0, 73.0 ],
					"text" : "*l~ is a replacement for *~ with builtin line~ for avoiding clicks.\nIt can be adapted for dB input as well..."
				}

			}
, 			{
				"box" : 				{
					"fontname" : "Verdana",
					"fontsize" : 11.0,
					"id" : "obj-6",
					"maxclass" : "flonum",
					"maximum" : 1.0,
					"minimum" : 0.0,
					"numinlets" : 1,
					"numoutlets" : 2,
					"outlettype" : [ "float", "bang" ],
					"patching_rect" : [ 126.0, 132.0, 50.0, 20.0 ]
				}

			}
, 			{
				"box" : 				{
					"fontname" : "Verdana",
					"fontsize" : 11.0,
					"id" : "obj-4",
					"maxclass" : "newobj",
					"numinlets" : 1,
					"numoutlets" : 1,
					"outlettype" : [ "signal" ],
					"patching_rect" : [ 76.0, 132.0, 48.0, 20.0 ],
					"text" : "noise~"
				}

			}
, 			{
				"box" : 				{
					"id" : "obj-3",
					"maxclass" : "ezdac~",
					"numinlets" : 2,
					"numoutlets" : 0,
					"patching_rect" : [ 75.0, 310.0, 45.0, 45.0 ]
				}

			}
, 			{
				"box" : 				{
					"fontname" : "Verdana",
					"fontsize" : 11.0,
					"id" : "obj-1",
					"maxclass" : "newobj",
					"numinlets" : 3,
					"numoutlets" : 1,
					"outlettype" : [ "signal" ],
					"patching_rect" : [ 75.0, 200.0, 72.0, 20.0 ],
					"text" : "*l~"
				}

			}
 ],
		"lines" : [ 			{
				"patchline" : 				{
					"destination" : [ "obj-3", 1 ],
					"hidden" : 0,
					"midpoints" : [  ],
					"source" : [ "obj-1", 0 ]
				}

			}
, 			{
				"patchline" : 				{
					"destination" : [ "obj-3", 0 ],
					"hidden" : 0,
					"midpoints" : [  ],
					"source" : [ "obj-1", 0 ]
				}

			}
, 			{
				"patchline" : 				{
					"destination" : [ "obj-12", 0 ],
					"hidden" : 0,
					"midpoints" : [  ],
					"source" : [ "obj-10", 0 ]
				}

			}
, 			{
				"patchline" : 				{
					"destination" : [ "obj-13", 0 ],
					"hidden" : 0,
					"midpoints" : [  ],
					"source" : [ "obj-12", 0 ]
				}

			}
, 			{
				"patchline" : 				{
					"destination" : [ "obj-12", 2 ],
					"hidden" : 0,
					"midpoints" : [  ],
					"source" : [ "obj-19", 0 ]
				}

			}
, 			{
				"patchline" : 				{
					"destination" : [ "obj-1", 0 ],
					"hidden" : 0,
					"midpoints" : [  ],
					"source" : [ "obj-4", 0 ]
				}

			}
, 			{
				"patchline" : 				{
					"destination" : [ "obj-1", 1 ],
					"hidden" : 0,
					"midpoints" : [  ],
					"source" : [ "obj-6", 0 ]
				}

			}
, 			{
				"patchline" : 				{
					"destination" : [ "obj-12", 1 ],
					"hidden" : 0,
					"midpoints" : [  ],
					"source" : [ "obj-9", 0 ]
				}

			}
 ]
	}

}
