{
	"patcher" : 	{
		"fileversion" : 1,
		"appversion" : 		{
			"major" : 6,
			"minor" : 0,
			"revision" : 7
		}
,
		"rect" : [ 0.0, 44.0, 1366.0, 638.0 ],
		"bgcolor" : [ 0.739969, 0.864178, 0.732426, 1.0 ],
		"bglocked" : 0,
		"openinpresentation" : 1,
		"default_fontsize" : 12.0,
		"default_fontface" : 0,
		"default_fontname" : "Arial",
		"gridonopen" : 0,
		"gridsize" : [ 8.0, 8.0 ],
		"gridsnaponopen" : 0,
		"statusbarvisible" : 2,
		"toolbarvisible" : 1,
		"boxanimatetime" : 200,
		"imprint" : 0,
		"enablehscroll" : 1,
		"enablevscroll" : 1,
		"devicewidth" : 0.0,
		"description" : "",
		"digest" : "",
		"tags" : "",
		"boxes" : [ 			{
				"box" : 				{
					"fontname" : "Verdana",
					"fontsize" : 11.0,
					"id" : "obj-100",
					"maxclass" : "newobj",
					"numinlets" : 0,
					"numoutlets" : 1,
					"outlettype" : [ "" ],
					"patching_rect" : [ 170.0, 18.0, 86.0, 20.0 ],
					"text" : "r VideoMenus"
				}

			}
, 			{
				"box" : 				{
					"fontname" : "Arial",
					"fontsize" : 12.0,
					"id" : "obj-11",
					"maxclass" : "newobj",
					"numinlets" : 1,
					"numoutlets" : 1,
					"outlettype" : [ "" ],
					"patching_rect" : [ 29.0, 18.0, 19.0, 20.0 ],
					"text" : "r"
				}

			}
, 			{
				"box" : 				{
					"fontname" : "Arial",
					"fontsize" : 12.0,
					"id" : "obj-73",
					"linecount" : 2,
					"maxclass" : "newobj",
					"numinlets" : 1,
					"numoutlets" : 1,
					"outlettype" : [ "" ],
					"patching_rect" : [ 29.0, 599.0, 64.0, 33.0 ],
					"text" : "sprintf set %sMenu"
				}

			}
, 			{
				"box" : 				{
					"fontname" : "Verdana",
					"fontsize" : 11.0,
					"id" : "obj-58",
					"maxclass" : "newobj",
					"numinlets" : 2,
					"numoutlets" : 1,
					"outlettype" : [ "" ],
					"patcher" : 					{
						"fileversion" : 1,
						"appversion" : 						{
							"major" : 6,
							"minor" : 0,
							"revision" : 7
						}
,
						"rect" : [ 451.0, 84.0, 486.0, 298.0 ],
						"bglocked" : 0,
						"openinpresentation" : 0,
						"default_fontsize" : 11.0,
						"default_fontface" : 0,
						"default_fontname" : "Verdana",
						"gridonopen" : 0,
						"gridsize" : [ 15.0, 15.0 ],
						"gridsnaponopen" : 0,
						"statusbarvisible" : 2,
						"toolbarvisible" : 1,
						"boxanimatetime" : 200,
						"imprint" : 0,
						"enablehscroll" : 1,
						"enablevscroll" : 1,
						"devicewidth" : 0.0,
						"description" : "",
						"digest" : "",
						"tags" : "",
						"boxes" : [ 							{
								"box" : 								{
									"fontname" : "Verdana",
									"fontsize" : 11.0,
									"id" : "obj-22",
									"maxclass" : "newobj",
									"numinlets" : 1,
									"numoutlets" : 2,
									"outlettype" : [ "int", "int" ],
									"patching_rect" : [ 143.0, 74.0, 83.0, 20.0 ],
									"text" : "t 1 i"
								}

							}
, 							{
								"box" : 								{
									"fontname" : "Verdana",
									"fontsize" : 11.0,
									"id" : "obj-20",
									"maxclass" : "newobj",
									"numinlets" : 2,
									"numoutlets" : 2,
									"outlettype" : [ "", "" ],
									"patching_rect" : [ 143.0, 98.0, 64.0, 20.0 ],
									"text" : "gate 2 2"
								}

							}
, 							{
								"box" : 								{
									"fontname" : "Verdana",
									"fontsize" : 11.0,
									"id" : "obj-25",
									"maxclass" : "newobj",
									"numinlets" : 2,
									"numoutlets" : 1,
									"outlettype" : [ "" ],
									"patching_rect" : [ 143.0, 123.0, 83.0, 20.0 ],
									"text" : "sprintf %s%i"
								}

							}
, 							{
								"box" : 								{
									"comment" : "",
									"id" : "obj-29",
									"maxclass" : "inlet",
									"numinlets" : 0,
									"numoutlets" : 1,
									"outlettype" : [ "" ],
									"patching_rect" : [ 218.0, 30.0, 25.0, 25.0 ]
								}

							}
, 							{
								"box" : 								{
									"comment" : "",
									"id" : "obj-30",
									"maxclass" : "inlet",
									"numinlets" : 0,
									"numoutlets" : 1,
									"outlettype" : [ "" ],
									"patching_rect" : [ 188.0, 30.0, 25.0, 25.0 ]
								}

							}
, 							{
								"box" : 								{
									"comment" : "",
									"id" : "obj-31",
									"maxclass" : "outlet",
									"numinlets" : 1,
									"numoutlets" : 0,
									"patching_rect" : [ 143.0, 181.0, 25.0, 25.0 ]
								}

							}
 ],
						"lines" : [ 							{
								"patchline" : 								{
									"destination" : [ "obj-25", 0 ],
									"disabled" : 0,
									"hidden" : 0,
									"source" : [ "obj-20", 0 ]
								}

							}
, 							{
								"patchline" : 								{
									"destination" : [ "obj-31", 0 ],
									"disabled" : 0,
									"hidden" : 0,
									"midpoints" : [ 197.5, 163.0, 152.5, 163.0 ],
									"source" : [ "obj-20", 1 ]
								}

							}
, 							{
								"patchline" : 								{
									"destination" : [ "obj-20", 0 ],
									"disabled" : 0,
									"hidden" : 0,
									"source" : [ "obj-22", 0 ]
								}

							}
, 							{
								"patchline" : 								{
									"destination" : [ "obj-25", 1 ],
									"disabled" : 0,
									"hidden" : 0,
									"source" : [ "obj-22", 1 ]
								}

							}
, 							{
								"patchline" : 								{
									"destination" : [ "obj-31", 0 ],
									"disabled" : 0,
									"hidden" : 0,
									"source" : [ "obj-25", 0 ]
								}

							}
, 							{
								"patchline" : 								{
									"destination" : [ "obj-22", 0 ],
									"disabled" : 0,
									"hidden" : 0,
									"midpoints" : [ 227.5, 66.0, 152.5, 66.0 ],
									"source" : [ "obj-29", 0 ]
								}

							}
, 							{
								"patchline" : 								{
									"destination" : [ "obj-20", 1 ],
									"disabled" : 0,
									"hidden" : 0,
									"source" : [ "obj-30", 0 ]
								}

							}
 ]
					}
,
					"patching_rect" : [ 111.5, 569.0, 70.0, 20.0 ],
					"saved_object_attributes" : 					{
						"default_fontface" : 0,
						"default_fontname" : "Verdana",
						"default_fontsize" : 11.0,
						"description" : "",
						"digest" : "",
						"fontface" : 0,
						"fontname" : "Verdana",
						"fontsize" : 11.0,
						"globalpatchername" : "",
						"tags" : ""
					}
,
					"text" : "p names"
				}

			}
, 			{
				"box" : 				{
					"fontname" : "Verdana",
					"fontsize" : 11.0,
					"id" : "obj-59",
					"maxclass" : "newobj",
					"numinlets" : 1,
					"numoutlets" : 4,
					"outlettype" : [ "", "", "", "" ],
					"patching_rect" : [ 111.5, 540.0, 70.0, 20.0 ],
					"text" : "mynamber"
				}

			}
, 			{
				"box" : 				{
					"fontname" : "Verdana",
					"fontsize" : 11.0,
					"id" : "obj-43",
					"linecount" : 3,
					"maxclass" : "newobj",
					"numinlets" : 2,
					"numoutlets" : 1,
					"outlettype" : [ "" ],
					"patching_rect" : [ 92.0, 599.0, 89.5, 47.0 ],
					"text" : "St.MenuSend Interpol8r VideoIn"
				}

			}
, 			{
				"box" : 				{
					"fontname" : "Verdana",
					"fontsize" : 11.0,
					"id" : "obj-25",
					"maxclass" : "newobj",
					"numinlets" : 1,
					"numoutlets" : 1,
					"outlettype" : [ "" ],
					"patching_rect" : [ 101.0, 42.0, 95.0, 20.0 ],
					"text" : "sprintf set %s_"
				}

			}
, 			{
				"box" : 				{
					"fontname" : "Verdana",
					"fontsize" : 11.0,
					"id" : "obj-27",
					"maxclass" : "newobj",
					"numinlets" : 1,
					"numoutlets" : 1,
					"outlettype" : [ "" ],
					"patching_rect" : [ 101.0, 66.0, 50.0, 20.0 ],
					"text" : "receive"
				}

			}
, 			{
				"box" : 				{
					"args" : [ "VideoIn", "@fontsize", 11, "@arrow", 0, "@align", 1, "@items", "off", "@single", 1 ],
					"id" : "obj-28",
					"maxclass" : "bpatcher",
					"name" : "St.Menu.maxpat",
					"numinlets" : 1,
					"numoutlets" : 3,
					"outlettype" : [ "int", "", "" ],
					"patching_rect" : [ 54.0, 18.0, 113.0, 20.0 ],
					"presentation" : 1,
					"presentation_rect" : [ 4.0, 4.0, 112.0, 21.0 ],
					"varname" : "St.Menu"
				}

			}
, 			{
				"box" : 				{
					"active1" : [ 1.0, 1.0, 1.0, 1.0 ],
					"active2" : [ 1.0, 1.0, 1.0, 1.0 ],
					"bgcolor" : [ 0.737255, 0.862745, 0.729412, 1.0 ],
					"bordercolor" : [ 0.501961, 0.8, 0.501961, 1.0 ],
					"emptycolor" : [ 0.0, 0.0, 0.0, 1.0 ],
					"hint" : "Click on a button to choose a preset. Shift-click on a button to save your own preset. ",
					"id" : "obj-35",
					"maxclass" : "preset",
					"numinlets" : 1,
					"numoutlets" : 4,
					"outlettype" : [ "preset", "int", "preset", "int" ],
					"patching_rect" : [ 839.0, 228.0, 128.0, 44.0 ],
					"presentation" : 1,
					"presentation_rect" : [ 4.0, 110.0, 116.0, 18.0 ],
					"preset_data" : [ 						{
							"number" : 1,
							"data" : [ 5, "obj-53", "pictctrl", "int", 1, 5, "obj-41", "pictctrl", "int", 1, 5, "obj-44", "flonum", "float", 0.25, 5, "obj-1", "umenu", "int", 0, 5, "obj-2", "slider", "float", 0.0, 5, "obj-6", "slider", "float", 0.25, 5, "obj-66", "textbutton", "mode", 1, 5, "obj-66", "textbutton", "int", 0, 5, "obj-55", "textbutton", "mode", 1, 5, "obj-55", "textbutton", "int", 0, 5, "obj-95", "textbutton", "mode", 1, 5, "obj-95", "textbutton", "int", 1 ]
						}
, 						{
							"number" : 2,
							"data" : [ 5, "obj-53", "pictctrl", "int", 1, 5, "obj-41", "pictctrl", "int", 1, 5, "obj-44", "flonum", "float", 0.362745, 5, "obj-1", "umenu", "int", 0, 5, "obj-2", "slider", "float", 0.170588, 5, "obj-6", "slider", "float", 0.362745, 5, "obj-66", "textbutton", "mode", 1, 5, "obj-66", "textbutton", "int", 0, 5, "obj-55", "textbutton", "mode", 1, 5, "obj-55", "textbutton", "int", 0, 5, "obj-95", "textbutton", "mode", 1, 5, "obj-95", "textbutton", "int", 1 ]
						}
, 						{
							"number" : 3,
							"data" : [ 5, "obj-53", "pictctrl", "int", 1, 5, "obj-41", "pictctrl", "int", 1, 5, "obj-44", "flonum", "float", 0.498039, 5, "obj-1", "umenu", "int", 2, 5, "obj-2", "slider", "float", 0.290196, 5, "obj-6", "slider", "float", 0.498039, 5, "obj-66", "textbutton", "mode", 1, 5, "obj-66", "textbutton", "int", 0, 5, "obj-55", "textbutton", "mode", 1, 5, "obj-55", "textbutton", "int", 0, 5, "obj-95", "textbutton", "mode", 1, 5, "obj-95", "textbutton", "int", 1 ]
						}
, 						{
							"number" : 4,
							"data" : [ 5, "obj-53", "pictctrl", "int", 1, 5, "obj-41", "pictctrl", "int", 1, 5, "obj-44", "flonum", "float", 0.5, 5, "obj-1", "umenu", "int", 0, 5, "obj-2", "slider", "float", 0.215686, 5, "obj-6", "slider", "float", 0.5, 5, "obj-66", "textbutton", "mode", 1, 5, "obj-66", "textbutton", "int", 0, 5, "obj-55", "textbutton", "mode", 1, 5, "obj-55", "textbutton", "int", 0, 5, "obj-95", "textbutton", "mode", 1, 5, "obj-95", "textbutton", "int", 1 ]
						}
, 						{
							"number" : 5,
							"data" : [ 5, "obj-53", "pictctrl", "int", 1, 5, "obj-41", "pictctrl", "int", 1, 5, "obj-44", "flonum", "float", 0.068627, 5, "obj-1", "umenu", "int", 0, 5, "obj-2", "slider", "float", 0.543137, 5, "obj-6", "slider", "float", 0.068627, 5, "obj-66", "textbutton", "mode", 1, 5, "obj-66", "textbutton", "int", 0, 5, "obj-55", "textbutton", "mode", 1, 5, "obj-55", "textbutton", "int", 0, 5, "obj-95", "textbutton", "mode", 1, 5, "obj-95", "textbutton", "int", 1 ]
						}
, 						{
							"number" : 6,
							"data" : [ 5, "obj-53", "pictctrl", "int", 1, 5, "obj-41", "pictctrl", "int", 1, 5, "obj-44", "flonum", "float", 0.5, 5, "obj-1", "umenu", "int", 2, 5, "obj-2", "slider", "float", 0.460784, 5, "obj-6", "slider", "float", 0.5, 5, "obj-66", "textbutton", "mode", 1, 5, "obj-66", "textbutton", "int", 0, 5, "obj-55", "textbutton", "mode", 1, 5, "obj-55", "textbutton", "int", 0, 5, "obj-95", "textbutton", "mode", 1, 5, "obj-95", "textbutton", "int", 1 ]
						}
, 						{
							"number" : 7,
							"data" : [ 5, "obj-53", "pictctrl", "int", 1, 5, "obj-41", "pictctrl", "int", 1, 5, "obj-44", "flonum", "float", 0.254902, 5, "obj-1", "umenu", "int", 2, 5, "obj-2", "slider", "float", 0.637255, 5, "obj-6", "slider", "float", 0.254902, 5, "obj-66", "textbutton", "mode", 1, 5, "obj-66", "textbutton", "int", 0, 5, "obj-55", "textbutton", "mode", 1, 5, "obj-55", "textbutton", "int", 0, 5, "obj-95", "textbutton", "mode", 1, 5, "obj-95", "textbutton", "int", 1 ]
						}
, 						{
							"number" : 8,
							"data" : [ 5, "obj-53", "pictctrl", "int", 1, 5, "obj-41", "pictctrl", "int", 1, 5, "obj-44", "flonum", "float", 1.0, 5, "obj-1", "umenu", "int", 0, 5, "obj-2", "slider", "float", 0.637255, 5, "obj-6", "slider", "float", 1.0, 5, "obj-66", "textbutton", "mode", 1, 5, "obj-66", "textbutton", "int", 0, 5, "obj-55", "textbutton", "mode", 1, 5, "obj-55", "textbutton", "int", 0, 5, "obj-95", "textbutton", "mode", 1, 5, "obj-95", "textbutton", "int", 1 ]
						}
 ],
					"spacing" : 5,
					"stored1" : [ 0.0, 0.501961, 0.0, 1.0 ],
					"stored2" : [ 0.0, 0.501961, 0.0, 1.0 ],
					"textcolor" : [ 0.0, 0.25098, 0.0, 0.0 ]
				}

			}
, 			{
				"box" : 				{
					"fontname" : "Arial",
					"fontsize" : 12.0,
					"id" : "obj-13",
					"maxclass" : "newobj",
					"numinlets" : 1,
					"numoutlets" : 1,
					"outlettype" : [ "" ],
					"patching_rect" : [ 846.0, 355.0, 56.0, 20.0 ],
					"text" : "deferlow"
				}

			}
, 			{
				"box" : 				{
					"fontname" : "Arial",
					"fontsize" : 12.0,
					"id" : "obj-15",
					"maxclass" : "newobj",
					"numinlets" : 1,
					"numoutlets" : 1,
					"outlettype" : [ "" ],
					"patching_rect" : [ 1052.0, 354.0, 56.0, 20.0 ],
					"text" : "deferlow"
				}

			}
, 			{
				"box" : 				{
					"fontname" : "Arial",
					"fontsize" : 12.0,
					"id" : "obj-17",
					"maxclass" : "message",
					"numinlets" : 2,
					"numoutlets" : 1,
					"outlettype" : [ "" ],
					"patching_rect" : [ 1052.0, 385.0, 65.0, 18.0 ],
					"text" : "writeagain"
				}

			}
, 			{
				"box" : 				{
					"fontname" : "Arial",
					"fontsize" : 12.0,
					"id" : "obj-32",
					"maxclass" : "newobj",
					"numinlets" : 0,
					"numoutlets" : 1,
					"outlettype" : [ "" ],
					"patching_rect" : [ 846.0, 316.0, 111.0, 20.0 ],
					"text" : "r interpol8r_update"
				}

			}
, 			{
				"box" : 				{
					"fontname" : "Arial",
					"fontsize" : 12.0,
					"id" : "obj-19",
					"maxclass" : "newobj",
					"numinlets" : 1,
					"numoutlets" : 2,
					"outlettype" : [ "bang", "bang" ],
					"patching_rect" : [ 948.0, 287.0, 123.0, 20.0 ],
					"text" : "t b b"
				}

			}
, 			{
				"box" : 				{
					"fontname" : "Arial",
					"fontsize" : 12.0,
					"id" : "obj-20",
					"maxclass" : "newobj",
					"numinlets" : 1,
					"numoutlets" : 0,
					"patching_rect" : [ 948.0, 322.0, 113.0, 20.0 ],
					"text" : "s interpol8r_update"
				}

			}
, 			{
				"box" : 				{
					"fontname" : "Arial",
					"fontsize" : 12.0,
					"id" : "obj-22",
					"maxclass" : "message",
					"numinlets" : 2,
					"numoutlets" : 1,
					"outlettype" : [ "" ],
					"patching_rect" : [ 846.0, 386.0, 64.0, 18.0 ],
					"text" : "readagain"
				}

			}
, 			{
				"box" : 				{
					"fontname" : "Arial",
					"fontsize" : 12.0,
					"id" : "obj-7",
					"maxclass" : "message",
					"numinlets" : 2,
					"numoutlets" : 1,
					"outlettype" : [ "" ],
					"patching_rect" : [ 575.0, 267.0, 35.0, 18.0 ],
					"text" : "read"
				}

			}
, 			{
				"box" : 				{
					"fontname" : "Arial",
					"fontsize" : 12.0,
					"id" : "obj-48",
					"maxclass" : "message",
					"numinlets" : 2,
					"numoutlets" : 1,
					"outlettype" : [ "" ],
					"patching_rect" : [ 636.0, 123.0, 32.5, 18.0 ],
					"text" : "1"
				}

			}
, 			{
				"box" : 				{
					"fontname" : "Arial",
					"fontsize" : 12.0,
					"id" : "obj-50",
					"maxclass" : "newobj",
					"numinlets" : 2,
					"numoutlets" : 1,
					"outlettype" : [ "bang" ],
					"patching_rect" : [ 636.0, 96.0, 63.0, 20.0 ],
					"text" : "delay 400"
				}

			}
, 			{
				"box" : 				{
					"id" : "obj-18",
					"maxclass" : "button",
					"numinlets" : 1,
					"numoutlets" : 1,
					"outlettype" : [ "bang" ],
					"patching_rect" : [ 585.0, 23.0, 20.0, 20.0 ]
				}

			}
, 			{
				"box" : 				{
					"fontname" : "Arial",
					"fontsize" : 11.595187,
					"id" : "obj-12",
					"maxclass" : "message",
					"numinlets" : 2,
					"numoutlets" : 1,
					"outlettype" : [ "" ],
					"patching_rect" : [ 374.0, 443.0, 61.0, 17.0 ],
					"text" : "y_step $1"
				}

			}
, 			{
				"box" : 				{
					"fontname" : "Arial",
					"fontsize" : 12.0,
					"id" : "obj-10",
					"maxclass" : "newobj",
					"numinlets" : 6,
					"numoutlets" : 1,
					"outlettype" : [ "" ],
					"patching_rect" : [ 331.0, 361.0, 105.0, 20.0 ],
					"text" : "scale 0. 1. 1. 480."
				}

			}
, 			{
				"box" : 				{
					"fontname" : "Arial",
					"fontsize" : 11.595187,
					"id" : "obj-8",
					"maxclass" : "message",
					"numinlets" : 2,
					"numoutlets" : 1,
					"outlettype" : [ "" ],
					"patching_rect" : [ 165.692413, 407.864349, 46.0, 17.0 ],
					"text" : "gang 1"
				}

			}
, 			{
				"box" : 				{
					"bgcolor" : [ 1.0, 1.0, 1.0, 0.0 ],
					"bgoncolor" : [ 1.0, 1.0, 1.0, 0.0 ],
					"bgovercolor" : [ 1.0, 1.0, 1.0, 0.0 ],
					"bgoveroncolor" : [ 1.0, 1.0, 1.0, 0.0 ],
					"border" : 1,
					"bordercolor" : [ 0.0, 0.0, 0.0, 0.0 ],
					"borderoncolor" : [ 0.0, 0.0, 0.0, 0.0 ],
					"fontface" : 1,
					"fontname" : "Arial",
					"fontsize" : 14.0,
					"hint" : "Click on the screen to turn the effect on or off. The image is passed through without any processing when the effect is off.",
					"id" : "obj-95",
					"maxclass" : "textbutton",
					"mode" : 1,
					"numinlets" : 1,
					"numoutlets" : 3,
					"outlettype" : [ "", "", "int" ],
					"parameter_enable" : 0,
					"patching_rect" : [ 134.0, 110.0, 40.0, 30.0 ],
					"presentation" : 1,
					"presentation_rect" : [ 4.0, 26.0, 112.0, 84.0 ],
					"rounded" : 0.0,
					"text" : "",
					"textcolor" : [ 1.0, 1.0, 1.0, 1.0 ],
					"texton" : "",
					"textoncolor" : [ 1.0, 1.0, 1.0, 0.0 ],
					"textovercolor" : [ 1.0, 1.0, 1.0, 1.0 ],
					"textoveroncolor" : [ 1.0, 1.0, 1.0, 0.0 ]
				}

			}
, 			{
				"box" : 				{
					"fontname" : "Arial Black",
					"fontsize" : 14.0,
					"frgb" : 0.0,
					"id" : "obj-96",
					"maxclass" : "comment",
					"numinlets" : 1,
					"numoutlets" : 0,
					"patching_rect" : [ 361.0, 714.048706, 136.0, 26.0 ],
					"presentation" : 1,
					"presentation_rect" : [ 25.0, 67.0, 68.0, 26.0 ],
					"text" : "Display",
					"textcolor" : [ 1.0, 1.0, 1.0, 0.0 ]
				}

			}
, 			{
				"box" : 				{
					"fontname" : "Arial Black",
					"fontsize" : 14.0,
					"frgb" : 0.0,
					"id" : "obj-30",
					"maxclass" : "comment",
					"numinlets" : 1,
					"numoutlets" : 0,
					"patching_rect" : [ 320.0, 739.0, 136.0, 26.0 ],
					"presentation" : 1,
					"presentation_rect" : [ 18.0, 82.0, 83.0, 26.0 ],
					"text" : "bypassed",
					"textcolor" : [ 1.0, 1.0, 1.0, 0.0 ]
				}

			}
, 			{
				"box" : 				{
					"fontname" : "Arial Black",
					"fontsize" : 14.0,
					"frgb" : 0.0,
					"id" : "obj-64",
					"maxclass" : "comment",
					"numinlets" : 1,
					"numoutlets" : 0,
					"patching_rect" : [ 155.0, 306.0, 136.0, 26.0 ],
					"presentation" : 1,
					"presentation_rect" : [ 19.0, 43.0, 82.0, 26.0 ],
					"text" : "bypassed",
					"textcolor" : [ 1.0, 1.0, 1.0, 0.0 ]
				}

			}
, 			{
				"box" : 				{
					"fontname" : "Arial",
					"fontsize" : 12.0,
					"id" : "obj-31",
					"maxclass" : "newobj",
					"numinlets" : 3,
					"numoutlets" : 3,
					"outlettype" : [ "bang", "bang", "" ],
					"patching_rect" : [ 156.0, 160.0, 46.0, 20.0 ],
					"text" : "sel 0 1"
				}

			}
, 			{
				"box" : 				{
					"fontname" : "Arial",
					"fontsize" : 12.0,
					"id" : "obj-97",
					"maxclass" : "message",
					"numinlets" : 2,
					"numoutlets" : 1,
					"outlettype" : [ "" ],
					"patching_rect" : [ 170.0, 196.0, 109.0, 18.0 ],
					"text" : "textcolor 1. 1. 1. 0."
				}

			}
, 			{
				"box" : 				{
					"fontname" : "Arial",
					"fontsize" : 12.0,
					"id" : "obj-98",
					"maxclass" : "message",
					"numinlets" : 2,
					"numoutlets" : 1,
					"outlettype" : [ "" ],
					"patching_rect" : [ 156.0, 218.0, 109.0, 18.0 ],
					"text" : "textcolor 1. 1. 1. 1."
				}

			}
, 			{
				"box" : 				{
					"fontname" : "Arial Black",
					"fontsize" : 14.0,
					"frgb" : 0.0,
					"id" : "obj-63",
					"maxclass" : "comment",
					"numinlets" : 1,
					"numoutlets" : 0,
					"patching_rect" : [ 155.0, 267.0, 136.0, 26.0 ],
					"presentation" : 1,
					"presentation_rect" : [ 33.0, 28.0, 55.0, 26.0 ],
					"text" : "Effect",
					"textcolor" : [ 1.0, 1.0, 1.0, 0.0 ]
				}

			}
, 			{
				"box" : 				{
					"fontname" : "Arial",
					"fontsize" : 12.0,
					"id" : "obj-62",
					"maxclass" : "newobj",
					"numinlets" : 3,
					"numoutlets" : 3,
					"outlettype" : [ "bang", "bang", "" ],
					"patching_rect" : [ 362.0, 619.048706, 46.0, 20.0 ],
					"text" : "sel 1 0"
				}

			}
, 			{
				"box" : 				{
					"fontname" : "Arial",
					"fontsize" : 12.0,
					"id" : "obj-57",
					"maxclass" : "message",
					"numinlets" : 2,
					"numoutlets" : 1,
					"outlettype" : [ "" ],
					"patching_rect" : [ 362.0, 643.048706, 109.0, 18.0 ],
					"text" : "textcolor 1. 1. 1. 0."
				}

			}
, 			{
				"box" : 				{
					"fontname" : "Arial",
					"fontsize" : 12.0,
					"id" : "obj-99",
					"maxclass" : "message",
					"numinlets" : 2,
					"numoutlets" : 1,
					"outlettype" : [ "" ],
					"patching_rect" : [ 376.0, 665.048706, 109.0, 18.0 ],
					"text" : "textcolor 1. 1. 1. 1."
				}

			}
, 			{
				"box" : 				{
					"bgcolor" : [ 0.501961, 0.8, 0.501961, 0.0 ],
					"bgoncolor" : [ 0.501961, 0.8, 0.501961, 0.0 ],
					"bgovercolor" : [ 0.501961, 0.8, 0.501961, 0.0 ],
					"bgoveroncolor" : [ 0.501961, 0.8, 0.501961, 0.0 ],
					"bordercolor" : [ 0.501961, 0.8, 0.501961, 0.0 ],
					"borderoncolor" : [ 0.501961, 0.8, 0.501961, 0.0 ],
					"fontname" : "Arial Black",
					"fontsize" : 8.0,
					"hint" : "Video output.",
					"id" : "obj-55",
					"maxclass" : "textbutton",
					"mode" : 1,
					"numinlets" : 1,
					"numoutlets" : 3,
					"outlettype" : [ "", "", "int" ],
					"parameter_enable" : 0,
					"patching_rect" : [ 693.518433, 726.0, 32.0, 18.0 ],
					"presentation" : 1,
					"presentation_rect" : [ 1.0, 133.0, 32.0, 18.0 ],
					"rounded" : 20.0,
					"text" : "out",
					"textcolor" : [ 0.0, 0.25098, 0.0, 1.0 ],
					"texton" : "out",
					"textoncolor" : [ 0.0, 0.25098, 0.0, 1.0 ],
					"textovercolor" : [ 0.0, 0.25098, 0.0, 1.0 ],
					"textoveroncolor" : [ 0.0, 0.25098, 0.0, 1.0 ],
					"truncate" : 0
				}

			}
, 			{
				"box" : 				{
					"bgcolor" : [ 0.501961, 0.8, 0.501961, 0.0 ],
					"bgoncolor" : [ 0.501961, 0.8, 0.501961, 0.0 ],
					"bgovercolor" : [ 0.501961, 0.8, 0.501961, 0.0 ],
					"bgoveroncolor" : [ 0.501961, 0.8, 0.501961, 0.0 ],
					"bordercolor" : [ 0.501961, 0.8, 0.501961, 0.0 ],
					"borderoncolor" : [ 0.501961, 0.8, 0.501961, 0.0 ],
					"fontname" : "Arial Black",
					"fontsize" : 8.0,
					"hint" : "Video output.",
					"id" : "obj-66",
					"maxclass" : "textbutton",
					"mode" : 1,
					"numinlets" : 1,
					"numoutlets" : 3,
					"outlettype" : [ "", "", "int" ],
					"parameter_enable" : 0,
					"patching_rect" : [ 693.518433, 704.515808, 32.0, 18.0 ],
					"presentation" : 1,
					"presentation_rect" : [ 1.0, 119.0, 32.0, 30.0 ],
					"rounded" : 20.0,
					"text" : "video",
					"textcolor" : [ 0.0, 0.25098, 0.0, 1.0 ],
					"texton" : "video",
					"textoncolor" : [ 0.0, 0.25098, 0.0, 1.0 ],
					"textovercolor" : [ 0.0, 0.25098, 0.0, 1.0 ],
					"textoveroncolor" : [ 0.0, 0.25098, 0.0, 1.0 ],
					"truncate" : 0
				}

			}
, 			{
				"box" : 				{
					"fontname" : "Arial",
					"fontsize" : 12.0,
					"id" : "obj-16",
					"maxclass" : "newobj",
					"numinlets" : 1,
					"numoutlets" : 7,
					"outlettype" : [ "bang", "int", "int", "int", "int", "bang", "float" ],
					"patching_rect" : [ 636.0, 49.0, 100.0, 20.0 ],
					"text" : "t b 0 0 1 1 b 0.5"
				}

			}
, 			{
				"box" : 				{
					"fontname" : "Arial",
					"fontsize" : 12.0,
					"id" : "obj-26",
					"maxclass" : "newobj",
					"numinlets" : 0,
					"numoutlets" : 1,
					"outlettype" : [ "" ],
					"patching_rect" : [ 189.0, 534.048706, 68.0, 20.0 ],
					"text" : "r ---bypass"
				}

			}
, 			{
				"box" : 				{
					"bgcolor" : [ 0.0, 0.25098, 0.0, 1.0 ],
					"bgoncolor" : [ 0.0, 0.25098, 0.0, 1.0 ],
					"bgovercolor" : [ 0.0, 0.25098, 0.0, 1.0 ],
					"bgoveroncolor" : [ 0.0, 0.25098, 0.0, 1.0 ],
					"bordercolor" : [ 0.0, 0.25098, 0.0, 1.0 ],
					"borderoncolor" : [ 0.0, 0.25098, 0.0, 1.0 ],
					"fontname" : "Arial Black",
					"fontsize" : 12.0,
					"hint" : "The INTERPOL8R module resamples the movie input, and then interpolates back to the original size. It is perhaps better understood by experience than by description. The different interpolation modes will provide you with hours of fun.",
					"id" : "obj-3",
					"maxclass" : "textbutton",
					"numinlets" : 1,
					"numoutlets" : 3,
					"outlettype" : [ "", "", "int" ],
					"parameter_enable" : 0,
					"patching_rect" : [ 612.0, 599.0, 100.0, 20.0 ],
					"presentation" : 1,
					"presentation_rect" : [ 142.0, 128.0, 100.0, 20.0 ],
					"rounded" : 20.0,
					"text" : "INTERPOL8R",
					"textcolor" : [ 1.0, 1.0, 1.0, 1.0 ],
					"textovercolor" : [ 1.0, 1.0, 1.0, 1.0 ],
					"truncate" : 0
				}

			}
, 			{
				"box" : 				{
					"bgcolor" : [ 0.501961, 0.8, 0.501961, 1.0 ],
					"bordercolor" : [ 0.0, 0.25098, 0.0, 1.0 ],
					"floatoutput" : 1,
					"hint" : "Sets the distance between the 'corners' between which the \"interpolation\" takes place.",
					"id" : "obj-6",
					"knobcolor" : [ 0.0, 0.25098, 0.0, 1.0 ],
					"maxclass" : "slider",
					"numinlets" : 1,
					"numoutlets" : 1,
					"outlettype" : [ "" ],
					"parameter_enable" : 0,
					"patching_rect" : [ 309.0, 180.0, 98.099991, 23.400011 ],
					"presentation" : 1,
					"presentation_rect" : [ 124.0, 26.0, 112.0, 20.0 ],
					"size" : 1.0,
					"varname" : "slider[1]"
				}

			}
, 			{
				"box" : 				{
					"bgcolor" : [ 0.501961, 0.8, 0.501961, 1.0 ],
					"bordercolor" : [ 0.0, 0.25098, 0.0, 1.0 ],
					"floatoutput" : 1,
					"hint" : "Sets the interpolation mode. These modes are highly arbitrary variations on the classic linear interpolation algorithm.",
					"id" : "obj-2",
					"knobcolor" : [ 0.0, 0.25098, 0.0, 1.0 ],
					"maxclass" : "slider",
					"numinlets" : 1,
					"numoutlets" : 1,
					"outlettype" : [ "" ],
					"parameter_enable" : 0,
					"patching_rect" : [ 444.0, 179.0, 98.099991, 23.400011 ],
					"presentation" : 1,
					"presentation_rect" : [ 124.0, 58.0, 112.0, 20.0 ],
					"size" : 1.0,
					"varname" : "slider"
				}

			}
, 			{
				"box" : 				{
					"fontname" : "Arial",
					"fontsize" : 12.0,
					"id" : "obj-40",
					"maxclass" : "newobj",
					"numinlets" : 1,
					"numoutlets" : 3,
					"outlettype" : [ "", "", "" ],
					"patching_rect" : [ 682.0, 383.0, 68.0, 20.0 ],
					"restore" : [ 0 ],
					"saved_object_attributes" : 					{
						"parameter_enable" : 0
					}
,
					"text" : "pattr mode",
					"varname" : "mode"
				}

			}
, 			{
				"box" : 				{
					"fontname" : "Arial",
					"fontsize" : 12.0,
					"id" : "obj-38",
					"maxclass" : "newobj",
					"numinlets" : 1,
					"numoutlets" : 3,
					"outlettype" : [ "", "", "" ],
					"patching_rect" : [ 461.0, 147.0, 105.0, 20.0 ],
					"restore" : [ 0.170588 ],
					"saved_object_attributes" : 					{
						"parameter_enable" : 0
					}
,
					"text" : "pattr interp_mode",
					"varname" : "interp_mode"
				}

			}
, 			{
				"box" : 				{
					"fontname" : "Arial",
					"fontsize" : 12.0,
					"id" : "obj-39",
					"maxclass" : "newobj",
					"numinlets" : 1,
					"numoutlets" : 3,
					"outlettype" : [ "", "", "" ],
					"patching_rect" : [ 326.0, 147.0, 79.0, 20.0 ],
					"restore" : [ 0.362745 ],
					"saved_object_attributes" : 					{
						"parameter_enable" : 0
					}
,
					"text" : "pattr xy_step",
					"varname" : "xy_step"
				}

			}
, 			{
				"box" : 				{
					"fontname" : "Arial",
					"fontsize" : 12.0,
					"id" : "obj-36",
					"maxclass" : "newobj",
					"numinlets" : 2,
					"numoutlets" : 2,
					"outlettype" : [ "", "" ],
					"patching_rect" : [ 444.0, 111.0, 88.0, 20.0 ],
					"text" : "data-handler"
				}

			}
, 			{
				"box" : 				{
					"comment" : "y offset control in (off/on/0. - 1.0)",
					"id" : "obj-42",
					"maxclass" : "inlet",
					"numinlets" : 0,
					"numoutlets" : 1,
					"outlettype" : [ "" ],
					"patching_rect" : [ 444.0, 38.0, 25.0, 25.0 ]
				}

			}
, 			{
				"box" : 				{
					"fontname" : "Arial",
					"fontsize" : 12.0,
					"id" : "obj-61",
					"maxclass" : "newobj",
					"numinlets" : 2,
					"numoutlets" : 1,
					"outlettype" : [ "" ],
					"patching_rect" : [ 189.0, 627.048706, 85.0, 20.0 ],
					"text" : "gate 1 1"
				}

			}
, 			{
				"box" : 				{
					"fontname" : "Arial",
					"fontsize" : 12.0,
					"id" : "obj-56",
					"maxclass" : "newobj",
					"numinlets" : 2,
					"numoutlets" : 3,
					"outlettype" : [ "jit_matrix", "jit_matrix", "" ],
					"patching_rect" : [ 68.0, 233.0, 85.0, 20.0 ],
					"text" : "video-handler"
				}

			}
, 			{
				"box" : 				{
					"fontname" : "Arial",
					"fontsize" : 12.0,
					"id" : "obj-5",
					"maxclass" : "newobj",
					"numinlets" : 2,
					"numoutlets" : 2,
					"outlettype" : [ "", "" ],
					"patching_rect" : [ 309.0, 111.0, 88.0, 20.0 ],
					"text" : "data-handler"
				}

			}
, 			{
				"box" : 				{
					"comment" : "x offset control in (off/on/0. - 1.0)",
					"id" : "obj-29",
					"maxclass" : "inlet",
					"numinlets" : 0,
					"numoutlets" : 1,
					"outlettype" : [ "" ],
					"patching_rect" : [ 309.0, 38.0, 25.0, 25.0 ]
				}

			}
, 			{
				"box" : 				{
					"comment" : "video input",
					"id" : "obj-33",
					"maxclass" : "inlet",
					"numinlets" : 0,
					"numoutlets" : 1,
					"outlettype" : [ "" ],
					"patching_rect" : [ 68.0, 38.0, 25.0, 25.0 ]
				}

			}
, 			{
				"box" : 				{
					"fontname" : "Arial",
					"fontsize" : 12.0,
					"id" : "obj-24",
					"maxclass" : "newobj",
					"numinlets" : 1,
					"numoutlets" : 1,
					"outlettype" : [ "bang" ],
					"patching_rect" : [ 636.0, 25.0, 60.0, 20.0 ],
					"text" : "loadbang"
				}

			}
, 			{
				"box" : 				{
					"fontname" : "Arial Bold",
					"fontsize" : 10.0,
					"frgb" : 0.0,
					"id" : "obj-14",
					"maxclass" : "comment",
					"numinlets" : 1,
					"numoutlets" : 0,
					"patching_rect" : [ 616.0, 656.0, 140.0, 18.0 ],
					"presentation" : 1,
					"presentation_rect" : [ 124.0, 108.0, 114.0, 18.0 ],
					"text" : "bound mode",
					"textcolor" : [ 0.0, 0.25098, 0.0, 1.0 ]
				}

			}
, 			{
				"box" : 				{
					"arrowcolor" : [ 0.0, 0.25098, 0.0, 1.0 ],
					"bgcolor" : [ 0.501961, 0.8, 0.501961, 1.0 ],
					"bgcolor2" : [ 0.0, 0.25098, 0.0, 1.0 ],
					"fontname" : "Arial",
					"fontsize" : 12.0,
					"framecolor" : [ 0.0, 0.25098, 0.0, 1.0 ],
					"hint" : "Sets the behavior to be applied to values that fall outside of allowable ranges during interpolation.",
					"hltcolor" : [ 0.501961, 0.8, 0.501961, 1.0 ],
					"id" : "obj-1",
					"items" : [ "wrap", ",", "clip", ",", "bounce" ],
					"maxclass" : "umenu",
					"numinlets" : 1,
					"numoutlets" : 3,
					"outlettype" : [ "int", "", "" ],
					"parameter_enable" : 0,
					"patching_rect" : [ 663.0, 411.0, 80.0, 20.0 ],
					"presentation" : 1,
					"presentation_rect" : [ 124.0, 90.0, 80.0, 20.0 ],
					"textcolor" : [ 0.0, 0.25098, 0.0, 1.0 ],
					"textcolor2" : [ 1.0, 1.0, 1.0, 1.0 ],
					"togcolor" : [ 0.0, 0.0, 0.0, 0.25098 ],
					"varname" : "umenu"
				}

			}
, 			{
				"box" : 				{
					"fontname" : "Arial Bold",
					"fontsize" : 10.0,
					"frgb" : 0.0,
					"id" : "obj-52",
					"maxclass" : "comment",
					"numinlets" : 1,
					"numoutlets" : 0,
					"patching_rect" : [ 612.0, 634.0, 143.0, 18.0 ],
					"presentation" : 1,
					"presentation_rect" : [ 124.0, 75.0, 104.0, 18.0 ],
					"text" : "interpolation mode",
					"textcolor" : [ 0.0, 0.25098, 0.0, 1.0 ]
				}

			}
, 			{
				"box" : 				{
					"fontname" : "Arial Bold",
					"fontsize" : 10.0,
					"frgb" : 0.0,
					"id" : "obj-49",
					"maxclass" : "comment",
					"numinlets" : 1,
					"numoutlets" : 0,
					"patching_rect" : [ 613.0, 678.0, 148.0, 18.0 ],
					"presentation" : 1,
					"presentation_rect" : [ 124.0, 43.0, 107.0, 18.0 ],
					"text" : "x/y step",
					"textcolor" : [ 0.0, 0.25098, 0.0, 1.0 ]
				}

			}
, 			{
				"box" : 				{
					"fontname" : "Arial",
					"fontsize" : 12.0,
					"id" : "obj-34",
					"maxclass" : "newobj",
					"numinlets" : 6,
					"numoutlets" : 1,
					"outlettype" : [ "" ],
					"patching_rect" : [ 445.0, 294.0, 92.0, 20.0 ],
					"text" : "scale 0. 1. 0 15"
				}

			}
, 			{
				"box" : 				{
					"fontname" : "Arial",
					"fontsize" : 11.0,
					"id" : "obj-44",
					"maxclass" : "flonum",
					"maximum" : 1.0,
					"minimum" : 0.0,
					"numinlets" : 1,
					"numoutlets" : 2,
					"outlettype" : [ "float", "bang" ],
					"parameter_enable" : 0,
					"patching_rect" : [ 309.0, 242.0, 48.0, 19.0 ],
					"triangle" : 0
				}

			}
, 			{
				"box" : 				{
					"fontname" : "Arial",
					"fontsize" : 12.0,
					"id" : "obj-46",
					"maxclass" : "newobj",
					"numinlets" : 6,
					"numoutlets" : 1,
					"outlettype" : [ "" ],
					"patching_rect" : [ 310.0, 295.0, 105.0, 20.0 ],
					"text" : "scale 0. 1. 1. 640."
				}

			}
, 			{
				"box" : 				{
					"comment" : "",
					"id" : "obj-9",
					"maxclass" : "outlet",
					"numinlets" : 1,
					"numoutlets" : 0,
					"patching_rect" : [ 68.0, 725.0, 25.0, 25.0 ]
				}

			}
, 			{
				"box" : 				{
					"fontname" : "Arial",
					"fontsize" : 11.595187,
					"id" : "obj-21",
					"maxclass" : "message",
					"numinlets" : 2,
					"numoutlets" : 1,
					"outlettype" : [ "" ],
					"patching_rect" : [ 663.0, 435.0, 79.0, 17.0 ],
					"text" : "colormode $1"
				}

			}
, 			{
				"box" : 				{
					"fontname" : "Arial",
					"fontsize" : 11.595187,
					"id" : "obj-70",
					"maxclass" : "message",
					"numinlets" : 2,
					"numoutlets" : 1,
					"outlettype" : [ "" ],
					"patching_rect" : [ 444.0, 444.0, 56.0, 17.0 ],
					"text" : "mode $1"
				}

			}
, 			{
				"box" : 				{
					"fontname" : "Arial",
					"fontsize" : 11.595187,
					"id" : "obj-71",
					"maxclass" : "message",
					"numinlets" : 2,
					"numoutlets" : 1,
					"outlettype" : [ "" ],
					"patching_rect" : [ 309.0, 444.0, 59.0, 17.0 ],
					"text" : "x_step $1"
				}

			}
, 			{
				"box" : 				{
					"fontname" : "Arial",
					"fontsize" : 11.595187,
					"id" : "obj-86",
					"maxclass" : "newobj",
					"numinlets" : 1,
					"numoutlets" : 2,
					"outlettype" : [ "jit_matrix", "" ],
					"patching_rect" : [ 104.0, 489.0, 41.0, 19.0 ],
					"text" : "jit.plur"
				}

			}
, 			{
				"box" : 				{
					"clickedimage" : 1,
					"hint" : "Data received in this inlet sets the value for the interpolation mode slider.",
					"id" : "obj-41",
					"maxclass" : "pictctrl",
					"mode" : 1,
					"name" : "efx-data-button2.png",
					"numinlets" : 1,
					"numoutlets" : 1,
					"outlettype" : [ "int" ],
					"parameter_enable" : 0,
					"patching_rect" : [ 555.0, 111.0, 13.0, 13.0 ],
					"presentation" : 1,
					"presentation_rect" : [ 234.0, 4.0, 13.0, 13.0 ],
					"snap" : 1
				}

			}
, 			{
				"box" : 				{
					"clickedimage" : 1,
					"hint" : "Data received in this inlet sets the value for the x/y step slider.",
					"id" : "obj-53",
					"maxclass" : "pictctrl",
					"mode" : 1,
					"name" : "efx-data-button2.png",
					"numinlets" : 1,
					"numoutlets" : 1,
					"outlettype" : [ "int" ],
					"parameter_enable" : 0,
					"patching_rect" : [ 420.0, 111.0, 13.0, 13.0 ],
					"presentation" : 1,
					"presentation_rect" : [ 124.0, 4.0, 13.0, 13.0 ],
					"snap" : 1
				}

			}
, 			{
				"box" : 				{
					"bordercolor" : [ 1.0, 1.0, 1.0, 1.0 ],
					"id" : "obj-4",
					"maxclass" : "jit.pwindow",
					"numinlets" : 1,
					"numoutlets" : 2,
					"outlettype" : [ "", "" ],
					"patching_rect" : [ 189.0, 653.048706, 160.0, 120.0 ],
					"presentation" : 1,
					"presentation_rect" : [ 4.0, 26.0, 112.0, 84.0 ]
				}

			}
 ],
		"lines" : [ 			{
				"patchline" : 				{
					"destination" : [ "obj-21", 0 ],
					"disabled" : 0,
					"hidden" : 0,
					"source" : [ "obj-1", 0 ]
				}

			}
, 			{
				"patchline" : 				{
					"destination" : [ "obj-12", 0 ],
					"disabled" : 0,
					"hidden" : 0,
					"source" : [ "obj-10", 0 ]
				}

			}
, 			{
				"patchline" : 				{
					"destination" : [ "obj-28", 0 ],
					"disabled" : 0,
					"hidden" : 0,
					"source" : [ "obj-100", 0 ]
				}

			}
, 			{
				"patchline" : 				{
					"destination" : [ "obj-28", 0 ],
					"disabled" : 0,
					"hidden" : 0,
					"source" : [ "obj-11", 0 ]
				}

			}
, 			{
				"patchline" : 				{
					"destination" : [ "obj-86", 0 ],
					"disabled" : 0,
					"hidden" : 0,
					"source" : [ "obj-12", 0 ]
				}

			}
, 			{
				"patchline" : 				{
					"destination" : [ "obj-22", 0 ],
					"disabled" : 0,
					"hidden" : 0,
					"source" : [ "obj-13", 0 ]
				}

			}
, 			{
				"patchline" : 				{
					"destination" : [ "obj-17", 0 ],
					"disabled" : 0,
					"hidden" : 0,
					"source" : [ "obj-15", 0 ]
				}

			}
, 			{
				"patchline" : 				{
					"destination" : [ "obj-1", 0 ],
					"disabled" : 0,
					"hidden" : 0,
					"source" : [ "obj-16", 2 ]
				}

			}
, 			{
				"patchline" : 				{
					"destination" : [ "obj-2", 0 ],
					"disabled" : 0,
					"hidden" : 0,
					"midpoints" : [ 726.5, 146.5, 453.5, 146.5 ],
					"source" : [ "obj-16", 6 ]
				}

			}
, 			{
				"patchline" : 				{
					"destination" : [ "obj-41", 0 ],
					"disabled" : 0,
					"hidden" : 0,
					"midpoints" : [ 686.0, 86.0, 562.0, 86.0 ],
					"source" : [ "obj-16", 3 ]
				}

			}
, 			{
				"patchline" : 				{
					"destination" : [ "obj-50", 0 ],
					"disabled" : 0,
					"hidden" : 0,
					"source" : [ "obj-16", 0 ]
				}

			}
, 			{
				"patchline" : 				{
					"destination" : [ "obj-53", 0 ],
					"disabled" : 0,
					"hidden" : 0,
					"midpoints" : [ 699.5, 86.0, 427.0, 86.0 ],
					"source" : [ "obj-16", 4 ]
				}

			}
, 			{
				"patchline" : 				{
					"destination" : [ "obj-6", 0 ],
					"disabled" : 0,
					"hidden" : 0,
					"midpoints" : [ 659.0, 171.5, 318.5, 171.5 ],
					"source" : [ "obj-16", 1 ]
				}

			}
, 			{
				"patchline" : 				{
					"destination" : [ "obj-8", 0 ],
					"disabled" : 0,
					"hidden" : 0,
					"midpoints" : [ 713.0, 343.93219, 175.192413, 343.93219 ],
					"source" : [ "obj-16", 5 ]
				}

			}
, 			{
				"patchline" : 				{
					"destination" : [ "obj-95", 0 ],
					"disabled" : 0,
					"hidden" : 0,
					"midpoints" : [ 699.5, 86.0, 143.5, 86.0 ],
					"source" : [ "obj-16", 4 ]
				}

			}
, 			{
				"patchline" : 				{
					"destination" : [ "obj-24", 0 ],
					"disabled" : 0,
					"hidden" : 0,
					"source" : [ "obj-18", 0 ]
				}

			}
, 			{
				"patchline" : 				{
					"destination" : [ "obj-15", 0 ],
					"disabled" : 0,
					"hidden" : 0,
					"source" : [ "obj-19", 1 ]
				}

			}
, 			{
				"patchline" : 				{
					"destination" : [ "obj-20", 0 ],
					"disabled" : 0,
					"hidden" : 0,
					"source" : [ "obj-19", 0 ]
				}

			}
, 			{
				"patchline" : 				{
					"destination" : [ "obj-34", 0 ],
					"disabled" : 0,
					"hidden" : 0,
					"source" : [ "obj-2", 0 ]
				}

			}
, 			{
				"patchline" : 				{
					"destination" : [ "obj-86", 0 ],
					"disabled" : 0,
					"hidden" : 0,
					"midpoints" : [ 672.5, 478.0, 113.5, 478.0 ],
					"source" : [ "obj-21", 0 ]
				}

			}
, 			{
				"patchline" : 				{
					"destination" : [ "obj-16", 0 ],
					"disabled" : 0,
					"hidden" : 0,
					"source" : [ "obj-24", 0 ]
				}

			}
, 			{
				"patchline" : 				{
					"destination" : [ "obj-27", 0 ],
					"disabled" : 0,
					"hidden" : 0,
					"source" : [ "obj-25", 0 ]
				}

			}
, 			{
				"patchline" : 				{
					"destination" : [ "obj-61", 0 ],
					"disabled" : 0,
					"hidden" : 0,
					"source" : [ "obj-26", 0 ]
				}

			}
, 			{
				"patchline" : 				{
					"destination" : [ "obj-62", 0 ],
					"disabled" : 0,
					"hidden" : 0,
					"source" : [ "obj-26", 0 ]
				}

			}
, 			{
				"patchline" : 				{
					"destination" : [ "obj-56", 0 ],
					"disabled" : 0,
					"hidden" : 0,
					"source" : [ "obj-27", 0 ]
				}

			}
, 			{
				"patchline" : 				{
					"destination" : [ "obj-25", 0 ],
					"disabled" : 0,
					"hidden" : 0,
					"source" : [ "obj-28", 1 ]
				}

			}
, 			{
				"patchline" : 				{
					"destination" : [ "obj-5", 0 ],
					"disabled" : 0,
					"hidden" : 0,
					"source" : [ "obj-29", 0 ]
				}

			}
, 			{
				"patchline" : 				{
					"destination" : [ "obj-97", 0 ],
					"disabled" : 0,
					"hidden" : 0,
					"source" : [ "obj-31", 1 ]
				}

			}
, 			{
				"patchline" : 				{
					"destination" : [ "obj-98", 0 ],
					"disabled" : 0,
					"hidden" : 0,
					"source" : [ "obj-31", 0 ]
				}

			}
, 			{
				"patchline" : 				{
					"destination" : [ "obj-13", 0 ],
					"disabled" : 0,
					"hidden" : 0,
					"source" : [ "obj-32", 0 ]
				}

			}
, 			{
				"patchline" : 				{
					"destination" : [ "obj-56", 0 ],
					"disabled" : 0,
					"hidden" : 0,
					"source" : [ "obj-33", 0 ]
				}

			}
, 			{
				"patchline" : 				{
					"destination" : [ "obj-70", 0 ],
					"disabled" : 0,
					"hidden" : 0,
					"source" : [ "obj-34", 0 ]
				}

			}
, 			{
				"patchline" : 				{
					"destination" : [ "obj-19", 0 ],
					"disabled" : 0,
					"hidden" : 0,
					"source" : [ "obj-35", 3 ]
				}

			}
, 			{
				"patchline" : 				{
					"destination" : [ "obj-2", 0 ],
					"disabled" : 0,
					"hidden" : 0,
					"source" : [ "obj-36", 0 ]
				}

			}
, 			{
				"patchline" : 				{
					"destination" : [ "obj-41", 0 ],
					"disabled" : 0,
					"hidden" : 0,
					"midpoints" : [ 522.5, 139.0, 548.0, 139.0, 548.0, 100.0, 562.0, 100.0 ],
					"source" : [ "obj-36", 1 ]
				}

			}
, 			{
				"patchline" : 				{
					"destination" : [ "obj-2", 0 ],
					"disabled" : 0,
					"hidden" : 0,
					"source" : [ "obj-38", 1 ]
				}

			}
, 			{
				"patchline" : 				{
					"destination" : [ "obj-6", 0 ],
					"disabled" : 0,
					"hidden" : 0,
					"source" : [ "obj-39", 1 ]
				}

			}
, 			{
				"patchline" : 				{
					"destination" : [ "obj-1", 0 ],
					"disabled" : 0,
					"hidden" : 0,
					"source" : [ "obj-40", 1 ]
				}

			}
, 			{
				"patchline" : 				{
					"destination" : [ "obj-36", 1 ],
					"disabled" : 0,
					"hidden" : 0,
					"midpoints" : [ 562.0, 134.0, 542.25, 134.0, 542.25, 105.0, 522.5, 105.0 ],
					"source" : [ "obj-41", 0 ]
				}

			}
, 			{
				"patchline" : 				{
					"destination" : [ "obj-36", 0 ],
					"disabled" : 0,
					"hidden" : 0,
					"source" : [ "obj-42", 0 ]
				}

			}
, 			{
				"patchline" : 				{
					"destination" : [ "obj-10", 0 ],
					"disabled" : 0,
					"hidden" : 0,
					"source" : [ "obj-44", 0 ]
				}

			}
, 			{
				"patchline" : 				{
					"destination" : [ "obj-46", 0 ],
					"disabled" : 0,
					"hidden" : 0,
					"source" : [ "obj-44", 0 ]
				}

			}
, 			{
				"patchline" : 				{
					"destination" : [ "obj-71", 0 ],
					"disabled" : 0,
					"hidden" : 0,
					"source" : [ "obj-46", 0 ]
				}

			}
, 			{
				"patchline" : 				{
					"destination" : [ "obj-35", 0 ],
					"disabled" : 0,
					"hidden" : 0,
					"source" : [ "obj-48", 0 ]
				}

			}
, 			{
				"patchline" : 				{
					"destination" : [ "obj-53", 0 ],
					"disabled" : 0,
					"hidden" : 0,
					"midpoints" : [ 387.5, 139.0, 413.0, 139.0, 413.0, 100.0, 427.0, 100.0 ],
					"source" : [ "obj-5", 1 ]
				}

			}
, 			{
				"patchline" : 				{
					"destination" : [ "obj-6", 0 ],
					"disabled" : 0,
					"hidden" : 0,
					"source" : [ "obj-5", 0 ]
				}

			}
, 			{
				"patchline" : 				{
					"destination" : [ "obj-48", 0 ],
					"disabled" : 0,
					"hidden" : 0,
					"source" : [ "obj-50", 0 ]
				}

			}
, 			{
				"patchline" : 				{
					"destination" : [ "obj-5", 1 ],
					"disabled" : 0,
					"hidden" : 0,
					"midpoints" : [ 427.0, 134.0, 407.25, 134.0, 407.25, 105.0, 387.5, 105.0 ],
					"source" : [ "obj-53", 0 ]
				}

			}
, 			{
				"patchline" : 				{
					"destination" : [ "obj-31", 0 ],
					"disabled" : 0,
					"hidden" : 0,
					"source" : [ "obj-56", 2 ]
				}

			}
, 			{
				"patchline" : 				{
					"destination" : [ "obj-43", 0 ],
					"disabled" : 0,
					"hidden" : 0,
					"source" : [ "obj-56", 0 ]
				}

			}
, 			{
				"patchline" : 				{
					"destination" : [ "obj-61", 1 ],
					"disabled" : 0,
					"hidden" : 0,
					"midpoints" : [ 77.5, 462.5, 264.5, 462.5 ],
					"source" : [ "obj-56", 0 ]
				}

			}
, 			{
				"patchline" : 				{
					"destination" : [ "obj-86", 0 ],
					"disabled" : 0,
					"hidden" : 0,
					"source" : [ "obj-56", 1 ]
				}

			}
, 			{
				"patchline" : 				{
					"destination" : [ "obj-9", 0 ],
					"disabled" : 0,
					"hidden" : 0,
					"source" : [ "obj-56", 0 ]
				}

			}
, 			{
				"patchline" : 				{
					"destination" : [ "obj-30", 0 ],
					"disabled" : 0,
					"hidden" : 0,
					"source" : [ "obj-57", 0 ]
				}

			}
, 			{
				"patchline" : 				{
					"destination" : [ "obj-96", 0 ],
					"disabled" : 0,
					"hidden" : 0,
					"source" : [ "obj-57", 0 ]
				}

			}
, 			{
				"patchline" : 				{
					"destination" : [ "obj-43", 0 ],
					"disabled" : 0,
					"hidden" : 0,
					"source" : [ "obj-58", 0 ]
				}

			}
, 			{
				"patchline" : 				{
					"destination" : [ "obj-58", 1 ],
					"disabled" : 0,
					"hidden" : 0,
					"midpoints" : [ 138.0, 564.0, 172.0, 564.0 ],
					"source" : [ "obj-59", 1 ]
				}

			}
, 			{
				"patchline" : 				{
					"destination" : [ "obj-58", 0 ],
					"disabled" : 0,
					"hidden" : 0,
					"source" : [ "obj-59", 0 ]
				}

			}
, 			{
				"patchline" : 				{
					"destination" : [ "obj-44", 0 ],
					"disabled" : 0,
					"hidden" : 0,
					"source" : [ "obj-6", 0 ]
				}

			}
, 			{
				"patchline" : 				{
					"destination" : [ "obj-4", 0 ],
					"disabled" : 0,
					"hidden" : 0,
					"source" : [ "obj-61", 0 ]
				}

			}
, 			{
				"patchline" : 				{
					"destination" : [ "obj-57", 0 ],
					"disabled" : 0,
					"hidden" : 0,
					"source" : [ "obj-62", 0 ]
				}

			}
, 			{
				"patchline" : 				{
					"destination" : [ "obj-99", 0 ],
					"disabled" : 0,
					"hidden" : 0,
					"source" : [ "obj-62", 1 ]
				}

			}
, 			{
				"patchline" : 				{
					"destination" : [ "obj-86", 0 ],
					"disabled" : 0,
					"hidden" : 0,
					"midpoints" : [ 453.5, 478.0, 113.5, 478.0 ],
					"source" : [ "obj-70", 0 ]
				}

			}
, 			{
				"patchline" : 				{
					"destination" : [ "obj-86", 0 ],
					"disabled" : 0,
					"hidden" : 0,
					"midpoints" : [ 318.5, 478.0, 113.5, 478.0 ],
					"source" : [ "obj-71", 0 ]
				}

			}
, 			{
				"patchline" : 				{
					"destination" : [ "obj-11", 0 ],
					"disabled" : 0,
					"hidden" : 0,
					"midpoints" : [ 38.5, 641.0, 21.5, 641.0, 21.5, 13.0, 38.5, 13.0 ],
					"source" : [ "obj-73", 0 ]
				}

			}
, 			{
				"patchline" : 				{
					"destination" : [ "obj-86", 0 ],
					"disabled" : 0,
					"hidden" : 0,
					"source" : [ "obj-8", 0 ]
				}

			}
, 			{
				"patchline" : 				{
					"destination" : [ "obj-43", 0 ],
					"disabled" : 0,
					"hidden" : 0,
					"source" : [ "obj-86", 0 ]
				}

			}
, 			{
				"patchline" : 				{
					"destination" : [ "obj-61", 1 ],
					"disabled" : 0,
					"hidden" : 0,
					"midpoints" : [ 113.5, 518.5, 264.5, 518.5 ],
					"source" : [ "obj-86", 0 ]
				}

			}
, 			{
				"patchline" : 				{
					"destination" : [ "obj-9", 0 ],
					"disabled" : 0,
					"hidden" : 0,
					"midpoints" : [ 113.5, 518.5, 77.5, 518.5 ],
					"source" : [ "obj-86", 0 ]
				}

			}
, 			{
				"patchline" : 				{
					"destination" : [ "obj-31", 0 ],
					"disabled" : 0,
					"hidden" : 0,
					"midpoints" : [ 143.5, 156.0, 165.5, 156.0 ],
					"source" : [ "obj-95", 0 ]
				}

			}
, 			{
				"patchline" : 				{
					"destination" : [ "obj-56", 1 ],
					"disabled" : 0,
					"hidden" : 0,
					"source" : [ "obj-95", 0 ]
				}

			}
, 			{
				"patchline" : 				{
					"destination" : [ "obj-63", 0 ],
					"disabled" : 0,
					"hidden" : 0,
					"source" : [ "obj-97", 0 ]
				}

			}
, 			{
				"patchline" : 				{
					"destination" : [ "obj-64", 0 ],
					"disabled" : 0,
					"hidden" : 0,
					"source" : [ "obj-97", 0 ]
				}

			}
, 			{
				"patchline" : 				{
					"destination" : [ "obj-63", 0 ],
					"disabled" : 0,
					"hidden" : 0,
					"source" : [ "obj-98", 0 ]
				}

			}
, 			{
				"patchline" : 				{
					"destination" : [ "obj-64", 0 ],
					"disabled" : 0,
					"hidden" : 0,
					"source" : [ "obj-98", 0 ]
				}

			}
, 			{
				"patchline" : 				{
					"destination" : [ "obj-30", 0 ],
					"disabled" : 0,
					"hidden" : 0,
					"source" : [ "obj-99", 0 ]
				}

			}
, 			{
				"patchline" : 				{
					"destination" : [ "obj-96", 0 ],
					"disabled" : 0,
					"hidden" : 0,
					"source" : [ "obj-99", 0 ]
				}

			}
 ]
	}

}
