{
	"patcher" : 	{
		"fileversion" : 1,
		"appversion" : 		{
			"major" : 6,
			"minor" : 0,
			"revision" : 4
		}
,
		"rect" : [ 102.0, 131.0, 1303.0, 695.0 ],
		"bgcolor" : [ 0.301961, 0.905882, 0.337255, 1.0 ],
		"bglocked" : 0,
		"openinpresentation" : 1,
		"default_fontsize" : 12.0,
		"default_fontface" : 0,
		"default_fontname" : "Arial",
		"gridonopen" : 0,
		"gridsize" : [ 8.0, 8.0 ],
		"gridsnaponopen" : 0,
		"statusbarvisible" : 2,
		"toolbarvisible" : 1,
		"boxanimatetime" : 200,
		"imprint" : 0,
		"enablehscroll" : 1,
		"enablevscroll" : 1,
		"devicewidth" : 0.0,
		"description" : "",
		"digest" : "",
		"tags" : "",
		"boxes" : [ 			{
				"box" : 				{
					"fontname" : "Arial Fett",
					"fontsize" : 10.0,
					"id" : "obj-9",
					"maxclass" : "comment",
					"numinlets" : 1,
					"numoutlets" : 0,
					"patching_rect" : [ 546.5, 335.0, 47.0, 18.0 ],
					"presentation" : 1,
					"presentation_rect" : [ 480.5, 114.0, 37.0, 18.0 ],
					"text" : "width"
				}

			}
, 			{
				"box" : 				{
					"fontname" : "Arial Fett",
					"fontsize" : 10.0,
					"id" : "obj-2",
					"maxclass" : "comment",
					"numinlets" : 1,
					"numoutlets" : 0,
					"patching_rect" : [ 545.5, 301.0, 61.0, 18.0 ],
					"presentation" : 1,
					"presentation_rect" : [ 480.5, 78.0, 41.0, 18.0 ],
					"text" : "heigth"
				}

			}
, 			{
				"box" : 				{
					"fontface" : 1,
					"fontname" : "Arial Fett",
					"fontsize" : 10.0,
					"id" : "obj-72",
					"linecount" : 3,
					"maxclass" : "comment",
					"numinlets" : 1,
					"numoutlets" : 0,
					"patching_rect" : [ 351.5, 165.0, 42.0, 42.0 ],
					"presentation" : 1,
					"presentation_rect" : [ 209.0, 4.0, 101.0, 18.0 ],
					"text" : "modulator matrix"
				}

			}
, 			{
				"box" : 				{
					"fontface" : 1,
					"fontname" : "Arial Fett",
					"fontsize" : 10.0,
					"id" : "obj-28",
					"linecount" : 5,
					"maxclass" : "comment",
					"numinlets" : 1,
					"numoutlets" : 0,
					"patching_rect" : [ 241.5, 173.0, 42.0, 65.0 ],
					"presentation" : 1,
					"presentation_rect" : [ 287.5, 59.0, 133.0, 18.0 ],
					"text" : "plane 1 value generator"
				}

			}
, 			{
				"box" : 				{
					"fontface" : 1,
					"fontname" : "Arial Fett",
					"fontsize" : 10.0,
					"id" : "obj-26",
					"linecount" : 5,
					"maxclass" : "comment",
					"numinlets" : 1,
					"numoutlets" : 0,
					"patching_rect" : [ 134.5, 172.0, 42.0, 65.0 ],
					"presentation" : 1,
					"presentation_rect" : [ 128.5, 59.0, 133.0, 18.0 ],
					"text" : "plane 0 value generator"
				}

			}
, 			{
				"box" : 				{
					"fontface" : 1,
					"fontname" : "Arial Fett",
					"fontsize" : 10.0,
					"id" : "obj-8",
					"linecount" : 2,
					"maxclass" : "comment",
					"numinlets" : 1,
					"numoutlets" : 0,
					"patching_rect" : [ 158.0, 169.0, 42.0, 30.0 ],
					"presentation" : 1,
					"presentation_rect" : [ 128.5, 24.0, 67.0, 18.0 ],
					"text" : "index osc"
				}

			}
, 			{
				"box" : 				{
					"fontname" : "Arial Fett",
					"fontsize" : 10.0,
					"id" : "obj-139",
					"maxclass" : "newobj",
					"numinlets" : 1,
					"numoutlets" : 3,
					"outlettype" : [ "", "", "" ],
					"patching_rect" : [ 838.0, 720.0, 104.0, 18.0 ],
					"restore" : [ 0 ],
					"saved_object_attributes" : 					{
						"parameter_enable" : 0
					}
,
					"text" : "pattr reposYWeight",
					"varname" : "reposYWeight"
				}

			}
, 			{
				"box" : 				{
					"fontname" : "Arial Fett",
					"fontsize" : 10.0,
					"id" : "obj-138",
					"maxclass" : "newobj",
					"numinlets" : 1,
					"numoutlets" : 3,
					"outlettype" : [ "", "", "" ],
					"patching_rect" : [ 760.0, 664.0, 70.0, 18.0 ],
					"restore" : [ 2 ],
					"saved_object_attributes" : 					{
						"parameter_enable" : 0
					}
,
					"text" : "pattr reposY",
					"varname" : "reposY"
				}

			}
, 			{
				"box" : 				{
					"fontname" : "Arial Fett",
					"fontsize" : 10.0,
					"id" : "obj-137",
					"maxclass" : "newobj",
					"numinlets" : 1,
					"numoutlets" : 3,
					"outlettype" : [ "", "", "" ],
					"patching_rect" : [ 698.5, 712.0, 104.0, 18.0 ],
					"restore" : [ 18 ],
					"saved_object_attributes" : 					{
						"parameter_enable" : 0
					}
,
					"text" : "pattr reposXWeight",
					"varname" : "reposXWeight"
				}

			}
, 			{
				"box" : 				{
					"fontname" : "Arial Fett",
					"fontsize" : 10.0,
					"id" : "obj-136",
					"maxclass" : "newobj",
					"numinlets" : 1,
					"numoutlets" : 3,
					"outlettype" : [ "", "", "" ],
					"patching_rect" : [ 619.0, 670.0, 71.0, 18.0 ],
					"restore" : [ -101 ],
					"saved_object_attributes" : 					{
						"parameter_enable" : 0
					}
,
					"text" : "pattr reposX",
					"varname" : "reposX"
				}

			}
, 			{
				"box" : 				{
					"fontname" : "Arial Fett",
					"fontsize" : 10.0,
					"id" : "obj-135",
					"maxclass" : "newobj",
					"numinlets" : 1,
					"numoutlets" : 3,
					"outlettype" : [ "", "", "" ],
					"patching_rect" : [ 1672.5, 932.5, 85.0, 18.0 ],
					"restore" : [ 13.0 ],
					"saved_object_attributes" : 					{
						"parameter_enable" : 0
					}
,
					"text" : "pattr jitterScale",
					"varname" : "jitterScale"
				}

			}
, 			{
				"box" : 				{
					"fontname" : "Arial Fett",
					"fontsize" : 10.0,
					"id" : "obj-134",
					"maxclass" : "newobj",
					"numinlets" : 1,
					"numoutlets" : 3,
					"outlettype" : [ "", "", "" ],
					"patching_rect" : [ 1540.0, 969.0, 102.0, 18.0 ],
					"restore" : [ 0.0 ],
					"saved_object_attributes" : 					{
						"parameter_enable" : 0
					}
,
					"text" : "pattr jitterIntensity",
					"varname" : "jitterIntensity"
				}

			}
, 			{
				"box" : 				{
					"fontname" : "Arial Fett",
					"fontsize" : 10.0,
					"id" : "obj-133",
					"maxclass" : "newobj",
					"numinlets" : 1,
					"numoutlets" : 3,
					"outlettype" : [ "", "", "" ],
					"patching_rect" : [ 1634.5, 751.0, 84.0, 18.0 ],
					"restore" : [ 142.100006 ],
					"saved_object_attributes" : 					{
						"parameter_enable" : 0
					}
,
					"text" : "pattr osc2_freq",
					"varname" : "osc2_freq"
				}

			}
, 			{
				"box" : 				{
					"fontname" : "Arial Fett",
					"fontsize" : 10.0,
					"id" : "obj-132",
					"maxclass" : "newobj",
					"numinlets" : 1,
					"numoutlets" : 3,
					"outlettype" : [ "", "", "" ],
					"patching_rect" : [ 1324.0, 787.5, 84.0, 18.0 ],
					"restore" : [ 23.02 ],
					"saved_object_attributes" : 					{
						"parameter_enable" : 0
					}
,
					"text" : "pattr osc1_freq",
					"varname" : "osc1_freq"
				}

			}
, 			{
				"box" : 				{
					"fontname" : "Arial Fett",
					"fontsize" : 10.0,
					"id" : "obj-131",
					"maxclass" : "newobj",
					"numinlets" : 1,
					"numoutlets" : 3,
					"outlettype" : [ "", "", "" ],
					"patching_rect" : [ 1132.5, 794.0, 80.0, 18.0 ],
					"restore" : [ 92.0 ],
					"saved_object_attributes" : 					{
						"parameter_enable" : 0
					}
,
					"text" : "pattr modFreq",
					"varname" : "modFreq"
				}

			}
, 			{
				"box" : 				{
					"fontname" : "Arial Fett",
					"fontsize" : 10.0,
					"id" : "obj-130",
					"maxclass" : "newobj",
					"numinlets" : 1,
					"numoutlets" : 3,
					"outlettype" : [ "", "", "" ],
					"patching_rect" : [ 1051.5, 794.0, 57.0, 18.0 ],
					"restore" : [ 80.0 ],
					"saved_object_attributes" : 					{
						"parameter_enable" : 0
					}
,
					"text" : "pattr freq",
					"varname" : "freq"
				}

			}
, 			{
				"box" : 				{
					"fontname" : "Arial Fett",
					"fontsize" : 10.0,
					"id" : "obj-129",
					"maxclass" : "newobj",
					"numinlets" : 1,
					"numoutlets" : 3,
					"outlettype" : [ "", "", "" ],
					"patching_rect" : [ 1526.5, 801.0, 60.0, 18.0 ],
					"restore" : [ 1 ],
					"saved_object_attributes" : 					{
						"parameter_enable" : 0
					}
,
					"text" : "pattr osc2",
					"varname" : "osc2"
				}

			}
, 			{
				"box" : 				{
					"fontname" : "Arial Fett",
					"fontsize" : 10.0,
					"id" : "obj-128",
					"maxclass" : "newobj",
					"numinlets" : 1,
					"numoutlets" : 3,
					"outlettype" : [ "", "", "" ],
					"patching_rect" : [ 1118.75, 932.5, 89.0, 18.0 ],
					"restore" : [ 333.0 ],
					"saved_object_attributes" : 					{
						"parameter_enable" : 0
					}
,
					"text" : "pattr smoothing",
					"varname" : "smoothing"
				}

			}
, 			{
				"box" : 				{
					"fontname" : "Arial Fett",
					"fontsize" : 10.0,
					"id" : "obj-127",
					"maxclass" : "newobj",
					"numinlets" : 1,
					"numoutlets" : 3,
					"outlettype" : [ "", "", "" ],
					"patching_rect" : [ 1226.0, 814.0, 60.0, 18.0 ],
					"restore" : [ 1 ],
					"saved_object_attributes" : 					{
						"parameter_enable" : 0
					}
,
					"text" : "pattr osc1",
					"varname" : "osc1"
				}

			}
, 			{
				"box" : 				{
					"fontname" : "Arial Fett",
					"fontsize" : 10.0,
					"id" : "obj-125",
					"maxclass" : "newobj",
					"numinlets" : 1,
					"numoutlets" : 3,
					"outlettype" : [ "", "", "" ],
					"patching_rect" : [ 1104.5, 664.0, 79.0, 18.0 ],
					"restore" : [ 0.002 ],
					"saved_object_attributes" : 					{
						"parameter_enable" : 0
					}
,
					"text" : "pattr intensity",
					"varname" : "intensity[1]"
				}

			}
, 			{
				"box" : 				{
					"fontname" : "Arial",
					"fontsize" : 12.0,
					"id" : "obj-120",
					"maxclass" : "newobj",
					"numinlets" : 1,
					"numoutlets" : 4,
					"outlettype" : [ "jit_matrix", "", "", "int" ],
					"patcher" : 					{
						"fileversion" : 1,
						"appversion" : 						{
							"major" : 6,
							"minor" : 0,
							"revision" : 4
						}
,
						"rect" : [ 29.0, 69.0, 1049.0, 668.0 ],
						"bglocked" : 0,
						"openinpresentation" : 0,
						"default_fontsize" : 12.0,
						"default_fontface" : 0,
						"default_fontname" : "Arial",
						"gridonopen" : 0,
						"gridsize" : [ 15.0, 15.0 ],
						"gridsnaponopen" : 0,
						"statusbarvisible" : 2,
						"toolbarvisible" : 1,
						"boxanimatetime" : 200,
						"imprint" : 0,
						"enablehscroll" : 1,
						"enablevscroll" : 1,
						"devicewidth" : 0.0,
						"description" : "",
						"digest" : "",
						"tags" : "",
						"boxes" : [ 							{
								"box" : 								{
									"comment" : "",
									"id" : "obj-6",
									"maxclass" : "outlet",
									"numinlets" : 1,
									"numoutlets" : 0,
									"patching_rect" : [ 413.0, 470.0, 25.0, 25.0 ]
								}

							}
, 							{
								"box" : 								{
									"comment" : "",
									"id" : "obj-5",
									"maxclass" : "outlet",
									"numinlets" : 1,
									"numoutlets" : 0,
									"patching_rect" : [ 762.0, 470.0, 25.0, 25.0 ]
								}

							}
, 							{
								"box" : 								{
									"comment" : "",
									"id" : "obj-4",
									"maxclass" : "outlet",
									"numinlets" : 1,
									"numoutlets" : 0,
									"patching_rect" : [ 600.0, 470.0, 25.0, 25.0 ]
								}

							}
, 							{
								"box" : 								{
									"comment" : "",
									"id" : "obj-3",
									"maxclass" : "outlet",
									"numinlets" : 1,
									"numoutlets" : 0,
									"patching_rect" : [ 491.0, 470.0, 25.0, 25.0 ]
								}

							}
, 							{
								"box" : 								{
									"comment" : "",
									"id" : "obj-1",
									"maxclass" : "inlet",
									"numinlets" : 0,
									"numoutlets" : 1,
									"outlettype" : [ "jit_matrix" ],
									"patching_rect" : [ 421.0, 224.0, 25.0, 25.0 ]
								}

							}
, 							{
								"box" : 								{
									"fontname" : "Arial Fett",
									"fontsize" : 10.0,
									"id" : "obj-2",
									"maxclass" : "newobj",
									"numinlets" : 1,
									"numoutlets" : 2,
									"outlettype" : [ "int", "int" ],
									"patching_rect" : [ 715.0, 381.0, 66.0, 18.0 ],
									"text" : "unpack 0 0"
								}

							}
, 							{
								"box" : 								{
									"fontname" : "Arial Fett",
									"fontsize" : 10.0,
									"id" : "obj-72",
									"maxclass" : "newobj",
									"numinlets" : 2,
									"numoutlets" : 2,
									"outlettype" : [ "", "" ],
									"patching_rect" : [ 491.0, 322.5, 57.0, 18.0 ],
									"text" : "zl change"
								}

							}
, 							{
								"box" : 								{
									"fontname" : "Arial Fett",
									"fontsize" : 10.0,
									"id" : "obj-73",
									"maxclass" : "newobj",
									"numinlets" : 1,
									"numoutlets" : 1,
									"outlettype" : [ "" ],
									"patching_rect" : [ 491.0, 381.0, 75.0, 18.0 ],
									"text" : "vexpr $i1 - 5"
								}

							}
, 							{
								"box" : 								{
									"fontname" : "Arial Fett",
									"fontsize" : 10.0,
									"id" : "obj-74",
									"maxclass" : "newobj",
									"numinlets" : 1,
									"numoutlets" : 3,
									"outlettype" : [ "", "", "" ],
									"patching_rect" : [ 491.0, 349.0, 243.0, 18.0 ],
									"text" : "t l l l"
								}

							}
, 							{
								"box" : 								{
									"fontname" : "Arial Fett",
									"fontsize" : 10.0,
									"id" : "obj-75",
									"maxclass" : "newobj",
									"numinlets" : 1,
									"numoutlets" : 1,
									"outlettype" : [ "" ],
									"patching_rect" : [ 491.0, 415.0, 106.0, 18.0 ],
									"text" : "prepend dstdimend"
								}

							}
, 							{
								"box" : 								{
									"fontname" : "Arial Fett",
									"fontsize" : 10.0,
									"id" : "obj-76",
									"maxclass" : "newobj",
									"numinlets" : 1,
									"numoutlets" : 1,
									"outlettype" : [ "" ],
									"patching_rect" : [ 603.0, 415.0, 74.0, 18.0 ],
									"text" : "prepend dim"
								}

							}
, 							{
								"box" : 								{
									"fontname" : "Arial Fett",
									"fontsize" : 10.0,
									"id" : "obj-77",
									"maxclass" : "newobj",
									"numinlets" : 2,
									"numoutlets" : 2,
									"outlettype" : [ "", "" ],
									"patching_rect" : [ 491.0, 295.5, 59.0, 18.0 ],
									"text" : "route dim"
								}

							}
, 							{
								"box" : 								{
									"fontname" : "Arial Fett",
									"fontsize" : 10.0,
									"id" : "obj-78",
									"maxclass" : "newobj",
									"numinlets" : 1,
									"numoutlets" : 1,
									"outlettype" : [ "" ],
									"patching_rect" : [ 491.0, 272.5, 75.0, 18.0 ],
									"text" : "jit.matrixinfo"
								}

							}
 ],
						"lines" : [ 							{
								"patchline" : 								{
									"destination" : [ "obj-6", 0 ],
									"disabled" : 0,
									"hidden" : 0,
									"source" : [ "obj-1", 0 ]
								}

							}
, 							{
								"patchline" : 								{
									"destination" : [ "obj-78", 0 ],
									"disabled" : 0,
									"hidden" : 0,
									"source" : [ "obj-1", 0 ]
								}

							}
, 							{
								"patchline" : 								{
									"destination" : [ "obj-5", 0 ],
									"disabled" : 0,
									"hidden" : 0,
									"source" : [ "obj-2", 1 ]
								}

							}
, 							{
								"patchline" : 								{
									"destination" : [ "obj-74", 0 ],
									"disabled" : 0,
									"hidden" : 0,
									"source" : [ "obj-72", 0 ]
								}

							}
, 							{
								"patchline" : 								{
									"destination" : [ "obj-75", 0 ],
									"disabled" : 0,
									"hidden" : 0,
									"source" : [ "obj-73", 0 ]
								}

							}
, 							{
								"patchline" : 								{
									"destination" : [ "obj-2", 0 ],
									"disabled" : 0,
									"hidden" : 0,
									"source" : [ "obj-74", 2 ]
								}

							}
, 							{
								"patchline" : 								{
									"destination" : [ "obj-73", 0 ],
									"disabled" : 0,
									"hidden" : 0,
									"source" : [ "obj-74", 0 ]
								}

							}
, 							{
								"patchline" : 								{
									"destination" : [ "obj-76", 0 ],
									"disabled" : 0,
									"hidden" : 0,
									"source" : [ "obj-74", 1 ]
								}

							}
, 							{
								"patchline" : 								{
									"destination" : [ "obj-3", 0 ],
									"disabled" : 0,
									"hidden" : 0,
									"source" : [ "obj-75", 0 ]
								}

							}
, 							{
								"patchline" : 								{
									"destination" : [ "obj-3", 0 ],
									"disabled" : 0,
									"hidden" : 0,
									"source" : [ "obj-76", 0 ]
								}

							}
, 							{
								"patchline" : 								{
									"destination" : [ "obj-4", 0 ],
									"disabled" : 0,
									"hidden" : 0,
									"source" : [ "obj-76", 0 ]
								}

							}
, 							{
								"patchline" : 								{
									"destination" : [ "obj-72", 0 ],
									"disabled" : 0,
									"hidden" : 0,
									"source" : [ "obj-77", 0 ]
								}

							}
, 							{
								"patchline" : 								{
									"destination" : [ "obj-77", 0 ],
									"disabled" : 0,
									"hidden" : 0,
									"source" : [ "obj-78", 0 ]
								}

							}
 ],
						"dependency_cache" : [  ]
					}
,
					"patching_rect" : [ 585.0, 515.0, 81.0, 20.0 ],
					"saved_object_attributes" : 					{
						"default_fontname" : "Arial",
						"globalpatchername" : "",
						"fontname" : "Arial",
						"default_fontsize" : 12.0,
						"description" : "",
						"fontface" : 0,
						"fontsize" : 12.0,
						"default_fontface" : 0,
						"tags" : "",
						"digest" : ""
					}
,
					"text" : "p dimensions"
				}

			}
, 			{
				"box" : 				{
					"fontname" : "Arial Fett",
					"fontsize" : 10.0,
					"id" : "obj-3",
					"maxclass" : "flonum",
					"numinlets" : 1,
					"numoutlets" : 2,
					"outlettype" : [ "float", "bang" ],
					"parameter_enable" : 0,
					"patching_rect" : [ 1070.5, 841.5, 52.0, 18.0 ],
					"presentation" : 1,
					"presentation_rect" : [ 128.5, 80.0, 52.0, 18.0 ],
					"varname" : "generator_rand_1"
				}

			}
, 			{
				"box" : 				{
					"fontname" : "Arial Fett",
					"fontsize" : 10.0,
					"id" : "obj-5",
					"maxclass" : "newobj",
					"numinlets" : 2,
					"numoutlets" : 1,
					"outlettype" : [ "float" ],
					"patching_rect" : [ 1134.5, 719.0, 52.0, 18.0 ],
					"text" : "* 2000."
				}

			}
, 			{
				"box" : 				{
					"fontname" : "Arial Fett",
					"fontsize" : 10.0,
					"id" : "obj-12",
					"maxclass" : "newobj",
					"numinlets" : 1,
					"numoutlets" : 1,
					"outlettype" : [ "" ],
					"patching_rect" : [ 868.5, 914.0, 72.0, 18.0 ],
					"text" : "loadmess 1"
				}

			}
, 			{
				"box" : 				{
					"fontname" : "Arial Fett",
					"fontsize" : 10.0,
					"id" : "obj-13",
					"maxclass" : "newobj",
					"numinlets" : 1,
					"numoutlets" : 0,
					"patching_rect" : [ 868.5, 940.0, 49.0, 18.0 ],
					"text" : "dac~ 1"
				}

			}
, 			{
				"box" : 				{
					"fontname" : "Arial Fett",
					"fontsize" : 10.0,
					"id" : "obj-126",
					"linecount" : 2,
					"maxclass" : "comment",
					"numinlets" : 1,
					"numoutlets" : 0,
					"patching_rect" : [ 1724.5, 976.5, 42.0, 30.0 ],
					"presentation" : 1,
					"presentation_rect" : [ 337.5, 99.0, 61.0, 18.0 ],
					"text" : "scale jitter"
				}

			}
, 			{
				"box" : 				{
					"fontname" : "Arial Fett",
					"fontsize" : 10.0,
					"id" : "obj-124",
					"linecount" : 2,
					"maxclass" : "comment",
					"numinlets" : 1,
					"numoutlets" : 0,
					"patching_rect" : [ 1555.5, 1005.5, 41.0, 30.0 ],
					"presentation" : 1,
					"presentation_rect" : [ 337.5, 117.0, 52.0, 18.0 ],
					"text" : "intensity"
				}

			}
, 			{
				"box" : 				{
					"fontname" : "Arial Fett",
					"fontsize" : 10.0,
					"id" : "obj-121",
					"maxclass" : "comment",
					"numinlets" : 1,
					"numoutlets" : 0,
					"patching_rect" : [ 1318.5, 821.5, 56.0, 18.0 ],
					"presentation" : 1,
					"presentation_rect" : [ 240.0, 42.0, 49.0, 18.0 ],
					"text" : "freq/val"
				}

			}
, 			{
				"box" : 				{
					"fontname" : "Arial Fett",
					"fontsize" : 10.0,
					"id" : "obj-119",
					"linecount" : 2,
					"maxclass" : "comment",
					"numinlets" : 1,
					"numoutlets" : 0,
					"patching_rect" : [ 1132.5, 821.5, 87.0, 30.0 ],
					"presentation" : 1,
					"presentation_rect" : [ 178.5, 95.0, 109.0, 18.0 ],
					"text" : "rand modulator freq"
				}

			}
, 			{
				"box" : 				{
					"fontname" : "Arial Fett",
					"fontsize" : 10.0,
					"id" : "obj-118",
					"linecount" : 2,
					"maxclass" : "comment",
					"numinlets" : 1,
					"numoutlets" : 0,
					"patching_rect" : [ 1051.5, 821.5, 69.0, 30.0 ],
					"presentation" : 1,
					"presentation_rect" : [ 178.5, 77.0, 78.0, 18.0 ],
					"text" : "ring rand freq"
				}

			}
, 			{
				"box" : 				{
					"fontname" : "Arial Fett",
					"fontsize" : 10.0,
					"id" : "obj-116",
					"maxclass" : "comment",
					"numinlets" : 1,
					"numoutlets" : 0,
					"patching_rect" : [ 1153.75, 911.0, 68.0, 18.0 ],
					"presentation" : 1,
					"presentation_rect" : [ 178.5, 111.0, 62.0, 18.0 ],
					"text" : "smoothing"
				}

			}
, 			{
				"box" : 				{
					"fontname" : "Arial Fett",
					"fontsize" : 10.0,
					"id" : "obj-114",
					"maxclass" : "newobj",
					"numinlets" : 1,
					"numoutlets" : 3,
					"outlettype" : [ "bang", "float", "float" ],
					"patching_rect" : [ 1674.5, 1005.5, 52.0, 18.0 ],
					"text" : "t b f f"
				}

			}
, 			{
				"box" : 				{
					"fontname" : "Arial Fett",
					"fontsize" : 10.0,
					"id" : "obj-107",
					"maxclass" : "newobj",
					"numinlets" : 2,
					"numoutlets" : 1,
					"outlettype" : [ "signal" ],
					"patching_rect" : [ 1555.5, 1133.5, 49.0, 18.0 ],
					"text" : "+~ 10."
				}

			}
, 			{
				"box" : 				{
					"fontname" : "Arial Fett",
					"fontsize" : 10.0,
					"id" : "obj-106",
					"maxclass" : "flonum",
					"maximum" : 1.0,
					"minimum" : 0.0,
					"numinlets" : 1,
					"numoutlets" : 2,
					"outlettype" : [ "float", "bang" ],
					"parameter_enable" : 0,
					"patching_rect" : [ 1601.0, 1030.5, 52.0, 18.0 ],
					"presentation" : 1,
					"presentation_rect" : [ 287.5, 117.0, 52.0, 18.0 ],
					"varname" : "generator_mix_const"
				}

			}
, 			{
				"box" : 				{
					"fontname" : "Arial Fett",
					"fontsize" : 10.0,
					"id" : "obj-104",
					"maxclass" : "newobj",
					"numinlets" : 2,
					"numoutlets" : 1,
					"outlettype" : [ "signal" ],
					"patching_rect" : [ 1551.5, 1097.5, 69.0, 18.0 ],
					"text" : "*~ 0."
				}

			}
, 			{
				"box" : 				{
					"fontname" : "Arial Fett",
					"fontsize" : 10.0,
					"id" : "obj-103",
					"maxclass" : "newobj",
					"numinlets" : 2,
					"numoutlets" : 1,
					"outlettype" : [ "float" ],
					"patching_rect" : [ 1601.0, 1065.5, 39.0, 18.0 ],
					"text" : "* 10."
				}

			}
, 			{
				"box" : 				{
					"fontname" : "Arial Fett",
					"fontsize" : 10.0,
					"id" : "obj-102",
					"maxclass" : "newobj",
					"numinlets" : 1,
					"numoutlets" : 1,
					"outlettype" : [ "signal" ],
					"patching_rect" : [ 1551.5, 1065.5, 49.0, 18.0 ],
					"text" : "noise~"
				}

			}
, 			{
				"box" : 				{
					"fontname" : "Arial Fett",
					"fontsize" : 10.0,
					"id" : "obj-81",
					"maxclass" : "newobj",
					"numinlets" : 1,
					"numoutlets" : 1,
					"outlettype" : [ "signal" ],
					"patching_rect" : [ 1755.0, 868.5, 50.0, 18.0 ],
					"text" : "sig~ 0."
				}

			}
, 			{
				"box" : 				{
					"fontname" : "Arial Fett",
					"fontsize" : 10.0,
					"id" : "obj-82",
					"items" : [ "noise", ",", "phasor", ",", "DC" ],
					"maxclass" : "umenu",
					"numinlets" : 1,
					"numoutlets" : 3,
					"outlettype" : [ "int", "", "" ],
					"parameter_enable" : 0,
					"patching_rect" : [ 1526.5, 841.5, 60.0, 18.0 ],
					"presentation" : 1,
					"presentation_rect" : [ 287.5, 81.0, 60.0, 18.0 ],
					"varname" : "generator_choose_generator_2"
				}

			}
, 			{
				"box" : 				{
					"fontname" : "Arial Fett",
					"fontsize" : 10.0,
					"id" : "obj-83",
					"maxclass" : "newobj",
					"numinlets" : 2,
					"numoutlets" : 1,
					"outlettype" : [ "int" ],
					"patching_rect" : [ 1526.5, 868.5, 39.0, 18.0 ],
					"text" : "+ 1"
				}

			}
, 			{
				"box" : 				{
					"fontname" : "Arial Fett",
					"fontsize" : 10.0,
					"id" : "obj-84",
					"maxclass" : "newobj",
					"numinlets" : 4,
					"numoutlets" : 1,
					"outlettype" : [ "signal" ],
					"patching_rect" : [ 1526.5, 922.0, 72.0, 18.0 ],
					"text" : "selector~ 3"
				}

			}
, 			{
				"box" : 				{
					"fontname" : "Arial Fett",
					"fontsize" : 10.0,
					"id" : "obj-88",
					"maxclass" : "newobj",
					"numinlets" : 2,
					"numoutlets" : 1,
					"outlettype" : [ "signal" ],
					"patching_rect" : [ 1672.5, 868.5, 72.0, 18.0 ],
					"text" : "phasor~ 30"
				}

			}
, 			{
				"box" : 				{
					"fontname" : "Arial Fett",
					"fontsize" : 10.0,
					"id" : "obj-93",
					"maxclass" : "newobj",
					"numinlets" : 1,
					"numoutlets" : 1,
					"outlettype" : [ "signal" ],
					"patching_rect" : [ 1584.5, 868.5, 64.0, 18.0 ],
					"text" : "rand~ 30."
				}

			}
, 			{
				"box" : 				{
					"fontname" : "Arial Fett",
					"fontsize" : 10.0,
					"id" : "obj-80",
					"maxclass" : "newobj",
					"numinlets" : 1,
					"numoutlets" : 1,
					"outlettype" : [ "signal" ],
					"patching_rect" : [ 1462.0, 902.5, 50.0, 18.0 ],
					"text" : "sig~ 0."
				}

			}
, 			{
				"box" : 				{
					"fontname" : "Arial Fett",
					"fontsize" : 10.0,
					"id" : "obj-79",
					"items" : [ "noise", ",", "phasor", ",", "DC" ],
					"maxclass" : "umenu",
					"numinlets" : 1,
					"numoutlets" : 3,
					"outlettype" : [ "int", "", "" ],
					"parameter_enable" : 0,
					"patching_rect" : [ 1226.0, 841.5, 60.0, 18.0 ],
					"presentation" : 1,
					"presentation_rect" : [ 128.5, 42.0, 60.0, 18.0 ],
					"varname" : "generator_choose_generator_1"
				}

			}
, 			{
				"box" : 				{
					"fontname" : "Arial Fett",
					"fontsize" : 10.0,
					"id" : "obj-60",
					"maxclass" : "newobj",
					"numinlets" : 2,
					"numoutlets" : 1,
					"outlettype" : [ "int" ],
					"patching_rect" : [ 1226.0, 868.5, 39.0, 18.0 ],
					"text" : "+ 1"
				}

			}
, 			{
				"box" : 				{
					"fontface" : 1,
					"fontname" : "Arial Fett",
					"fontsize" : 10.0,
					"id" : "obj-18",
					"maxclass" : "comment",
					"numinlets" : 1,
					"numoutlets" : 0,
					"patching_rect" : [ 1189.5, 693.0, 64.0, 18.0 ],
					"presentation" : 1,
					"presentation_rect" : [ 337.5, 24.0, 56.0, 18.0 ],
					"text" : "intensity"
				}

			}
, 			{
				"box" : 				{
					"fontname" : "Arial Fett",
					"fontsize" : 10.0,
					"id" : "obj-19",
					"maxclass" : "newobj",
					"numinlets" : 1,
					"numoutlets" : 1,
					"outlettype" : [ "bang" ],
					"patching_rect" : [ 1023.5, 577.0, 31.0, 18.0 ],
					"text" : "t b"
				}

			}
, 			{
				"box" : 				{
					"fontname" : "Arial Fett",
					"fontsize" : 10.0,
					"id" : "obj-21",
					"maxclass" : "newobj",
					"numinlets" : 4,
					"numoutlets" : 1,
					"outlettype" : [ "signal" ],
					"patching_rect" : [ 1226.0, 932.5, 72.0, 18.0 ],
					"text" : "selector~ 3"
				}

			}
, 			{
				"box" : 				{
					"fontname" : "Arial Fett",
					"fontsize" : 10.0,
					"id" : "obj-44",
					"maxclass" : "newobj",
					"numinlets" : 2,
					"numoutlets" : 1,
					"outlettype" : [ "signal" ],
					"patching_rect" : [ 1372.0, 902.5, 72.0, 18.0 ],
					"text" : "phasor~ 30"
				}

			}
, 			{
				"box" : 				{
					"fontname" : "Arial Fett",
					"fontsize" : 10.0,
					"id" : "obj-43",
					"maxclass" : "flonum",
					"numinlets" : 1,
					"numoutlets" : 2,
					"outlettype" : [ "float", "bang" ],
					"parameter_enable" : 0,
					"patching_rect" : [ 1318.5, 841.5, 54.0, 18.0 ],
					"presentation" : 1,
					"presentation_rect" : [ 188.5, 42.0, 48.5, 18.0 ],
					"varname" : "generator_generator_value_1"
				}

			}
, 			{
				"box" : 				{
					"fontname" : "Arial Fett",
					"fontsize" : 10.0,
					"id" : "obj-29",
					"maxclass" : "newobj",
					"numinlets" : 1,
					"numoutlets" : 1,
					"outlettype" : [ "signal" ],
					"patching_rect" : [ 1114.5, 1125.5, 37.0, 18.0 ],
					"text" : "sig~"
				}

			}
, 			{
				"box" : 				{
					"fontname" : "Arial Fett",
					"fontsize" : 10.0,
					"id" : "obj-30",
					"maxclass" : "newobj",
					"numinlets" : 2,
					"numoutlets" : 1,
					"outlettype" : [ "float" ],
					"patching_rect" : [ 1113.5, 1066.0, 83.0, 18.0 ],
					"text" : "snapshot~ 10"
				}

			}
, 			{
				"box" : 				{
					"fontname" : "Arial Fett",
					"fontsize" : 10.0,
					"id" : "obj-91",
					"maxclass" : "flonum",
					"numinlets" : 1,
					"numoutlets" : 2,
					"outlettype" : [ "float", "bang" ],
					"parameter_enable" : 0,
					"patching_rect" : [ 1674.5, 976.5, 54.0, 18.0 ],
					"presentation" : 1,
					"presentation_rect" : [ 287.5, 99.0, 54.0, 18.0 ],
					"varname" : "generator_const"
				}

			}
, 			{
				"box" : 				{
					"fontname" : "Arial Fett",
					"fontsize" : 10.0,
					"id" : "obj-89",
					"maxclass" : "flonum",
					"numinlets" : 1,
					"numoutlets" : 2,
					"outlettype" : [ "float", "bang" ],
					"parameter_enable" : 0,
					"patching_rect" : [ 1153.75, 969.0, 54.0, 18.0 ],
					"presentation" : 1,
					"presentation_rect" : [ 128.5, 114.0, 54.0, 18.0 ],
					"varname" : "generator_smoothing"
				}

			}
, 			{
				"box" : 				{
					"fontname" : "Arial Fett",
					"fontsize" : 10.0,
					"id" : "obj-87",
					"maxclass" : "newobj",
					"numinlets" : 3,
					"numoutlets" : 1,
					"outlettype" : [ "signal" ],
					"patching_rect" : [ 1113.5, 1033.0, 77.0, 18.0 ],
					"text" : "slide~ 60 60"
				}

			}
, 			{
				"box" : 				{
					"fontname" : "Arial Fett",
					"fontsize" : 10.0,
					"id" : "obj-86",
					"maxclass" : "newobj",
					"numinlets" : 3,
					"numoutlets" : 1,
					"outlettype" : [ "signal" ],
					"patching_rect" : [ 1113.5, 1007.0, 77.0, 18.0 ],
					"text" : "slide~ 60 60"
				}

			}
, 			{
				"box" : 				{
					"fontname" : "Arial Fett",
					"fontsize" : 10.0,
					"id" : "obj-31",
					"maxclass" : "flonum",
					"numinlets" : 1,
					"numoutlets" : 2,
					"outlettype" : [ "float", "bang" ],
					"parameter_enable" : 0,
					"patching_rect" : [ 1634.5, 807.5, 99.0, 18.0 ],
					"presentation" : 1,
					"presentation_rect" : [ 349.5, 81.0, 48.5, 18.0 ],
					"varname" : "generator_generator_value_2"
				}

			}
, 			{
				"box" : 				{
					"fontname" : "Arial Fett",
					"fontsize" : 10.0,
					"id" : "obj-50",
					"maxclass" : "newobj",
					"numinlets" : 2,
					"numoutlets" : 1,
					"outlettype" : [ "signal" ],
					"patching_rect" : [ 1528.5, 1161.561279, 46.0, 18.0 ],
					"text" : "*~ 10."
				}

			}
, 			{
				"box" : 				{
					"fontname" : "Arial Fett",
					"fontsize" : 10.0,
					"id" : "obj-52",
					"maxclass" : "newobj",
					"numinlets" : 3,
					"numoutlets" : 1,
					"outlettype" : [ "" ],
					"patching_rect" : [ 1528.5, 1192.5, 114.0, 18.0 ],
					"text" : "jit.poke~ boring 2 1"
				}

			}
, 			{
				"box" : 				{
					"fontname" : "Arial Fett",
					"fontsize" : 10.0,
					"id" : "obj-53",
					"maxclass" : "newobj",
					"numinlets" : 1,
					"numoutlets" : 1,
					"outlettype" : [ "signal" ],
					"patching_rect" : [ 1070.5, 868.5, 59.0, 18.0 ],
					"text" : "rand~ 9."
				}

			}
, 			{
				"box" : 				{
					"fontname" : "Arial Fett",
					"fontsize" : 10.0,
					"id" : "obj-41",
					"maxclass" : "newobj",
					"numinlets" : 2,
					"numoutlets" : 1,
					"outlettype" : [ "signal" ],
					"patching_rect" : [ 1113.5, 957.0, 37.0, 18.0 ],
					"text" : "*~"
				}

			}
, 			{
				"box" : 				{
					"fontname" : "Arial Fett",
					"fontsize" : 10.0,
					"id" : "obj-55",
					"maxclass" : "flonum",
					"numinlets" : 1,
					"numoutlets" : 2,
					"outlettype" : [ "float", "bang" ],
					"parameter_enable" : 0,
					"patching_rect" : [ 1132.5, 841.5, 54.0, 18.0 ],
					"presentation" : 1,
					"presentation_rect" : [ 128.5, 98.0, 54.0, 18.0 ],
					"varname" : "generator_rand_2"
				}

			}
, 			{
				"box" : 				{
					"fontname" : "Arial Fett",
					"fontsize" : 10.0,
					"id" : "obj-42",
					"maxclass" : "newobj",
					"numinlets" : 2,
					"numoutlets" : 1,
					"outlettype" : [ "signal" ],
					"patching_rect" : [ 1226.0, 1055.5, 52.0, 18.0 ],
					"text" : "*~ 240."
				}

			}
, 			{
				"box" : 				{
					"fontname" : "Arial Fett",
					"fontsize" : 10.0,
					"id" : "obj-51",
					"maxclass" : "newobj",
					"numinlets" : 1,
					"numoutlets" : 1,
					"outlettype" : [ "signal" ],
					"patching_rect" : [ 1284.0, 902.5, 64.0, 18.0 ],
					"text" : "rand~ 30."
				}

			}
, 			{
				"box" : 				{
					"fontname" : "Arial Fett",
					"fontsize" : 10.0,
					"id" : "obj-66",
					"maxclass" : "newobj",
					"numinlets" : 1,
					"numoutlets" : 1,
					"outlettype" : [ "signal" ],
					"patching_rect" : [ 1132.5, 868.5, 77.0, 18.0 ],
					"text" : "rand~ 1500."
				}

			}
, 			{
				"box" : 				{
					"fontname" : "Arial Fett",
					"fontsize" : 10.0,
					"id" : "obj-67",
					"maxclass" : "newobj",
					"numinlets" : 3,
					"numoutlets" : 1,
					"outlettype" : [ "" ],
					"patching_rect" : [ 1114.5, 1157.5, 134.0, 18.0 ],
					"text" : "jit.poke~ boring 2 0"
				}

			}
, 			{
				"box" : 				{
					"fontname" : "Arial Fett",
					"fontsize" : 10.0,
					"id" : "obj-68",
					"maxclass" : "flonum",
					"maximum" : 1.0,
					"minimum" : 0.0,
					"numinlets" : 1,
					"numoutlets" : 2,
					"outlettype" : [ "float", "bang" ],
					"parameter_enable" : 0,
					"patching_rect" : [ 1134.5, 693.0, 54.0, 18.0 ],
					"presentation" : 1,
					"presentation_rect" : [ 337.5, 42.0, 54.0, 18.0 ],
					"varname" : "generator_intensity"
				}

			}
, 			{
				"box" : 				{
					"fontname" : "Arial Fett",
					"fontsize" : 10.0,
					"id" : "obj-69",
					"maxclass" : "newobj",
					"numinlets" : 2,
					"numoutlets" : 2,
					"outlettype" : [ "jit_matrix", "" ],
					"patching_rect" : [ 1023.5, 751.0, 125.0, 18.0 ],
					"text" : "jit.op @op * @val 100."
				}

			}
, 			{
				"box" : 				{
					"fontname" : "Arial Fett",
					"fontsize" : 10.0,
					"id" : "obj-70",
					"maxclass" : "newobj",
					"numinlets" : 1,
					"numoutlets" : 2,
					"outlettype" : [ "jit_matrix", "" ],
					"patching_rect" : [ 1023.5, 626.0, 147.0, 18.0 ],
					"text" : "jit.matrix 2 float32 320 240"
				}

			}
, 			{
				"box" : 				{
					"fontname" : "Arial Fett",
					"fontsize" : 10.0,
					"id" : "obj-71",
					"maxclass" : "newobj",
					"numinlets" : 1,
					"numoutlets" : 2,
					"outlettype" : [ "jit_matrix", "" ],
					"patching_rect" : [ 1023.5, 605.0, 169.0, 18.0 ],
					"text" : "jit.matrix boring 2 float32 1 240"
				}

			}
, 			{
				"box" : 				{
					"fontname" : "Arial Fett",
					"fontsize" : 10.0,
					"id" : "obj-92",
					"maxclass" : "number",
					"numinlets" : 1,
					"numoutlets" : 2,
					"outlettype" : [ "int", "bang" ],
					"parameter_enable" : 0,
					"patching_rect" : [ 877.5, 745.0, 51.0, 18.0 ],
					"presentation" : 1,
					"presentation_rect" : [ 430.5, 114.0, 51.0, 18.0 ],
					"varname" : "number"
				}

			}
, 			{
				"box" : 				{
					"fontname" : "Arial Fett",
					"fontsize" : 10.0,
					"id" : "obj-94",
					"maxclass" : "number",
					"numinlets" : 1,
					"numoutlets" : 2,
					"outlettype" : [ "int", "bang" ],
					"parameter_enable" : 0,
					"patching_rect" : [ 708.5, 745.0, 51.0, 18.0 ],
					"presentation" : 1,
					"presentation_rect" : [ 430.5, 78.0, 51.0, 18.0 ],
					"varname" : "repos_width"
				}

			}
, 			{
				"box" : 				{
					"fontname" : "Arial Fett",
					"fontsize" : 10.0,
					"id" : "obj-95",
					"maxclass" : "comment",
					"numinlets" : 1,
					"numoutlets" : 0,
					"patching_rect" : [ 838.0, 694.0, 47.0, 18.0 ],
					"presentation" : 1,
					"presentation_rect" : [ 480.5, 95.0, 29.0, 18.0 ],
					"text" : "vert"
				}

			}
, 			{
				"box" : 				{
					"fontname" : "Arial Fett",
					"fontsize" : 10.0,
					"id" : "obj-96",
					"maxclass" : "comment",
					"numinlets" : 1,
					"numoutlets" : 0,
					"patching_rect" : [ 669.0, 694.0, 61.0, 18.0 ],
					"presentation" : 1,
					"presentation_rect" : [ 480.5, 60.0, 36.0, 18.0 ],
					"text" : "horiz"
				}

			}
, 			{
				"box" : 				{
					"fontname" : "Arial Fett",
					"fontsize" : 10.0,
					"id" : "obj-97",
					"maxclass" : "message",
					"numinlets" : 2,
					"numoutlets" : 1,
					"outlettype" : [ "" ],
					"patching_rect" : [ 708.5, 775.0, 76.0, 16.0 ],
					"text" : "rowheight $1"
				}

			}
, 			{
				"box" : 				{
					"fontname" : "Arial Fett",
					"fontsize" : 10.0,
					"id" : "obj-98",
					"maxclass" : "message",
					"numinlets" : 2,
					"numoutlets" : 1,
					"outlettype" : [ "" ],
					"patching_rect" : [ 619.0, 775.0, 69.0, 16.0 ],
					"text" : "yinterval $1"
				}

			}
, 			{
				"box" : 				{
					"fontname" : "Arial Fett",
					"fontsize" : 10.0,
					"id" : "obj-99",
					"maxclass" : "newobj",
					"numinlets" : 1,
					"numoutlets" : 2,
					"outlettype" : [ "int", "int" ],
					"patching_rect" : [ 619.0, 720.0, 33.0, 18.0 ],
					"text" : "t i i"
				}

			}
, 			{
				"box" : 				{
					"fontname" : "Arial Fett",
					"fontsize" : 10.0,
					"id" : "obj-100",
					"maxclass" : "number",
					"numinlets" : 1,
					"numoutlets" : 2,
					"outlettype" : [ "int", "bang" ],
					"parameter_enable" : 0,
					"patching_rect" : [ 619.0, 694.0, 51.0, 18.0 ],
					"presentation" : 1,
					"presentation_rect" : [ 430.5, 60.0, 51.0, 18.0 ],
					"varname" : "repos_horizontal"
				}

			}
, 			{
				"box" : 				{
					"fontname" : "Arial Fett",
					"fontsize" : 10.0,
					"id" : "obj-101",
					"maxclass" : "message",
					"numinlets" : 2,
					"numoutlets" : 1,
					"outlettype" : [ "" ],
					"patching_rect" : [ 877.5, 775.0, 68.0, 16.0 ],
					"text" : "colwidth $1"
				}

			}
, 			{
				"box" : 				{
					"fontname" : "Arial Fett",
					"fontsize" : 10.0,
					"id" : "obj-105",
					"maxclass" : "message",
					"numinlets" : 2,
					"numoutlets" : 1,
					"outlettype" : [ "" ],
					"patching_rect" : [ 788.0, 775.0, 70.0, 16.0 ],
					"text" : "xinterval $1"
				}

			}
, 			{
				"box" : 				{
					"fontname" : "Arial Fett",
					"fontsize" : 10.0,
					"id" : "obj-108",
					"maxclass" : "newobj",
					"numinlets" : 1,
					"numoutlets" : 2,
					"outlettype" : [ "int", "int" ],
					"patching_rect" : [ 788.0, 720.0, 33.0, 18.0 ],
					"text" : "t i i"
				}

			}
, 			{
				"box" : 				{
					"fontname" : "Arial Fett",
					"fontsize" : 10.0,
					"id" : "obj-109",
					"maxclass" : "number",
					"numinlets" : 1,
					"numoutlets" : 2,
					"outlettype" : [ "int", "bang" ],
					"parameter_enable" : 0,
					"patching_rect" : [ 788.0, 694.0, 51.0, 18.0 ],
					"presentation" : 1,
					"presentation_rect" : [ 430.5, 96.0, 51.0, 18.0 ],
					"varname" : "repos_vertical"
				}

			}
, 			{
				"box" : 				{
					"fontface" : 1,
					"fontname" : "Arial Fett",
					"fontsize" : 10.0,
					"id" : "obj-110",
					"linecount" : 2,
					"maxclass" : "comment",
					"numinlets" : 1,
					"numoutlets" : 0,
					"patching_rect" : [ 625.0, 941.0, 42.0, 30.0 ],
					"presentation" : 1,
					"presentation_rect" : [ 430.5, 42.0, 67.0, 18.0 ],
					"text" : "alternation"
				}

			}
, 			{
				"box" : 				{
					"fontname" : "Arial Fett",
					"fontsize" : 10.0,
					"id" : "obj-111",
					"maxclass" : "newobj",
					"numinlets" : 1,
					"numoutlets" : 2,
					"outlettype" : [ "jit_matrix", "" ],
					"patching_rect" : [ 585.0, 821.5, 185.0, 18.0 ],
					"text" : "jit.altern @yinterval 3 @rowheight 2"
				}

			}
, 			{
				"box" : 				{
					"fontname" : "Arial Fett",
					"fontsize" : 10.0,
					"id" : "obj-112",
					"maxclass" : "newobj",
					"numinlets" : 1,
					"numoutlets" : 2,
					"outlettype" : [ "jit_matrix", "" ],
					"patching_rect" : [ 585.0, 628.5, 399.0, 18.0 ],
					"text" : "jit.matrix 4 char 320 240 @usedstdim 1 @dstdimstart 4 4 @dstdimend 315 235"
				}

			}
, 			{
				"box" : 				{
					"fontname" : "Arial Fett",
					"fontsize" : 10.0,
					"id" : "obj-113",
					"maxclass" : "newobj",
					"numinlets" : 2,
					"numoutlets" : 2,
					"outlettype" : [ "jit_matrix", "" ],
					"patching_rect" : [ 585.0, 887.0, 203.0, 18.0 ],
					"text" : "jit.repos @mode 1 @boundmode 2"
				}

			}
, 			{
				"box" : 				{
					"comment" : "",
					"id" : "obj-117",
					"maxclass" : "outlet",
					"numinlets" : 1,
					"numoutlets" : 0,
					"patching_rect" : [ 452.5, 954.561218, 25.0, 25.0 ]
				}

			}
, 			{
				"box" : 				{
					"fontname" : "Verdana",
					"fontsize" : 11.0,
					"id" : "obj-58",
					"maxclass" : "newobj",
					"numinlets" : 2,
					"numoutlets" : 1,
					"outlettype" : [ "" ],
					"patcher" : 					{
						"fileversion" : 1,
						"appversion" : 						{
							"major" : 6,
							"minor" : 0,
							"revision" : 4
						}
,
						"rect" : [ 451.0, 84.0, 486.0, 298.0 ],
						"bglocked" : 0,
						"openinpresentation" : 0,
						"default_fontsize" : 11.0,
						"default_fontface" : 0,
						"default_fontname" : "Verdana",
						"gridonopen" : 0,
						"gridsize" : [ 15.0, 15.0 ],
						"gridsnaponopen" : 0,
						"statusbarvisible" : 2,
						"toolbarvisible" : 1,
						"boxanimatetime" : 200,
						"imprint" : 0,
						"enablehscroll" : 1,
						"enablevscroll" : 1,
						"devicewidth" : 0.0,
						"description" : "",
						"digest" : "",
						"tags" : "",
						"boxes" : [ 							{
								"box" : 								{
									"fontname" : "Verdana",
									"fontsize" : 11.0,
									"id" : "obj-22",
									"maxclass" : "newobj",
									"numinlets" : 1,
									"numoutlets" : 2,
									"outlettype" : [ "int", "int" ],
									"patching_rect" : [ 143.0, 74.0, 83.0, 20.0 ],
									"text" : "t 1 i"
								}

							}
, 							{
								"box" : 								{
									"fontname" : "Verdana",
									"fontsize" : 11.0,
									"id" : "obj-20",
									"maxclass" : "newobj",
									"numinlets" : 2,
									"numoutlets" : 2,
									"outlettype" : [ "", "" ],
									"patching_rect" : [ 143.0, 98.0, 64.0, 20.0 ],
									"text" : "gate 2 2"
								}

							}
, 							{
								"box" : 								{
									"fontname" : "Verdana",
									"fontsize" : 11.0,
									"id" : "obj-25",
									"maxclass" : "newobj",
									"numinlets" : 2,
									"numoutlets" : 1,
									"outlettype" : [ "" ],
									"patching_rect" : [ 143.0, 123.0, 83.0, 20.0 ],
									"text" : "sprintf %s%i"
								}

							}
, 							{
								"box" : 								{
									"comment" : "",
									"id" : "obj-29",
									"maxclass" : "inlet",
									"numinlets" : 0,
									"numoutlets" : 1,
									"outlettype" : [ "" ],
									"patching_rect" : [ 218.0, 30.0, 25.0, 25.0 ]
								}

							}
, 							{
								"box" : 								{
									"comment" : "",
									"id" : "obj-30",
									"maxclass" : "inlet",
									"numinlets" : 0,
									"numoutlets" : 1,
									"outlettype" : [ "" ],
									"patching_rect" : [ 188.0, 30.0, 25.0, 25.0 ]
								}

							}
, 							{
								"box" : 								{
									"comment" : "",
									"id" : "obj-31",
									"maxclass" : "outlet",
									"numinlets" : 1,
									"numoutlets" : 0,
									"patching_rect" : [ 143.0, 181.0, 25.0, 25.0 ]
								}

							}
 ],
						"lines" : [ 							{
								"patchline" : 								{
									"destination" : [ "obj-25", 0 ],
									"disabled" : 0,
									"hidden" : 0,
									"source" : [ "obj-20", 0 ]
								}

							}
, 							{
								"patchline" : 								{
									"destination" : [ "obj-31", 0 ],
									"disabled" : 0,
									"hidden" : 0,
									"midpoints" : [ 197.5, 163.0, 152.5, 163.0 ],
									"source" : [ "obj-20", 1 ]
								}

							}
, 							{
								"patchline" : 								{
									"destination" : [ "obj-20", 0 ],
									"disabled" : 0,
									"hidden" : 0,
									"source" : [ "obj-22", 0 ]
								}

							}
, 							{
								"patchline" : 								{
									"destination" : [ "obj-25", 1 ],
									"disabled" : 0,
									"hidden" : 0,
									"source" : [ "obj-22", 1 ]
								}

							}
, 							{
								"patchline" : 								{
									"destination" : [ "obj-31", 0 ],
									"disabled" : 0,
									"hidden" : 0,
									"source" : [ "obj-25", 0 ]
								}

							}
, 							{
								"patchline" : 								{
									"destination" : [ "obj-22", 0 ],
									"disabled" : 0,
									"hidden" : 0,
									"midpoints" : [ 227.5, 66.0, 152.5, 66.0 ],
									"source" : [ "obj-29", 0 ]
								}

							}
, 							{
								"patchline" : 								{
									"destination" : [ "obj-20", 1 ],
									"disabled" : 0,
									"hidden" : 0,
									"source" : [ "obj-30", 0 ]
								}

							}
 ],
						"dependency_cache" : [  ]
					}
,
					"patching_rect" : [ 51.0, 566.515808, 70.0, 20.0 ],
					"saved_object_attributes" : 					{
						"default_fontname" : "Verdana",
						"globalpatchername" : "",
						"fontname" : "Verdana",
						"default_fontsize" : 11.0,
						"description" : "",
						"fontface" : 0,
						"fontsize" : 11.0,
						"default_fontface" : 0,
						"tags" : "",
						"digest" : ""
					}
,
					"text" : "p names"
				}

			}
, 			{
				"box" : 				{
					"fontname" : "Verdana",
					"fontsize" : 11.0,
					"id" : "obj-59",
					"maxclass" : "newobj",
					"numinlets" : 1,
					"numoutlets" : 4,
					"outlettype" : [ "", "", "", "" ],
					"patching_rect" : [ 51.0, 537.515808, 70.0, 20.0 ],
					"text" : "mynamber"
				}

			}
, 			{
				"box" : 				{
					"fontname" : "Verdana",
					"fontsize" : 11.0,
					"id" : "obj-33",
					"maxclass" : "newobj",
					"numinlets" : 2,
					"numoutlets" : 1,
					"outlettype" : [ "" ],
					"patching_rect" : [ 22.5, 596.0, 195.0, 20.0 ],
					"text" : "St.MenuSend TVpHASOR VideoIn"
				}

			}
, 			{
				"box" : 				{
					"fontname" : "Verdana",
					"fontsize" : 11.0,
					"id" : "obj-36",
					"maxclass" : "newobj",
					"numinlets" : 1,
					"numoutlets" : 1,
					"outlettype" : [ "" ],
					"patching_rect" : [ 69.0, 45.0, 95.0, 20.0 ],
					"text" : "sprintf set %s_"
				}

			}
, 			{
				"box" : 				{
					"fontname" : "Verdana",
					"fontsize" : 11.0,
					"id" : "obj-37",
					"maxclass" : "newobj",
					"numinlets" : 1,
					"numoutlets" : 1,
					"outlettype" : [ "" ],
					"patching_rect" : [ 69.0, 69.0, 50.0, 20.0 ],
					"text" : "receive"
				}

			}
, 			{
				"box" : 				{
					"args" : [ "VideoIn", "@fontsize", 11, "@arrow", 0, "@align", 1, "@items", "off", "@single", 1 ],
					"id" : "obj-49",
					"maxclass" : "bpatcher",
					"name" : "St.Menu.maxpat",
					"numinlets" : 1,
					"numoutlets" : 3,
					"outlettype" : [ "int", "", "" ],
					"patching_rect" : [ 22.0, 21.0, 113.0, 20.0 ],
					"presentation" : 1,
					"presentation_rect" : [ 4.0, 4.0, 112.0, 21.0 ],
					"varname" : "St.Menu"
				}

			}
, 			{
				"box" : 				{
					"active1" : [ 1.0, 1.0, 1.0, 1.0 ],
					"active2" : [ 1.0, 1.0, 1.0, 1.0 ],
					"bgcolor" : [ 0.894118, 0.890196, 0.490196, 1.0 ],
					"bordercolor" : [ 0.501961, 0.8, 0.501961, 1.0 ],
					"emptycolor" : [ 0.0, 0.0, 0.0, 1.0 ],
					"hint" : "Click on a button to choose a preset. Shift-click on a button to save your own preset. ",
					"id" : "obj-35",
					"maxclass" : "preset",
					"numinlets" : 1,
					"numoutlets" : 4,
					"outlettype" : [ "preset", "int", "preset", "int" ],
					"patching_rect" : [ 817.0, 43.0, 128.0, 44.0 ],
					"presentation" : 1,
					"presentation_rect" : [ 4.0, 110.0, 116.0, 18.0 ],
					"preset_data" : [ 						{
							"number" : 1,
							"data" : [ 5, "<invalid>", "pictctrl", "int", 1, 5, "<invalid>", "pictctrl", "int", 1, 5, "<invalid>", "slider", "float", 0.0, 5, "obj-15", "slider", "float", 0.441176, 5, "obj-48", "textbutton", "mode", 1, 5, "obj-48", "textbutton", "int", 0, 5, "obj-45", "textbutton", "mode", 1, 5, "obj-45", "textbutton", "int", 0, 5, "obj-34", "textbutton", "mode", 1, 5, "obj-34", "textbutton", "int", 1 ]
						}
, 						{
							"number" : 2,
							"data" : [ 5, "<invalid>", "pictctrl", "int", 1, 5, "<invalid>", "pictctrl", "int", 1, 5, "<invalid>", "slider", "float", 0.411765, 5, "obj-15", "slider", "float", 0.0, 5, "obj-48", "textbutton", "mode", 1, 5, "obj-48", "textbutton", "int", 0, 5, "obj-45", "textbutton", "mode", 1, 5, "obj-45", "textbutton", "int", 0, 5, "obj-34", "textbutton", "mode", 1, 5, "obj-34", "textbutton", "int", 1 ]
						}
, 						{
							"number" : 3,
							"data" : [ 5, "<invalid>", "pictctrl", "int", 1, 5, "<invalid>", "pictctrl", "int", 1, 5, "<invalid>", "slider", "float", 0.254902, 5, "obj-15", "slider", "float", 0.284314, 5, "obj-48", "textbutton", "mode", 1, 5, "obj-48", "textbutton", "int", 0, 5, "obj-45", "textbutton", "mode", 1, 5, "obj-45", "textbutton", "int", 0, 5, "obj-34", "textbutton", "mode", 1, 5, "obj-34", "textbutton", "int", 1 ]
						}
, 						{
							"number" : 4,
							"data" : [ 5, "<invalid>", "pictctrl", "int", 1, 5, "<invalid>", "pictctrl", "int", 1, 5, "<invalid>", "slider", "float", 0.147059, 5, "obj-15", "slider", "float", 0.823529, 5, "obj-48", "textbutton", "mode", 1, 5, "obj-48", "textbutton", "int", 0, 5, "obj-45", "textbutton", "mode", 1, 5, "obj-45", "textbutton", "int", 0, 5, "obj-34", "textbutton", "mode", 1, 5, "obj-34", "textbutton", "int", 1 ]
						}
, 						{
							"number" : 5,
							"data" : [ 5, "<invalid>", "pictctrl", "int", 1, 5, "<invalid>", "pictctrl", "int", 1, 5, "<invalid>", "slider", "float", 0.764706, 5, "obj-15", "slider", "float", 0.137255, 5, "obj-48", "textbutton", "mode", 1, 5, "obj-48", "textbutton", "int", 0, 5, "obj-45", "textbutton", "mode", 1, 5, "obj-45", "textbutton", "int", 0, 5, "obj-34", "textbutton", "mode", 1, 5, "obj-34", "textbutton", "int", 1 ]
						}
, 						{
							"number" : 6,
							"data" : [ 5, "<invalid>", "pictctrl", "int", 1, 5, "<invalid>", "pictctrl", "int", 1, 5, "<invalid>", "slider", "float", 0.764706, 5, "obj-15", "slider", "float", 0.784314, 5, "obj-48", "textbutton", "mode", 1, 5, "obj-48", "textbutton", "int", 0, 5, "obj-45", "textbutton", "mode", 1, 5, "obj-45", "textbutton", "int", 0, 5, "obj-34", "textbutton", "mode", 1, 5, "obj-34", "textbutton", "int", 1 ]
						}
, 						{
							"number" : 7,
							"data" : [ 5, "<invalid>", "pictctrl", "int", 1, 5, "<invalid>", "pictctrl", "int", 1, 5, "<invalid>", "slider", "float", 0.411765, 5, "obj-15", "slider", "float", 1.0, 5, "obj-48", "textbutton", "mode", 1, 5, "obj-48", "textbutton", "int", 0, 5, "obj-45", "textbutton", "mode", 1, 5, "obj-45", "textbutton", "int", 0, 5, "obj-34", "textbutton", "mode", 1, 5, "obj-34", "textbutton", "int", 1 ]
						}
, 						{
							"number" : 8,
							"data" : [ 5, "<invalid>", "pictctrl", "int", 1, 5, "<invalid>", "pictctrl", "int", 1, 5, "<invalid>", "slider", "float", 0.176471, 5, "obj-15", "slider", "float", 0.088235, 5, "obj-48", "textbutton", "mode", 1, 5, "obj-48", "textbutton", "int", 0, 5, "obj-45", "textbutton", "mode", 1, 5, "obj-45", "textbutton", "int", 0, 5, "obj-34", "textbutton", "mode", 1, 5, "obj-34", "textbutton", "int", 1 ]
						}
 ],
					"spacing" : 5,
					"stored1" : [ 0.0, 0.501961, 0.0, 1.0 ],
					"stored2" : [ 0.0, 0.501961, 0.0, 1.0 ],
					"textcolor" : [ 0.0, 0.25098, 0.0, 0.0 ]
				}

			}
, 			{
				"box" : 				{
					"fontname" : "Arial",
					"fontsize" : 12.0,
					"id" : "obj-7",
					"maxclass" : "newobj",
					"numinlets" : 1,
					"numoutlets" : 1,
					"outlettype" : [ "" ],
					"patching_rect" : [ 824.0, 189.0, 56.0, 20.0 ],
					"text" : "deferlow"
				}

			}
, 			{
				"box" : 				{
					"fontname" : "Arial",
					"fontsize" : 12.0,
					"id" : "obj-1",
					"maxclass" : "newobj",
					"numinlets" : 1,
					"numoutlets" : 1,
					"outlettype" : [ "" ],
					"patching_rect" : [ 1030.0, 188.0, 56.0, 20.0 ],
					"text" : "deferlow"
				}

			}
, 			{
				"box" : 				{
					"fontname" : "Arial",
					"fontsize" : 12.0,
					"id" : "obj-6",
					"maxclass" : "message",
					"numinlets" : 2,
					"numoutlets" : 1,
					"outlettype" : [ "" ],
					"patching_rect" : [ 1030.0, 219.0, 65.0, 18.0 ],
					"text" : "writeagain"
				}

			}
, 			{
				"box" : 				{
					"fontname" : "Arial",
					"fontsize" : 12.0,
					"id" : "obj-10",
					"maxclass" : "newobj",
					"numinlets" : 0,
					"numoutlets" : 1,
					"outlettype" : [ "" ],
					"patching_rect" : [ 824.0, 150.0, 126.0, 20.0 ],
					"text" : "r TVpHASOR_update"
				}

			}
, 			{
				"box" : 				{
					"fontname" : "Arial",
					"fontsize" : 12.0,
					"id" : "obj-15",
					"maxclass" : "newobj",
					"numinlets" : 1,
					"numoutlets" : 2,
					"outlettype" : [ "bang", "bang" ],
					"patching_rect" : [ 926.0, 121.0, 123.0, 20.0 ],
					"text" : "t b b"
				}

			}
, 			{
				"box" : 				{
					"fontname" : "Arial",
					"fontsize" : 12.0,
					"id" : "obj-16",
					"maxclass" : "newobj",
					"numinlets" : 1,
					"numoutlets" : 0,
					"patching_rect" : [ 926.0, 155.0, 128.0, 20.0 ],
					"text" : "s TVpHASOR_update"
				}

			}
, 			{
				"box" : 				{
					"fontname" : "Arial",
					"fontsize" : 12.0,
					"id" : "obj-22",
					"maxclass" : "message",
					"numinlets" : 2,
					"numoutlets" : 1,
					"outlettype" : [ "" ],
					"patching_rect" : [ 824.0, 220.0, 64.0, 18.0 ],
					"text" : "readagain"
				}

			}
, 			{
				"box" : 				{
					"bgcolor" : [ 1.0, 1.0, 1.0, 0.0 ],
					"bgoncolor" : [ 1.0, 1.0, 1.0, 0.0 ],
					"bgovercolor" : [ 1.0, 1.0, 1.0, 0.0 ],
					"bgoveroncolor" : [ 1.0, 1.0, 1.0, 0.0 ],
					"border" : 1,
					"bordercolor" : [ 0.0, 0.0, 0.0, 0.0 ],
					"borderoncolor" : [ 0.0, 0.0, 0.0, 0.0 ],
					"fontface" : 1,
					"fontname" : "Arial",
					"fontsize" : 14.0,
					"hint" : "Click on the screen to turn the effect on or off. The image is passed through without any processing when the effect is off.",
					"id" : "obj-34",
					"maxclass" : "textbutton",
					"mode" : 1,
					"numinlets" : 1,
					"numoutlets" : 3,
					"outlettype" : [ "", "", "int" ],
					"parameter_enable" : 0,
					"patching_rect" : [ 100.0, 105.0, 40.0, 30.0 ],
					"presentation" : 1,
					"presentation_rect" : [ 4.0, 26.0, 112.0, 84.0 ],
					"rounded" : 0.0,
					"text" : "",
					"textcolor" : [ 1.0, 1.0, 1.0, 1.0 ],
					"texton" : "",
					"textoncolor" : [ 1.0, 1.0, 1.0, 0.0 ],
					"textovercolor" : [ 1.0, 1.0, 1.0, 1.0 ],
					"textoveroncolor" : [ 1.0, 1.0, 1.0, 0.0 ]
				}

			}
, 			{
				"box" : 				{
					"fontname" : "Arial Black",
					"fontsize" : 14.0,
					"frgb" : [ 1.0, 1.0, 1.0, 0.0 ],
					"id" : "obj-46",
					"maxclass" : "comment",
					"numinlets" : 1,
					"numoutlets" : 0,
					"patching_rect" : [ 299.0, 691.0, 98.0, 26.0 ],
					"presentation" : 1,
					"presentation_rect" : [ 25.0, 67.0, 68.0, 26.0 ],
					"text" : "Display",
					"textcolor" : [ 1.0, 1.0, 1.0, 0.0 ]
				}

			}
, 			{
				"box" : 				{
					"fontname" : "Arial Black",
					"fontsize" : 14.0,
					"frgb" : [ 1.0, 1.0, 1.0, 0.0 ],
					"id" : "obj-65",
					"maxclass" : "comment",
					"numinlets" : 1,
					"numoutlets" : 0,
					"patching_rect" : [ 299.0, 724.0, 98.0, 26.0 ],
					"presentation" : 1,
					"presentation_rect" : [ 18.0, 82.0, 83.0, 26.0 ],
					"text" : "bypassed",
					"textcolor" : [ 1.0, 1.0, 1.0, 0.0 ]
				}

			}
, 			{
				"box" : 				{
					"fontname" : "Arial Black",
					"fontsize" : 14.0,
					"frgb" : [ 1.0, 1.0, 1.0, 0.0 ],
					"id" : "obj-64",
					"maxclass" : "comment",
					"numinlets" : 1,
					"numoutlets" : 0,
					"patching_rect" : [ 121.0, 301.0, 100.0, 26.0 ],
					"presentation" : 1,
					"presentation_rect" : [ 19.0, 43.0, 82.0, 26.0 ],
					"text" : "bypassed",
					"textcolor" : [ 1.0, 1.0, 1.0, 0.0 ]
				}

			}
, 			{
				"box" : 				{
					"fontname" : "Arial",
					"fontsize" : 12.0,
					"id" : "obj-47",
					"maxclass" : "newobj",
					"numinlets" : 3,
					"numoutlets" : 3,
					"outlettype" : [ "bang", "bang", "" ],
					"patching_rect" : [ 122.0, 155.0, 46.0, 20.0 ],
					"text" : "sel 0 1"
				}

			}
, 			{
				"box" : 				{
					"fontname" : "Arial",
					"fontsize" : 12.0,
					"id" : "obj-38",
					"maxclass" : "message",
					"numinlets" : 2,
					"numoutlets" : 1,
					"outlettype" : [ "" ],
					"patching_rect" : [ 136.0, 191.0, 109.0, 18.0 ],
					"text" : "textcolor 1. 1. 1. 0."
				}

			}
, 			{
				"box" : 				{
					"fontname" : "Arial",
					"fontsize" : 12.0,
					"id" : "obj-39",
					"maxclass" : "message",
					"numinlets" : 2,
					"numoutlets" : 1,
					"outlettype" : [ "" ],
					"patching_rect" : [ 122.0, 213.0, 109.0, 18.0 ],
					"text" : "textcolor 1. 1. 1. 1."
				}

			}
, 			{
				"box" : 				{
					"fontname" : "Arial Black",
					"fontsize" : 14.0,
					"frgb" : [ 1.0, 1.0, 1.0, 0.0 ],
					"id" : "obj-63",
					"maxclass" : "comment",
					"numinlets" : 1,
					"numoutlets" : 0,
					"patching_rect" : [ 121.0, 262.0, 100.0, 26.0 ],
					"presentation" : 1,
					"presentation_rect" : [ 33.0, 28.0, 55.0, 26.0 ],
					"text" : "Effect",
					"textcolor" : [ 1.0, 1.0, 1.0, 0.0 ]
				}

			}
, 			{
				"box" : 				{
					"fontname" : "Arial",
					"fontsize" : 12.0,
					"id" : "obj-62",
					"maxclass" : "newobj",
					"numinlets" : 3,
					"numoutlets" : 3,
					"outlettype" : [ "bang", "bang", "" ],
					"patching_rect" : [ 300.0, 596.0, 46.0, 20.0 ],
					"text" : "sel 1 0"
				}

			}
, 			{
				"box" : 				{
					"fontname" : "Arial",
					"fontsize" : 12.0,
					"id" : "obj-57",
					"maxclass" : "message",
					"numinlets" : 2,
					"numoutlets" : 1,
					"outlettype" : [ "" ],
					"patching_rect" : [ 300.0, 620.0, 109.0, 18.0 ],
					"text" : "textcolor 1. 1. 1. 0."
				}

			}
, 			{
				"box" : 				{
					"fontname" : "Arial",
					"fontsize" : 12.0,
					"id" : "obj-54",
					"maxclass" : "message",
					"numinlets" : 2,
					"numoutlets" : 1,
					"outlettype" : [ "" ],
					"patching_rect" : [ 314.0, 642.0, 109.0, 18.0 ],
					"text" : "textcolor 1. 1. 1. 1."
				}

			}
, 			{
				"box" : 				{
					"bgcolor" : [ 0.501961, 0.8, 0.501961, 0.0 ],
					"bgoncolor" : [ 0.501961, 0.8, 0.501961, 0.0 ],
					"bgovercolor" : [ 0.501961, 0.8, 0.501961, 0.0 ],
					"bgoveroncolor" : [ 0.501961, 0.8, 0.501961, 0.0 ],
					"bordercolor" : [ 0.501961, 0.8, 0.501961, 0.0 ],
					"borderoncolor" : [ 0.501961, 0.8, 0.501961, 0.0 ],
					"fontname" : "Arial Black",
					"fontsize" : 8.0,
					"hint" : "Video output.",
					"id" : "obj-45",
					"maxclass" : "textbutton",
					"mode" : 1,
					"numinlets" : 1,
					"numoutlets" : 3,
					"outlettype" : [ "", "", "int" ],
					"parameter_enable" : 0,
					"patching_rect" : [ 1086.518433, 411.0, 32.0, 18.0 ],
					"presentation" : 1,
					"presentation_rect" : [ 1.0, 133.0, 32.0, 18.0 ],
					"rounded" : 20.0,
					"text" : "out",
					"textcolor" : [ 0.0, 0.25098, 0.0, 1.0 ],
					"texton" : "out",
					"textoncolor" : [ 0.0, 0.25098, 0.0, 1.0 ],
					"textovercolor" : [ 0.0, 0.25098, 0.0, 1.0 ],
					"textoveroncolor" : [ 0.0, 0.25098, 0.0, 1.0 ],
					"truncate" : 0
				}

			}
, 			{
				"box" : 				{
					"bgcolor" : [ 0.501961, 0.8, 0.501961, 0.0 ],
					"bgoncolor" : [ 0.501961, 0.8, 0.501961, 0.0 ],
					"bgovercolor" : [ 0.501961, 0.8, 0.501961, 0.0 ],
					"bgoveroncolor" : [ 0.501961, 0.8, 0.501961, 0.0 ],
					"bordercolor" : [ 0.501961, 0.8, 0.501961, 0.0 ],
					"borderoncolor" : [ 0.501961, 0.8, 0.501961, 0.0 ],
					"fontname" : "Arial Black",
					"fontsize" : 8.0,
					"hint" : "Video output.",
					"id" : "obj-48",
					"maxclass" : "textbutton",
					"mode" : 1,
					"numinlets" : 1,
					"numoutlets" : 3,
					"outlettype" : [ "", "", "int" ],
					"parameter_enable" : 0,
					"patching_rect" : [ 1086.518433, 389.515808, 32.0, 18.0 ],
					"presentation" : 1,
					"presentation_rect" : [ 1.0, 119.0, 32.0, 30.0 ],
					"rounded" : 20.0,
					"text" : "video",
					"textcolor" : [ 0.0, 0.25098, 0.0, 1.0 ],
					"texton" : "video",
					"textoncolor" : [ 0.0, 0.25098, 0.0, 1.0 ],
					"textovercolor" : [ 0.0, 0.25098, 0.0, 1.0 ],
					"textoveroncolor" : [ 0.0, 0.25098, 0.0, 1.0 ],
					"truncate" : 0
				}

			}
, 			{
				"box" : 				{
					"fontname" : "Arial",
					"fontsize" : 12.0,
					"id" : "obj-32",
					"maxclass" : "newobj",
					"numinlets" : 1,
					"numoutlets" : 0,
					"patching_rect" : [ 615.0, 97.0, 67.0, 20.0 ],
					"text" : "s ---askme"
				}

			}
, 			{
				"box" : 				{
					"fontname" : "Arial",
					"fontsize" : 12.0,
					"id" : "obj-17",
					"maxclass" : "newobj",
					"numinlets" : 0,
					"numoutlets" : 1,
					"outlettype" : [ "" ],
					"patching_rect" : [ 118.0, 530.0, 68.0, 20.0 ],
					"text" : "r ---bypass"
				}

			}
, 			{
				"box" : 				{
					"fontname" : "Arial",
					"fontsize" : 12.0,
					"id" : "obj-40",
					"maxclass" : "newobj",
					"numinlets" : 1,
					"numoutlets" : 3,
					"outlettype" : [ "", "", "" ],
					"patching_rect" : [ 163.0, 226.0, 51.0, 20.0 ],
					"restore" : [ 0 ],
					"saved_object_attributes" : 					{
						"parameter_enable" : 0
					}
,
					"text" : "pattr up",
					"varname" : "up"
				}

			}
, 			{
				"box" : 				{
					"fontname" : "Arial",
					"fontsize" : 12.0,
					"id" : "obj-61",
					"maxclass" : "newobj",
					"numinlets" : 2,
					"numoutlets" : 1,
					"outlettype" : [ "" ],
					"patching_rect" : [ 118.0, 613.0, 93.0, 20.0 ],
					"text" : "gate 1 1"
				}

			}
, 			{
				"box" : 				{
					"fontname" : "Arial",
					"fontsize" : 12.0,
					"id" : "obj-56",
					"maxclass" : "newobj",
					"numinlets" : 2,
					"numoutlets" : 3,
					"outlettype" : [ "jit_matrix", "jit_matrix", "" ],
					"patching_rect" : [ 34.0, 246.0, 85.0, 20.0 ],
					"text" : "video-handler"
				}

			}
, 			{
				"box" : 				{
					"fontname" : "Arial",
					"fontsize" : 12.0,
					"id" : "obj-27",
					"maxclass" : "newobj",
					"numinlets" : 1,
					"numoutlets" : 5,
					"outlettype" : [ "int", "bang", "float", "bang", "bang" ],
					"patching_rect" : [ 547.0, 70.0, 87.0, 20.0 ],
					"text" : "t 1 b 0.125 b b"
				}

			}
, 			{
				"box" : 				{
					"comment" : "",
					"id" : "obj-20",
					"maxclass" : "inlet",
					"numinlets" : 0,
					"numoutlets" : 1,
					"outlettype" : [ "" ],
					"patching_rect" : [ 34.0, 47.0, 25.0, 25.0 ]
				}

			}
, 			{
				"box" : 				{
					"fontname" : "Arial",
					"fontsize" : 12.0,
					"id" : "obj-24",
					"maxclass" : "newobj",
					"numinlets" : 1,
					"numoutlets" : 1,
					"outlettype" : [ "bang" ],
					"patching_rect" : [ 547.0, 43.0, 60.0, 20.0 ],
					"text" : "loadbang"
				}

			}
, 			{
				"box" : 				{
					"bgcolor" : [ 0.0, 0.25098, 0.0, 1.0 ],
					"bgoncolor" : [ 0.0, 0.25098, 0.0, 1.0 ],
					"bgovercolor" : [ 0.0, 0.25098, 0.0, 1.0 ],
					"bgoveroncolor" : [ 0.0, 0.25098, 0.0, 1.0 ],
					"bordercolor" : [ 0.0, 0.25098, 0.0, 1.0 ],
					"borderoncolor" : [ 0.0, 0.25098, 0.0, 1.0 ],
					"fontname" : "Arial Black",
					"fontsize" : 12.0,
					"hint" : "There's more than one way to get blurry, so the SLIDR module helps you create images that smear and blur over time by creating a running average for each pixel in the image. You can choose the range that new frames in your movie arrive, decay, or both for fascinating and subtle slo-mo effects.",
					"id" : "obj-23",
					"maxclass" : "textbutton",
					"numinlets" : 1,
					"numoutlets" : 3,
					"outlettype" : [ "", "", "int" ],
					"parameter_enable" : 0,
					"patching_rect" : [ 1018.0, 280.0, 94.0, 20.0 ],
					"presentation" : 1,
					"presentation_rect" : [ 36.0, 127.0, 84.0, 20.0 ],
					"rounded" : 20.0,
					"text" : "TVpHASOR",
					"textcolor" : [ 1.0, 1.0, 1.0, 1.0 ],
					"textovercolor" : [ 1.0, 1.0, 1.0, 1.0 ],
					"truncate" : 0
				}

			}
, 			{
				"box" : 				{
					"comment" : "",
					"id" : "obj-14",
					"maxclass" : "outlet",
					"numinlets" : 1,
					"numoutlets" : 0,
					"patching_rect" : [ 34.0, 720.0, 25.0, 25.0 ]
				}

			}
, 			{
				"box" : 				{
					"bordercolor" : [ 1.0, 1.0, 1.0, 1.0 ],
					"id" : "obj-4",
					"maxclass" : "jit.pwindow",
					"numinlets" : 1,
					"numoutlets" : 2,
					"outlettype" : [ "", "" ],
					"patching_rect" : [ 118.0, 642.0, 160.0, 120.0 ],
					"presentation" : 1,
					"presentation_rect" : [ 4.0, 26.0, 112.0, 84.0 ]
				}

			}
 ],
		"lines" : [ 			{
				"patchline" : 				{
					"destination" : [ "obj-6", 0 ],
					"disabled" : 0,
					"hidden" : 0,
					"source" : [ "obj-1", 0 ]
				}

			}
, 			{
				"patchline" : 				{
					"destination" : [ "obj-7", 0 ],
					"disabled" : 0,
					"hidden" : 0,
					"source" : [ "obj-10", 0 ]
				}

			}
, 			{
				"patchline" : 				{
					"destination" : [ "obj-99", 0 ],
					"disabled" : 0,
					"hidden" : 0,
					"source" : [ "obj-100", 0 ]
				}

			}
, 			{
				"patchline" : 				{
					"destination" : [ "obj-111", 0 ],
					"disabled" : 0,
					"hidden" : 0,
					"source" : [ "obj-101", 0 ]
				}

			}
, 			{
				"patchline" : 				{
					"destination" : [ "obj-104", 0 ],
					"disabled" : 0,
					"hidden" : 0,
					"source" : [ "obj-102", 0 ]
				}

			}
, 			{
				"patchline" : 				{
					"destination" : [ "obj-104", 1 ],
					"disabled" : 0,
					"hidden" : 0,
					"source" : [ "obj-103", 0 ]
				}

			}
, 			{
				"patchline" : 				{
					"destination" : [ "obj-107", 0 ],
					"disabled" : 0,
					"hidden" : 0,
					"source" : [ "obj-104", 0 ]
				}

			}
, 			{
				"patchline" : 				{
					"destination" : [ "obj-111", 0 ],
					"disabled" : 0,
					"hidden" : 0,
					"source" : [ "obj-105", 0 ]
				}

			}
, 			{
				"patchline" : 				{
					"destination" : [ "obj-103", 0 ],
					"disabled" : 0,
					"hidden" : 0,
					"source" : [ "obj-106", 0 ]
				}

			}
, 			{
				"patchline" : 				{
					"destination" : [ "obj-50", 1 ],
					"disabled" : 0,
					"hidden" : 0,
					"source" : [ "obj-107", 0 ]
				}

			}
, 			{
				"patchline" : 				{
					"destination" : [ "obj-105", 0 ],
					"disabled" : 0,
					"hidden" : 0,
					"source" : [ "obj-108", 0 ]
				}

			}
, 			{
				"patchline" : 				{
					"destination" : [ "obj-108", 0 ],
					"disabled" : 0,
					"hidden" : 0,
					"source" : [ "obj-109", 0 ]
				}

			}
, 			{
				"patchline" : 				{
					"destination" : [ "obj-113", 0 ],
					"disabled" : 0,
					"hidden" : 0,
					"source" : [ "obj-111", 0 ]
				}

			}
, 			{
				"patchline" : 				{
					"destination" : [ "obj-111", 0 ],
					"disabled" : 0,
					"hidden" : 0,
					"source" : [ "obj-112", 0 ]
				}

			}
, 			{
				"patchline" : 				{
					"destination" : [ "obj-117", 0 ],
					"disabled" : 0,
					"hidden" : 0,
					"source" : [ "obj-113", 0 ]
				}

			}
, 			{
				"patchline" : 				{
					"destination" : [ "obj-14", 0 ],
					"disabled" : 0,
					"hidden" : 0,
					"source" : [ "obj-113", 0 ]
				}

			}
, 			{
				"patchline" : 				{
					"destination" : [ "obj-33", 0 ],
					"disabled" : 0,
					"hidden" : 0,
					"source" : [ "obj-113", 0 ]
				}

			}
, 			{
				"patchline" : 				{
					"destination" : [ "obj-61", 1 ],
					"disabled" : 0,
					"hidden" : 0,
					"source" : [ "obj-113", 0 ]
				}

			}
, 			{
				"patchline" : 				{
					"destination" : [ "obj-103", 1 ],
					"disabled" : 0,
					"hidden" : 0,
					"source" : [ "obj-114", 1 ]
				}

			}
, 			{
				"patchline" : 				{
					"destination" : [ "obj-106", 0 ],
					"disabled" : 0,
					"hidden" : 0,
					"source" : [ "obj-114", 0 ]
				}

			}
, 			{
				"patchline" : 				{
					"destination" : [ "obj-107", 1 ],
					"disabled" : 0,
					"hidden" : 0,
					"source" : [ "obj-114", 2 ]
				}

			}
, 			{
				"patchline" : 				{
					"destination" : [ "obj-13", 0 ],
					"disabled" : 0,
					"hidden" : 0,
					"source" : [ "obj-12", 0 ]
				}

			}
, 			{
				"patchline" : 				{
					"destination" : [ "obj-112", 0 ],
					"disabled" : 0,
					"hidden" : 0,
					"source" : [ "obj-120", 1 ]
				}

			}
, 			{
				"patchline" : 				{
					"destination" : [ "obj-112", 0 ],
					"disabled" : 0,
					"hidden" : 0,
					"source" : [ "obj-120", 0 ]
				}

			}
, 			{
				"patchline" : 				{
					"destination" : [ "obj-19", 0 ],
					"disabled" : 0,
					"hidden" : 0,
					"source" : [ "obj-120", 0 ]
				}

			}
, 			{
				"patchline" : 				{
					"destination" : [ "obj-42", 1 ],
					"disabled" : 0,
					"hidden" : 0,
					"source" : [ "obj-120", 3 ]
				}

			}
, 			{
				"patchline" : 				{
					"destination" : [ "obj-70", 0 ],
					"disabled" : 0,
					"hidden" : 0,
					"source" : [ "obj-120", 2 ]
				}

			}
, 			{
				"patchline" : 				{
					"destination" : [ "obj-68", 0 ],
					"disabled" : 0,
					"hidden" : 0,
					"source" : [ "obj-125", 1 ]
				}

			}
, 			{
				"patchline" : 				{
					"destination" : [ "obj-79", 0 ],
					"disabled" : 0,
					"hidden" : 0,
					"source" : [ "obj-127", 1 ]
				}

			}
, 			{
				"patchline" : 				{
					"destination" : [ "obj-89", 0 ],
					"disabled" : 0,
					"hidden" : 0,
					"source" : [ "obj-128", 1 ]
				}

			}
, 			{
				"patchline" : 				{
					"destination" : [ "obj-82", 0 ],
					"disabled" : 0,
					"hidden" : 0,
					"source" : [ "obj-129", 1 ]
				}

			}
, 			{
				"patchline" : 				{
					"destination" : [ "obj-3", 0 ],
					"disabled" : 0,
					"hidden" : 0,
					"source" : [ "obj-130", 1 ]
				}

			}
, 			{
				"patchline" : 				{
					"destination" : [ "obj-55", 0 ],
					"disabled" : 0,
					"hidden" : 0,
					"source" : [ "obj-131", 1 ]
				}

			}
, 			{
				"patchline" : 				{
					"destination" : [ "obj-43", 0 ],
					"disabled" : 0,
					"hidden" : 0,
					"source" : [ "obj-132", 1 ]
				}

			}
, 			{
				"patchline" : 				{
					"destination" : [ "obj-31", 0 ],
					"disabled" : 0,
					"hidden" : 0,
					"source" : [ "obj-133", 1 ]
				}

			}
, 			{
				"patchline" : 				{
					"destination" : [ "obj-106", 0 ],
					"disabled" : 0,
					"hidden" : 0,
					"source" : [ "obj-134", 1 ]
				}

			}
, 			{
				"patchline" : 				{
					"destination" : [ "obj-91", 0 ],
					"disabled" : 0,
					"hidden" : 0,
					"source" : [ "obj-135", 1 ]
				}

			}
, 			{
				"patchline" : 				{
					"destination" : [ "obj-100", 0 ],
					"disabled" : 0,
					"hidden" : 0,
					"source" : [ "obj-136", 1 ]
				}

			}
, 			{
				"patchline" : 				{
					"destination" : [ "obj-94", 0 ],
					"disabled" : 0,
					"hidden" : 0,
					"source" : [ "obj-137", 1 ]
				}

			}
, 			{
				"patchline" : 				{
					"destination" : [ "obj-109", 0 ],
					"disabled" : 0,
					"hidden" : 0,
					"source" : [ "obj-138", 1 ]
				}

			}
, 			{
				"patchline" : 				{
					"destination" : [ "obj-92", 0 ],
					"disabled" : 0,
					"hidden" : 0,
					"source" : [ "obj-139", 1 ]
				}

			}
, 			{
				"patchline" : 				{
					"destination" : [ "obj-1", 0 ],
					"disabled" : 0,
					"hidden" : 0,
					"source" : [ "obj-15", 1 ]
				}

			}
, 			{
				"patchline" : 				{
					"destination" : [ "obj-16", 0 ],
					"disabled" : 0,
					"hidden" : 0,
					"source" : [ "obj-15", 0 ]
				}

			}
, 			{
				"patchline" : 				{
					"destination" : [ "obj-61", 0 ],
					"disabled" : 0,
					"hidden" : 0,
					"source" : [ "obj-17", 0 ]
				}

			}
, 			{
				"patchline" : 				{
					"destination" : [ "obj-62", 0 ],
					"disabled" : 0,
					"hidden" : 0,
					"midpoints" : [ 127.5, 572.5, 309.5, 572.5 ],
					"source" : [ "obj-17", 0 ]
				}

			}
, 			{
				"patchline" : 				{
					"destination" : [ "obj-71", 0 ],
					"disabled" : 0,
					"hidden" : 0,
					"midpoints" : [ 1033.0, 595.5, 1033.0, 595.5 ],
					"source" : [ "obj-19", 0 ]
				}

			}
, 			{
				"patchline" : 				{
					"destination" : [ "obj-56", 0 ],
					"disabled" : 0,
					"hidden" : 0,
					"source" : [ "obj-20", 0 ]
				}

			}
, 			{
				"patchline" : 				{
					"destination" : [ "obj-42", 0 ],
					"disabled" : 0,
					"hidden" : 0,
					"source" : [ "obj-21", 0 ]
				}

			}
, 			{
				"patchline" : 				{
					"destination" : [ "obj-27", 0 ],
					"disabled" : 0,
					"hidden" : 0,
					"source" : [ "obj-24", 0 ]
				}

			}
, 			{
				"patchline" : 				{
					"destination" : [ "obj-32", 0 ],
					"disabled" : 0,
					"hidden" : 0,
					"source" : [ "obj-27", 4 ]
				}

			}
, 			{
				"patchline" : 				{
					"destination" : [ "obj-34", 0 ],
					"disabled" : 0,
					"hidden" : 0,
					"midpoints" : [ 556.5, 95.0, 109.5, 95.0 ],
					"source" : [ "obj-27", 0 ]
				}

			}
, 			{
				"patchline" : 				{
					"destination" : [ "obj-67", 0 ],
					"disabled" : 0,
					"hidden" : 0,
					"source" : [ "obj-29", 0 ]
				}

			}
, 			{
				"patchline" : 				{
					"destination" : [ "obj-53", 0 ],
					"disabled" : 0,
					"hidden" : 0,
					"source" : [ "obj-3", 0 ]
				}

			}
, 			{
				"patchline" : 				{
					"destination" : [ "obj-29", 0 ],
					"disabled" : 0,
					"hidden" : 0,
					"source" : [ "obj-30", 0 ]
				}

			}
, 			{
				"patchline" : 				{
					"destination" : [ "obj-81", 0 ],
					"disabled" : 0,
					"hidden" : 0,
					"source" : [ "obj-31", 0 ]
				}

			}
, 			{
				"patchline" : 				{
					"destination" : [ "obj-88", 0 ],
					"disabled" : 0,
					"hidden" : 0,
					"source" : [ "obj-31", 0 ]
				}

			}
, 			{
				"patchline" : 				{
					"destination" : [ "obj-93", 0 ],
					"disabled" : 0,
					"hidden" : 0,
					"source" : [ "obj-31", 0 ]
				}

			}
, 			{
				"patchline" : 				{
					"destination" : [ "obj-47", 0 ],
					"disabled" : 0,
					"hidden" : 0,
					"midpoints" : [ 109.5, 151.0, 131.5, 151.0 ],
					"source" : [ "obj-34", 0 ]
				}

			}
, 			{
				"patchline" : 				{
					"destination" : [ "obj-56", 1 ],
					"disabled" : 0,
					"hidden" : 0,
					"source" : [ "obj-34", 0 ]
				}

			}
, 			{
				"patchline" : 				{
					"destination" : [ "obj-15", 0 ],
					"disabled" : 0,
					"hidden" : 0,
					"source" : [ "obj-35", 3 ]
				}

			}
, 			{
				"patchline" : 				{
					"destination" : [ "obj-37", 0 ],
					"disabled" : 0,
					"hidden" : 0,
					"source" : [ "obj-36", 0 ]
				}

			}
, 			{
				"patchline" : 				{
					"destination" : [ "obj-56", 0 ],
					"disabled" : 0,
					"hidden" : 0,
					"source" : [ "obj-37", 0 ]
				}

			}
, 			{
				"patchline" : 				{
					"destination" : [ "obj-63", 0 ],
					"disabled" : 0,
					"hidden" : 0,
					"source" : [ "obj-38", 0 ]
				}

			}
, 			{
				"patchline" : 				{
					"destination" : [ "obj-64", 0 ],
					"disabled" : 0,
					"hidden" : 0,
					"source" : [ "obj-38", 0 ]
				}

			}
, 			{
				"patchline" : 				{
					"destination" : [ "obj-63", 0 ],
					"disabled" : 0,
					"hidden" : 0,
					"source" : [ "obj-39", 0 ]
				}

			}
, 			{
				"patchline" : 				{
					"destination" : [ "obj-64", 0 ],
					"disabled" : 0,
					"hidden" : 0,
					"source" : [ "obj-39", 0 ]
				}

			}
, 			{
				"patchline" : 				{
					"destination" : [ "obj-86", 0 ],
					"disabled" : 0,
					"hidden" : 0,
					"source" : [ "obj-41", 0 ]
				}

			}
, 			{
				"patchline" : 				{
					"destination" : [ "obj-52", 2 ],
					"disabled" : 0,
					"hidden" : 0,
					"midpoints" : [ 1235.5, 1119.5, 1633.0, 1119.5 ],
					"source" : [ "obj-42", 0 ]
				}

			}
, 			{
				"patchline" : 				{
					"destination" : [ "obj-67", 2 ],
					"disabled" : 0,
					"hidden" : 0,
					"source" : [ "obj-42", 0 ]
				}

			}
, 			{
				"patchline" : 				{
					"destination" : [ "obj-44", 0 ],
					"disabled" : 0,
					"hidden" : 0,
					"source" : [ "obj-43", 0 ]
				}

			}
, 			{
				"patchline" : 				{
					"destination" : [ "obj-51", 0 ],
					"disabled" : 0,
					"hidden" : 0,
					"source" : [ "obj-43", 0 ]
				}

			}
, 			{
				"patchline" : 				{
					"destination" : [ "obj-80", 0 ],
					"disabled" : 0,
					"hidden" : 0,
					"source" : [ "obj-43", 0 ]
				}

			}
, 			{
				"patchline" : 				{
					"destination" : [ "obj-21", 2 ],
					"disabled" : 0,
					"hidden" : 0,
					"source" : [ "obj-44", 0 ]
				}

			}
, 			{
				"patchline" : 				{
					"destination" : [ "obj-38", 0 ],
					"disabled" : 0,
					"hidden" : 0,
					"source" : [ "obj-47", 1 ]
				}

			}
, 			{
				"patchline" : 				{
					"destination" : [ "obj-39", 0 ],
					"disabled" : 0,
					"hidden" : 0,
					"source" : [ "obj-47", 0 ]
				}

			}
, 			{
				"patchline" : 				{
					"destination" : [ "obj-36", 0 ],
					"disabled" : 0,
					"hidden" : 0,
					"source" : [ "obj-49", 1 ]
				}

			}
, 			{
				"patchline" : 				{
					"destination" : [ "obj-69", 1 ],
					"disabled" : 0,
					"hidden" : 0,
					"source" : [ "obj-5", 0 ]
				}

			}
, 			{
				"patchline" : 				{
					"destination" : [ "obj-52", 0 ],
					"disabled" : 0,
					"hidden" : 0,
					"source" : [ "obj-50", 0 ]
				}

			}
, 			{
				"patchline" : 				{
					"destination" : [ "obj-21", 1 ],
					"disabled" : 0,
					"hidden" : 0,
					"source" : [ "obj-51", 0 ]
				}

			}
, 			{
				"patchline" : 				{
					"destination" : [ "obj-41", 0 ],
					"disabled" : 0,
					"hidden" : 0,
					"midpoints" : [ 1080.0, 906.5, 1123.0, 906.5 ],
					"source" : [ "obj-53", 0 ]
				}

			}
, 			{
				"patchline" : 				{
					"destination" : [ "obj-46", 0 ],
					"disabled" : 0,
					"hidden" : 0,
					"source" : [ "obj-54", 0 ]
				}

			}
, 			{
				"patchline" : 				{
					"destination" : [ "obj-65", 0 ],
					"disabled" : 0,
					"hidden" : 0,
					"source" : [ "obj-54", 0 ]
				}

			}
, 			{
				"patchline" : 				{
					"destination" : [ "obj-66", 0 ],
					"disabled" : 0,
					"hidden" : 0,
					"source" : [ "obj-55", 0 ]
				}

			}
, 			{
				"patchline" : 				{
					"destination" : [ "obj-120", 0 ],
					"disabled" : 0,
					"hidden" : 0,
					"source" : [ "obj-56", 1 ]
				}

			}
, 			{
				"patchline" : 				{
					"destination" : [ "obj-14", 0 ],
					"disabled" : 0,
					"hidden" : 0,
					"source" : [ "obj-56", 0 ]
				}

			}
, 			{
				"patchline" : 				{
					"destination" : [ "obj-33", 0 ],
					"disabled" : 0,
					"hidden" : 0,
					"source" : [ "obj-56", 0 ]
				}

			}
, 			{
				"patchline" : 				{
					"destination" : [ "obj-47", 0 ],
					"disabled" : 0,
					"hidden" : 0,
					"source" : [ "obj-56", 2 ]
				}

			}
, 			{
				"patchline" : 				{
					"destination" : [ "obj-61", 1 ],
					"disabled" : 0,
					"hidden" : 0,
					"midpoints" : [ 43.5, 358.0, 201.5, 358.0 ],
					"source" : [ "obj-56", 0 ]
				}

			}
, 			{
				"patchline" : 				{
					"destination" : [ "obj-46", 0 ],
					"disabled" : 0,
					"hidden" : 0,
					"source" : [ "obj-57", 0 ]
				}

			}
, 			{
				"patchline" : 				{
					"destination" : [ "obj-65", 0 ],
					"disabled" : 0,
					"hidden" : 0,
					"source" : [ "obj-57", 0 ]
				}

			}
, 			{
				"patchline" : 				{
					"destination" : [ "obj-33", 0 ],
					"disabled" : 0,
					"hidden" : 0,
					"source" : [ "obj-58", 0 ]
				}

			}
, 			{
				"patchline" : 				{
					"destination" : [ "obj-58", 1 ],
					"disabled" : 0,
					"hidden" : 0,
					"midpoints" : [ 77.5, 561.515808, 111.5, 561.515808 ],
					"source" : [ "obj-59", 1 ]
				}

			}
, 			{
				"patchline" : 				{
					"destination" : [ "obj-58", 0 ],
					"disabled" : 0,
					"hidden" : 0,
					"source" : [ "obj-59", 0 ]
				}

			}
, 			{
				"patchline" : 				{
					"destination" : [ "obj-21", 0 ],
					"disabled" : 0,
					"hidden" : 0,
					"source" : [ "obj-60", 0 ]
				}

			}
, 			{
				"patchline" : 				{
					"destination" : [ "obj-4", 0 ],
					"disabled" : 0,
					"hidden" : 0,
					"source" : [ "obj-61", 0 ]
				}

			}
, 			{
				"patchline" : 				{
					"destination" : [ "obj-54", 0 ],
					"disabled" : 0,
					"hidden" : 0,
					"source" : [ "obj-62", 1 ]
				}

			}
, 			{
				"patchline" : 				{
					"destination" : [ "obj-57", 0 ],
					"disabled" : 0,
					"hidden" : 0,
					"source" : [ "obj-62", 0 ]
				}

			}
, 			{
				"patchline" : 				{
					"destination" : [ "obj-41", 1 ],
					"disabled" : 0,
					"hidden" : 0,
					"source" : [ "obj-66", 0 ]
				}

			}
, 			{
				"patchline" : 				{
					"destination" : [ "obj-5", 0 ],
					"disabled" : 0,
					"hidden" : 0,
					"source" : [ "obj-68", 0 ]
				}

			}
, 			{
				"patchline" : 				{
					"destination" : [ "obj-113", 1 ],
					"disabled" : 0,
					"hidden" : 0,
					"midpoints" : [ 1033.0, 844.5, 778.5, 844.5 ],
					"source" : [ "obj-69", 0 ]
				}

			}
, 			{
				"patchline" : 				{
					"destination" : [ "obj-22", 0 ],
					"disabled" : 0,
					"hidden" : 0,
					"source" : [ "obj-7", 0 ]
				}

			}
, 			{
				"patchline" : 				{
					"destination" : [ "obj-69", 0 ],
					"disabled" : 0,
					"hidden" : 0,
					"source" : [ "obj-70", 0 ]
				}

			}
, 			{
				"patchline" : 				{
					"destination" : [ "obj-70", 0 ],
					"disabled" : 0,
					"hidden" : 0,
					"source" : [ "obj-71", 0 ]
				}

			}
, 			{
				"patchline" : 				{
					"destination" : [ "obj-60", 0 ],
					"disabled" : 0,
					"hidden" : 0,
					"source" : [ "obj-79", 0 ]
				}

			}
, 			{
				"patchline" : 				{
					"destination" : [ "obj-21", 3 ],
					"disabled" : 0,
					"hidden" : 0,
					"source" : [ "obj-80", 0 ]
				}

			}
, 			{
				"patchline" : 				{
					"destination" : [ "obj-84", 3 ],
					"disabled" : 0,
					"hidden" : 0,
					"source" : [ "obj-81", 0 ]
				}

			}
, 			{
				"patchline" : 				{
					"destination" : [ "obj-83", 0 ],
					"disabled" : 0,
					"hidden" : 0,
					"source" : [ "obj-82", 0 ]
				}

			}
, 			{
				"patchline" : 				{
					"destination" : [ "obj-84", 0 ],
					"disabled" : 0,
					"hidden" : 0,
					"source" : [ "obj-83", 0 ]
				}

			}
, 			{
				"patchline" : 				{
					"destination" : [ "obj-50", 0 ],
					"disabled" : 0,
					"hidden" : 0,
					"source" : [ "obj-84", 0 ]
				}

			}
, 			{
				"patchline" : 				{
					"destination" : [ "obj-87", 0 ],
					"disabled" : 0,
					"hidden" : 0,
					"source" : [ "obj-86", 0 ]
				}

			}
, 			{
				"patchline" : 				{
					"destination" : [ "obj-30", 0 ],
					"disabled" : 0,
					"hidden" : 0,
					"source" : [ "obj-87", 0 ]
				}

			}
, 			{
				"patchline" : 				{
					"destination" : [ "obj-84", 2 ],
					"disabled" : 0,
					"hidden" : 0,
					"source" : [ "obj-88", 0 ]
				}

			}
, 			{
				"patchline" : 				{
					"destination" : [ "obj-86", 2 ],
					"disabled" : 0,
					"hidden" : 0,
					"source" : [ "obj-89", 0 ]
				}

			}
, 			{
				"patchline" : 				{
					"destination" : [ "obj-86", 1 ],
					"disabled" : 0,
					"hidden" : 0,
					"source" : [ "obj-89", 0 ]
				}

			}
, 			{
				"patchline" : 				{
					"destination" : [ "obj-87", 2 ],
					"disabled" : 0,
					"hidden" : 0,
					"source" : [ "obj-89", 0 ]
				}

			}
, 			{
				"patchline" : 				{
					"destination" : [ "obj-87", 1 ],
					"disabled" : 0,
					"hidden" : 0,
					"source" : [ "obj-89", 0 ]
				}

			}
, 			{
				"patchline" : 				{
					"destination" : [ "obj-114", 0 ],
					"disabled" : 0,
					"hidden" : 0,
					"source" : [ "obj-91", 0 ]
				}

			}
, 			{
				"patchline" : 				{
					"destination" : [ "obj-101", 0 ],
					"disabled" : 0,
					"hidden" : 0,
					"source" : [ "obj-92", 0 ]
				}

			}
, 			{
				"patchline" : 				{
					"destination" : [ "obj-84", 1 ],
					"disabled" : 0,
					"hidden" : 0,
					"source" : [ "obj-93", 0 ]
				}

			}
, 			{
				"patchline" : 				{
					"destination" : [ "obj-97", 0 ],
					"disabled" : 0,
					"hidden" : 0,
					"source" : [ "obj-94", 0 ]
				}

			}
, 			{
				"patchline" : 				{
					"destination" : [ "obj-111", 0 ],
					"disabled" : 0,
					"hidden" : 0,
					"source" : [ "obj-97", 0 ]
				}

			}
, 			{
				"patchline" : 				{
					"destination" : [ "obj-111", 0 ],
					"disabled" : 0,
					"hidden" : 0,
					"source" : [ "obj-98", 0 ]
				}

			}
, 			{
				"patchline" : 				{
					"destination" : [ "obj-98", 0 ],
					"disabled" : 0,
					"hidden" : 0,
					"source" : [ "obj-99", 0 ]
				}

			}
 ],
		"dependency_cache" : [ 			{
				"name" : "video-handler.maxpat",
				"bootpath" : "/Applications/Max6/patches/VIZZIE-PATCHES",
				"patcherrelativepath" : "../../../../../../../../Applications/Max6/patches/VIZZIE-PATCHES",
				"type" : "JSON",
				"implicit" : 1
			}
, 			{
				"name" : "St.Menu.maxpat",
				"bootpath" : "/Users/gonzalo/Documents/dev/maxEx/St.ools/St.ools",
				"patcherrelativepath" : "",
				"type" : "JSON",
				"implicit" : 1
			}
, 			{
				"name" : "mynamber.maxpat",
				"bootpath" : "/Users/gonzalo/Documents/dev/maxEx/St.ools/St.ools/abhaXions",
				"patcherrelativepath" : "../abhaXions",
				"type" : "JSON",
				"implicit" : 1
			}
, 			{
				"name" : "myparent.js",
				"bootpath" : "/Users/gonzalo/Documents/dev/maxEx/St.ools/St.ools/Javascripts",
				"patcherrelativepath" : "../Javascripts",
				"type" : "TEXT",
				"implicit" : 1
			}
, 			{
				"name" : "size.maxpat",
				"bootpath" : "/Users/gonzalo/Documents/dev/maxEx/St.ools/St.ools/abhaXions",
				"patcherrelativepath" : "../abhaXions",
				"type" : "JSON",
				"implicit" : 1
			}
, 			{
				"name" : "St.MenuSend.maxpat",
				"bootpath" : "/Users/gonzalo/Documents/dev/maxEx/St.ools/St.ools",
				"patcherrelativepath" : "",
				"type" : "JSON",
				"implicit" : 1
			}
, 			{
				"name" : "route~.maxpat",
				"bootpath" : "/Users/gonzalo/Documents/dev/maxEx/St.ools/St.ools/abhaXions",
				"patcherrelativepath" : "../abhaXions",
				"type" : "JSON",
				"implicit" : 1
			}
, 			{
				"name" : "revzi.maxpat",
				"bootpath" : "/Users/gonzalo/Documents/dev/maxEx/St.ools/St.ools/abhaXions",
				"patcherrelativepath" : "../abhaXions",
				"type" : "JSON",
				"implicit" : 1
			}
, 			{
				"name" : "grandgate.js",
				"bootpath" : "/Users/gonzalo/Documents/dev/maxEx/St.ools/St.ools/Javascripts",
				"patcherrelativepath" : "../Javascripts",
				"type" : "TEXT",
				"implicit" : 1
			}
 ]
	}

}
