{
	"patcher" : 	{
		"fileversion" : 1,
		"rect" : [ 307.0, 156.0, 284.0, 320.0 ],
		"bglocked" : 0,
		"defrect" : [ 307.0, 156.0, 284.0, 320.0 ],
		"openrect" : [ 0.0, 0.0, 0.0, 0.0 ],
		"openinpresentation" : 0,
		"default_fontsize" : 11.0,
		"default_fontface" : 0,
		"default_fontname" : "Verdana",
		"gridonopen" : 0,
		"gridsize" : [ 15.0, 15.0 ],
		"gridsnaponopen" : 0,
		"toolbarvisible" : 1,
		"boxanimatetime" : 200,
		"imprint" : 0,
		"metadata" : [  ],
		"boxes" : [ 			{
				"box" : 				{
					"maxclass" : "newobj",
					"text" : "t 0",
					"fontname" : "Verdana",
					"patching_rect" : [ 69.0, 220.0, 29.0, 20.0 ],
					"outlettype" : [ "int" ],
					"fontsize" : 11.0,
					"numinlets" : 1,
					"id" : "obj-3",
					"numoutlets" : 1
				}

			}
, 			{
				"box" : 				{
					"maxclass" : "newobj",
					"text" : "t 1",
					"fontname" : "Verdana",
					"patching_rect" : [ 22.0, 220.0, 29.0, 20.0 ],
					"outlettype" : [ "int" ],
					"fontsize" : 11.0,
					"numinlets" : 1,
					"id" : "obj-2",
					"numoutlets" : 1
				}

			}
, 			{
				"box" : 				{
					"maxclass" : "newobj",
					"text" : "edge~",
					"fontname" : "Verdana",
					"patching_rect" : [ 22.0, 192.0, 66.0, 20.0 ],
					"outlettype" : [ "bang", "bang" ],
					"fontsize" : 11.0,
					"numinlets" : 1,
					"id" : "obj-1",
					"numoutlets" : 2
				}

			}
, 			{
				"box" : 				{
					"maxclass" : "inlet",
					"patching_rect" : [ 115.195572, 23.223974, 19.0, 19.0 ],
					"outlettype" : [ "" ],
					"numinlets" : 0,
					"id" : "obj-11",
					"numoutlets" : 1,
					"comment" : ""
				}

			}
, 			{
				"box" : 				{
					"maxclass" : "newobj",
					"text" : "slide~ 0 1000",
					"fontname" : "Verdana",
					"patching_rect" : [ 22.0, 135.829651, 91.0, 20.0 ],
					"outlettype" : [ "signal" ],
					"fontsize" : 11.0,
					"numinlets" : 3,
					"id" : "obj-16",
					"numoutlets" : 1
				}

			}
, 			{
				"box" : 				{
					"maxclass" : "newobj",
					"text" : "abs~",
					"fontname" : "Verdana",
					"patching_rect" : [ 22.0, 110.126183, 58.0, 20.0 ],
					"outlettype" : [ "signal" ],
					"fontsize" : 11.0,
					"numinlets" : 1,
					"id" : "obj-17",
					"numoutlets" : 1
				}

			}
, 			{
				"box" : 				{
					"maxclass" : "newobj",
					"text" : ">~ 0.5",
					"fontname" : "Verdana",
					"patching_rect" : [ 22.0, 161.533127, 58.0, 20.0 ],
					"outlettype" : [ "signal" ],
					"fontsize" : 11.0,
					"numinlets" : 2,
					"id" : "obj-18",
					"numoutlets" : 1
				}

			}
, 			{
				"box" : 				{
					"maxclass" : "newobj",
					"text" : "adc~ #1",
					"fontname" : "Verdana",
					"patching_rect" : [ 22.0, 84.422714, 57.0, 20.0 ],
					"outlettype" : [ "signal" ],
					"fontsize" : 11.0,
					"numinlets" : 1,
					"id" : "obj-19",
					"numoutlets" : 1
				}

			}
, 			{
				"box" : 				{
					"maxclass" : "newobj",
					"text" : "dac~ #1",
					"fontname" : "Verdana",
					"patching_rect" : [ 115.195572, 134.605682, 60.0, 20.0 ],
					"fontsize" : 11.0,
					"numinlets" : 1,
					"id" : "obj-20",
					"numoutlets" : 0
				}

			}
, 			{
				"box" : 				{
					"maxclass" : "newobj",
					"text" : "cycle~ 17000",
					"linecount" : 2,
					"fontname" : "Verdana",
					"patching_rect" : [ 115.195572, 84.422714, 51.0, 33.0 ],
					"outlettype" : [ "signal" ],
					"fontsize" : 11.0,
					"numinlets" : 2,
					"id" : "obj-21",
					"numoutlets" : 1
				}

			}
, 			{
				"box" : 				{
					"maxclass" : "outlet",
					"patching_rect" : [ 22.0, 252.744476, 19.0, 19.0 ],
					"numinlets" : 1,
					"id" : "obj-22",
					"numoutlets" : 0,
					"comment" : ""
				}

			}
 ],
		"lines" : [ 			{
				"patchline" : 				{
					"source" : [ "obj-3", 0 ],
					"destination" : [ "obj-22", 0 ],
					"hidden" : 0,
					"midpoints" : [  ]
				}

			}
, 			{
				"patchline" : 				{
					"source" : [ "obj-21", 0 ],
					"destination" : [ "obj-20", 0 ],
					"hidden" : 0,
					"midpoints" : [  ]
				}

			}
, 			{
				"patchline" : 				{
					"source" : [ "obj-19", 0 ],
					"destination" : [ "obj-17", 0 ],
					"hidden" : 0,
					"midpoints" : [  ]
				}

			}
, 			{
				"patchline" : 				{
					"source" : [ "obj-2", 0 ],
					"destination" : [ "obj-22", 0 ],
					"hidden" : 0,
					"midpoints" : [  ]
				}

			}
, 			{
				"patchline" : 				{
					"source" : [ "obj-1", 1 ],
					"destination" : [ "obj-3", 0 ],
					"hidden" : 0,
					"midpoints" : [  ]
				}

			}
, 			{
				"patchline" : 				{
					"source" : [ "obj-1", 0 ],
					"destination" : [ "obj-2", 0 ],
					"hidden" : 0,
					"midpoints" : [  ]
				}

			}
, 			{
				"patchline" : 				{
					"source" : [ "obj-18", 0 ],
					"destination" : [ "obj-1", 0 ],
					"hidden" : 0,
					"midpoints" : [  ]
				}

			}
, 			{
				"patchline" : 				{
					"source" : [ "obj-16", 0 ],
					"destination" : [ "obj-18", 0 ],
					"hidden" : 0,
					"midpoints" : [  ]
				}

			}
, 			{
				"patchline" : 				{
					"source" : [ "obj-17", 0 ],
					"destination" : [ "obj-16", 0 ],
					"hidden" : 0,
					"midpoints" : [  ]
				}

			}
, 			{
				"patchline" : 				{
					"source" : [ "obj-11", 0 ],
					"destination" : [ "obj-21", 0 ],
					"hidden" : 0,
					"midpoints" : [  ]
				}

			}
 ]
	}

}
