{
	"patcher" : 	{
		"fileversion" : 1,
		"rect" : [ 401.0, 176.0, 242.0, 256.0 ],
		"bglocked" : 0,
		"defrect" : [ 401.0, 176.0, 242.0, 256.0 ],
		"openrect" : [ 0.0, 0.0, 0.0, 0.0 ],
		"openinpresentation" : 0,
		"default_fontsize" : 11.0,
		"default_fontface" : 0,
		"default_fontname" : "Verdana",
		"gridonopen" : 0,
		"gridsize" : [ 15.0, 15.0 ],
		"gridsnaponopen" : 0,
		"toolbarvisible" : 1,
		"boxanimatetime" : 200,
		"imprint" : 0,
		"metadata" : [  ],
		"boxes" : [ 			{
				"box" : 				{
					"maxclass" : "newobj",
					"text" : "beatdiv",
					"id" : "obj-1",
					"numinlets" : 2,
					"fontname" : "Verdana",
					"numoutlets" : 3,
					"patching_rect" : [ 103.0, 60.0, 59.0, 20.0 ],
					"outlettype" : [ "float", "float", "" ],
					"fontsize" : 11.0
				}

			}
, 			{
				"box" : 				{
					"maxclass" : "newobj",
					"text" : "beatdiv",
					"id" : "obj-2",
					"numinlets" : 2,
					"fontname" : "Verdana",
					"numoutlets" : 3,
					"patching_rect" : [ 41.0, 60.0, 59.0, 20.0 ],
					"outlettype" : [ "float", "float", "" ],
					"fontsize" : 11.0
				}

			}
, 			{
				"box" : 				{
					"maxclass" : "outlet",
					"id" : "obj-3",
					"numinlets" : 1,
					"numoutlets" : 0,
					"patching_rect" : [ 182.0, 170.0, 20.0, 20.0 ],
					"comment" : ""
				}

			}
, 			{
				"box" : 				{
					"maxclass" : "outlet",
					"id" : "obj-4",
					"numinlets" : 1,
					"numoutlets" : 0,
					"patching_rect" : [ 204.0, 170.0, 20.0, 20.0 ],
					"comment" : ""
				}

			}
, 			{
				"box" : 				{
					"maxclass" : "inlet",
					"id" : "obj-5",
					"numinlets" : 0,
					"numoutlets" : 1,
					"patching_rect" : [ 143.0, 34.0, 20.0, 20.0 ],
					"outlettype" : [ "" ],
					"comment" : ""
				}

			}
, 			{
				"box" : 				{
					"maxclass" : "newobj",
					"text" : "* 4.",
					"id" : "obj-6",
					"numinlets" : 2,
					"fontname" : "Verdana",
					"numoutlets" : 1,
					"patching_rect" : [ 41.0, 120.0, 121.0, 20.0 ],
					"outlettype" : [ "float" ],
					"fontsize" : 11.0
				}

			}
, 			{
				"box" : 				{
					"maxclass" : "inlet",
					"id" : "obj-7",
					"numinlets" : 0,
					"numoutlets" : 1,
					"patching_rect" : [ 81.0, 34.0, 20.0, 20.0 ],
					"outlettype" : [ "" ],
					"comment" : ""
				}

			}
, 			{
				"box" : 				{
					"maxclass" : "newobj",
					"text" : "* 1.",
					"id" : "obj-8",
					"numinlets" : 2,
					"fontname" : "Verdana",
					"numoutlets" : 1,
					"patching_rect" : [ 41.0, 145.0, 101.0, 20.0 ],
					"outlettype" : [ "float" ],
					"fontsize" : 11.0
				}

			}
, 			{
				"box" : 				{
					"maxclass" : "outlet",
					"id" : "obj-9",
					"numinlets" : 1,
					"numoutlets" : 0,
					"patching_rect" : [ 41.0, 170.0, 20.0, 20.0 ],
					"comment" : ""
				}

			}
, 			{
				"box" : 				{
					"maxclass" : "inlet",
					"id" : "obj-10",
					"numinlets" : 0,
					"numoutlets" : 1,
					"patching_rect" : [ 103.0, 34.0, 20.0, 20.0 ],
					"outlettype" : [ "" ],
					"comment" : ""
				}

			}
, 			{
				"box" : 				{
					"maxclass" : "inlet",
					"id" : "obj-11",
					"numinlets" : 0,
					"numoutlets" : 1,
					"patching_rect" : [ 41.0, 34.0, 20.0, 20.0 ],
					"outlettype" : [ "" ],
					"comment" : ""
				}

			}
, 			{
				"box" : 				{
					"maxclass" : "newobj",
					"text" : "!/ 60000.",
					"id" : "obj-12",
					"numinlets" : 2,
					"fontname" : "Verdana",
					"numoutlets" : 1,
					"patching_rect" : [ 123.0, 95.0, 65.0, 20.0 ],
					"outlettype" : [ "float" ],
					"fontsize" : 11.0
				}

			}
 ],
		"lines" : [ 			{
				"patchline" : 				{
					"source" : [ "obj-1", 2 ],
					"destination" : [ "obj-4", 0 ],
					"hidden" : 0,
					"midpoints" : [ 152.5, 84.0, 213.5, 84.0 ]
				}

			}
, 			{
				"patchline" : 				{
					"source" : [ "obj-1", 1 ],
					"destination" : [ "obj-3", 0 ],
					"hidden" : 0,
					"midpoints" : [ 132.5, 89.0, 191.5, 89.0 ]
				}

			}
, 			{
				"patchline" : 				{
					"source" : [ "obj-1", 2 ],
					"destination" : [ "obj-6", 1 ],
					"hidden" : 0,
					"midpoints" : [  ]
				}

			}
, 			{
				"patchline" : 				{
					"source" : [ "obj-5", 0 ],
					"destination" : [ "obj-1", 1 ],
					"hidden" : 0,
					"midpoints" : [  ]
				}

			}
, 			{
				"patchline" : 				{
					"source" : [ "obj-12", 0 ],
					"destination" : [ "obj-8", 1 ],
					"hidden" : 0,
					"midpoints" : [  ]
				}

			}
, 			{
				"patchline" : 				{
					"source" : [ "obj-1", 1 ],
					"destination" : [ "obj-12", 0 ],
					"hidden" : 0,
					"midpoints" : [  ]
				}

			}
, 			{
				"patchline" : 				{
					"source" : [ "obj-10", 0 ],
					"destination" : [ "obj-1", 0 ],
					"hidden" : 0,
					"midpoints" : [  ]
				}

			}
, 			{
				"patchline" : 				{
					"source" : [ "obj-7", 0 ],
					"destination" : [ "obj-2", 1 ],
					"hidden" : 0,
					"midpoints" : [  ]
				}

			}
, 			{
				"patchline" : 				{
					"source" : [ "obj-8", 0 ],
					"destination" : [ "obj-9", 0 ],
					"hidden" : 0,
					"midpoints" : [  ]
				}

			}
, 			{
				"patchline" : 				{
					"source" : [ "obj-6", 0 ],
					"destination" : [ "obj-8", 0 ],
					"hidden" : 0,
					"midpoints" : [  ]
				}

			}
, 			{
				"patchline" : 				{
					"source" : [ "obj-2", 0 ],
					"destination" : [ "obj-6", 0 ],
					"hidden" : 0,
					"midpoints" : [  ]
				}

			}
, 			{
				"patchline" : 				{
					"source" : [ "obj-11", 0 ],
					"destination" : [ "obj-2", 0 ],
					"hidden" : 0,
					"midpoints" : [  ]
				}

			}
 ]
	}

}
