{
	"patcher" : 	{
		"fileversion" : 1,
		"rect" : [ 25.0, 69.0, 640.0, 506.0 ],
		"bglocked" : 0,
		"defrect" : [ 25.0, 69.0, 640.0, 506.0 ],
		"openrect" : [ 0.0, 0.0, 0.0, 0.0 ],
		"openinpresentation" : 0,
		"default_fontsize" : 11.0,
		"default_fontface" : 0,
		"default_fontname" : "Verdana",
		"gridonopen" : 0,
		"gridsize" : [ 15.0, 15.0 ],
		"gridsnaponopen" : 0,
		"toolbarvisible" : 1,
		"boxanimatetime" : 200,
		"imprint" : 0,
		"metadata" : [  ],
		"boxes" : [ 			{
				"box" : 				{
					"maxclass" : "inlet",
					"numinlets" : 0,
					"numoutlets" : 1,
					"patching_rect" : [ 83.0, 61.0, 25.0, 25.0 ],
					"outlettype" : [ "" ],
					"id" : "obj-37",
					"comment" : ""
				}

			}
, 			{
				"box" : 				{
					"maxclass" : "outlet",
					"numinlets" : 1,
					"numoutlets" : 0,
					"patching_rect" : [ 206.0, 362.0, 25.0, 25.0 ],
					"id" : "obj-35",
					"comment" : ""
				}

			}
, 			{
				"box" : 				{
					"maxclass" : "outlet",
					"numinlets" : 1,
					"numoutlets" : 0,
					"patching_rect" : [ 164.0, 362.0, 25.0, 25.0 ],
					"id" : "obj-34",
					"comment" : ""
				}

			}
, 			{
				"box" : 				{
					"maxclass" : "newobj",
					"text" : "route symbol",
					"linecount" : 2,
					"fontname" : "Verdana",
					"numinlets" : 1,
					"fontsize" : 11.0,
					"numoutlets" : 2,
					"patching_rect" : [ 164.0, 293.0, 50.0, 33.0 ],
					"outlettype" : [ "", "" ],
					"id" : "obj-32"
				}

			}
, 			{
				"box" : 				{
					"maxclass" : "newobj",
					"text" : "* 100",
					"fontname" : "Verdana",
					"numinlets" : 2,
					"fontsize" : 11.0,
					"numoutlets" : 1,
					"patching_rect" : [ 83.0, 234.0, 46.0, 20.0 ],
					"outlettype" : [ "int" ],
					"id" : "obj-31"
				}

			}
, 			{
				"box" : 				{
					"maxclass" : "newobj",
					"text" : "* 50",
					"fontname" : "Verdana",
					"numinlets" : 2,
					"fontsize" : 11.0,
					"numoutlets" : 1,
					"patching_rect" : [ 164.0, 202.0, 59.0, 20.0 ],
					"outlettype" : [ "int" ],
					"id" : "obj-24"
				}

			}
, 			{
				"box" : 				{
					"maxclass" : "newobj",
					"text" : "rint",
					"fontname" : "Verdana",
					"numinlets" : 2,
					"fontsize" : 11.0,
					"numoutlets" : 2,
					"patching_rect" : [ 164.0, 175.0, 59.0, 20.0 ],
					"outlettype" : [ "int", "float" ],
					"id" : "obj-23"
				}

			}
, 			{
				"box" : 				{
					"maxclass" : "newobj",
					"text" : "/ 50.",
					"fontname" : "Verdana",
					"numinlets" : 2,
					"fontsize" : 11.0,
					"numoutlets" : 1,
					"patching_rect" : [ 164.0, 152.0, 58.0, 20.0 ],
					"outlettype" : [ "float" ],
					"id" : "obj-22"
				}

			}
, 			{
				"box" : 				{
					"maxclass" : "newobj",
					"text" : "ntom",
					"fontname" : "Verdana",
					"numinlets" : 1,
					"fontsize" : 11.0,
					"numoutlets" : 1,
					"patching_rect" : [ 245.0, 153.0, 45.0, 20.0 ],
					"outlettype" : [ "int" ],
					"id" : "obj-5"
				}

			}
, 			{
				"box" : 				{
					"maxclass" : "newobj",
					"text" : "prepend symbol",
					"fontname" : "Verdana",
					"numinlets" : 1,
					"fontsize" : 11.0,
					"numoutlets" : 1,
					"patching_rect" : [ 245.0, 122.0, 100.0, 20.0 ],
					"outlettype" : [ "" ],
					"id" : "obj-4"
				}

			}
, 			{
				"box" : 				{
					"maxclass" : "newobj",
					"text" : "mtoc",
					"fontname" : "Verdana",
					"numinlets" : 4,
					"fontsize" : 11.0,
					"numoutlets" : 2,
					"patching_rect" : [ 164.0, 122.0, 56.0, 20.0 ],
					"outlettype" : [ "float", "float" ],
					"id" : "obj-3"
				}

			}
, 			{
				"box" : 				{
					"maxclass" : "newobj",
					"text" : "split 0 127",
					"fontname" : "Verdana",
					"numinlets" : 3,
					"fontsize" : 11.0,
					"numoutlets" : 2,
					"patching_rect" : [ 83.0, 122.0, 77.0, 20.0 ],
					"outlettype" : [ "int", "int" ],
					"id" : "obj-2"
				}

			}
, 			{
				"box" : 				{
					"maxclass" : "newobj",
					"text" : "route int float",
					"fontname" : "Verdana",
					"numinlets" : 1,
					"fontsize" : 11.0,
					"numoutlets" : 3,
					"patching_rect" : [ 83.0, 94.0, 181.0, 20.0 ],
					"outlettype" : [ "", "", "" ],
					"id" : "obj-1"
				}

			}
, 			{
				"box" : 				{
					"maxclass" : "newobj",
					"text" : "coll NoteCNames",
					"fontname" : "Verdana",
					"numinlets" : 1,
					"fontsize" : 11.0,
					"numoutlets" : 4,
					"patching_rect" : [ 164.0, 266.0, 144.0, 20.0 ],
					"outlettype" : [ "", "", "", "" ],
					"id" : "obj-12",
					"save" : [ "#N", "coll", "NoteCNames", ";" ],
					"saved_object_attributes" : 					{
						"embed" : 0
					}

				}

			}
 ],
		"lines" : [ 			{
				"patchline" : 				{
					"source" : [ "obj-31", 0 ],
					"destination" : [ "obj-12", 0 ],
					"hidden" : 0,
					"midpoints" : [ 92.5, 259.0, 173.5, 259.0 ]
				}

			}
, 			{
				"patchline" : 				{
					"source" : [ "obj-3", 0 ],
					"destination" : [ "obj-22", 0 ],
					"hidden" : 0,
					"midpoints" : [  ]
				}

			}
, 			{
				"patchline" : 				{
					"source" : [ "obj-1", 1 ],
					"destination" : [ "obj-3", 0 ],
					"hidden" : 0,
					"midpoints" : [  ]
				}

			}
, 			{
				"patchline" : 				{
					"source" : [ "obj-37", 0 ],
					"destination" : [ "obj-1", 0 ],
					"hidden" : 0,
					"midpoints" : [  ]
				}

			}
, 			{
				"patchline" : 				{
					"source" : [ "obj-5", 0 ],
					"destination" : [ "obj-31", 0 ],
					"hidden" : 0,
					"midpoints" : [ 254.5, 227.0, 92.5, 227.0 ]
				}

			}
, 			{
				"patchline" : 				{
					"source" : [ "obj-12", 1 ],
					"destination" : [ "obj-35", 0 ],
					"hidden" : 0,
					"midpoints" : [  ]
				}

			}
, 			{
				"patchline" : 				{
					"source" : [ "obj-32", 0 ],
					"destination" : [ "obj-34", 0 ],
					"hidden" : 0,
					"midpoints" : [  ]
				}

			}
, 			{
				"patchline" : 				{
					"source" : [ "obj-12", 0 ],
					"destination" : [ "obj-32", 0 ],
					"hidden" : 0,
					"midpoints" : [  ]
				}

			}
, 			{
				"patchline" : 				{
					"source" : [ "obj-4", 0 ],
					"destination" : [ "obj-5", 0 ],
					"hidden" : 0,
					"midpoints" : [  ]
				}

			}
, 			{
				"patchline" : 				{
					"source" : [ "obj-2", 0 ],
					"destination" : [ "obj-31", 0 ],
					"hidden" : 0,
					"midpoints" : [  ]
				}

			}
, 			{
				"patchline" : 				{
					"source" : [ "obj-2", 1 ],
					"destination" : [ "obj-22", 0 ],
					"hidden" : 0,
					"midpoints" : [ 150.5, 147.0, 173.5, 147.0 ]
				}

			}
, 			{
				"patchline" : 				{
					"source" : [ "obj-24", 0 ],
					"destination" : [ "obj-12", 0 ],
					"hidden" : 0,
					"midpoints" : [  ]
				}

			}
, 			{
				"patchline" : 				{
					"source" : [ "obj-23", 0 ],
					"destination" : [ "obj-24", 0 ],
					"hidden" : 0,
					"midpoints" : [  ]
				}

			}
, 			{
				"patchline" : 				{
					"source" : [ "obj-22", 0 ],
					"destination" : [ "obj-23", 0 ],
					"hidden" : 0,
					"midpoints" : [  ]
				}

			}
, 			{
				"patchline" : 				{
					"source" : [ "obj-1", 0 ],
					"destination" : [ "obj-2", 0 ],
					"hidden" : 0,
					"midpoints" : [  ]
				}

			}
, 			{
				"patchline" : 				{
					"source" : [ "obj-1", 2 ],
					"destination" : [ "obj-4", 0 ],
					"hidden" : 0,
					"midpoints" : [  ]
				}

			}
 ]
	}

}
