{
	"patcher" : 	{
		"fileversion" : 1,
		"rect" : [ -23.0, 148.0, 1047.0, 405.0 ],
		"bglocked" : 0,
		"defrect" : [ -23.0, 148.0, 1047.0, 405.0 ],
		"openrect" : [ 0.0, 0.0, 0.0, 0.0 ],
		"openinpresentation" : 0,
		"default_fontsize" : 11.0,
		"default_fontface" : 0,
		"default_fontname" : "Verdana",
		"gridonopen" : 0,
		"gridsize" : [ 15.0, 15.0 ],
		"gridsnaponopen" : 0,
		"toolbarvisible" : 1,
		"boxanimatetime" : 200,
		"imprint" : 0,
		"metadata" : [  ],
		"boxes" : [ 			{
				"box" : 				{
					"maxclass" : "newobj",
					"text" : "zl reg",
					"fontname" : "Verdana",
					"numinlets" : 2,
					"fontsize" : 11.0,
					"numoutlets" : 2,
					"patching_rect" : [ 1098.0, 237.0, 45.0, 20.0 ],
					"outlettype" : [ "", "" ],
					"id" : "obj-8"
				}

			}
, 			{
				"box" : 				{
					"maxclass" : "newobj",
					"varname" : "*[24]",
					"text" : "*~ 1.",
					"fontname" : "Verdana",
					"numinlets" : 2,
					"fontsize" : 11.0,
					"numoutlets" : 1,
					"patching_rect" : [ 1079.0, 140.0, 42.0, 20.0 ],
					"outlettype" : [ "signal" ],
					"id" : "obj-44"
				}

			}
, 			{
				"box" : 				{
					"maxclass" : "newobj",
					"varname" : "prep[24]",
					"text" : "prepend signal24",
					"linecount" : 2,
					"fontname" : "Verdana",
					"numinlets" : 1,
					"fontsize" : 10.0,
					"numoutlets" : 1,
					"patching_rect" : [ 1079.0, 174.0, 53.0, 31.0 ],
					"outlettype" : [ "" ],
					"id" : "obj-45"
				}

			}
, 			{
				"box" : 				{
					"maxclass" : "newobj",
					"varname" : "*[23]",
					"text" : "*~ 1.",
					"fontname" : "Verdana",
					"numinlets" : 2,
					"fontsize" : 11.0,
					"numoutlets" : 1,
					"patching_rect" : [ 1033.0, 140.0, 42.0, 20.0 ],
					"outlettype" : [ "signal" ],
					"id" : "obj-38"
				}

			}
, 			{
				"box" : 				{
					"maxclass" : "newobj",
					"varname" : "prep[23]",
					"text" : "prepend signal23",
					"linecount" : 2,
					"fontname" : "Verdana",
					"numinlets" : 1,
					"fontsize" : 10.0,
					"numoutlets" : 1,
					"patching_rect" : [ 1033.0, 174.0, 53.0, 31.0 ],
					"outlettype" : [ "" ],
					"id" : "obj-39"
				}

			}
, 			{
				"box" : 				{
					"maxclass" : "newobj",
					"varname" : "*[22]",
					"text" : "*~ 1.",
					"fontname" : "Verdana",
					"numinlets" : 2,
					"fontsize" : 11.0,
					"numoutlets" : 1,
					"patching_rect" : [ 988.0, 140.0, 42.0, 20.0 ],
					"outlettype" : [ "signal" ],
					"id" : "obj-35"
				}

			}
, 			{
				"box" : 				{
					"maxclass" : "newobj",
					"varname" : "prep[22]",
					"text" : "prepend signal22",
					"linecount" : 2,
					"fontname" : "Verdana",
					"numinlets" : 1,
					"fontsize" : 10.0,
					"numoutlets" : 1,
					"patching_rect" : [ 988.0, 174.0, 53.0, 31.0 ],
					"outlettype" : [ "" ],
					"id" : "obj-36"
				}

			}
, 			{
				"box" : 				{
					"maxclass" : "newobj",
					"varname" : "*[21]",
					"text" : "*~ 1.",
					"fontname" : "Verdana",
					"numinlets" : 2,
					"fontsize" : 11.0,
					"numoutlets" : 1,
					"patching_rect" : [ 942.0, 140.0, 42.0, 20.0 ],
					"outlettype" : [ "signal" ],
					"id" : "obj-32"
				}

			}
, 			{
				"box" : 				{
					"maxclass" : "newobj",
					"varname" : "prep[21]",
					"text" : "prepend signal21",
					"linecount" : 2,
					"fontname" : "Verdana",
					"numinlets" : 1,
					"fontsize" : 10.0,
					"numoutlets" : 1,
					"patching_rect" : [ 942.0, 174.0, 53.0, 31.0 ],
					"outlettype" : [ "" ],
					"id" : "obj-33"
				}

			}
, 			{
				"box" : 				{
					"maxclass" : "newobj",
					"varname" : "*[20]",
					"text" : "*~ 1.",
					"fontname" : "Verdana",
					"numinlets" : 2,
					"fontsize" : 11.0,
					"numoutlets" : 1,
					"patching_rect" : [ 897.0, 140.0, 42.0, 20.0 ],
					"outlettype" : [ "signal" ],
					"id" : "obj-29"
				}

			}
, 			{
				"box" : 				{
					"maxclass" : "newobj",
					"varname" : "prep[20]",
					"text" : "prepend signal20",
					"linecount" : 2,
					"fontname" : "Verdana",
					"numinlets" : 1,
					"fontsize" : 10.0,
					"numoutlets" : 1,
					"patching_rect" : [ 897.0, 174.0, 53.0, 31.0 ],
					"outlettype" : [ "" ],
					"id" : "obj-30"
				}

			}
, 			{
				"box" : 				{
					"maxclass" : "newobj",
					"varname" : "*[19]",
					"text" : "*~ 1.",
					"fontname" : "Verdana",
					"numinlets" : 2,
					"fontsize" : 11.0,
					"numoutlets" : 1,
					"patching_rect" : [ 851.0, 140.0, 42.0, 20.0 ],
					"outlettype" : [ "signal" ],
					"id" : "obj-25"
				}

			}
, 			{
				"box" : 				{
					"maxclass" : "newobj",
					"varname" : "prep[19]",
					"text" : "prepend signal19",
					"linecount" : 2,
					"fontname" : "Verdana",
					"numinlets" : 1,
					"fontsize" : 10.0,
					"numoutlets" : 1,
					"patching_rect" : [ 851.0, 174.0, 53.0, 31.0 ],
					"outlettype" : [ "" ],
					"id" : "obj-27"
				}

			}
, 			{
				"box" : 				{
					"maxclass" : "newobj",
					"varname" : "*[18]",
					"text" : "*~ 1.",
					"fontname" : "Verdana",
					"numinlets" : 2,
					"fontsize" : 11.0,
					"numoutlets" : 1,
					"patching_rect" : [ 806.0, 140.0, 42.0, 20.0 ],
					"outlettype" : [ "signal" ],
					"id" : "obj-23"
				}

			}
, 			{
				"box" : 				{
					"maxclass" : "newobj",
					"varname" : "prep[18]",
					"text" : "prepend signal18",
					"linecount" : 2,
					"fontname" : "Verdana",
					"numinlets" : 1,
					"fontsize" : 10.0,
					"numoutlets" : 1,
					"patching_rect" : [ 806.0, 174.0, 53.0, 31.0 ],
					"outlettype" : [ "" ],
					"id" : "obj-24"
				}

			}
, 			{
				"box" : 				{
					"maxclass" : "newobj",
					"varname" : "*[17]",
					"text" : "*~ 1.",
					"fontname" : "Verdana",
					"numinlets" : 2,
					"fontsize" : 11.0,
					"numoutlets" : 1,
					"patching_rect" : [ 760.0, 140.0, 42.0, 20.0 ],
					"outlettype" : [ "signal" ],
					"id" : "obj-19"
				}

			}
, 			{
				"box" : 				{
					"maxclass" : "newobj",
					"varname" : "prep[17]",
					"text" : "prepend signal17",
					"linecount" : 2,
					"fontname" : "Verdana",
					"numinlets" : 1,
					"fontsize" : 10.0,
					"numoutlets" : 1,
					"patching_rect" : [ 760.0, 174.0, 53.0, 31.0 ],
					"outlettype" : [ "" ],
					"id" : "obj-22"
				}

			}
, 			{
				"box" : 				{
					"maxclass" : "newobj",
					"text" : "p levels",
					"fontname" : "Verdana",
					"numinlets" : 2,
					"fontsize" : 11.0,
					"numoutlets" : 2,
					"patching_rect" : [ 1145.0, 63.0, 55.0, 20.0 ],
					"outlettype" : [ "signal", "bang" ],
					"id" : "obj-26",
					"patcher" : 					{
						"fileversion" : 1,
						"rect" : [ 25.0, 69.0, 282.0, 365.0 ],
						"bglocked" : 0,
						"defrect" : [ 25.0, 69.0, 282.0, 365.0 ],
						"openrect" : [ 0.0, 0.0, 0.0, 0.0 ],
						"openinpresentation" : 0,
						"default_fontsize" : 11.0,
						"default_fontface" : 0,
						"default_fontname" : "Verdana",
						"gridonopen" : 0,
						"gridsize" : [ 15.0, 15.0 ],
						"gridsnaponopen" : 0,
						"toolbarvisible" : 1,
						"boxanimatetime" : 200,
						"imprint" : 0,
						"metadata" : [  ],
						"boxes" : [ 							{
								"box" : 								{
									"maxclass" : "newobj",
									"text" : "delay",
									"fontname" : "Verdana",
									"numinlets" : 2,
									"fontsize" : 11.0,
									"numoutlets" : 1,
									"patching_rect" : [ 160.0, 172.0, 51.0, 20.0 ],
									"outlettype" : [ "bang" ],
									"id" : "obj-9"
								}

							}
, 							{
								"box" : 								{
									"maxclass" : "outlet",
									"numinlets" : 1,
									"numoutlets" : 0,
									"patching_rect" : [ 160.0, 258.0, 25.0, 25.0 ],
									"id" : "obj-5",
									"comment" : ""
								}

							}
, 							{
								"box" : 								{
									"maxclass" : "newobj",
									"text" : "/ 2.",
									"fontname" : "Verdana",
									"numinlets" : 2,
									"fontsize" : 11.0,
									"numoutlets" : 1,
									"patching_rect" : [ 115.0, 55.0, 34.0, 20.0 ],
									"outlettype" : [ "float" ],
									"id" : "obj-1"
								}

							}
, 							{
								"box" : 								{
									"maxclass" : "newobj",
									"text" : "float",
									"fontname" : "Verdana",
									"numinlets" : 2,
									"fontsize" : 11.0,
									"numoutlets" : 1,
									"patching_rect" : [ 83.0, 120.0, 51.0, 20.0 ],
									"outlettype" : [ "float" ],
									"id" : "obj-8"
								}

							}
, 							{
								"box" : 								{
									"maxclass" : "newobj",
									"text" : "t 0. b b",
									"fontname" : "Verdana",
									"numinlets" : 1,
									"fontsize" : 11.0,
									"numoutlets" : 3,
									"patching_rect" : [ 55.0, 88.0, 124.0, 20.0 ],
									"outlettype" : [ "float", "bang", "bang" ],
									"id" : "obj-3"
								}

							}
, 							{
								"box" : 								{
									"maxclass" : "inlet",
									"numinlets" : 0,
									"numoutlets" : 1,
									"patching_rect" : [ 55.0, 14.0, 25.0, 25.0 ],
									"outlettype" : [ "" ],
									"id" : "obj-2",
									"comment" : ""
								}

							}
, 							{
								"box" : 								{
									"maxclass" : "newobj",
									"text" : "pack 0. 10 1. 10",
									"fontname" : "Verdana",
									"numinlets" : 4,
									"fontsize" : 11.0,
									"numoutlets" : 1,
									"patching_rect" : [ 55.0, 171.0, 103.0, 20.0 ],
									"outlettype" : [ "" ],
									"id" : "obj-7"
								}

							}
, 							{
								"box" : 								{
									"maxclass" : "newobj",
									"text" : "line~ 1.",
									"fontname" : "Verdana",
									"numinlets" : 2,
									"fontsize" : 11.0,
									"numoutlets" : 2,
									"patching_rect" : [ 55.0, 201.0, 54.0, 20.0 ],
									"outlettype" : [ "signal", "bang" ],
									"id" : "obj-6"
								}

							}
, 							{
								"box" : 								{
									"maxclass" : "inlet",
									"numinlets" : 0,
									"numoutlets" : 1,
									"patching_rect" : [ 115.0, 14.0, 25.0, 25.0 ],
									"outlettype" : [ "" ],
									"id" : "obj-23",
									"comment" : ""
								}

							}
, 							{
								"box" : 								{
									"maxclass" : "outlet",
									"numinlets" : 1,
									"numoutlets" : 0,
									"patching_rect" : [ 55.0, 258.0, 25.0, 25.0 ],
									"id" : "obj-25",
									"comment" : ""
								}

							}
 ],
						"lines" : [ 							{
								"patchline" : 								{
									"source" : [ "obj-9", 0 ],
									"destination" : [ "obj-5", 0 ],
									"hidden" : 0,
									"midpoints" : [  ]
								}

							}
, 							{
								"patchline" : 								{
									"source" : [ "obj-1", 0 ],
									"destination" : [ "obj-9", 1 ],
									"hidden" : 0,
									"midpoints" : [ 124.5, 81.0, 201.5, 81.0 ]
								}

							}
, 							{
								"patchline" : 								{
									"source" : [ "obj-3", 2 ],
									"destination" : [ "obj-9", 0 ],
									"hidden" : 0,
									"midpoints" : [  ]
								}

							}
, 							{
								"patchline" : 								{
									"source" : [ "obj-2", 0 ],
									"destination" : [ "obj-3", 0 ],
									"hidden" : 0,
									"midpoints" : [  ]
								}

							}
, 							{
								"patchline" : 								{
									"source" : [ "obj-3", 0 ],
									"destination" : [ "obj-7", 0 ],
									"hidden" : 0,
									"midpoints" : [  ]
								}

							}
, 							{
								"patchline" : 								{
									"source" : [ "obj-3", 1 ],
									"destination" : [ "obj-8", 0 ],
									"hidden" : 0,
									"midpoints" : [  ]
								}

							}
, 							{
								"patchline" : 								{
									"source" : [ "obj-1", 0 ],
									"destination" : [ "obj-8", 1 ],
									"hidden" : 0,
									"midpoints" : [  ]
								}

							}
, 							{
								"patchline" : 								{
									"source" : [ "obj-23", 0 ],
									"destination" : [ "obj-1", 0 ],
									"hidden" : 0,
									"midpoints" : [  ]
								}

							}
, 							{
								"patchline" : 								{
									"source" : [ "obj-8", 0 ],
									"destination" : [ "obj-7", 1 ],
									"hidden" : 0,
									"midpoints" : [  ]
								}

							}
, 							{
								"patchline" : 								{
									"source" : [ "obj-8", 0 ],
									"destination" : [ "obj-7", 3 ],
									"hidden" : 0,
									"midpoints" : [ 92.5, 154.0, 148.5, 154.0 ]
								}

							}
, 							{
								"patchline" : 								{
									"source" : [ "obj-7", 0 ],
									"destination" : [ "obj-6", 0 ],
									"hidden" : 0,
									"midpoints" : [  ]
								}

							}
, 							{
								"patchline" : 								{
									"source" : [ "obj-6", 0 ],
									"destination" : [ "obj-25", 0 ],
									"hidden" : 0,
									"midpoints" : [  ]
								}

							}
 ]
					}
,
					"saved_object_attributes" : 					{
						"fontname" : "Verdana",
						"default_fontname" : "Verdana",
						"globalpatchername" : "",
						"default_fontsize" : 11.0,
						"fontface" : 0,
						"fontsize" : 11.0,
						"default_fontface" : 0
					}

				}

			}
, 			{
				"box" : 				{
					"maxclass" : "inlet",
					"numinlets" : 0,
					"numoutlets" : 1,
					"patching_rect" : [ 1181.0, 27.0, 20.0, 20.0 ],
					"outlettype" : [ "" ],
					"id" : "obj-21",
					"comment" : ""
				}

			}
, 			{
				"box" : 				{
					"maxclass" : "outlet",
					"numinlets" : 1,
					"numoutlets" : 0,
					"patching_rect" : [ 1098.0, 307.0, 20.0, 20.0 ],
					"id" : "obj-11",
					"comment" : ""
				}

			}
, 			{
				"box" : 				{
					"maxclass" : "newobj",
					"varname" : "*[16]",
					"text" : "*~ 1.",
					"fontname" : "Verdana",
					"numinlets" : 2,
					"fontsize" : 11.0,
					"numoutlets" : 1,
					"patching_rect" : [ 715.0, 140.0, 42.0, 20.0 ],
					"outlettype" : [ "signal" ],
					"id" : "obj-9"
				}

			}
, 			{
				"box" : 				{
					"maxclass" : "newobj",
					"varname" : "*[15]",
					"text" : "*~ 1.",
					"fontname" : "Verdana",
					"numinlets" : 2,
					"fontsize" : 11.0,
					"numoutlets" : 1,
					"patching_rect" : [ 669.0, 140.0, 42.0, 20.0 ],
					"outlettype" : [ "signal" ],
					"id" : "obj-7"
				}

			}
, 			{
				"box" : 				{
					"maxclass" : "newobj",
					"varname" : "*[14]",
					"text" : "*~ 1.",
					"fontname" : "Verdana",
					"numinlets" : 2,
					"fontsize" : 11.0,
					"numoutlets" : 1,
					"patching_rect" : [ 624.0, 140.0, 42.0, 20.0 ],
					"outlettype" : [ "signal" ],
					"id" : "obj-6"
				}

			}
, 			{
				"box" : 				{
					"maxclass" : "newobj",
					"varname" : "*[13]",
					"text" : "*~ 1.",
					"fontname" : "Verdana",
					"numinlets" : 2,
					"fontsize" : 11.0,
					"numoutlets" : 1,
					"patching_rect" : [ 578.0, 140.0, 42.0, 20.0 ],
					"outlettype" : [ "signal" ],
					"id" : "obj-5"
				}

			}
, 			{
				"box" : 				{
					"maxclass" : "newobj",
					"varname" : "*[12]",
					"text" : "*~ 1.",
					"fontname" : "Verdana",
					"numinlets" : 2,
					"fontsize" : 11.0,
					"numoutlets" : 1,
					"patching_rect" : [ 533.0, 140.0, 42.0, 20.0 ],
					"outlettype" : [ "signal" ],
					"id" : "obj-4"
				}

			}
, 			{
				"box" : 				{
					"maxclass" : "newobj",
					"varname" : "*[11]",
					"text" : "*~ 1.",
					"fontname" : "Verdana",
					"numinlets" : 2,
					"fontsize" : 11.0,
					"numoutlets" : 1,
					"patching_rect" : [ 487.0, 140.0, 42.0, 20.0 ],
					"outlettype" : [ "signal" ],
					"id" : "obj-3"
				}

			}
, 			{
				"box" : 				{
					"maxclass" : "newobj",
					"varname" : "*[10]",
					"text" : "*~ 1.",
					"fontname" : "Verdana",
					"numinlets" : 2,
					"fontsize" : 11.0,
					"numoutlets" : 1,
					"patching_rect" : [ 442.0, 140.0, 42.0, 20.0 ],
					"outlettype" : [ "signal" ],
					"id" : "obj-2"
				}

			}
, 			{
				"box" : 				{
					"maxclass" : "newobj",
					"varname" : "*[9]",
					"text" : "*~ 1.",
					"fontname" : "Verdana",
					"numinlets" : 2,
					"fontsize" : 11.0,
					"numoutlets" : 1,
					"patching_rect" : [ 396.0, 140.0, 42.0, 20.0 ],
					"outlettype" : [ "signal" ],
					"id" : "obj-1"
				}

			}
, 			{
				"box" : 				{
					"maxclass" : "inlet",
					"numinlets" : 0,
					"numoutlets" : 1,
					"patching_rect" : [ 32.0, 34.0, 20.0, 20.0 ],
					"outlettype" : [ "" ],
					"id" : "obj-17",
					"comment" : ""
				}

			}
, 			{
				"box" : 				{
					"maxclass" : "newobj",
					"varname" : "*[8]",
					"text" : "*~ 1.",
					"fontname" : "Verdana",
					"numinlets" : 2,
					"fontsize" : 11.0,
					"numoutlets" : 1,
					"patching_rect" : [ 351.0, 140.0, 42.0, 20.0 ],
					"outlettype" : [ "signal" ],
					"id" : "obj-28"
				}

			}
, 			{
				"box" : 				{
					"maxclass" : "newobj",
					"varname" : "*[7]",
					"text" : "*~ 1.",
					"fontname" : "Verdana",
					"numinlets" : 2,
					"fontsize" : 11.0,
					"numoutlets" : 1,
					"patching_rect" : [ 305.0, 140.0, 42.0, 20.0 ],
					"outlettype" : [ "signal" ],
					"id" : "obj-31"
				}

			}
, 			{
				"box" : 				{
					"maxclass" : "newobj",
					"varname" : "*[6]",
					"text" : "*~ 1.",
					"fontname" : "Verdana",
					"numinlets" : 2,
					"fontsize" : 11.0,
					"numoutlets" : 1,
					"patching_rect" : [ 260.0, 140.0, 42.0, 20.0 ],
					"outlettype" : [ "signal" ],
					"id" : "obj-34"
				}

			}
, 			{
				"box" : 				{
					"maxclass" : "newobj",
					"varname" : "*[5]",
					"text" : "*~ 1.",
					"fontname" : "Verdana",
					"numinlets" : 2,
					"fontsize" : 11.0,
					"numoutlets" : 1,
					"patching_rect" : [ 214.0, 140.0, 42.0, 20.0 ],
					"outlettype" : [ "signal" ],
					"id" : "obj-37"
				}

			}
, 			{
				"box" : 				{
					"maxclass" : "newobj",
					"varname" : "*[4]",
					"text" : "*~ 1.",
					"fontname" : "Verdana",
					"numinlets" : 2,
					"fontsize" : 11.0,
					"numoutlets" : 1,
					"patching_rect" : [ 169.0, 140.0, 42.0, 20.0 ],
					"outlettype" : [ "signal" ],
					"id" : "obj-40"
				}

			}
, 			{
				"box" : 				{
					"maxclass" : "newobj",
					"varname" : "*[3]",
					"text" : "*~ 1.",
					"fontname" : "Verdana",
					"numinlets" : 2,
					"fontsize" : 11.0,
					"numoutlets" : 1,
					"patching_rect" : [ 123.0, 140.0, 42.0, 20.0 ],
					"outlettype" : [ "signal" ],
					"id" : "obj-43"
				}

			}
, 			{
				"box" : 				{
					"maxclass" : "newobj",
					"varname" : "*[2]",
					"text" : "*~ 1.",
					"fontname" : "Verdana",
					"numinlets" : 2,
					"fontsize" : 11.0,
					"numoutlets" : 1,
					"patching_rect" : [ 78.0, 140.0, 42.0, 20.0 ],
					"outlettype" : [ "signal" ],
					"id" : "obj-46"
				}

			}
, 			{
				"box" : 				{
					"maxclass" : "outlet",
					"numinlets" : 1,
					"numoutlets" : 0,
					"patching_rect" : [ 32.0, 306.0, 20.0, 20.0 ],
					"id" : "obj-47",
					"comment" : ""
				}

			}
, 			{
				"box" : 				{
					"maxclass" : "newobj",
					"varname" : "*[1]",
					"text" : "*~ 1.",
					"fontname" : "Verdana",
					"numinlets" : 2,
					"fontsize" : 11.0,
					"numoutlets" : 1,
					"patching_rect" : [ 32.0, 140.0, 42.0, 20.0 ],
					"outlettype" : [ "signal" ],
					"id" : "obj-53"
				}

			}
, 			{
				"box" : 				{
					"maxclass" : "newobj",
					"text" : "p scripting",
					"fontname" : "Verdana",
					"numinlets" : 1,
					"fontsize" : 11.0,
					"numoutlets" : 2,
					"patching_rect" : [ 96.0, 275.0, 87.0, 20.0 ],
					"outlettype" : [ "", "" ],
					"id" : "obj-41",
					"patcher" : 					{
						"fileversion" : 1,
						"rect" : [ 334.0, 295.0, 579.0, 327.0 ],
						"bglocked" : 0,
						"defrect" : [ 334.0, 295.0, 579.0, 327.0 ],
						"openrect" : [ 0.0, 0.0, 0.0, 0.0 ],
						"openinpresentation" : 0,
						"default_fontsize" : 11.0,
						"default_fontface" : 0,
						"default_fontname" : "Verdana",
						"gridonopen" : 0,
						"gridsize" : [ 15.0, 15.0 ],
						"gridsnaponopen" : 0,
						"toolbarvisible" : 1,
						"boxanimatetime" : 200,
						"imprint" : 0,
						"metadata" : [  ],
						"boxes" : [ 							{
								"box" : 								{
									"maxclass" : "newobj",
									"text" : "zl slice 1",
									"fontname" : "Verdana",
									"numinlets" : 2,
									"fontsize" : 11.0,
									"numoutlets" : 2,
									"patching_rect" : [ 216.0, 73.0, 95.0, 20.0 ],
									"outlettype" : [ "", "" ],
									"id" : "obj-2"
								}

							}
, 							{
								"box" : 								{
									"maxclass" : "outlet",
									"numinlets" : 1,
									"numoutlets" : 0,
									"patching_rect" : [ 292.0, 284.0, 25.0, 25.0 ],
									"id" : "obj-21",
									"comment" : ""
								}

							}
, 							{
								"box" : 								{
									"maxclass" : "newobj",
									"text" : "js grandgate.js",
									"fontname" : "Verdana",
									"numinlets" : 1,
									"fontsize" : 11.0,
									"numoutlets" : 2,
									"patching_rect" : [ 216.0, 41.0, 93.0, 20.0 ],
									"outlettype" : [ "", "" ],
									"id" : "obj-5"
								}

							}
, 							{
								"box" : 								{
									"maxclass" : "newobj",
									"text" : "sprintf script delete prep[%i]",
									"linecount" : 2,
									"fontname" : "Verdana",
									"numinlets" : 1,
									"fontsize" : 11.0,
									"numoutlets" : 1,
									"patching_rect" : [ 27.0, 191.0, 97.0, 33.0 ],
									"outlettype" : [ "" ],
									"id" : "obj-1"
								}

							}
, 							{
								"box" : 								{
									"maxclass" : "newobj",
									"text" : "sprintf script delete sig[%i]",
									"linecount" : 2,
									"fontname" : "Verdana",
									"numinlets" : 1,
									"fontsize" : 11.0,
									"numoutlets" : 1,
									"patching_rect" : [ 125.0, 191.0, 90.0, 33.0 ],
									"outlettype" : [ "" ],
									"id" : "obj-10"
								}

							}
, 							{
								"box" : 								{
									"maxclass" : "newobj",
									"text" : "revzi 24",
									"fontname" : "Verdana",
									"numinlets" : 2,
									"fontsize" : 11.0,
									"numoutlets" : 2,
									"patching_rect" : [ 216.0, 149.0, 60.0, 20.0 ],
									"outlettype" : [ "int", "bang" ],
									"id" : "obj-9"
								}

							}
, 							{
								"box" : 								{
									"maxclass" : "newobj",
									"text" : "sprintf script delete *[%i]",
									"linecount" : 2,
									"fontname" : "Verdana",
									"numinlets" : 1,
									"fontsize" : 11.0,
									"numoutlets" : 1,
									"patching_rect" : [ 216.0, 191.0, 82.0, 33.0 ],
									"outlettype" : [ "" ],
									"id" : "obj-8"
								}

							}
, 							{
								"box" : 								{
									"maxclass" : "inlet",
									"numinlets" : 0,
									"numoutlets" : 1,
									"patching_rect" : [ 216.0, 9.0, 25.0, 25.0 ],
									"outlettype" : [ "" ],
									"id" : "obj-11",
									"comment" : ""
								}

							}
, 							{
								"box" : 								{
									"maxclass" : "outlet",
									"numinlets" : 1,
									"numoutlets" : 0,
									"patching_rect" : [ 216.0, 285.0, 25.0, 25.0 ],
									"id" : "obj-12",
									"comment" : ""
								}

							}
 ],
						"lines" : [ 							{
								"patchline" : 								{
									"source" : [ "obj-2", 1 ],
									"destination" : [ "obj-21", 0 ],
									"hidden" : 0,
									"midpoints" : [  ]
								}

							}
, 							{
								"patchline" : 								{
									"source" : [ "obj-9", 0 ],
									"destination" : [ "obj-10", 0 ],
									"hidden" : 0,
									"midpoints" : [ 225.5, 181.0, 134.5, 181.0 ]
								}

							}
, 							{
								"patchline" : 								{
									"source" : [ "obj-9", 0 ],
									"destination" : [ "obj-8", 0 ],
									"hidden" : 0,
									"midpoints" : [  ]
								}

							}
, 							{
								"patchline" : 								{
									"source" : [ "obj-9", 0 ],
									"destination" : [ "obj-1", 0 ],
									"hidden" : 0,
									"midpoints" : [ 225.5, 181.0, 36.5, 181.0 ]
								}

							}
, 							{
								"patchline" : 								{
									"source" : [ "obj-1", 0 ],
									"destination" : [ "obj-12", 0 ],
									"hidden" : 0,
									"midpoints" : [  ]
								}

							}
, 							{
								"patchline" : 								{
									"source" : [ "obj-8", 0 ],
									"destination" : [ "obj-12", 0 ],
									"hidden" : 0,
									"midpoints" : [  ]
								}

							}
, 							{
								"patchline" : 								{
									"source" : [ "obj-10", 0 ],
									"destination" : [ "obj-12", 0 ],
									"hidden" : 0,
									"midpoints" : [  ]
								}

							}
, 							{
								"patchline" : 								{
									"source" : [ "obj-11", 0 ],
									"destination" : [ "obj-5", 0 ],
									"hidden" : 0,
									"midpoints" : [  ]
								}

							}
, 							{
								"patchline" : 								{
									"source" : [ "obj-5", 0 ],
									"destination" : [ "obj-2", 0 ],
									"hidden" : 0,
									"midpoints" : [  ]
								}

							}
, 							{
								"patchline" : 								{
									"source" : [ "obj-2", 0 ],
									"destination" : [ "obj-9", 0 ],
									"hidden" : 0,
									"midpoints" : [  ]
								}

							}
 ]
					}
,
					"saved_object_attributes" : 					{
						"fontname" : "Verdana",
						"default_fontname" : "Verdana",
						"globalpatchername" : "",
						"default_fontsize" : 11.0,
						"fontface" : 0,
						"fontsize" : 11.0,
						"default_fontface" : 0
					}

				}

			}
, 			{
				"box" : 				{
					"maxclass" : "newobj",
					"text" : "thispatcher",
					"fontname" : "Verdana",
					"numinlets" : 1,
					"fontsize" : 11.0,
					"numoutlets" : 2,
					"patching_rect" : [ 96.0, 306.0, 75.0, 20.0 ],
					"outlettype" : [ "", "" ],
					"id" : "obj-81",
					"save" : [ "#N", "thispatcher", ";", "#Q", "end", ";" ]
				}

			}
, 			{
				"box" : 				{
					"maxclass" : "newobj",
					"text" : "patcherargs 1",
					"fontname" : "Verdana",
					"numinlets" : 1,
					"fontsize" : 11.0,
					"numoutlets" : 2,
					"patching_rect" : [ 96.0, 240.0, 87.0, 20.0 ],
					"outlettype" : [ "", "" ],
					"id" : "obj-42"
				}

			}
, 			{
				"box" : 				{
					"maxclass" : "message",
					"varname" : "sig[1]",
					"text" : "signal",
					"fontname" : "Verdana",
					"numinlets" : 2,
					"fontsize" : 11.0,
					"numoutlets" : 1,
					"patching_rect" : [ 32.0, 103.0, 44.0, 18.0 ],
					"outlettype" : [ "" ],
					"id" : "obj-60"
				}

			}
, 			{
				"box" : 				{
					"maxclass" : "newobj",
					"varname" : "route",
					"text" : "route signal signal2 signal3 signal4 signal5 signal6 signal7 signal8 signal9 signal10 signal11 signal12 signal13 signal14 signal15 signal16 signal17 signal18 signal19 signal20 signal21 signal22 signal23 signal24",
					"linecount" : 2,
					"fontname" : "Verdana",
					"numinlets" : 1,
					"fontsize" : 11.0,
					"numoutlets" : 25,
					"patching_rect" : [ 32.0, 63.0, 1111.0, 33.0 ],
					"outlettype" : [ "", "", "", "", "", "", "", "", "", "", "", "", "", "", "", "", "", "", "", "", "", "", "", "", "" ],
					"id" : "obj-62"
				}

			}
, 			{
				"box" : 				{
					"maxclass" : "newobj",
					"varname" : "prep[16]",
					"text" : "prepend signal16",
					"linecount" : 2,
					"fontname" : "Verdana",
					"numinlets" : 1,
					"fontsize" : 10.0,
					"numoutlets" : 1,
					"patching_rect" : [ 715.0, 174.0, 53.0, 31.0 ],
					"outlettype" : [ "" ],
					"id" : "obj-79"
				}

			}
, 			{
				"box" : 				{
					"maxclass" : "newobj",
					"varname" : "prep[15]",
					"text" : "prepend signal15",
					"linecount" : 2,
					"fontname" : "Verdana",
					"numinlets" : 1,
					"fontsize" : 10.0,
					"numoutlets" : 1,
					"patching_rect" : [ 669.0, 174.0, 53.0, 31.0 ],
					"outlettype" : [ "" ],
					"id" : "obj-77"
				}

			}
, 			{
				"box" : 				{
					"maxclass" : "newobj",
					"varname" : "prep[14]",
					"text" : "prepend signal14",
					"linecount" : 2,
					"fontname" : "Verdana",
					"numinlets" : 1,
					"fontsize" : 10.0,
					"numoutlets" : 1,
					"patching_rect" : [ 624.0, 174.0, 53.0, 31.0 ],
					"outlettype" : [ "" ],
					"id" : "obj-75"
				}

			}
, 			{
				"box" : 				{
					"maxclass" : "newobj",
					"varname" : "prep[13]",
					"text" : "prepend signal13",
					"linecount" : 2,
					"fontname" : "Verdana",
					"numinlets" : 1,
					"fontsize" : 10.0,
					"numoutlets" : 1,
					"patching_rect" : [ 578.0, 174.0, 53.0, 31.0 ],
					"outlettype" : [ "" ],
					"id" : "obj-73"
				}

			}
, 			{
				"box" : 				{
					"maxclass" : "newobj",
					"varname" : "prep[12]",
					"text" : "prepend signal12",
					"linecount" : 2,
					"fontname" : "Verdana",
					"numinlets" : 1,
					"fontsize" : 10.0,
					"numoutlets" : 1,
					"patching_rect" : [ 533.0, 174.0, 53.0, 31.0 ],
					"outlettype" : [ "" ],
					"id" : "obj-71"
				}

			}
, 			{
				"box" : 				{
					"maxclass" : "newobj",
					"varname" : "prep[11]",
					"text" : "prepend signal11",
					"linecount" : 2,
					"fontname" : "Verdana",
					"numinlets" : 1,
					"fontsize" : 10.0,
					"numoutlets" : 1,
					"patching_rect" : [ 487.0, 174.0, 53.0, 31.0 ],
					"outlettype" : [ "" ],
					"id" : "obj-69"
				}

			}
, 			{
				"box" : 				{
					"maxclass" : "newobj",
					"varname" : "prep[10]",
					"text" : "prepend signal10",
					"linecount" : 2,
					"fontname" : "Verdana",
					"numinlets" : 1,
					"fontsize" : 10.0,
					"numoutlets" : 1,
					"patching_rect" : [ 442.0, 174.0, 53.0, 31.0 ],
					"outlettype" : [ "" ],
					"id" : "obj-67"
				}

			}
, 			{
				"box" : 				{
					"maxclass" : "newobj",
					"varname" : "prep[9]",
					"text" : "prepend signal9",
					"linecount" : 2,
					"fontname" : "Verdana",
					"numinlets" : 1,
					"fontsize" : 10.0,
					"numoutlets" : 1,
					"patching_rect" : [ 396.0, 174.0, 53.0, 31.0 ],
					"outlettype" : [ "" ],
					"id" : "obj-66"
				}

			}
, 			{
				"box" : 				{
					"maxclass" : "newobj",
					"varname" : "prep[8]",
					"text" : "prepend signal8",
					"linecount" : 2,
					"fontname" : "Verdana",
					"numinlets" : 1,
					"fontsize" : 10.0,
					"numoutlets" : 1,
					"patching_rect" : [ 351.0, 174.0, 53.0, 31.0 ],
					"outlettype" : [ "" ],
					"id" : "obj-83"
				}

			}
, 			{
				"box" : 				{
					"maxclass" : "newobj",
					"varname" : "prep[7]",
					"text" : "prepend signal7",
					"linecount" : 2,
					"fontname" : "Verdana",
					"numinlets" : 1,
					"fontsize" : 10.0,
					"numoutlets" : 1,
					"patching_rect" : [ 305.0, 174.0, 53.0, 31.0 ],
					"outlettype" : [ "" ],
					"id" : "obj-61"
				}

			}
, 			{
				"box" : 				{
					"maxclass" : "newobj",
					"varname" : "prep[6]",
					"text" : "prepend signal6",
					"linecount" : 2,
					"fontname" : "Verdana",
					"numinlets" : 1,
					"fontsize" : 10.0,
					"numoutlets" : 1,
					"patching_rect" : [ 260.0, 174.0, 53.0, 31.0 ],
					"outlettype" : [ "" ],
					"id" : "obj-59"
				}

			}
, 			{
				"box" : 				{
					"maxclass" : "newobj",
					"varname" : "prep[5]",
					"text" : "prepend signal5",
					"linecount" : 2,
					"fontname" : "Verdana",
					"numinlets" : 1,
					"fontsize" : 10.0,
					"numoutlets" : 1,
					"patching_rect" : [ 214.0, 174.0, 53.0, 31.0 ],
					"outlettype" : [ "" ],
					"id" : "obj-57"
				}

			}
, 			{
				"box" : 				{
					"maxclass" : "newobj",
					"varname" : "prep[4]",
					"text" : "prepend signal4",
					"linecount" : 2,
					"fontname" : "Verdana",
					"numinlets" : 1,
					"fontsize" : 10.0,
					"numoutlets" : 1,
					"patching_rect" : [ 169.0, 174.0, 53.0, 31.0 ],
					"outlettype" : [ "" ],
					"id" : "obj-55"
				}

			}
, 			{
				"box" : 				{
					"maxclass" : "newobj",
					"varname" : "prep[3]",
					"text" : "prepend signal3",
					"linecount" : 2,
					"fontname" : "Verdana",
					"numinlets" : 1,
					"fontsize" : 10.0,
					"numoutlets" : 1,
					"patching_rect" : [ 123.0, 174.0, 53.0, 31.0 ],
					"outlettype" : [ "" ],
					"id" : "obj-89"
				}

			}
, 			{
				"box" : 				{
					"maxclass" : "newobj",
					"varname" : "prep[2]",
					"text" : "prepend signal2",
					"linecount" : 2,
					"fontname" : "Verdana",
					"numinlets" : 1,
					"fontsize" : 10.0,
					"numoutlets" : 1,
					"patching_rect" : [ 78.0, 174.0, 53.0, 31.0 ],
					"outlettype" : [ "" ],
					"id" : "obj-91"
				}

			}
 ],
		"lines" : [ 			{
				"patchline" : 				{
					"source" : [ "obj-26", 1 ],
					"destination" : [ "obj-8", 0 ],
					"hidden" : 0,
					"midpoints" : [ 1190.5, 224.0, 1107.5, 224.0 ]
				}

			}
, 			{
				"patchline" : 				{
					"source" : [ "obj-62", 24 ],
					"destination" : [ "obj-8", 1 ],
					"hidden" : 0,
					"midpoints" : [  ]
				}

			}
, 			{
				"patchline" : 				{
					"source" : [ "obj-8", 0 ],
					"destination" : [ "obj-11", 0 ],
					"hidden" : 0,
					"midpoints" : [  ]
				}

			}
, 			{
				"patchline" : 				{
					"source" : [ "obj-62", 23 ],
					"destination" : [ "obj-44", 0 ],
					"hidden" : 0,
					"midpoints" : [  ]
				}

			}
, 			{
				"patchline" : 				{
					"source" : [ "obj-26", 0 ],
					"destination" : [ "obj-44", 1 ],
					"hidden" : 0,
					"midpoints" : [ 1154.5, 126.0, 1111.5, 126.0 ]
				}

			}
, 			{
				"patchline" : 				{
					"source" : [ "obj-44", 0 ],
					"destination" : [ "obj-45", 0 ],
					"hidden" : 0,
					"midpoints" : [  ]
				}

			}
, 			{
				"patchline" : 				{
					"source" : [ "obj-62", 22 ],
					"destination" : [ "obj-38", 0 ],
					"hidden" : 0,
					"midpoints" : [  ]
				}

			}
, 			{
				"patchline" : 				{
					"source" : [ "obj-26", 0 ],
					"destination" : [ "obj-38", 1 ],
					"hidden" : 0,
					"midpoints" : [ 1154.5, 126.0, 1065.5, 126.0 ]
				}

			}
, 			{
				"patchline" : 				{
					"source" : [ "obj-38", 0 ],
					"destination" : [ "obj-39", 0 ],
					"hidden" : 0,
					"midpoints" : [  ]
				}

			}
, 			{
				"patchline" : 				{
					"source" : [ "obj-62", 21 ],
					"destination" : [ "obj-35", 0 ],
					"hidden" : 0,
					"midpoints" : [  ]
				}

			}
, 			{
				"patchline" : 				{
					"source" : [ "obj-26", 0 ],
					"destination" : [ "obj-35", 1 ],
					"hidden" : 0,
					"midpoints" : [ 1154.5, 126.0, 1020.5, 126.0 ]
				}

			}
, 			{
				"patchline" : 				{
					"source" : [ "obj-35", 0 ],
					"destination" : [ "obj-36", 0 ],
					"hidden" : 0,
					"midpoints" : [  ]
				}

			}
, 			{
				"patchline" : 				{
					"source" : [ "obj-62", 20 ],
					"destination" : [ "obj-32", 0 ],
					"hidden" : 0,
					"midpoints" : [  ]
				}

			}
, 			{
				"patchline" : 				{
					"source" : [ "obj-26", 0 ],
					"destination" : [ "obj-32", 1 ],
					"hidden" : 0,
					"midpoints" : [ 1154.5, 126.0, 974.5, 126.0 ]
				}

			}
, 			{
				"patchline" : 				{
					"source" : [ "obj-32", 0 ],
					"destination" : [ "obj-33", 0 ],
					"hidden" : 0,
					"midpoints" : [  ]
				}

			}
, 			{
				"patchline" : 				{
					"source" : [ "obj-62", 19 ],
					"destination" : [ "obj-29", 0 ],
					"hidden" : 0,
					"midpoints" : [  ]
				}

			}
, 			{
				"patchline" : 				{
					"source" : [ "obj-26", 0 ],
					"destination" : [ "obj-29", 1 ],
					"hidden" : 0,
					"midpoints" : [ 1154.5, 126.0, 929.5, 126.0 ]
				}

			}
, 			{
				"patchline" : 				{
					"source" : [ "obj-29", 0 ],
					"destination" : [ "obj-30", 0 ],
					"hidden" : 0,
					"midpoints" : [  ]
				}

			}
, 			{
				"patchline" : 				{
					"source" : [ "obj-62", 18 ],
					"destination" : [ "obj-25", 0 ],
					"hidden" : 0,
					"midpoints" : [  ]
				}

			}
, 			{
				"patchline" : 				{
					"source" : [ "obj-26", 0 ],
					"destination" : [ "obj-25", 1 ],
					"hidden" : 0,
					"midpoints" : [ 1154.5, 126.0, 883.5, 126.0 ]
				}

			}
, 			{
				"patchline" : 				{
					"source" : [ "obj-25", 0 ],
					"destination" : [ "obj-27", 0 ],
					"hidden" : 0,
					"midpoints" : [  ]
				}

			}
, 			{
				"patchline" : 				{
					"source" : [ "obj-62", 17 ],
					"destination" : [ "obj-23", 0 ],
					"hidden" : 0,
					"midpoints" : [  ]
				}

			}
, 			{
				"patchline" : 				{
					"source" : [ "obj-26", 0 ],
					"destination" : [ "obj-23", 1 ],
					"hidden" : 0,
					"midpoints" : [ 1154.5, 126.0, 838.5, 126.0 ]
				}

			}
, 			{
				"patchline" : 				{
					"source" : [ "obj-23", 0 ],
					"destination" : [ "obj-24", 0 ],
					"hidden" : 0,
					"midpoints" : [  ]
				}

			}
, 			{
				"patchline" : 				{
					"source" : [ "obj-62", 16 ],
					"destination" : [ "obj-19", 0 ],
					"hidden" : 0,
					"midpoints" : [  ]
				}

			}
, 			{
				"patchline" : 				{
					"source" : [ "obj-26", 0 ],
					"destination" : [ "obj-19", 1 ],
					"hidden" : 0,
					"midpoints" : [ 1154.5, 126.0, 792.5, 126.0 ]
				}

			}
, 			{
				"patchline" : 				{
					"source" : [ "obj-19", 0 ],
					"destination" : [ "obj-22", 0 ],
					"hidden" : 0,
					"midpoints" : [  ]
				}

			}
, 			{
				"patchline" : 				{
					"source" : [ "obj-62", 15 ],
					"destination" : [ "obj-9", 0 ],
					"hidden" : 0,
					"midpoints" : [  ]
				}

			}
, 			{
				"patchline" : 				{
					"source" : [ "obj-9", 0 ],
					"destination" : [ "obj-79", 0 ],
					"hidden" : 0,
					"midpoints" : [  ]
				}

			}
, 			{
				"patchline" : 				{
					"source" : [ "obj-26", 0 ],
					"destination" : [ "obj-9", 1 ],
					"hidden" : 0,
					"midpoints" : [ 1154.5, 126.0, 747.5, 126.0 ]
				}

			}
, 			{
				"patchline" : 				{
					"source" : [ "obj-62", 14 ],
					"destination" : [ "obj-7", 0 ],
					"hidden" : 0,
					"midpoints" : [  ]
				}

			}
, 			{
				"patchline" : 				{
					"source" : [ "obj-7", 0 ],
					"destination" : [ "obj-77", 0 ],
					"hidden" : 0,
					"midpoints" : [  ]
				}

			}
, 			{
				"patchline" : 				{
					"source" : [ "obj-26", 0 ],
					"destination" : [ "obj-7", 1 ],
					"hidden" : 0,
					"midpoints" : [ 1154.5, 126.0, 701.5, 126.0 ]
				}

			}
, 			{
				"patchline" : 				{
					"source" : [ "obj-62", 13 ],
					"destination" : [ "obj-6", 0 ],
					"hidden" : 0,
					"midpoints" : [  ]
				}

			}
, 			{
				"patchline" : 				{
					"source" : [ "obj-6", 0 ],
					"destination" : [ "obj-75", 0 ],
					"hidden" : 0,
					"midpoints" : [  ]
				}

			}
, 			{
				"patchline" : 				{
					"source" : [ "obj-26", 0 ],
					"destination" : [ "obj-6", 1 ],
					"hidden" : 0,
					"midpoints" : [ 1154.5, 126.0, 656.5, 126.0 ]
				}

			}
, 			{
				"patchline" : 				{
					"source" : [ "obj-62", 12 ],
					"destination" : [ "obj-5", 0 ],
					"hidden" : 0,
					"midpoints" : [  ]
				}

			}
, 			{
				"patchline" : 				{
					"source" : [ "obj-5", 0 ],
					"destination" : [ "obj-73", 0 ],
					"hidden" : 0,
					"midpoints" : [  ]
				}

			}
, 			{
				"patchline" : 				{
					"source" : [ "obj-26", 0 ],
					"destination" : [ "obj-5", 1 ],
					"hidden" : 0,
					"midpoints" : [ 1154.5, 126.0, 610.5, 126.0 ]
				}

			}
, 			{
				"patchline" : 				{
					"source" : [ "obj-62", 11 ],
					"destination" : [ "obj-4", 0 ],
					"hidden" : 0,
					"midpoints" : [  ]
				}

			}
, 			{
				"patchline" : 				{
					"source" : [ "obj-4", 0 ],
					"destination" : [ "obj-71", 0 ],
					"hidden" : 0,
					"midpoints" : [  ]
				}

			}
, 			{
				"patchline" : 				{
					"source" : [ "obj-26", 0 ],
					"destination" : [ "obj-4", 1 ],
					"hidden" : 0,
					"midpoints" : [ 1154.5, 126.0, 565.5, 126.0 ]
				}

			}
, 			{
				"patchline" : 				{
					"source" : [ "obj-62", 10 ],
					"destination" : [ "obj-3", 0 ],
					"hidden" : 0,
					"midpoints" : [  ]
				}

			}
, 			{
				"patchline" : 				{
					"source" : [ "obj-3", 0 ],
					"destination" : [ "obj-69", 0 ],
					"hidden" : 0,
					"midpoints" : [  ]
				}

			}
, 			{
				"patchline" : 				{
					"source" : [ "obj-26", 0 ],
					"destination" : [ "obj-3", 1 ],
					"hidden" : 0,
					"midpoints" : [ 1154.5, 126.0, 519.5, 126.0 ]
				}

			}
, 			{
				"patchline" : 				{
					"source" : [ "obj-62", 9 ],
					"destination" : [ "obj-2", 0 ],
					"hidden" : 0,
					"midpoints" : [  ]
				}

			}
, 			{
				"patchline" : 				{
					"source" : [ "obj-2", 0 ],
					"destination" : [ "obj-67", 0 ],
					"hidden" : 0,
					"midpoints" : [  ]
				}

			}
, 			{
				"patchline" : 				{
					"source" : [ "obj-26", 0 ],
					"destination" : [ "obj-2", 1 ],
					"hidden" : 0,
					"midpoints" : [ 1154.5, 126.0, 474.5, 126.0 ]
				}

			}
, 			{
				"patchline" : 				{
					"source" : [ "obj-62", 8 ],
					"destination" : [ "obj-1", 0 ],
					"hidden" : 0,
					"midpoints" : [  ]
				}

			}
, 			{
				"patchline" : 				{
					"source" : [ "obj-1", 0 ],
					"destination" : [ "obj-66", 0 ],
					"hidden" : 0,
					"midpoints" : [  ]
				}

			}
, 			{
				"patchline" : 				{
					"source" : [ "obj-26", 0 ],
					"destination" : [ "obj-1", 1 ],
					"hidden" : 0,
					"midpoints" : [ 1154.5, 126.0, 428.5, 126.0 ]
				}

			}
, 			{
				"patchline" : 				{
					"source" : [ "obj-62", 7 ],
					"destination" : [ "obj-28", 0 ],
					"hidden" : 0,
					"midpoints" : [  ]
				}

			}
, 			{
				"patchline" : 				{
					"source" : [ "obj-28", 0 ],
					"destination" : [ "obj-83", 0 ],
					"hidden" : 0,
					"midpoints" : [  ]
				}

			}
, 			{
				"patchline" : 				{
					"source" : [ "obj-26", 0 ],
					"destination" : [ "obj-28", 1 ],
					"hidden" : 0,
					"midpoints" : [ 1154.5, 126.0, 383.5, 126.0 ]
				}

			}
, 			{
				"patchline" : 				{
					"source" : [ "obj-62", 6 ],
					"destination" : [ "obj-31", 0 ],
					"hidden" : 0,
					"midpoints" : [  ]
				}

			}
, 			{
				"patchline" : 				{
					"source" : [ "obj-31", 0 ],
					"destination" : [ "obj-61", 0 ],
					"hidden" : 0,
					"midpoints" : [  ]
				}

			}
, 			{
				"patchline" : 				{
					"source" : [ "obj-26", 0 ],
					"destination" : [ "obj-31", 1 ],
					"hidden" : 0,
					"midpoints" : [ 1154.5, 126.0, 337.5, 126.0 ]
				}

			}
, 			{
				"patchline" : 				{
					"source" : [ "obj-62", 5 ],
					"destination" : [ "obj-34", 0 ],
					"hidden" : 0,
					"midpoints" : [  ]
				}

			}
, 			{
				"patchline" : 				{
					"source" : [ "obj-34", 0 ],
					"destination" : [ "obj-59", 0 ],
					"hidden" : 0,
					"midpoints" : [  ]
				}

			}
, 			{
				"patchline" : 				{
					"source" : [ "obj-26", 0 ],
					"destination" : [ "obj-34", 1 ],
					"hidden" : 0,
					"midpoints" : [ 1154.5, 126.0, 292.5, 126.0 ]
				}

			}
, 			{
				"patchline" : 				{
					"source" : [ "obj-62", 4 ],
					"destination" : [ "obj-37", 0 ],
					"hidden" : 0,
					"midpoints" : [  ]
				}

			}
, 			{
				"patchline" : 				{
					"source" : [ "obj-37", 0 ],
					"destination" : [ "obj-57", 0 ],
					"hidden" : 0,
					"midpoints" : [  ]
				}

			}
, 			{
				"patchline" : 				{
					"source" : [ "obj-26", 0 ],
					"destination" : [ "obj-37", 1 ],
					"hidden" : 0,
					"midpoints" : [ 1154.5, 126.0, 246.5, 126.0 ]
				}

			}
, 			{
				"patchline" : 				{
					"source" : [ "obj-62", 3 ],
					"destination" : [ "obj-40", 0 ],
					"hidden" : 0,
					"midpoints" : [  ]
				}

			}
, 			{
				"patchline" : 				{
					"source" : [ "obj-40", 0 ],
					"destination" : [ "obj-55", 0 ],
					"hidden" : 0,
					"midpoints" : [  ]
				}

			}
, 			{
				"patchline" : 				{
					"source" : [ "obj-26", 0 ],
					"destination" : [ "obj-40", 1 ],
					"hidden" : 0,
					"midpoints" : [ 1154.5, 126.0, 201.5, 126.0 ]
				}

			}
, 			{
				"patchline" : 				{
					"source" : [ "obj-62", 2 ],
					"destination" : [ "obj-43", 0 ],
					"hidden" : 0,
					"midpoints" : [  ]
				}

			}
, 			{
				"patchline" : 				{
					"source" : [ "obj-43", 0 ],
					"destination" : [ "obj-89", 0 ],
					"hidden" : 0,
					"midpoints" : [  ]
				}

			}
, 			{
				"patchline" : 				{
					"source" : [ "obj-26", 0 ],
					"destination" : [ "obj-43", 1 ],
					"hidden" : 0,
					"midpoints" : [ 1154.5, 126.0, 155.5, 126.0 ]
				}

			}
, 			{
				"patchline" : 				{
					"source" : [ "obj-62", 1 ],
					"destination" : [ "obj-46", 0 ],
					"hidden" : 0,
					"midpoints" : [  ]
				}

			}
, 			{
				"patchline" : 				{
					"source" : [ "obj-46", 0 ],
					"destination" : [ "obj-91", 0 ],
					"hidden" : 0,
					"midpoints" : [  ]
				}

			}
, 			{
				"patchline" : 				{
					"source" : [ "obj-26", 0 ],
					"destination" : [ "obj-46", 1 ],
					"hidden" : 0,
					"midpoints" : [ 1154.5, 126.0, 110.5, 126.0 ]
				}

			}
, 			{
				"patchline" : 				{
					"source" : [ "obj-53", 0 ],
					"destination" : [ "obj-47", 0 ],
					"hidden" : 0,
					"midpoints" : [  ]
				}

			}
, 			{
				"patchline" : 				{
					"source" : [ "obj-60", 0 ],
					"destination" : [ "obj-53", 0 ],
					"hidden" : 0,
					"midpoints" : [  ]
				}

			}
, 			{
				"patchline" : 				{
					"source" : [ "obj-26", 0 ],
					"destination" : [ "obj-53", 1 ],
					"hidden" : 0,
					"midpoints" : [ 1154.5, 126.0, 64.5, 126.0 ]
				}

			}
, 			{
				"patchline" : 				{
					"source" : [ "obj-41", 1 ],
					"destination" : [ "obj-26", 1 ],
					"hidden" : 0,
					"midpoints" : [ 173.5, 297.0, 1205.0, 297.0, 1205.0, 57.0, 1190.5, 57.0 ]
				}

			}
, 			{
				"patchline" : 				{
					"source" : [ "obj-42", 0 ],
					"destination" : [ "obj-41", 0 ],
					"hidden" : 0,
					"midpoints" : [  ]
				}

			}
, 			{
				"patchline" : 				{
					"source" : [ "obj-21", 0 ],
					"destination" : [ "obj-26", 1 ],
					"hidden" : 0,
					"midpoints" : [  ]
				}

			}
, 			{
				"patchline" : 				{
					"source" : [ "obj-41", 0 ],
					"destination" : [ "obj-81", 0 ],
					"hidden" : 0,
					"midpoints" : [  ]
				}

			}
, 			{
				"patchline" : 				{
					"source" : [ "obj-45", 0 ],
					"destination" : [ "obj-47", 0 ],
					"hidden" : 0,
					"midpoints" : [ 1088.5, 224.0, 41.5, 224.0 ]
				}

			}
, 			{
				"patchline" : 				{
					"source" : [ "obj-39", 0 ],
					"destination" : [ "obj-47", 0 ],
					"hidden" : 0,
					"midpoints" : [ 1042.5, 224.0, 41.5, 224.0 ]
				}

			}
, 			{
				"patchline" : 				{
					"source" : [ "obj-36", 0 ],
					"destination" : [ "obj-47", 0 ],
					"hidden" : 0,
					"midpoints" : [ 997.5, 224.0, 41.5, 224.0 ]
				}

			}
, 			{
				"patchline" : 				{
					"source" : [ "obj-33", 0 ],
					"destination" : [ "obj-47", 0 ],
					"hidden" : 0,
					"midpoints" : [ 951.5, 224.0, 41.5, 224.0 ]
				}

			}
, 			{
				"patchline" : 				{
					"source" : [ "obj-30", 0 ],
					"destination" : [ "obj-47", 0 ],
					"hidden" : 0,
					"midpoints" : [ 906.5, 224.0, 41.5, 224.0 ]
				}

			}
, 			{
				"patchline" : 				{
					"source" : [ "obj-27", 0 ],
					"destination" : [ "obj-47", 0 ],
					"hidden" : 0,
					"midpoints" : [ 860.5, 224.0, 41.5, 224.0 ]
				}

			}
, 			{
				"patchline" : 				{
					"source" : [ "obj-24", 0 ],
					"destination" : [ "obj-47", 0 ],
					"hidden" : 0,
					"midpoints" : [ 815.5, 224.0, 41.5, 224.0 ]
				}

			}
, 			{
				"patchline" : 				{
					"source" : [ "obj-22", 0 ],
					"destination" : [ "obj-47", 0 ],
					"hidden" : 0,
					"midpoints" : [ 769.5, 224.0, 41.5, 224.0 ]
				}

			}
, 			{
				"patchline" : 				{
					"source" : [ "obj-79", 0 ],
					"destination" : [ "obj-47", 0 ],
					"hidden" : 0,
					"midpoints" : [ 724.5, 224.0, 41.5, 224.0 ]
				}

			}
, 			{
				"patchline" : 				{
					"source" : [ "obj-77", 0 ],
					"destination" : [ "obj-47", 0 ],
					"hidden" : 0,
					"midpoints" : [ 678.5, 224.0, 41.5, 224.0 ]
				}

			}
, 			{
				"patchline" : 				{
					"source" : [ "obj-75", 0 ],
					"destination" : [ "obj-47", 0 ],
					"hidden" : 0,
					"midpoints" : [ 633.5, 224.0, 41.5, 224.0 ]
				}

			}
, 			{
				"patchline" : 				{
					"source" : [ "obj-73", 0 ],
					"destination" : [ "obj-47", 0 ],
					"hidden" : 0,
					"midpoints" : [ 587.5, 224.0, 41.5, 224.0 ]
				}

			}
, 			{
				"patchline" : 				{
					"source" : [ "obj-71", 0 ],
					"destination" : [ "obj-47", 0 ],
					"hidden" : 0,
					"midpoints" : [ 542.5, 224.0, 41.5, 224.0 ]
				}

			}
, 			{
				"patchline" : 				{
					"source" : [ "obj-69", 0 ],
					"destination" : [ "obj-47", 0 ],
					"hidden" : 0,
					"midpoints" : [ 496.5, 224.0, 41.5, 224.0 ]
				}

			}
, 			{
				"patchline" : 				{
					"source" : [ "obj-67", 0 ],
					"destination" : [ "obj-47", 0 ],
					"hidden" : 0,
					"midpoints" : [ 451.5, 224.0, 41.5, 224.0 ]
				}

			}
, 			{
				"patchline" : 				{
					"source" : [ "obj-66", 0 ],
					"destination" : [ "obj-47", 0 ],
					"hidden" : 0,
					"midpoints" : [ 405.5, 224.0, 41.5, 224.0 ]
				}

			}
, 			{
				"patchline" : 				{
					"source" : [ "obj-83", 0 ],
					"destination" : [ "obj-47", 0 ],
					"hidden" : 0,
					"midpoints" : [ 360.5, 224.0, 41.5, 224.0 ]
				}

			}
, 			{
				"patchline" : 				{
					"source" : [ "obj-61", 0 ],
					"destination" : [ "obj-47", 0 ],
					"hidden" : 0,
					"midpoints" : [ 314.5, 224.0, 41.5, 224.0 ]
				}

			}
, 			{
				"patchline" : 				{
					"source" : [ "obj-59", 0 ],
					"destination" : [ "obj-47", 0 ],
					"hidden" : 0,
					"midpoints" : [ 269.5, 224.0, 41.5, 224.0 ]
				}

			}
, 			{
				"patchline" : 				{
					"source" : [ "obj-57", 0 ],
					"destination" : [ "obj-47", 0 ],
					"hidden" : 0,
					"midpoints" : [ 223.5, 224.0, 41.5, 224.0 ]
				}

			}
, 			{
				"patchline" : 				{
					"source" : [ "obj-55", 0 ],
					"destination" : [ "obj-47", 0 ],
					"hidden" : 0,
					"midpoints" : [ 178.5, 224.0, 41.5, 224.0 ]
				}

			}
, 			{
				"patchline" : 				{
					"source" : [ "obj-89", 0 ],
					"destination" : [ "obj-47", 0 ],
					"hidden" : 0,
					"midpoints" : [ 132.5, 224.0, 41.5, 224.0 ]
				}

			}
, 			{
				"patchline" : 				{
					"source" : [ "obj-91", 0 ],
					"destination" : [ "obj-47", 0 ],
					"hidden" : 0,
					"midpoints" : [ 87.5, 224.0, 41.5, 224.0 ]
				}

			}
, 			{
				"patchline" : 				{
					"source" : [ "obj-62", 0 ],
					"destination" : [ "obj-60", 0 ],
					"hidden" : 0,
					"midpoints" : [  ]
				}

			}
, 			{
				"patchline" : 				{
					"source" : [ "obj-17", 0 ],
					"destination" : [ "obj-62", 0 ],
					"hidden" : 0,
					"midpoints" : [  ]
				}

			}
, 			{
				"patchline" : 				{
					"source" : [ "obj-62", 24 ],
					"destination" : [ "obj-26", 0 ],
					"hidden" : 0,
					"midpoints" : [  ]
				}

			}
 ]
	}

}
