{
	"patcher" : 	{
		"fileversion" : 1,
		"rect" : [ 30.0, 89.0, 333.0, 353.0 ],
		"bglocked" : 0,
		"defrect" : [ 30.0, 89.0, 333.0, 353.0 ],
		"openrect" : [ 0.0, 0.0, 0.0, 0.0 ],
		"openinpresentation" : 0,
		"default_fontsize" : 11.0,
		"default_fontface" : 0,
		"default_fontname" : "Verdana",
		"gridonopen" : 0,
		"gridsize" : [ 15.0, 15.0 ],
		"gridsnaponopen" : 0,
		"toolbarvisible" : 1,
		"boxanimatetime" : 200,
		"imprint" : 0,
		"metadata" : [  ],
		"boxes" : [ 			{
				"box" : 				{
					"maxclass" : "newobj",
					"text" : "zl len",
					"id" : "obj-1",
					"numinlets" : 2,
					"fontname" : "Verdana",
					"numoutlets" : 2,
					"patching_rect" : [ 140.0, 182.0, 38.0, 20.0 ],
					"outlettype" : [ "", "" ],
					"fontsize" : 11.0
				}

			}
, 			{
				"box" : 				{
					"maxclass" : "outlet",
					"id" : "obj-2",
					"numinlets" : 1,
					"numoutlets" : 0,
					"patching_rect" : [ 198.0, 239.0, 20.0, 20.0 ],
					"comment" : ""
				}

			}
, 			{
				"box" : 				{
					"maxclass" : "newobj",
					"text" : "route bang",
					"id" : "obj-3",
					"numinlets" : 1,
					"fontname" : "Verdana",
					"numoutlets" : 2,
					"patching_rect" : [ 86.0, 55.0, 73.0, 20.0 ],
					"outlettype" : [ "", "" ],
					"fontsize" : 11.0
				}

			}
, 			{
				"box" : 				{
					"maxclass" : "newobj",
					"text" : "patcherargs",
					"id" : "obj-4",
					"numinlets" : 1,
					"fontname" : "Verdana",
					"numoutlets" : 2,
					"patching_rect" : [ 109.0, 27.0, 76.0, 20.0 ],
					"outlettype" : [ "", "" ],
					"fontsize" : 11.0
				}

			}
, 			{
				"box" : 				{
					"maxclass" : "inlet",
					"id" : "obj-5",
					"numinlets" : 0,
					"numoutlets" : 1,
					"patching_rect" : [ 86.0, 27.0, 20.0, 20.0 ],
					"outlettype" : [ "" ],
					"comment" : ""
				}

			}
, 			{
				"box" : 				{
					"maxclass" : "newobj",
					"text" : "zl reg",
					"id" : "obj-6",
					"numinlets" : 2,
					"fontname" : "Verdana",
					"numoutlets" : 2,
					"patching_rect" : [ 153.0, 86.0, 61.0, 20.0 ],
					"outlettype" : [ "", "" ],
					"fontsize" : 11.0
				}

			}
, 			{
				"box" : 				{
					"maxclass" : "inlet",
					"id" : "obj-7",
					"numinlets" : 0,
					"numoutlets" : 1,
					"patching_rect" : [ 195.0, 27.0, 20.0, 20.0 ],
					"outlettype" : [ "" ],
					"comment" : ""
				}

			}
, 			{
				"box" : 				{
					"maxclass" : "outlet",
					"id" : "obj-8",
					"numinlets" : 1,
					"numoutlets" : 0,
					"patching_rect" : [ 220.0, 239.0, 20.0, 20.0 ],
					"comment" : ""
				}

			}
, 			{
				"box" : 				{
					"maxclass" : "newobj",
					"text" : "counter",
					"id" : "obj-9",
					"numinlets" : 5,
					"fontname" : "Verdana",
					"numoutlets" : 4,
					"patching_rect" : [ 189.0, 188.0, 64.0, 20.0 ],
					"outlettype" : [ "int", "", "", "int" ],
					"fontsize" : 11.0
				}

			}
, 			{
				"box" : 				{
					"maxclass" : "outlet",
					"id" : "obj-10",
					"numinlets" : 1,
					"numoutlets" : 0,
					"patching_rect" : [ 176.0, 239.0, 20.0, 20.0 ],
					"comment" : ""
				}

			}
, 			{
				"box" : 				{
					"maxclass" : "newobj",
					"text" : "t l b",
					"id" : "obj-11",
					"numinlets" : 1,
					"fontname" : "Verdana",
					"numoutlets" : 2,
					"patching_rect" : [ 176.0, 161.0, 32.0, 20.0 ],
					"outlettype" : [ "", "bang" ],
					"fontsize" : 11.0
				}

			}
, 			{
				"box" : 				{
					"maxclass" : "newobj",
					"text" : "t l l 1",
					"id" : "obj-12",
					"numinlets" : 1,
					"fontname" : "Verdana",
					"numoutlets" : 3,
					"patching_rect" : [ 140.0, 115.0, 91.0, 20.0 ],
					"outlettype" : [ "", "", "int" ],
					"fontsize" : 11.0
				}

			}
, 			{
				"box" : 				{
					"maxclass" : "newobj",
					"text" : "iter",
					"id" : "obj-13",
					"numinlets" : 1,
					"fontname" : "Verdana",
					"numoutlets" : 1,
					"patching_rect" : [ 176.0, 138.0, 31.0, 20.0 ],
					"outlettype" : [ "" ],
					"fontsize" : 11.0
				}

			}
 ],
		"lines" : [ 			{
				"patchline" : 				{
					"source" : [ "obj-9", 0 ],
					"destination" : [ "obj-8", 0 ],
					"hidden" : 0,
					"midpoints" : [  ]
				}

			}
, 			{
				"patchline" : 				{
					"source" : [ "obj-12", 2 ],
					"destination" : [ "obj-9", 2 ],
					"hidden" : 0,
					"midpoints" : [  ]
				}

			}
, 			{
				"patchline" : 				{
					"source" : [ "obj-1", 0 ],
					"destination" : [ "obj-2", 0 ],
					"hidden" : 0,
					"midpoints" : [ 149.5, 223.0, 207.5, 223.0 ]
				}

			}
, 			{
				"patchline" : 				{
					"source" : [ "obj-11", 1 ],
					"destination" : [ "obj-9", 0 ],
					"hidden" : 0,
					"midpoints" : [  ]
				}

			}
, 			{
				"patchline" : 				{
					"source" : [ "obj-7", 0 ],
					"destination" : [ "obj-6", 1 ],
					"hidden" : 0,
					"midpoints" : [  ]
				}

			}
, 			{
				"patchline" : 				{
					"source" : [ "obj-4", 0 ],
					"destination" : [ "obj-6", 1 ],
					"hidden" : 0,
					"midpoints" : [ 118.5, 51.0, 204.5, 51.0 ]
				}

			}
, 			{
				"patchline" : 				{
					"source" : [ "obj-3", 1 ],
					"destination" : [ "obj-6", 1 ],
					"hidden" : 0,
					"midpoints" : [ 149.5, 78.0, 204.5, 78.0 ]
				}

			}
, 			{
				"patchline" : 				{
					"source" : [ "obj-11", 0 ],
					"destination" : [ "obj-10", 0 ],
					"hidden" : 0,
					"midpoints" : [  ]
				}

			}
, 			{
				"patchline" : 				{
					"source" : [ "obj-13", 0 ],
					"destination" : [ "obj-11", 0 ],
					"hidden" : 0,
					"midpoints" : [  ]
				}

			}
, 			{
				"patchline" : 				{
					"source" : [ "obj-12", 1 ],
					"destination" : [ "obj-13", 0 ],
					"hidden" : 0,
					"midpoints" : [  ]
				}

			}
, 			{
				"patchline" : 				{
					"source" : [ "obj-12", 0 ],
					"destination" : [ "obj-1", 0 ],
					"hidden" : 0,
					"midpoints" : [  ]
				}

			}
, 			{
				"patchline" : 				{
					"source" : [ "obj-6", 0 ],
					"destination" : [ "obj-12", 0 ],
					"hidden" : 0,
					"midpoints" : [ 162.5, 108.0, 149.5, 108.0 ]
				}

			}
, 			{
				"patchline" : 				{
					"source" : [ "obj-3", 1 ],
					"destination" : [ "obj-12", 0 ],
					"hidden" : 0,
					"midpoints" : [  ]
				}

			}
, 			{
				"patchline" : 				{
					"source" : [ "obj-3", 0 ],
					"destination" : [ "obj-6", 0 ],
					"hidden" : 0,
					"midpoints" : [ 95.5, 81.0, 162.5, 81.0 ]
				}

			}
, 			{
				"patchline" : 				{
					"source" : [ "obj-5", 0 ],
					"destination" : [ "obj-3", 0 ],
					"hidden" : 0,
					"midpoints" : [  ]
				}

			}
 ]
	}

}
