{
	"patcher" : 	{
		"fileversion" : 1,
		"rect" : [ 25.0, 69.0, 640.0, 506.0 ],
		"bglocked" : 0,
		"defrect" : [ 25.0, 69.0, 640.0, 506.0 ],
		"openrect" : [ 0.0, 0.0, 0.0, 0.0 ],
		"openinpresentation" : 1,
		"default_fontsize" : 11.0,
		"default_fontface" : 0,
		"default_fontname" : "Verdana",
		"gridonopen" : 0,
		"gridsize" : [ 15.0, 15.0 ],
		"gridsnaponopen" : 0,
		"toolbarvisible" : 1,
		"boxanimatetime" : 200,
		"imprint" : 0,
		"boxes" : [ 			{
				"box" : 				{
					"maxclass" : "outlet",
					"numoutlets" : 0,
					"patching_rect" : [ 271.0, 484.0, 25.0, 25.0 ],
					"id" : "obj-4",
					"numinlets" : 1,
					"comment" : ""
				}

			}
, 			{
				"box" : 				{
					"maxclass" : "newobj",
					"text" : "t l b",
					"fontname" : "Verdana",
					"numoutlets" : 2,
					"outlettype" : [ "", "bang" ],
					"patching_rect" : [ 314.0, 458.0, 41.5, 20.0 ],
					"id" : "obj-67",
					"fontsize" : 11.0,
					"numinlets" : 1
				}

			}
, 			{
				"box" : 				{
					"maxclass" : "message",
					"presentation_rect" : [ 3.0, 320.0, 524.0, 18.0 ],
					"fontname" : "Verdana",
					"numoutlets" : 1,
					"outlettype" : [ "" ],
					"patching_rect" : [ 13.0, 458.0, 256.0, 18.0 ],
					"presentation" : 1,
					"id" : "obj-68",
					"fontsize" : 11.0,
					"numinlets" : 2
				}

			}
, 			{
				"box" : 				{
					"maxclass" : "newobj",
					"text" : "zl reg",
					"fontname" : "Verdana",
					"numoutlets" : 2,
					"outlettype" : [ "", "" ],
					"patching_rect" : [ 271.0, 458.0, 42.0, 20.0 ],
					"id" : "obj-69",
					"fontsize" : 11.0,
					"numinlets" : 2
				}

			}
, 			{
				"box" : 				{
					"maxclass" : "newobj",
					"text" : "t l b",
					"fontname" : "Verdana",
					"numoutlets" : 2,
					"outlettype" : [ "", "bang" ],
					"patching_rect" : [ 314.0, 430.0, 41.5, 20.0 ],
					"id" : "obj-70",
					"fontsize" : 11.0,
					"numinlets" : 1
				}

			}
, 			{
				"box" : 				{
					"maxclass" : "message",
					"presentation_rect" : [ 3.0, 299.0, 524.0, 18.0 ],
					"fontname" : "Verdana",
					"numoutlets" : 1,
					"outlettype" : [ "" ],
					"patching_rect" : [ 13.0, 430.0, 256.0, 18.0 ],
					"presentation" : 1,
					"id" : "obj-71",
					"fontsize" : 11.0,
					"numinlets" : 2
				}

			}
, 			{
				"box" : 				{
					"maxclass" : "newobj",
					"text" : "zl reg",
					"fontname" : "Verdana",
					"numoutlets" : 2,
					"outlettype" : [ "", "" ],
					"patching_rect" : [ 271.0, 430.0, 42.0, 20.0 ],
					"id" : "obj-72",
					"fontsize" : 11.0,
					"numinlets" : 2
				}

			}
, 			{
				"box" : 				{
					"maxclass" : "newobj",
					"text" : "t l b",
					"fontname" : "Verdana",
					"numoutlets" : 2,
					"outlettype" : [ "", "bang" ],
					"patching_rect" : [ 314.0, 402.0, 41.5, 20.0 ],
					"id" : "obj-73",
					"fontsize" : 11.0,
					"numinlets" : 1
				}

			}
, 			{
				"box" : 				{
					"maxclass" : "message",
					"presentation_rect" : [ 3.0, 278.0, 524.0, 18.0 ],
					"fontname" : "Verdana",
					"numoutlets" : 1,
					"outlettype" : [ "" ],
					"patching_rect" : [ 13.0, 402.0, 256.0, 18.0 ],
					"presentation" : 1,
					"id" : "obj-74",
					"fontsize" : 11.0,
					"numinlets" : 2
				}

			}
, 			{
				"box" : 				{
					"maxclass" : "newobj",
					"text" : "zl reg",
					"fontname" : "Verdana",
					"numoutlets" : 2,
					"outlettype" : [ "", "" ],
					"patching_rect" : [ 271.0, 402.0, 42.0, 20.0 ],
					"id" : "obj-75",
					"fontsize" : 11.0,
					"numinlets" : 2
				}

			}
, 			{
				"box" : 				{
					"maxclass" : "newobj",
					"text" : "t l b",
					"fontname" : "Verdana",
					"numoutlets" : 2,
					"outlettype" : [ "", "bang" ],
					"patching_rect" : [ 314.0, 374.0, 41.5, 20.0 ],
					"id" : "obj-76",
					"fontsize" : 11.0,
					"numinlets" : 1
				}

			}
, 			{
				"box" : 				{
					"maxclass" : "message",
					"presentation_rect" : [ 3.0, 257.0, 524.0, 18.0 ],
					"fontname" : "Verdana",
					"numoutlets" : 1,
					"outlettype" : [ "" ],
					"patching_rect" : [ 13.0, 374.0, 256.0, 18.0 ],
					"presentation" : 1,
					"id" : "obj-77",
					"fontsize" : 11.0,
					"numinlets" : 2
				}

			}
, 			{
				"box" : 				{
					"maxclass" : "newobj",
					"text" : "zl reg",
					"fontname" : "Verdana",
					"numoutlets" : 2,
					"outlettype" : [ "", "" ],
					"patching_rect" : [ 271.0, 374.0, 42.0, 20.0 ],
					"id" : "obj-78",
					"fontsize" : 11.0,
					"numinlets" : 2
				}

			}
, 			{
				"box" : 				{
					"maxclass" : "newobj",
					"text" : "t l b",
					"fontname" : "Verdana",
					"numoutlets" : 2,
					"outlettype" : [ "", "bang" ],
					"patching_rect" : [ 314.0, 346.0, 41.5, 20.0 ],
					"id" : "obj-55",
					"fontsize" : 11.0,
					"numinlets" : 1
				}

			}
, 			{
				"box" : 				{
					"maxclass" : "message",
					"presentation_rect" : [ 3.0, 236.0, 524.0, 18.0 ],
					"fontname" : "Verdana",
					"numoutlets" : 1,
					"outlettype" : [ "" ],
					"patching_rect" : [ 13.0, 346.0, 256.0, 18.0 ],
					"presentation" : 1,
					"id" : "obj-56",
					"fontsize" : 11.0,
					"numinlets" : 2
				}

			}
, 			{
				"box" : 				{
					"maxclass" : "newobj",
					"text" : "zl reg",
					"fontname" : "Verdana",
					"numoutlets" : 2,
					"outlettype" : [ "", "" ],
					"patching_rect" : [ 271.0, 346.0, 42.0, 20.0 ],
					"id" : "obj-57",
					"fontsize" : 11.0,
					"numinlets" : 2
				}

			}
, 			{
				"box" : 				{
					"maxclass" : "newobj",
					"text" : "t l b",
					"fontname" : "Verdana",
					"numoutlets" : 2,
					"outlettype" : [ "", "bang" ],
					"patching_rect" : [ 314.0, 318.0, 41.5, 20.0 ],
					"id" : "obj-58",
					"fontsize" : 11.0,
					"numinlets" : 1
				}

			}
, 			{
				"box" : 				{
					"maxclass" : "message",
					"presentation_rect" : [ 3.0, 215.0, 524.0, 18.0 ],
					"fontname" : "Verdana",
					"numoutlets" : 1,
					"outlettype" : [ "" ],
					"patching_rect" : [ 13.0, 318.0, 256.0, 18.0 ],
					"presentation" : 1,
					"id" : "obj-59",
					"fontsize" : 11.0,
					"numinlets" : 2
				}

			}
, 			{
				"box" : 				{
					"maxclass" : "newobj",
					"text" : "zl reg",
					"fontname" : "Verdana",
					"numoutlets" : 2,
					"outlettype" : [ "", "" ],
					"patching_rect" : [ 271.0, 318.0, 42.0, 20.0 ],
					"id" : "obj-60",
					"fontsize" : 11.0,
					"numinlets" : 2
				}

			}
, 			{
				"box" : 				{
					"maxclass" : "newobj",
					"text" : "t l b",
					"fontname" : "Verdana",
					"numoutlets" : 2,
					"outlettype" : [ "", "bang" ],
					"patching_rect" : [ 314.0, 290.0, 41.5, 20.0 ],
					"id" : "obj-61",
					"fontsize" : 11.0,
					"numinlets" : 1
				}

			}
, 			{
				"box" : 				{
					"maxclass" : "message",
					"presentation_rect" : [ 3.0, 194.0, 524.0, 18.0 ],
					"fontname" : "Verdana",
					"numoutlets" : 1,
					"outlettype" : [ "" ],
					"patching_rect" : [ 13.0, 290.0, 256.0, 18.0 ],
					"presentation" : 1,
					"id" : "obj-62",
					"fontsize" : 11.0,
					"numinlets" : 2
				}

			}
, 			{
				"box" : 				{
					"maxclass" : "newobj",
					"text" : "zl reg",
					"fontname" : "Verdana",
					"numoutlets" : 2,
					"outlettype" : [ "", "" ],
					"patching_rect" : [ 271.0, 290.0, 42.0, 20.0 ],
					"id" : "obj-63",
					"fontsize" : 11.0,
					"numinlets" : 2
				}

			}
, 			{
				"box" : 				{
					"maxclass" : "newobj",
					"text" : "t l b",
					"fontname" : "Verdana",
					"numoutlets" : 2,
					"outlettype" : [ "", "bang" ],
					"patching_rect" : [ 314.0, 262.0, 41.5, 20.0 ],
					"id" : "obj-64",
					"fontsize" : 11.0,
					"numinlets" : 1
				}

			}
, 			{
				"box" : 				{
					"maxclass" : "message",
					"presentation_rect" : [ 3.0, 173.0, 524.0, 18.0 ],
					"fontname" : "Verdana",
					"numoutlets" : 1,
					"outlettype" : [ "" ],
					"patching_rect" : [ 13.0, 262.0, 256.0, 18.0 ],
					"presentation" : 1,
					"id" : "obj-65",
					"fontsize" : 11.0,
					"numinlets" : 2
				}

			}
, 			{
				"box" : 				{
					"maxclass" : "newobj",
					"text" : "zl reg",
					"fontname" : "Verdana",
					"numoutlets" : 2,
					"outlettype" : [ "", "" ],
					"patching_rect" : [ 271.0, 262.0, 42.0, 20.0 ],
					"id" : "obj-66",
					"fontsize" : 11.0,
					"numinlets" : 2
				}

			}
, 			{
				"box" : 				{
					"maxclass" : "newobj",
					"text" : "t l b",
					"fontname" : "Verdana",
					"numoutlets" : 2,
					"outlettype" : [ "", "bang" ],
					"patching_rect" : [ 314.0, 233.0, 41.5, 20.0 ],
					"id" : "obj-43",
					"fontsize" : 11.0,
					"numinlets" : 1
				}

			}
, 			{
				"box" : 				{
					"maxclass" : "message",
					"presentation_rect" : [ 3.0, 151.0, 524.0, 18.0 ],
					"fontname" : "Verdana",
					"numoutlets" : 1,
					"outlettype" : [ "" ],
					"patching_rect" : [ 13.0, 233.0, 256.0, 18.0 ],
					"presentation" : 1,
					"id" : "obj-44",
					"fontsize" : 11.0,
					"numinlets" : 2
				}

			}
, 			{
				"box" : 				{
					"maxclass" : "newobj",
					"text" : "zl reg",
					"fontname" : "Verdana",
					"numoutlets" : 2,
					"outlettype" : [ "", "" ],
					"patching_rect" : [ 271.0, 233.0, 42.0, 20.0 ],
					"id" : "obj-45",
					"fontsize" : 11.0,
					"numinlets" : 2
				}

			}
, 			{
				"box" : 				{
					"maxclass" : "newobj",
					"text" : "t l b",
					"fontname" : "Verdana",
					"numoutlets" : 2,
					"outlettype" : [ "", "bang" ],
					"patching_rect" : [ 314.0, 205.0, 41.5, 20.0 ],
					"id" : "obj-46",
					"fontsize" : 11.0,
					"numinlets" : 1
				}

			}
, 			{
				"box" : 				{
					"maxclass" : "message",
					"presentation_rect" : [ 3.0, 130.0, 524.0, 18.0 ],
					"fontname" : "Verdana",
					"numoutlets" : 1,
					"outlettype" : [ "" ],
					"patching_rect" : [ 13.0, 205.0, 256.0, 18.0 ],
					"presentation" : 1,
					"id" : "obj-47",
					"fontsize" : 11.0,
					"numinlets" : 2
				}

			}
, 			{
				"box" : 				{
					"maxclass" : "newobj",
					"text" : "zl reg",
					"fontname" : "Verdana",
					"numoutlets" : 2,
					"outlettype" : [ "", "" ],
					"patching_rect" : [ 271.0, 205.0, 42.0, 20.0 ],
					"id" : "obj-48",
					"fontsize" : 11.0,
					"numinlets" : 2
				}

			}
, 			{
				"box" : 				{
					"maxclass" : "newobj",
					"text" : "t l b",
					"fontname" : "Verdana",
					"numoutlets" : 2,
					"outlettype" : [ "", "bang" ],
					"patching_rect" : [ 314.0, 177.0, 41.5, 20.0 ],
					"id" : "obj-49",
					"fontsize" : 11.0,
					"numinlets" : 1
				}

			}
, 			{
				"box" : 				{
					"maxclass" : "message",
					"presentation_rect" : [ 3.0, 109.0, 524.0, 18.0 ],
					"fontname" : "Verdana",
					"numoutlets" : 1,
					"outlettype" : [ "" ],
					"patching_rect" : [ 13.0, 177.0, 256.0, 18.0 ],
					"presentation" : 1,
					"id" : "obj-50",
					"fontsize" : 11.0,
					"numinlets" : 2
				}

			}
, 			{
				"box" : 				{
					"maxclass" : "newobj",
					"text" : "zl reg",
					"fontname" : "Verdana",
					"numoutlets" : 2,
					"outlettype" : [ "", "" ],
					"patching_rect" : [ 271.0, 177.0, 42.0, 20.0 ],
					"id" : "obj-51",
					"fontsize" : 11.0,
					"numinlets" : 2
				}

			}
, 			{
				"box" : 				{
					"maxclass" : "newobj",
					"text" : "t l b",
					"fontname" : "Verdana",
					"numoutlets" : 2,
					"outlettype" : [ "", "bang" ],
					"patching_rect" : [ 314.0, 149.0, 41.5, 20.0 ],
					"id" : "obj-52",
					"fontsize" : 11.0,
					"numinlets" : 1
				}

			}
, 			{
				"box" : 				{
					"maxclass" : "message",
					"presentation_rect" : [ 3.0, 88.0, 524.0, 18.0 ],
					"fontname" : "Verdana",
					"numoutlets" : 1,
					"outlettype" : [ "" ],
					"patching_rect" : [ 13.0, 149.0, 256.0, 18.0 ],
					"presentation" : 1,
					"id" : "obj-53",
					"fontsize" : 11.0,
					"numinlets" : 2
				}

			}
, 			{
				"box" : 				{
					"maxclass" : "newobj",
					"text" : "zl reg",
					"fontname" : "Verdana",
					"numoutlets" : 2,
					"outlettype" : [ "", "" ],
					"patching_rect" : [ 271.0, 149.0, 42.0, 20.0 ],
					"id" : "obj-54",
					"fontsize" : 11.0,
					"numinlets" : 2
				}

			}
, 			{
				"box" : 				{
					"maxclass" : "newobj",
					"text" : "t l b",
					"fontname" : "Verdana",
					"numoutlets" : 2,
					"outlettype" : [ "", "bang" ],
					"patching_rect" : [ 314.0, 120.0, 41.5, 20.0 ],
					"id" : "obj-40",
					"fontsize" : 11.0,
					"numinlets" : 1
				}

			}
, 			{
				"box" : 				{
					"maxclass" : "message",
					"presentation_rect" : [ 3.0, 66.0, 524.0, 18.0 ],
					"fontname" : "Verdana",
					"numoutlets" : 1,
					"outlettype" : [ "" ],
					"patching_rect" : [ 13.0, 120.0, 256.0, 18.0 ],
					"presentation" : 1,
					"id" : "obj-41",
					"fontsize" : 11.0,
					"numinlets" : 2
				}

			}
, 			{
				"box" : 				{
					"maxclass" : "newobj",
					"text" : "zl reg",
					"fontname" : "Verdana",
					"numoutlets" : 2,
					"outlettype" : [ "", "" ],
					"patching_rect" : [ 271.0, 120.0, 42.0, 20.0 ],
					"id" : "obj-42",
					"fontsize" : 11.0,
					"numinlets" : 2
				}

			}
, 			{
				"box" : 				{
					"maxclass" : "newobj",
					"text" : "t l b",
					"fontname" : "Verdana",
					"numoutlets" : 2,
					"outlettype" : [ "", "bang" ],
					"patching_rect" : [ 314.0, 92.0, 41.5, 20.0 ],
					"id" : "obj-37",
					"fontsize" : 11.0,
					"numinlets" : 1
				}

			}
, 			{
				"box" : 				{
					"maxclass" : "message",
					"presentation_rect" : [ 3.0, 45.0, 524.0, 18.0 ],
					"fontname" : "Verdana",
					"numoutlets" : 1,
					"outlettype" : [ "" ],
					"patching_rect" : [ 13.0, 92.0, 256.0, 18.0 ],
					"presentation" : 1,
					"id" : "obj-38",
					"fontsize" : 11.0,
					"numinlets" : 2
				}

			}
, 			{
				"box" : 				{
					"maxclass" : "newobj",
					"text" : "zl reg",
					"fontname" : "Verdana",
					"numoutlets" : 2,
					"outlettype" : [ "", "" ],
					"patching_rect" : [ 271.0, 92.0, 42.0, 20.0 ],
					"id" : "obj-39",
					"fontsize" : 11.0,
					"numinlets" : 2
				}

			}
, 			{
				"box" : 				{
					"maxclass" : "newobj",
					"text" : "t l b",
					"fontname" : "Verdana",
					"numoutlets" : 2,
					"outlettype" : [ "", "bang" ],
					"patching_rect" : [ 314.0, 64.0, 41.5, 20.0 ],
					"id" : "obj-34",
					"fontsize" : 11.0,
					"numinlets" : 1
				}

			}
, 			{
				"box" : 				{
					"maxclass" : "message",
					"presentation_rect" : [ 3.0, 24.0, 524.0, 18.0 ],
					"fontname" : "Verdana",
					"numoutlets" : 1,
					"outlettype" : [ "" ],
					"patching_rect" : [ 13.0, 64.0, 256.0, 18.0 ],
					"presentation" : 1,
					"id" : "obj-35",
					"fontsize" : 11.0,
					"numinlets" : 2
				}

			}
, 			{
				"box" : 				{
					"maxclass" : "newobj",
					"text" : "zl reg",
					"fontname" : "Verdana",
					"numoutlets" : 2,
					"outlettype" : [ "", "" ],
					"patching_rect" : [ 271.0, 64.0, 42.0, 20.0 ],
					"id" : "obj-36",
					"fontsize" : 11.0,
					"numinlets" : 2
				}

			}
, 			{
				"box" : 				{
					"maxclass" : "newobj",
					"text" : "t l b",
					"fontname" : "Verdana",
					"numoutlets" : 2,
					"outlettype" : [ "", "bang" ],
					"patching_rect" : [ 314.0, 36.0, 41.5, 20.0 ],
					"id" : "obj-6",
					"fontsize" : 11.0,
					"numinlets" : 1
				}

			}
, 			{
				"box" : 				{
					"maxclass" : "inlet",
					"numoutlets" : 1,
					"outlettype" : [ "" ],
					"patching_rect" : [ 272.0, 3.0, 25.0, 25.0 ],
					"id" : "obj-5",
					"numinlets" : 0,
					"comment" : ""
				}

			}
, 			{
				"box" : 				{
					"maxclass" : "message",
					"presentation_rect" : [ 3.0, 3.0, 524.0, 18.0 ],
					"fontname" : "Verdana",
					"numoutlets" : 1,
					"outlettype" : [ "" ],
					"patching_rect" : [ 13.0, 36.0, 256.0, 18.0 ],
					"presentation" : 1,
					"id" : "obj-3",
					"fontsize" : 11.0,
					"numinlets" : 2
				}

			}
, 			{
				"box" : 				{
					"maxclass" : "newobj",
					"text" : "zl reg",
					"fontname" : "Verdana",
					"numoutlets" : 2,
					"outlettype" : [ "", "" ],
					"patching_rect" : [ 271.0, 36.0, 42.0, 20.0 ],
					"id" : "obj-1",
					"fontsize" : 11.0,
					"numinlets" : 2
				}

			}
 ],
		"lines" : [ 			{
				"patchline" : 				{
					"source" : [ "obj-69", 0 ],
					"destination" : [ "obj-4", 0 ],
					"hidden" : 0,
					"midpoints" : [  ]
				}

			}
, 			{
				"patchline" : 				{
					"source" : [ "obj-5", 0 ],
					"destination" : [ "obj-3", 1 ],
					"hidden" : 0,
					"midpoints" : [  ]
				}

			}
, 			{
				"patchline" : 				{
					"source" : [ "obj-5", 0 ],
					"destination" : [ "obj-6", 0 ],
					"hidden" : 0,
					"midpoints" : [  ]
				}

			}
, 			{
				"patchline" : 				{
					"source" : [ "obj-6", 0 ],
					"destination" : [ "obj-1", 1 ],
					"hidden" : 0,
					"midpoints" : [  ]
				}

			}
, 			{
				"patchline" : 				{
					"source" : [ "obj-6", 1 ],
					"destination" : [ "obj-1", 0 ],
					"hidden" : 0,
					"midpoints" : [ 346.0, 58.0, 358.25, 58.0, 358.25, 32.0, 280.5, 32.0 ]
				}

			}
, 			{
				"patchline" : 				{
					"source" : [ "obj-34", 1 ],
					"destination" : [ "obj-36", 0 ],
					"hidden" : 0,
					"midpoints" : [ 346.0, 86.0, 358.25, 86.0, 358.25, 60.0, 280.5, 60.0 ]
				}

			}
, 			{
				"patchline" : 				{
					"source" : [ "obj-34", 0 ],
					"destination" : [ "obj-36", 1 ],
					"hidden" : 0,
					"midpoints" : [  ]
				}

			}
, 			{
				"patchline" : 				{
					"source" : [ "obj-37", 0 ],
					"destination" : [ "obj-39", 1 ],
					"hidden" : 0,
					"midpoints" : [  ]
				}

			}
, 			{
				"patchline" : 				{
					"source" : [ "obj-37", 1 ],
					"destination" : [ "obj-39", 0 ],
					"hidden" : 0,
					"midpoints" : [ 346.0, 114.0, 358.25, 114.0, 358.25, 88.0, 280.5, 88.0 ]
				}

			}
, 			{
				"patchline" : 				{
					"source" : [ "obj-40", 1 ],
					"destination" : [ "obj-42", 0 ],
					"hidden" : 0,
					"midpoints" : [ 346.0, 142.0, 358.25, 142.0, 358.25, 116.0, 280.5, 116.0 ]
				}

			}
, 			{
				"patchline" : 				{
					"source" : [ "obj-40", 0 ],
					"destination" : [ "obj-42", 1 ],
					"hidden" : 0,
					"midpoints" : [  ]
				}

			}
, 			{
				"patchline" : 				{
					"source" : [ "obj-1", 0 ],
					"destination" : [ "obj-35", 1 ],
					"hidden" : 0,
					"midpoints" : [  ]
				}

			}
, 			{
				"patchline" : 				{
					"source" : [ "obj-1", 0 ],
					"destination" : [ "obj-34", 0 ],
					"hidden" : 0,
					"midpoints" : [  ]
				}

			}
, 			{
				"patchline" : 				{
					"source" : [ "obj-36", 0 ],
					"destination" : [ "obj-38", 1 ],
					"hidden" : 0,
					"midpoints" : [  ]
				}

			}
, 			{
				"patchline" : 				{
					"source" : [ "obj-36", 0 ],
					"destination" : [ "obj-37", 0 ],
					"hidden" : 0,
					"midpoints" : [  ]
				}

			}
, 			{
				"patchline" : 				{
					"source" : [ "obj-39", 0 ],
					"destination" : [ "obj-41", 1 ],
					"hidden" : 0,
					"midpoints" : [  ]
				}

			}
, 			{
				"patchline" : 				{
					"source" : [ "obj-39", 0 ],
					"destination" : [ "obj-40", 0 ],
					"hidden" : 0,
					"midpoints" : [  ]
				}

			}
, 			{
				"patchline" : 				{
					"source" : [ "obj-48", 0 ],
					"destination" : [ "obj-43", 0 ],
					"hidden" : 0,
					"midpoints" : [  ]
				}

			}
, 			{
				"patchline" : 				{
					"source" : [ "obj-48", 0 ],
					"destination" : [ "obj-44", 1 ],
					"hidden" : 0,
					"midpoints" : [  ]
				}

			}
, 			{
				"patchline" : 				{
					"source" : [ "obj-51", 0 ],
					"destination" : [ "obj-46", 0 ],
					"hidden" : 0,
					"midpoints" : [  ]
				}

			}
, 			{
				"patchline" : 				{
					"source" : [ "obj-51", 0 ],
					"destination" : [ "obj-47", 1 ],
					"hidden" : 0,
					"midpoints" : [  ]
				}

			}
, 			{
				"patchline" : 				{
					"source" : [ "obj-54", 0 ],
					"destination" : [ "obj-49", 0 ],
					"hidden" : 0,
					"midpoints" : [  ]
				}

			}
, 			{
				"patchline" : 				{
					"source" : [ "obj-54", 0 ],
					"destination" : [ "obj-50", 1 ],
					"hidden" : 0,
					"midpoints" : [  ]
				}

			}
, 			{
				"patchline" : 				{
					"source" : [ "obj-43", 0 ],
					"destination" : [ "obj-45", 1 ],
					"hidden" : 0,
					"midpoints" : [  ]
				}

			}
, 			{
				"patchline" : 				{
					"source" : [ "obj-43", 1 ],
					"destination" : [ "obj-45", 0 ],
					"hidden" : 0,
					"midpoints" : [ 346.0, 255.0, 358.25, 255.0, 358.25, 229.0, 280.5, 229.0 ]
				}

			}
, 			{
				"patchline" : 				{
					"source" : [ "obj-46", 1 ],
					"destination" : [ "obj-48", 0 ],
					"hidden" : 0,
					"midpoints" : [ 346.0, 227.0, 358.25, 227.0, 358.25, 201.0, 280.5, 201.0 ]
				}

			}
, 			{
				"patchline" : 				{
					"source" : [ "obj-46", 0 ],
					"destination" : [ "obj-48", 1 ],
					"hidden" : 0,
					"midpoints" : [  ]
				}

			}
, 			{
				"patchline" : 				{
					"source" : [ "obj-49", 0 ],
					"destination" : [ "obj-51", 1 ],
					"hidden" : 0,
					"midpoints" : [  ]
				}

			}
, 			{
				"patchline" : 				{
					"source" : [ "obj-49", 1 ],
					"destination" : [ "obj-51", 0 ],
					"hidden" : 0,
					"midpoints" : [ 346.0, 199.0, 358.25, 199.0, 358.25, 173.0, 280.5, 173.0 ]
				}

			}
, 			{
				"patchline" : 				{
					"source" : [ "obj-52", 1 ],
					"destination" : [ "obj-54", 0 ],
					"hidden" : 0,
					"midpoints" : [ 346.0, 171.0, 358.25, 171.0, 358.25, 145.0, 280.5, 145.0 ]
				}

			}
, 			{
				"patchline" : 				{
					"source" : [ "obj-52", 0 ],
					"destination" : [ "obj-54", 1 ],
					"hidden" : 0,
					"midpoints" : [  ]
				}

			}
, 			{
				"patchline" : 				{
					"source" : [ "obj-64", 0 ],
					"destination" : [ "obj-66", 1 ],
					"hidden" : 0,
					"midpoints" : [  ]
				}

			}
, 			{
				"patchline" : 				{
					"source" : [ "obj-64", 1 ],
					"destination" : [ "obj-66", 0 ],
					"hidden" : 0,
					"midpoints" : [ 346.0, 284.0, 358.25, 284.0, 358.25, 258.0, 280.5, 258.0 ]
				}

			}
, 			{
				"patchline" : 				{
					"source" : [ "obj-61", 1 ],
					"destination" : [ "obj-63", 0 ],
					"hidden" : 0,
					"midpoints" : [ 346.0, 312.0, 358.25, 312.0, 358.25, 286.0, 280.5, 286.0 ]
				}

			}
, 			{
				"patchline" : 				{
					"source" : [ "obj-61", 0 ],
					"destination" : [ "obj-63", 1 ],
					"hidden" : 0,
					"midpoints" : [  ]
				}

			}
, 			{
				"patchline" : 				{
					"source" : [ "obj-58", 0 ],
					"destination" : [ "obj-60", 1 ],
					"hidden" : 0,
					"midpoints" : [  ]
				}

			}
, 			{
				"patchline" : 				{
					"source" : [ "obj-58", 1 ],
					"destination" : [ "obj-60", 0 ],
					"hidden" : 0,
					"midpoints" : [ 346.0, 340.0, 358.25, 340.0, 358.25, 314.0, 280.5, 314.0 ]
				}

			}
, 			{
				"patchline" : 				{
					"source" : [ "obj-55", 1 ],
					"destination" : [ "obj-57", 0 ],
					"hidden" : 0,
					"midpoints" : [ 346.0, 368.0, 358.25, 368.0, 358.25, 342.0, 280.5, 342.0 ]
				}

			}
, 			{
				"patchline" : 				{
					"source" : [ "obj-55", 0 ],
					"destination" : [ "obj-57", 1 ],
					"hidden" : 0,
					"midpoints" : [  ]
				}

			}
, 			{
				"patchline" : 				{
					"source" : [ "obj-66", 0 ],
					"destination" : [ "obj-62", 1 ],
					"hidden" : 0,
					"midpoints" : [  ]
				}

			}
, 			{
				"patchline" : 				{
					"source" : [ "obj-66", 0 ],
					"destination" : [ "obj-61", 0 ],
					"hidden" : 0,
					"midpoints" : [  ]
				}

			}
, 			{
				"patchline" : 				{
					"source" : [ "obj-63", 0 ],
					"destination" : [ "obj-59", 1 ],
					"hidden" : 0,
					"midpoints" : [  ]
				}

			}
, 			{
				"patchline" : 				{
					"source" : [ "obj-63", 0 ],
					"destination" : [ "obj-58", 0 ],
					"hidden" : 0,
					"midpoints" : [  ]
				}

			}
, 			{
				"patchline" : 				{
					"source" : [ "obj-60", 0 ],
					"destination" : [ "obj-56", 1 ],
					"hidden" : 0,
					"midpoints" : [  ]
				}

			}
, 			{
				"patchline" : 				{
					"source" : [ "obj-60", 0 ],
					"destination" : [ "obj-55", 0 ],
					"hidden" : 0,
					"midpoints" : [  ]
				}

			}
, 			{
				"patchline" : 				{
					"source" : [ "obj-42", 0 ],
					"destination" : [ "obj-53", 1 ],
					"hidden" : 0,
					"midpoints" : [  ]
				}

			}
, 			{
				"patchline" : 				{
					"source" : [ "obj-42", 0 ],
					"destination" : [ "obj-52", 0 ],
					"hidden" : 0,
					"midpoints" : [  ]
				}

			}
, 			{
				"patchline" : 				{
					"source" : [ "obj-45", 0 ],
					"destination" : [ "obj-65", 1 ],
					"hidden" : 0,
					"midpoints" : [  ]
				}

			}
, 			{
				"patchline" : 				{
					"source" : [ "obj-45", 0 ],
					"destination" : [ "obj-64", 0 ],
					"hidden" : 0,
					"midpoints" : [  ]
				}

			}
, 			{
				"patchline" : 				{
					"source" : [ "obj-72", 0 ],
					"destination" : [ "obj-67", 0 ],
					"hidden" : 0,
					"midpoints" : [  ]
				}

			}
, 			{
				"patchline" : 				{
					"source" : [ "obj-72", 0 ],
					"destination" : [ "obj-68", 1 ],
					"hidden" : 0,
					"midpoints" : [  ]
				}

			}
, 			{
				"patchline" : 				{
					"source" : [ "obj-75", 0 ],
					"destination" : [ "obj-70", 0 ],
					"hidden" : 0,
					"midpoints" : [  ]
				}

			}
, 			{
				"patchline" : 				{
					"source" : [ "obj-75", 0 ],
					"destination" : [ "obj-71", 1 ],
					"hidden" : 0,
					"midpoints" : [  ]
				}

			}
, 			{
				"patchline" : 				{
					"source" : [ "obj-78", 0 ],
					"destination" : [ "obj-73", 0 ],
					"hidden" : 0,
					"midpoints" : [  ]
				}

			}
, 			{
				"patchline" : 				{
					"source" : [ "obj-78", 0 ],
					"destination" : [ "obj-74", 1 ],
					"hidden" : 0,
					"midpoints" : [  ]
				}

			}
, 			{
				"patchline" : 				{
					"source" : [ "obj-67", 0 ],
					"destination" : [ "obj-69", 1 ],
					"hidden" : 0,
					"midpoints" : [  ]
				}

			}
, 			{
				"patchline" : 				{
					"source" : [ "obj-67", 1 ],
					"destination" : [ "obj-69", 0 ],
					"hidden" : 0,
					"midpoints" : [ 346.0, 480.0, 358.25, 480.0, 358.25, 454.0, 280.5, 454.0 ]
				}

			}
, 			{
				"patchline" : 				{
					"source" : [ "obj-70", 1 ],
					"destination" : [ "obj-72", 0 ],
					"hidden" : 0,
					"midpoints" : [ 346.0, 452.0, 358.25, 452.0, 358.25, 426.0, 280.5, 426.0 ]
				}

			}
, 			{
				"patchline" : 				{
					"source" : [ "obj-70", 0 ],
					"destination" : [ "obj-72", 1 ],
					"hidden" : 0,
					"midpoints" : [  ]
				}

			}
, 			{
				"patchline" : 				{
					"source" : [ "obj-73", 0 ],
					"destination" : [ "obj-75", 1 ],
					"hidden" : 0,
					"midpoints" : [  ]
				}

			}
, 			{
				"patchline" : 				{
					"source" : [ "obj-73", 1 ],
					"destination" : [ "obj-75", 0 ],
					"hidden" : 0,
					"midpoints" : [ 346.0, 424.0, 358.25, 424.0, 358.25, 398.0, 280.5, 398.0 ]
				}

			}
, 			{
				"patchline" : 				{
					"source" : [ "obj-76", 1 ],
					"destination" : [ "obj-78", 0 ],
					"hidden" : 0,
					"midpoints" : [ 346.0, 396.0, 358.25, 396.0, 358.25, 370.0, 280.5, 370.0 ]
				}

			}
, 			{
				"patchline" : 				{
					"source" : [ "obj-76", 0 ],
					"destination" : [ "obj-78", 1 ],
					"hidden" : 0,
					"midpoints" : [  ]
				}

			}
, 			{
				"patchline" : 				{
					"source" : [ "obj-57", 0 ],
					"destination" : [ "obj-77", 1 ],
					"hidden" : 0,
					"midpoints" : [  ]
				}

			}
, 			{
				"patchline" : 				{
					"source" : [ "obj-57", 0 ],
					"destination" : [ "obj-76", 0 ],
					"hidden" : 0,
					"midpoints" : [  ]
				}

			}
 ]
	}

}
