{
	"patcher" : 	{
		"fileversion" : 1,
		"rect" : [ 50.0, 94.0, 370.0, 300.0 ],
		"bglocked" : 0,
		"defrect" : [ 50.0, 94.0, 370.0, 300.0 ],
		"openrect" : [ 0.0, 0.0, 0.0, 0.0 ],
		"openinpresentation" : 0,
		"default_fontsize" : 11.0,
		"default_fontface" : 0,
		"default_fontname" : "Verdana",
		"gridonopen" : 0,
		"gridsize" : [ 15.0, 15.0 ],
		"gridsnaponopen" : 0,
		"toolbarvisible" : 1,
		"boxanimatetime" : 200,
		"imprint" : 0,
		"metadata" : [  ],
		"boxes" : [ 			{
				"box" : 				{
					"maxclass" : "newobj",
					"text" : "ntom",
					"numoutlets" : 1,
					"patching_rect" : [ 146.0, 45.0, 44.0, 20.0 ],
					"outlettype" : [ "int" ],
					"fontname" : "Verdana",
					"id" : "obj-1",
					"fontsize" : 11.0,
					"numinlets" : 1
				}

			}
, 			{
				"box" : 				{
					"maxclass" : "newobj",
					"text" : "patcherargs C3",
					"numoutlets" : 2,
					"patching_rect" : [ 178.0, 11.0, 96.0, 20.0 ],
					"outlettype" : [ "", "" ],
					"fontname" : "Verdana",
					"id" : "obj-19",
					"fontsize" : 11.0,
					"numinlets" : 1
				}

			}
, 			{
				"box" : 				{
					"maxclass" : "newobj",
					"text" : "- 0.",
					"numoutlets" : 1,
					"patching_rect" : [ 78.0, 104.0, 46.0, 20.0 ],
					"outlettype" : [ "float" ],
					"fontname" : "Verdana",
					"id" : "obj-9",
					"fontsize" : 11.0,
					"numinlets" : 2
				}

			}
, 			{
				"box" : 				{
					"maxclass" : "inlet",
					"numoutlets" : 1,
					"patching_rect" : [ 146.0, 11.0, 25.0, 25.0 ],
					"outlettype" : [ "" ],
					"id" : "obj-8",
					"numinlets" : 0,
					"comment" : ""
				}

			}
, 			{
				"box" : 				{
					"maxclass" : "newobj",
					"text" : "% 12.",
					"numoutlets" : 1,
					"patching_rect" : [ 105.0, 77.0, 47.0, 20.0 ],
					"outlettype" : [ "int" ],
					"fontname" : "Verdana",
					"id" : "obj-7",
					"fontsize" : 11.0,
					"numinlets" : 2
				}

			}
, 			{
				"box" : 				{
					"maxclass" : "newobj",
					"text" : "+",
					"numoutlets" : 1,
					"patching_rect" : [ 78.0, 156.0, 87.0, 20.0 ],
					"outlettype" : [ "int" ],
					"fontname" : "Verdana",
					"id" : "obj-6",
					"fontsize" : 11.0,
					"numinlets" : 2
				}

			}
, 			{
				"box" : 				{
					"maxclass" : "newobj",
					"text" : "% 12.",
					"numoutlets" : 1,
					"patching_rect" : [ 78.0, 130.0, 46.0, 20.0 ],
					"outlettype" : [ "int" ],
					"fontname" : "Verdana",
					"id" : "obj-5",
					"fontsize" : 11.0,
					"numinlets" : 2
				}

			}
, 			{
				"box" : 				{
					"maxclass" : "outlet",
					"numoutlets" : 0,
					"patching_rect" : [ 78.0, 182.0, 25.0, 25.0 ],
					"id" : "obj-4",
					"numinlets" : 1,
					"comment" : ""
				}

			}
, 			{
				"box" : 				{
					"maxclass" : "inlet",
					"numoutlets" : 1,
					"patching_rect" : [ 78.0, 11.0, 25.0, 25.0 ],
					"outlettype" : [ "" ],
					"id" : "obj-2",
					"numinlets" : 0,
					"comment" : ""
				}

			}
 ],
		"lines" : [ 			{
				"patchline" : 				{
					"source" : [ "obj-19", 0 ],
					"destination" : [ "obj-1", 0 ],
					"hidden" : 0,
					"midpoints" : [ 187.5, 40.0, 155.5, 40.0 ]
				}

			}
, 			{
				"patchline" : 				{
					"source" : [ "obj-8", 0 ],
					"destination" : [ "obj-1", 0 ],
					"hidden" : 0,
					"midpoints" : [  ]
				}

			}
, 			{
				"patchline" : 				{
					"source" : [ "obj-1", 0 ],
					"destination" : [ "obj-7", 0 ],
					"hidden" : 0,
					"midpoints" : [ 155.5, 70.0, 114.5, 70.0 ]
				}

			}
, 			{
				"patchline" : 				{
					"source" : [ "obj-1", 0 ],
					"destination" : [ "obj-6", 1 ],
					"hidden" : 0,
					"midpoints" : [  ]
				}

			}
, 			{
				"patchline" : 				{
					"source" : [ "obj-6", 0 ],
					"destination" : [ "obj-4", 0 ],
					"hidden" : 0,
					"midpoints" : [  ]
				}

			}
, 			{
				"patchline" : 				{
					"source" : [ "obj-7", 0 ],
					"destination" : [ "obj-9", 1 ],
					"hidden" : 0,
					"midpoints" : [  ]
				}

			}
, 			{
				"patchline" : 				{
					"source" : [ "obj-9", 0 ],
					"destination" : [ "obj-5", 0 ],
					"hidden" : 0,
					"midpoints" : [  ]
				}

			}
, 			{
				"patchline" : 				{
					"source" : [ "obj-2", 0 ],
					"destination" : [ "obj-9", 0 ],
					"hidden" : 0,
					"midpoints" : [  ]
				}

			}
, 			{
				"patchline" : 				{
					"source" : [ "obj-5", 0 ],
					"destination" : [ "obj-6", 0 ],
					"hidden" : 0,
					"midpoints" : [  ]
				}

			}
 ]
	}

}
