{
	"patcher" : 	{
		"fileversion" : 1,
		"rect" : [ 20.0, 74.0, 969.0, 315.0 ],
		"bglocked" : 0,
		"defrect" : [ 20.0, 74.0, 969.0, 315.0 ],
		"openrect" : [ 0.0, 0.0, 0.0, 0.0 ],
		"openinpresentation" : 0,
		"default_fontsize" : 11.0,
		"default_fontface" : 0,
		"default_fontname" : "Verdana",
		"gridonopen" : 0,
		"gridsize" : [ 15.0, 15.0 ],
		"gridsnaponopen" : 0,
		"toolbarvisible" : 1,
		"boxanimatetime" : 200,
		"imprint" : 0,
		"metadata" : [  ],
		"boxes" : [ 			{
				"box" : 				{
					"maxclass" : "outlet",
					"varname" : "out[16]",
					"patching_rect" : [ 996.0, 128.0, 20.0, 20.0 ],
					"id" : "obj-1",
					"numinlets" : 1,
					"numoutlets" : 0,
					"comment" : ""
				}

			}
, 			{
				"box" : 				{
					"maxclass" : "outlet",
					"varname" : "out[15]",
					"patching_rect" : [ 930.0, 128.0, 20.0, 20.0 ],
					"id" : "obj-2",
					"numinlets" : 1,
					"numoutlets" : 0,
					"comment" : ""
				}

			}
, 			{
				"box" : 				{
					"maxclass" : "outlet",
					"varname" : "out[14]",
					"patching_rect" : [ 864.0, 128.0, 20.0, 20.0 ],
					"id" : "obj-3",
					"numinlets" : 1,
					"numoutlets" : 0,
					"comment" : ""
				}

			}
, 			{
				"box" : 				{
					"maxclass" : "outlet",
					"varname" : "out[13]",
					"patching_rect" : [ 798.0, 128.0, 20.0, 20.0 ],
					"id" : "obj-4",
					"numinlets" : 1,
					"numoutlets" : 0,
					"comment" : ""
				}

			}
, 			{
				"box" : 				{
					"maxclass" : "outlet",
					"varname" : "out[12]",
					"patching_rect" : [ 732.0, 128.0, 20.0, 20.0 ],
					"id" : "obj-5",
					"numinlets" : 1,
					"numoutlets" : 0,
					"comment" : ""
				}

			}
, 			{
				"box" : 				{
					"maxclass" : "outlet",
					"varname" : "out[11]",
					"patching_rect" : [ 666.0, 128.0, 20.0, 20.0 ],
					"id" : "obj-6",
					"numinlets" : 1,
					"numoutlets" : 0,
					"comment" : ""
				}

			}
, 			{
				"box" : 				{
					"maxclass" : "outlet",
					"varname" : "out[10]",
					"patching_rect" : [ 600.0, 128.0, 20.0, 20.0 ],
					"id" : "obj-7",
					"numinlets" : 1,
					"numoutlets" : 0,
					"comment" : ""
				}

			}
, 			{
				"box" : 				{
					"maxclass" : "outlet",
					"varname" : "out[9]",
					"patching_rect" : [ 534.0, 128.0, 20.0, 20.0 ],
					"id" : "obj-8",
					"numinlets" : 1,
					"numoutlets" : 0,
					"comment" : ""
				}

			}
, 			{
				"box" : 				{
					"maxclass" : "outlet",
					"varname" : "out[8]",
					"patching_rect" : [ 468.0, 128.0, 20.0, 20.0 ],
					"id" : "obj-9",
					"numinlets" : 1,
					"numoutlets" : 0,
					"comment" : ""
				}

			}
, 			{
				"box" : 				{
					"maxclass" : "outlet",
					"varname" : "out[7]",
					"patching_rect" : [ 402.0, 128.0, 20.0, 20.0 ],
					"id" : "obj-10",
					"numinlets" : 1,
					"numoutlets" : 0,
					"comment" : ""
				}

			}
, 			{
				"box" : 				{
					"maxclass" : "outlet",
					"varname" : "out[6]",
					"patching_rect" : [ 336.0, 128.0, 20.0, 20.0 ],
					"id" : "obj-11",
					"numinlets" : 1,
					"numoutlets" : 0,
					"comment" : ""
				}

			}
, 			{
				"box" : 				{
					"maxclass" : "outlet",
					"varname" : "out[5]",
					"patching_rect" : [ 270.0, 128.0, 20.0, 20.0 ],
					"id" : "obj-12",
					"numinlets" : 1,
					"numoutlets" : 0,
					"comment" : ""
				}

			}
, 			{
				"box" : 				{
					"maxclass" : "outlet",
					"varname" : "out[4]",
					"patching_rect" : [ 204.0, 128.0, 20.0, 20.0 ],
					"id" : "obj-13",
					"numinlets" : 1,
					"numoutlets" : 0,
					"comment" : ""
				}

			}
, 			{
				"box" : 				{
					"maxclass" : "outlet",
					"varname" : "out[3]",
					"patching_rect" : [ 138.0, 128.0, 20.0, 20.0 ],
					"id" : "obj-14",
					"numinlets" : 1,
					"numoutlets" : 0,
					"comment" : ""
				}

			}
, 			{
				"box" : 				{
					"maxclass" : "outlet",
					"varname" : "out[2]",
					"patching_rect" : [ 72.0, 128.0, 20.0, 20.0 ],
					"id" : "obj-15",
					"numinlets" : 1,
					"numoutlets" : 0,
					"comment" : ""
				}

			}
, 			{
				"box" : 				{
					"maxclass" : "outlet",
					"varname" : "out[1]",
					"patching_rect" : [ 6.0, 128.0, 20.0, 20.0 ],
					"id" : "obj-16",
					"numinlets" : 1,
					"numoutlets" : 0,
					"comment" : ""
				}

			}
, 			{
				"box" : 				{
					"maxclass" : "newobj",
					"text" : "thispatcher",
					"patching_rect" : [ 6.0, 202.0, 76.0, 20.0 ],
					"outlettype" : [ "", "" ],
					"fontname" : "Verdana",
					"id" : "obj-17",
					"hidden" : 1,
					"numinlets" : 1,
					"fontsize" : 11.0,
					"numoutlets" : 2,
					"save" : [ "#N", "thispatcher", ";", "#Q", "end", ";" ]
				}

			}
, 			{
				"box" : 				{
					"maxclass" : "newobj",
					"text" : "patcherargs",
					"patching_rect" : [ 6.0, 154.0, 77.0, 20.0 ],
					"outlettype" : [ "", "" ],
					"fontname" : "Verdana",
					"id" : "obj-18",
					"hidden" : 1,
					"numinlets" : 1,
					"fontsize" : 11.0,
					"numoutlets" : 2
				}

			}
, 			{
				"box" : 				{
					"maxclass" : "newobj",
					"text" : "p Scripts",
					"patching_rect" : [ 6.0, 178.0, 76.0, 20.0 ],
					"outlettype" : [ "" ],
					"fontname" : "Verdana",
					"id" : "obj-19",
					"hidden" : 1,
					"numinlets" : 1,
					"fontsize" : 11.0,
					"numoutlets" : 1,
					"patcher" : 					{
						"fileversion" : 1,
						"rect" : [ 16.0, 351.0, 301.0, 386.0 ],
						"bglocked" : 0,
						"defrect" : [ 16.0, 351.0, 301.0, 386.0 ],
						"openrect" : [ 0.0, 0.0, 0.0, 0.0 ],
						"openinpresentation" : 0,
						"default_fontsize" : 11.0,
						"default_fontface" : 0,
						"default_fontname" : "Verdana",
						"gridonopen" : 0,
						"gridsize" : [ 15.0, 15.0 ],
						"gridsnaponopen" : 0,
						"toolbarvisible" : 1,
						"boxanimatetime" : 200,
						"imprint" : 0,
						"metadata" : [  ],
						"boxes" : [ 							{
								"box" : 								{
									"maxclass" : "message",
									"text" : "clean",
									"patching_rect" : [ 5.0, 201.0, 41.0, 18.0 ],
									"outlettype" : [ "" ],
									"fontname" : "Verdana",
									"id" : "obj-19",
									"numinlets" : 2,
									"fontsize" : 11.0,
									"numoutlets" : 1
								}

							}
, 							{
								"box" : 								{
									"maxclass" : "newobj",
									"text" : "deferlow",
									"patching_rect" : [ 21.0, 230.965515, 60.0, 20.0 ],
									"outlettype" : [ "" ],
									"fontname" : "Verdana",
									"id" : "obj-1",
									"numinlets" : 1,
									"fontsize" : 11.0,
									"numoutlets" : 1
								}

							}
, 							{
								"box" : 								{
									"maxclass" : "newobj",
									"text" : "sprintf script connect r[%i] 0 out[%i] 0",
									"linecount" : 5,
									"patching_rect" : [ 21.0, 256.7724, 62.0, 73.0 ],
									"outlettype" : [ "" ],
									"fontname" : "Verdana",
									"id" : "obj-2",
									"numinlets" : 2,
									"fontsize" : 11.0,
									"numoutlets" : 1
								}

							}
, 							{
								"box" : 								{
									"maxclass" : "newobj",
									"text" : "int",
									"patching_rect" : [ 95.018692, 175.096558, 46.0, 20.0 ],
									"outlettype" : [ "int" ],
									"fontname" : "Verdana",
									"id" : "obj-3",
									"numinlets" : 2,
									"fontsize" : 11.0,
									"numoutlets" : 1
								}

							}
, 							{
								"box" : 								{
									"maxclass" : "newobj",
									"text" : "t b s",
									"patching_rect" : [ 95.018692, 122.124146, 82.0, 20.0 ],
									"outlettype" : [ "bang", "" ],
									"fontname" : "Verdana",
									"id" : "obj-4",
									"numinlets" : 1,
									"fontsize" : 11.0,
									"numoutlets" : 2
								}

							}
, 							{
								"box" : 								{
									"maxclass" : "newobj",
									"text" : "zl slice 1",
									"patching_rect" : [ 95.018692, 96.189651, 103.0, 20.0 ],
									"outlettype" : [ "", "" ],
									"fontname" : "Verdana",
									"id" : "obj-5",
									"numinlets" : 2,
									"fontsize" : 11.0,
									"numoutlets" : 2
								}

							}
, 							{
								"box" : 								{
									"maxclass" : "newobj",
									"text" : "uzi",
									"patching_rect" : [ 95.018692, 198.775864, 46.0, 20.0 ],
									"outlettype" : [ "bang", "bang", "int" ],
									"fontname" : "Verdana",
									"id" : "obj-6",
									"numinlets" : 2,
									"fontsize" : 11.0,
									"numoutlets" : 3
								}

							}
, 							{
								"box" : 								{
									"maxclass" : "newobj",
									"text" : "sprintf script new r[%i] newex %i 50 64 196619 r %s%i",
									"linecount" : 3,
									"patching_rect" : [ 86.271027, 283.834473, 126.0, 47.0 ],
									"outlettype" : [ "" ],
									"fontname" : "Verdana",
									"id" : "obj-7",
									"numinlets" : 4,
									"fontsize" : 11.0,
									"numoutlets" : 1
								}

							}
, 							{
								"box" : 								{
									"maxclass" : "newobj",
									"text" : "- 60",
									"patching_rect" : [ 121.925232, 256.7724, 41.0, 20.0 ],
									"outlettype" : [ "int" ],
									"fontname" : "Verdana",
									"id" : "obj-8",
									"numinlets" : 2,
									"fontsize" : 11.0,
									"numoutlets" : 1
								}

							}
, 							{
								"box" : 								{
									"maxclass" : "newobj",
									"text" : "* 66",
									"patching_rect" : [ 121.925232, 231.965515, 41.0, 20.0 ],
									"outlettype" : [ "int" ],
									"fontname" : "Verdana",
									"id" : "obj-9",
									"numinlets" : 2,
									"fontsize" : 11.0,
									"numoutlets" : 1
								}

							}
, 							{
								"box" : 								{
									"maxclass" : "newobj",
									"text" : "2",
									"patching_rect" : [ 178.738312, 146.906891, 25.0, 20.0 ],
									"outlettype" : [ "int" ],
									"fontname" : "Verdana",
									"id" : "obj-10",
									"numinlets" : 2,
									"fontsize" : 11.0,
									"numoutlets" : 1
								}

							}
, 							{
								"box" : 								{
									"maxclass" : "newobj",
									"text" : "sel 0",
									"patching_rect" : [ 178.738312, 122.100006, 49.0, 20.0 ],
									"outlettype" : [ "bang", "" ],
									"fontname" : "Verdana",
									"id" : "obj-11",
									"numinlets" : 2,
									"fontsize" : 11.0,
									"numoutlets" : 2
								}

							}
, 							{
								"box" : 								{
									"maxclass" : "newobj",
									"text" : "sprintf script delete out[%i]",
									"linecount" : 4,
									"patching_rect" : [ 216.644867, 271.303436, 51.0, 60.0 ],
									"outlettype" : [ "" ],
									"fontname" : "Verdana",
									"id" : "obj-12",
									"numinlets" : 1,
									"fontsize" : 11.0,
									"numoutlets" : 1
								}

							}
, 							{
								"box" : 								{
									"maxclass" : "newobj",
									"text" : "!- 17",
									"patching_rect" : [ 216.644867, 232.965515, 43.0, 20.0 ],
									"outlettype" : [ "int" ],
									"fontname" : "Verdana",
									"id" : "obj-13",
									"numinlets" : 2,
									"fontsize" : 11.0,
									"numoutlets" : 1
								}

							}
, 							{
								"box" : 								{
									"maxclass" : "newobj",
									"text" : "!- 16",
									"patching_rect" : [ 178.738312, 175.096558, 49.0, 20.0 ],
									"outlettype" : [ "int" ],
									"fontname" : "Verdana",
									"id" : "obj-14",
									"numinlets" : 2,
									"fontsize" : 11.0,
									"numoutlets" : 1
								}

							}
, 							{
								"box" : 								{
									"maxclass" : "newobj",
									"text" : "uzi",
									"patching_rect" : [ 178.738312, 198.775864, 57.0, 20.0 ],
									"outlettype" : [ "bang", "bang", "int" ],
									"fontname" : "Verdana",
									"id" : "obj-15",
									"numinlets" : 2,
									"fontsize" : 11.0,
									"numoutlets" : 3
								}

							}
, 							{
								"box" : 								{
									"maxclass" : "inlet",
									"patching_rect" : [ 95.018692, 68.0, 20.0, 20.0 ],
									"outlettype" : [ "" ],
									"id" : "obj-16",
									"numinlets" : 0,
									"numoutlets" : 1,
									"comment" : ""
								}

							}
, 							{
								"box" : 								{
									"maxclass" : "outlet",
									"patching_rect" : [ 216.644867, 343.086212, 20.0, 20.0 ],
									"id" : "obj-17",
									"numinlets" : 1,
									"numoutlets" : 0,
									"comment" : ""
								}

							}
 ],
						"lines" : [ 							{
								"patchline" : 								{
									"source" : [ "obj-7", 0 ],
									"destination" : [ "obj-17", 0 ],
									"hidden" : 0,
									"midpoints" : [ 95.771027, 338.575867, 226.144867, 338.575867 ]
								}

							}
, 							{
								"patchline" : 								{
									"source" : [ "obj-6", 2 ],
									"destination" : [ "obj-7", 3 ],
									"hidden" : 0,
									"midpoints" : [ 131.518692, 225.45517, 202.771027, 225.45517 ]
								}

							}
, 							{
								"patchline" : 								{
									"source" : [ "obj-4", 1 ],
									"destination" : [ "obj-7", 2 ],
									"hidden" : 0,
									"midpoints" : [  ]
								}

							}
, 							{
								"patchline" : 								{
									"source" : [ "obj-8", 0 ],
									"destination" : [ "obj-7", 1 ],
									"hidden" : 0,
									"midpoints" : [  ]
								}

							}
, 							{
								"patchline" : 								{
									"source" : [ "obj-6", 2 ],
									"destination" : [ "obj-7", 0 ],
									"hidden" : 0,
									"midpoints" : [ 131.518692, 225.45517, 95.771027, 225.45517 ]
								}

							}
, 							{
								"patchline" : 								{
									"source" : [ "obj-6", 2 ],
									"destination" : [ "obj-1", 0 ],
									"hidden" : 0,
									"midpoints" : [ 131.518692, 225.45517, 30.5, 225.45517 ]
								}

							}
, 							{
								"patchline" : 								{
									"source" : [ "obj-1", 0 ],
									"destination" : [ "obj-2", 0 ],
									"hidden" : 0,
									"midpoints" : [  ]
								}

							}
, 							{
								"patchline" : 								{
									"source" : [ "obj-1", 0 ],
									"destination" : [ "obj-2", 1 ],
									"hidden" : 0,
									"midpoints" : [ 30.5, 253.389648, 73.5, 253.389648 ]
								}

							}
, 							{
								"patchline" : 								{
									"source" : [ "obj-16", 0 ],
									"destination" : [ "obj-5", 0 ],
									"hidden" : 0,
									"midpoints" : [  ]
								}

							}
, 							{
								"patchline" : 								{
									"source" : [ "obj-5", 0 ],
									"destination" : [ "obj-4", 0 ],
									"hidden" : 0,
									"midpoints" : [  ]
								}

							}
, 							{
								"patchline" : 								{
									"source" : [ "obj-4", 0 ],
									"destination" : [ "obj-3", 0 ],
									"hidden" : 0,
									"midpoints" : [  ]
								}

							}
, 							{
								"patchline" : 								{
									"source" : [ "obj-3", 0 ],
									"destination" : [ "obj-6", 0 ],
									"hidden" : 0,
									"midpoints" : [  ]
								}

							}
, 							{
								"patchline" : 								{
									"source" : [ "obj-6", 2 ],
									"destination" : [ "obj-9", 0 ],
									"hidden" : 0,
									"midpoints" : [  ]
								}

							}
, 							{
								"patchline" : 								{
									"source" : [ "obj-9", 0 ],
									"destination" : [ "obj-8", 0 ],
									"hidden" : 0,
									"midpoints" : [  ]
								}

							}
, 							{
								"patchline" : 								{
									"source" : [ "obj-10", 0 ],
									"destination" : [ "obj-3", 1 ],
									"hidden" : 0,
									"midpoints" : [ 188.238312, 170.586212, 131.518692, 170.586212 ]
								}

							}
, 							{
								"patchline" : 								{
									"source" : [ "obj-11", 1 ],
									"destination" : [ "obj-3", 1 ],
									"hidden" : 0,
									"midpoints" : [ 218.238312, 170.586212, 131.518692, 170.586212 ]
								}

							}
, 							{
								"patchline" : 								{
									"source" : [ "obj-5", 1 ],
									"destination" : [ "obj-11", 0 ],
									"hidden" : 0,
									"midpoints" : [  ]
								}

							}
, 							{
								"patchline" : 								{
									"source" : [ "obj-11", 0 ],
									"destination" : [ "obj-10", 0 ],
									"hidden" : 0,
									"midpoints" : [  ]
								}

							}
, 							{
								"patchline" : 								{
									"source" : [ "obj-10", 0 ],
									"destination" : [ "obj-14", 0 ],
									"hidden" : 0,
									"midpoints" : [  ]
								}

							}
, 							{
								"patchline" : 								{
									"source" : [ "obj-11", 1 ],
									"destination" : [ "obj-14", 0 ],
									"hidden" : 0,
									"midpoints" : [ 218.238312, 170.586212, 188.238312, 170.586212 ]
								}

							}
, 							{
								"patchline" : 								{
									"source" : [ "obj-14", 0 ],
									"destination" : [ "obj-15", 0 ],
									"hidden" : 0,
									"midpoints" : [  ]
								}

							}
, 							{
								"patchline" : 								{
									"source" : [ "obj-15", 2 ],
									"destination" : [ "obj-13", 0 ],
									"hidden" : 0,
									"midpoints" : [  ]
								}

							}
, 							{
								"patchline" : 								{
									"source" : [ "obj-13", 0 ],
									"destination" : [ "obj-12", 0 ],
									"hidden" : 0,
									"midpoints" : [  ]
								}

							}
, 							{
								"patchline" : 								{
									"source" : [ "obj-2", 0 ],
									"destination" : [ "obj-17", 0 ],
									"hidden" : 0,
									"midpoints" : [ 30.5, 338.575867, 226.144867, 338.575867 ]
								}

							}
, 							{
								"patchline" : 								{
									"source" : [ "obj-12", 0 ],
									"destination" : [ "obj-17", 0 ],
									"hidden" : 0,
									"midpoints" : [  ]
								}

							}
, 							{
								"patchline" : 								{
									"source" : [ "obj-4", 0 ],
									"destination" : [ "obj-19", 0 ],
									"hidden" : 0,
									"midpoints" : [  ]
								}

							}
, 							{
								"patchline" : 								{
									"source" : [ "obj-19", 0 ],
									"destination" : [ "obj-17", 0 ],
									"hidden" : 0,
									"midpoints" : [ 14.5, 338.0, 226.144867, 338.0 ]
								}

							}
 ]
					}
,
					"saved_object_attributes" : 					{
						"fontname" : "Verdana",
						"default_fontface" : 0,
						"globalpatchername" : "",
						"default_fontname" : "Verdana",
						"fontface" : 0,
						"fontsize" : 11.0,
						"default_fontsize" : 11.0
					}

				}

			}
 ],
		"lines" : [ 			{
				"patchline" : 				{
					"source" : [ "obj-18", 0 ],
					"destination" : [ "obj-19", 0 ],
					"hidden" : 1,
					"midpoints" : [  ]
				}

			}
, 			{
				"patchline" : 				{
					"source" : [ "obj-19", 0 ],
					"destination" : [ "obj-17", 0 ],
					"hidden" : 1,
					"midpoints" : [  ]
				}

			}
 ]
	}

}
