{
	"patcher" : 	{
		"fileversion" : 1,
		"rect" : [ 20.0, 74.0, 969.0, 315.0 ],
		"bglocked" : 0,
		"defrect" : [ 20.0, 74.0, 969.0, 315.0 ],
		"openrect" : [ 0.0, 0.0, 0.0, 0.0 ],
		"openinpresentation" : 0,
		"default_fontsize" : 11.0,
		"default_fontface" : 0,
		"default_fontname" : "Verdana",
		"gridonopen" : 0,
		"gridsize" : [ 15.0, 15.0 ],
		"gridsnaponopen" : 0,
		"toolbarvisible" : 1,
		"boxanimatetime" : 200,
		"imprint" : 0,
		"metadata" : [  ],
		"boxes" : [ 			{
				"box" : 				{
					"maxclass" : "outlet",
					"varname" : "out[23]",
					"patching_rect" : [ 1567.0, 185.0, 19.0, 19.0 ],
					"numinlets" : 1,
					"id" : "obj-98",
					"numoutlets" : 0,
					"comment" : ""
				}

			}
, 			{
				"box" : 				{
					"maxclass" : "newobj",
					"varname" : "sp[23]",
					"text" : "sprintf set %s_24",
					"linecount" : 2,
					"fontname" : "Verdana",
					"patching_rect" : [ 1567.0, 90.0, 68.0, 33.0 ],
					"outlettype" : [ "" ],
					"fontsize" : 11.0,
					"numinlets" : 1,
					"id" : "obj-99",
					"numoutlets" : 1
				}

			}
, 			{
				"box" : 				{
					"maxclass" : "newobj",
					"varname" : "s[23]",
					"text" : "receive~ #1_24",
					"linecount" : 2,
					"fontname" : "Verdana",
					"patching_rect" : [ 1567.0, 142.0, 64.0, 33.0 ],
					"outlettype" : [ "signal" ],
					"fontsize" : 11.0,
					"numinlets" : 1,
					"id" : "obj-100",
					"numoutlets" : 1
				}

			}
, 			{
				"box" : 				{
					"maxclass" : "outlet",
					"varname" : "out[22]",
					"patching_rect" : [ 1501.0, 185.0, 19.0, 19.0 ],
					"numinlets" : 1,
					"id" : "obj-95",
					"numoutlets" : 0,
					"comment" : ""
				}

			}
, 			{
				"box" : 				{
					"maxclass" : "newobj",
					"varname" : "sp[22]",
					"text" : "sprintf set %s_23",
					"linecount" : 2,
					"fontname" : "Verdana",
					"patching_rect" : [ 1501.0, 90.0, 68.0, 33.0 ],
					"outlettype" : [ "" ],
					"fontsize" : 11.0,
					"numinlets" : 1,
					"id" : "obj-96",
					"numoutlets" : 1
				}

			}
, 			{
				"box" : 				{
					"maxclass" : "newobj",
					"varname" : "s[22]",
					"text" : "receive~ #1_23",
					"linecount" : 2,
					"fontname" : "Verdana",
					"patching_rect" : [ 1501.0, 142.0, 64.0, 33.0 ],
					"outlettype" : [ "signal" ],
					"fontsize" : 11.0,
					"numinlets" : 1,
					"id" : "obj-97",
					"numoutlets" : 1
				}

			}
, 			{
				"box" : 				{
					"maxclass" : "outlet",
					"varname" : "out[21]",
					"patching_rect" : [ 1435.0, 185.0, 19.0, 19.0 ],
					"numinlets" : 1,
					"id" : "obj-92",
					"numoutlets" : 0,
					"comment" : ""
				}

			}
, 			{
				"box" : 				{
					"maxclass" : "newobj",
					"varname" : "sp[21]",
					"text" : "sprintf set %s_22",
					"linecount" : 2,
					"fontname" : "Verdana",
					"patching_rect" : [ 1435.0, 90.0, 68.0, 33.0 ],
					"outlettype" : [ "" ],
					"fontsize" : 11.0,
					"numinlets" : 1,
					"id" : "obj-93",
					"numoutlets" : 1
				}

			}
, 			{
				"box" : 				{
					"maxclass" : "newobj",
					"varname" : "s[21]",
					"text" : "receive~ #1_22",
					"linecount" : 2,
					"fontname" : "Verdana",
					"patching_rect" : [ 1435.0, 142.0, 64.0, 33.0 ],
					"outlettype" : [ "signal" ],
					"fontsize" : 11.0,
					"numinlets" : 1,
					"id" : "obj-94",
					"numoutlets" : 1
				}

			}
, 			{
				"box" : 				{
					"maxclass" : "outlet",
					"varname" : "out[20]",
					"patching_rect" : [ 1369.0, 185.0, 19.0, 19.0 ],
					"numinlets" : 1,
					"id" : "obj-89",
					"numoutlets" : 0,
					"comment" : ""
				}

			}
, 			{
				"box" : 				{
					"maxclass" : "newobj",
					"varname" : "sp[20]",
					"text" : "sprintf set %s_21",
					"linecount" : 2,
					"fontname" : "Verdana",
					"patching_rect" : [ 1369.0, 90.0, 68.0, 33.0 ],
					"outlettype" : [ "" ],
					"fontsize" : 11.0,
					"numinlets" : 1,
					"id" : "obj-90",
					"numoutlets" : 1
				}

			}
, 			{
				"box" : 				{
					"maxclass" : "newobj",
					"varname" : "s[20]",
					"text" : "receive~ #1_21",
					"linecount" : 2,
					"fontname" : "Verdana",
					"patching_rect" : [ 1369.0, 142.0, 64.0, 33.0 ],
					"outlettype" : [ "signal" ],
					"fontsize" : 11.0,
					"numinlets" : 1,
					"id" : "obj-91",
					"numoutlets" : 1
				}

			}
, 			{
				"box" : 				{
					"maxclass" : "outlet",
					"varname" : "out[19]",
					"patching_rect" : [ 1303.0, 185.0, 19.0, 19.0 ],
					"numinlets" : 1,
					"id" : "obj-86",
					"numoutlets" : 0,
					"comment" : ""
				}

			}
, 			{
				"box" : 				{
					"maxclass" : "newobj",
					"varname" : "sp[19]",
					"text" : "sprintf set %s_20",
					"linecount" : 2,
					"fontname" : "Verdana",
					"patching_rect" : [ 1303.0, 90.0, 68.0, 33.0 ],
					"outlettype" : [ "" ],
					"fontsize" : 11.0,
					"numinlets" : 1,
					"id" : "obj-87",
					"numoutlets" : 1
				}

			}
, 			{
				"box" : 				{
					"maxclass" : "newobj",
					"varname" : "s[19]",
					"text" : "receive~ #1_20",
					"linecount" : 2,
					"fontname" : "Verdana",
					"patching_rect" : [ 1303.0, 142.0, 64.0, 33.0 ],
					"outlettype" : [ "signal" ],
					"fontsize" : 11.0,
					"numinlets" : 1,
					"id" : "obj-88",
					"numoutlets" : 1
				}

			}
, 			{
				"box" : 				{
					"maxclass" : "outlet",
					"varname" : "out[18]",
					"patching_rect" : [ 1237.0, 185.0, 19.0, 19.0 ],
					"numinlets" : 1,
					"id" : "obj-83",
					"numoutlets" : 0,
					"comment" : ""
				}

			}
, 			{
				"box" : 				{
					"maxclass" : "newobj",
					"varname" : "sp[18]",
					"text" : "sprintf set %s_19",
					"linecount" : 2,
					"fontname" : "Verdana",
					"patching_rect" : [ 1237.0, 90.0, 68.0, 33.0 ],
					"outlettype" : [ "" ],
					"fontsize" : 11.0,
					"numinlets" : 1,
					"id" : "obj-84",
					"numoutlets" : 1
				}

			}
, 			{
				"box" : 				{
					"maxclass" : "newobj",
					"varname" : "s[18]",
					"text" : "receive~ #1_19",
					"linecount" : 2,
					"fontname" : "Verdana",
					"patching_rect" : [ 1237.0, 142.0, 64.0, 33.0 ],
					"outlettype" : [ "signal" ],
					"fontsize" : 11.0,
					"numinlets" : 1,
					"id" : "obj-85",
					"numoutlets" : 1
				}

			}
, 			{
				"box" : 				{
					"maxclass" : "outlet",
					"varname" : "out[17]",
					"patching_rect" : [ 1171.0, 185.0, 19.0, 19.0 ],
					"numinlets" : 1,
					"id" : "obj-80",
					"numoutlets" : 0,
					"comment" : ""
				}

			}
, 			{
				"box" : 				{
					"maxclass" : "newobj",
					"varname" : "sp[17]",
					"text" : "sprintf set %s_18",
					"linecount" : 2,
					"fontname" : "Verdana",
					"patching_rect" : [ 1171.0, 90.0, 68.0, 33.0 ],
					"outlettype" : [ "" ],
					"fontsize" : 11.0,
					"numinlets" : 1,
					"id" : "obj-81",
					"numoutlets" : 1
				}

			}
, 			{
				"box" : 				{
					"maxclass" : "newobj",
					"varname" : "s[17]",
					"text" : "receive~ #1_18",
					"linecount" : 2,
					"fontname" : "Verdana",
					"patching_rect" : [ 1171.0, 142.0, 64.0, 33.0 ],
					"outlettype" : [ "signal" ],
					"fontsize" : 11.0,
					"numinlets" : 1,
					"id" : "obj-82",
					"numoutlets" : 1
				}

			}
, 			{
				"box" : 				{
					"maxclass" : "outlet",
					"varname" : "out[16]",
					"patching_rect" : [ 1105.0, 185.0, 19.0, 19.0 ],
					"numinlets" : 1,
					"id" : "obj-77",
					"numoutlets" : 0,
					"comment" : ""
				}

			}
, 			{
				"box" : 				{
					"maxclass" : "newobj",
					"varname" : "sp[16]",
					"text" : "sprintf set %s_17",
					"linecount" : 2,
					"fontname" : "Verdana",
					"patching_rect" : [ 1105.0, 90.0, 68.0, 33.0 ],
					"outlettype" : [ "" ],
					"fontsize" : 11.0,
					"numinlets" : 1,
					"id" : "obj-78",
					"numoutlets" : 1
				}

			}
, 			{
				"box" : 				{
					"maxclass" : "newobj",
					"varname" : "s[16]",
					"text" : "receive~ #1_17",
					"linecount" : 2,
					"fontname" : "Verdana",
					"patching_rect" : [ 1105.0, 142.0, 64.0, 33.0 ],
					"outlettype" : [ "signal" ],
					"fontsize" : 11.0,
					"numinlets" : 1,
					"id" : "obj-79",
					"numoutlets" : 1
				}

			}
, 			{
				"box" : 				{
					"maxclass" : "outlet",
					"varname" : "out[15]",
					"patching_rect" : [ 1039.0, 185.0, 19.0, 19.0 ],
					"numinlets" : 1,
					"id" : "obj-1",
					"numoutlets" : 0,
					"comment" : ""
				}

			}
, 			{
				"box" : 				{
					"maxclass" : "outlet",
					"varname" : "out[14]",
					"patching_rect" : [ 973.0, 185.0, 19.0, 19.0 ],
					"numinlets" : 1,
					"id" : "obj-2",
					"numoutlets" : 0,
					"comment" : ""
				}

			}
, 			{
				"box" : 				{
					"maxclass" : "outlet",
					"varname" : "out[13]",
					"patching_rect" : [ 907.0, 185.0, 19.0, 19.0 ],
					"numinlets" : 1,
					"id" : "obj-3",
					"numoutlets" : 0,
					"comment" : ""
				}

			}
, 			{
				"box" : 				{
					"maxclass" : "outlet",
					"varname" : "out[12]",
					"patching_rect" : [ 841.0, 185.0, 19.0, 19.0 ],
					"numinlets" : 1,
					"id" : "obj-4",
					"numoutlets" : 0,
					"comment" : ""
				}

			}
, 			{
				"box" : 				{
					"maxclass" : "outlet",
					"varname" : "out[11]",
					"patching_rect" : [ 775.0, 185.0, 19.0, 19.0 ],
					"numinlets" : 1,
					"id" : "obj-5",
					"numoutlets" : 0,
					"comment" : ""
				}

			}
, 			{
				"box" : 				{
					"maxclass" : "outlet",
					"varname" : "out[10]",
					"patching_rect" : [ 709.0, 185.0, 19.0, 19.0 ],
					"numinlets" : 1,
					"id" : "obj-6",
					"numoutlets" : 0,
					"comment" : ""
				}

			}
, 			{
				"box" : 				{
					"maxclass" : "outlet",
					"varname" : "out[9]",
					"patching_rect" : [ 643.0, 185.0, 19.0, 19.0 ],
					"numinlets" : 1,
					"id" : "obj-7",
					"numoutlets" : 0,
					"comment" : ""
				}

			}
, 			{
				"box" : 				{
					"maxclass" : "outlet",
					"varname" : "out[8]",
					"patching_rect" : [ 577.0, 185.0, 19.0, 19.0 ],
					"numinlets" : 1,
					"id" : "obj-8",
					"numoutlets" : 0,
					"comment" : ""
				}

			}
, 			{
				"box" : 				{
					"maxclass" : "outlet",
					"varname" : "out[7]",
					"patching_rect" : [ 511.0, 185.0, 19.0, 19.0 ],
					"numinlets" : 1,
					"id" : "obj-9",
					"numoutlets" : 0,
					"comment" : ""
				}

			}
, 			{
				"box" : 				{
					"maxclass" : "outlet",
					"varname" : "out[6]",
					"patching_rect" : [ 445.0, 185.0, 19.0, 19.0 ],
					"numinlets" : 1,
					"id" : "obj-10",
					"numoutlets" : 0,
					"comment" : ""
				}

			}
, 			{
				"box" : 				{
					"maxclass" : "outlet",
					"varname" : "out[5]",
					"patching_rect" : [ 379.0, 185.0, 19.0, 19.0 ],
					"numinlets" : 1,
					"id" : "obj-11",
					"numoutlets" : 0,
					"comment" : ""
				}

			}
, 			{
				"box" : 				{
					"maxclass" : "outlet",
					"varname" : "out[4]",
					"patching_rect" : [ 313.0, 185.0, 19.0, 19.0 ],
					"numinlets" : 1,
					"id" : "obj-12",
					"numoutlets" : 0,
					"comment" : ""
				}

			}
, 			{
				"box" : 				{
					"maxclass" : "outlet",
					"varname" : "out[3]",
					"patching_rect" : [ 247.0, 185.0, 19.0, 19.0 ],
					"numinlets" : 1,
					"id" : "obj-13",
					"numoutlets" : 0,
					"comment" : ""
				}

			}
, 			{
				"box" : 				{
					"maxclass" : "outlet",
					"varname" : "out[2]",
					"patching_rect" : [ 181.0, 185.0, 19.0, 19.0 ],
					"numinlets" : 1,
					"id" : "obj-14",
					"numoutlets" : 0,
					"comment" : ""
				}

			}
, 			{
				"box" : 				{
					"maxclass" : "outlet",
					"varname" : "out[1]",
					"patching_rect" : [ 115.0, 185.0, 19.0, 19.0 ],
					"numinlets" : 1,
					"id" : "obj-15",
					"numoutlets" : 0,
					"comment" : ""
				}

			}
, 			{
				"box" : 				{
					"maxclass" : "outlet",
					"varname" : "out[0]",
					"patching_rect" : [ 49.0, 185.0, 19.0, 19.0 ],
					"numinlets" : 1,
					"id" : "obj-16",
					"numoutlets" : 0,
					"comment" : ""
				}

			}
, 			{
				"box" : 				{
					"maxclass" : "newobj",
					"text" : "thispatcher",
					"fontname" : "Verdana",
					"patching_rect" : [ 71.0, 58.0, 90.0, 20.0 ],
					"outlettype" : [ "", "" ],
					"fontsize" : 11.0,
					"hidden" : 1,
					"numinlets" : 1,
					"id" : "obj-17",
					"numoutlets" : 2,
					"save" : [ "#N", "thispatcher", ";", "#Q", "end", ";" ]
				}

			}
, 			{
				"box" : 				{
					"maxclass" : "newobj",
					"text" : "p Scripts",
					"fontname" : "Verdana",
					"patching_rect" : [ 71.0, 34.0, 90.0, 20.0 ],
					"outlettype" : [ "" ],
					"fontsize" : 11.0,
					"hidden" : 1,
					"numinlets" : 0,
					"id" : "obj-19",
					"numoutlets" : 1,
					"patcher" : 					{
						"fileversion" : 1,
						"rect" : [ 10.0, 59.0, 600.0, 426.0 ],
						"bglocked" : 0,
						"defrect" : [ 10.0, 59.0, 600.0, 426.0 ],
						"openrect" : [ 0.0, 0.0, 0.0, 0.0 ],
						"openinpresentation" : 0,
						"default_fontsize" : 11.0,
						"default_fontface" : 0,
						"default_fontname" : "Verdana",
						"gridonopen" : 0,
						"gridsize" : [ 15.0, 15.0 ],
						"gridsnaponopen" : 0,
						"toolbarvisible" : 1,
						"boxanimatetime" : 200,
						"imprint" : 0,
						"metadata" : [  ],
						"boxes" : [ 							{
								"box" : 								{
									"maxclass" : "newobj",
									"text" : "deferlow",
									"fontname" : "Verdana",
									"patching_rect" : [ 96.0, 39.0, 95.0, 20.0 ],
									"outlettype" : [ "" ],
									"fontsize" : 11.0,
									"numinlets" : 1,
									"id" : "obj-4",
									"numoutlets" : 1
								}

							}
, 							{
								"box" : 								{
									"maxclass" : "newobj",
									"text" : "t 1",
									"fontname" : "Verdana",
									"patching_rect" : [ 96.0, 111.0, 28.0, 20.0 ],
									"outlettype" : [ "int" ],
									"fontsize" : 11.0,
									"numinlets" : 1,
									"id" : "obj-11",
									"numoutlets" : 1
								}

							}
, 							{
								"box" : 								{
									"maxclass" : "newobj",
									"text" : "sel 0",
									"fontname" : "Verdana",
									"patching_rect" : [ 96.0, 86.0, 42.0, 20.0 ],
									"outlettype" : [ "bang", "" ],
									"fontsize" : 11.0,
									"numinlets" : 2,
									"id" : "obj-2",
									"numoutlets" : 2
								}

							}
, 							{
								"box" : 								{
									"maxclass" : "newobj",
									"text" : "loadmess #2",
									"fontname" : "Verdana",
									"patching_rect" : [ 96.0, 16.0, 95.0, 20.0 ],
									"outlettype" : [ "" ],
									"fontsize" : 11.0,
									"numinlets" : 1,
									"id" : "obj-1",
									"numoutlets" : 1
								}

							}
, 							{
								"box" : 								{
									"maxclass" : "newobj",
									"text" : "js grandgate.js",
									"fontname" : "Verdana",
									"patching_rect" : [ 96.0, 62.0, 95.0, 20.0 ],
									"outlettype" : [ "", "" ],
									"fontsize" : 11.0,
									"numinlets" : 1,
									"id" : "obj-13",
									"numoutlets" : 2
								}

							}
, 							{
								"box" : 								{
									"maxclass" : "newobj",
									"text" : "!- 24",
									"fontname" : "Verdana",
									"patching_rect" : [ 95.636368, 140.743942, 48.0, 20.0 ],
									"outlettype" : [ "int" ],
									"fontsize" : 11.0,
									"numinlets" : 2,
									"id" : "obj-3",
									"numoutlets" : 1
								}

							}
, 							{
								"box" : 								{
									"maxclass" : "newobj",
									"text" : "sprintf script delete out[%i]",
									"linecount" : 4,
									"fontname" : "Verdana",
									"patching_rect" : [ 182.013992, 219.830444, 51.0, 60.0 ],
									"outlettype" : [ "" ],
									"fontsize" : 11.0,
									"numinlets" : 1,
									"id" : "obj-5",
									"numoutlets" : 1
								}

							}
, 							{
								"box" : 								{
									"maxclass" : "newobj",
									"text" : "sprintf script delete s[%i]",
									"linecount" : 4,
									"fontname" : "Verdana",
									"patching_rect" : [ 72.0, 219.830444, 51.0, 60.0 ],
									"outlettype" : [ "" ],
									"fontsize" : 11.0,
									"numinlets" : 1,
									"id" : "obj-6",
									"numoutlets" : 1
								}

							}
, 							{
								"box" : 								{
									"maxclass" : "newobj",
									"text" : "sprintf script delete sp[%i]",
									"linecount" : 4,
									"fontname" : "Verdana",
									"patching_rect" : [ 127.006996, 219.830444, 51.0, 60.0 ],
									"outlettype" : [ "" ],
									"fontsize" : 11.0,
									"numinlets" : 1,
									"id" : "obj-7",
									"numoutlets" : 1
								}

							}
, 							{
								"box" : 								{
									"maxclass" : "newobj",
									"text" : "!- 24",
									"fontname" : "Verdana",
									"patching_rect" : [ 127.006996, 189.273346, 42.0, 20.0 ],
									"outlettype" : [ "int" ],
									"fontsize" : 11.0,
									"numinlets" : 2,
									"id" : "obj-8",
									"numoutlets" : 1
								}

							}
, 							{
								"box" : 								{
									"maxclass" : "newobj",
									"text" : "uzi",
									"fontname" : "Verdana",
									"patching_rect" : [ 95.916084, 164.716263, 50.0, 20.0 ],
									"outlettype" : [ "bang", "bang", "int" ],
									"fontsize" : 11.0,
									"numinlets" : 2,
									"id" : "obj-10",
									"numoutlets" : 3
								}

							}
, 							{
								"box" : 								{
									"maxclass" : "outlet",
									"patching_rect" : [ 127.006996, 292.065735, 19.0, 19.0 ],
									"numinlets" : 1,
									"id" : "obj-12",
									"numoutlets" : 0,
									"comment" : ""
								}

							}
 ],
						"lines" : [ 							{
								"patchline" : 								{
									"source" : [ "obj-2", 0 ],
									"destination" : [ "obj-11", 0 ],
									"hidden" : 0,
									"midpoints" : [  ]
								}

							}
, 							{
								"patchline" : 								{
									"source" : [ "obj-11", 0 ],
									"destination" : [ "obj-3", 0 ],
									"hidden" : 0,
									"midpoints" : [  ]
								}

							}
, 							{
								"patchline" : 								{
									"source" : [ "obj-8", 0 ],
									"destination" : [ "obj-6", 0 ],
									"hidden" : 0,
									"midpoints" : [ 136.506989, 215.581329, 81.5, 215.581329 ]
								}

							}
, 							{
								"patchline" : 								{
									"source" : [ "obj-10", 2 ],
									"destination" : [ "obj-8", 0 ],
									"hidden" : 0,
									"midpoints" : [  ]
								}

							}
, 							{
								"patchline" : 								{
									"source" : [ "obj-8", 0 ],
									"destination" : [ "obj-7", 0 ],
									"hidden" : 0,
									"midpoints" : [  ]
								}

							}
, 							{
								"patchline" : 								{
									"source" : [ "obj-8", 0 ],
									"destination" : [ "obj-5", 0 ],
									"hidden" : 0,
									"midpoints" : [ 136.506989, 215.581329, 191.513992, 215.581329 ]
								}

							}
, 							{
								"patchline" : 								{
									"source" : [ "obj-3", 0 ],
									"destination" : [ "obj-10", 0 ],
									"hidden" : 0,
									"midpoints" : [  ]
								}

							}
, 							{
								"patchline" : 								{
									"source" : [ "obj-2", 1 ],
									"destination" : [ "obj-3", 0 ],
									"hidden" : 0,
									"midpoints" : [ 128.5, 136.0, 105.136368, 136.0 ]
								}

							}
, 							{
								"patchline" : 								{
									"source" : [ "obj-5", 0 ],
									"destination" : [ "obj-12", 0 ],
									"hidden" : 0,
									"midpoints" : [ 191.513992, 281.442902, 136.506989, 281.442902 ]
								}

							}
, 							{
								"patchline" : 								{
									"source" : [ "obj-6", 0 ],
									"destination" : [ "obj-12", 0 ],
									"hidden" : 0,
									"midpoints" : [ 81.5, 281.442902, 136.506989, 281.442902 ]
								}

							}
, 							{
								"patchline" : 								{
									"source" : [ "obj-7", 0 ],
									"destination" : [ "obj-12", 0 ],
									"hidden" : 0,
									"midpoints" : [  ]
								}

							}
, 							{
								"patchline" : 								{
									"source" : [ "obj-13", 0 ],
									"destination" : [ "obj-2", 0 ],
									"hidden" : 0,
									"midpoints" : [  ]
								}

							}
, 							{
								"patchline" : 								{
									"source" : [ "obj-1", 0 ],
									"destination" : [ "obj-4", 0 ],
									"hidden" : 0,
									"midpoints" : [  ]
								}

							}
, 							{
								"patchline" : 								{
									"source" : [ "obj-4", 0 ],
									"destination" : [ "obj-13", 0 ],
									"hidden" : 0,
									"midpoints" : [  ]
								}

							}
 ]
					}
,
					"saved_object_attributes" : 					{
						"fontname" : "Verdana",
						"default_fontname" : "Verdana",
						"globalpatchername" : "",
						"default_fontsize" : 11.0,
						"fontface" : 0,
						"fontsize" : 11.0,
						"default_fontface" : 0
					}

				}

			}
, 			{
				"box" : 				{
					"maxclass" : "newobj",
					"varname" : "sp[15]",
					"text" : "sprintf set %s_16",
					"linecount" : 2,
					"fontname" : "Verdana",
					"patching_rect" : [ 1039.0, 90.0, 68.0, 33.0 ],
					"outlettype" : [ "" ],
					"fontsize" : 11.0,
					"numinlets" : 1,
					"id" : "obj-20",
					"numoutlets" : 1
				}

			}
, 			{
				"box" : 				{
					"maxclass" : "newobj",
					"varname" : "s[15]",
					"text" : "receive~ #1_16",
					"linecount" : 2,
					"fontname" : "Verdana",
					"patching_rect" : [ 1039.0, 142.0, 64.0, 33.0 ],
					"outlettype" : [ "signal" ],
					"fontsize" : 11.0,
					"numinlets" : 1,
					"id" : "obj-21",
					"numoutlets" : 1
				}

			}
, 			{
				"box" : 				{
					"maxclass" : "newobj",
					"varname" : "sp[14]",
					"text" : "sprintf set %s_15",
					"linecount" : 2,
					"fontname" : "Verdana",
					"patching_rect" : [ 973.0, 90.0, 68.0, 33.0 ],
					"outlettype" : [ "" ],
					"fontsize" : 11.0,
					"numinlets" : 1,
					"id" : "obj-22",
					"numoutlets" : 1
				}

			}
, 			{
				"box" : 				{
					"maxclass" : "newobj",
					"varname" : "s[14]",
					"text" : "receive~ #1_15",
					"linecount" : 2,
					"fontname" : "Verdana",
					"patching_rect" : [ 973.0, 142.0, 64.0, 33.0 ],
					"outlettype" : [ "signal" ],
					"fontsize" : 11.0,
					"numinlets" : 1,
					"id" : "obj-23",
					"numoutlets" : 1
				}

			}
, 			{
				"box" : 				{
					"maxclass" : "newobj",
					"varname" : "sp[13]",
					"text" : "sprintf set %s_14",
					"linecount" : 2,
					"fontname" : "Verdana",
					"patching_rect" : [ 907.0, 90.0, 68.0, 33.0 ],
					"outlettype" : [ "" ],
					"fontsize" : 11.0,
					"numinlets" : 1,
					"id" : "obj-24",
					"numoutlets" : 1
				}

			}
, 			{
				"box" : 				{
					"maxclass" : "newobj",
					"varname" : "s[13]",
					"text" : "receive~ #1_14",
					"linecount" : 2,
					"fontname" : "Verdana",
					"patching_rect" : [ 907.0, 142.0, 64.0, 33.0 ],
					"outlettype" : [ "signal" ],
					"fontsize" : 11.0,
					"numinlets" : 1,
					"id" : "obj-25",
					"numoutlets" : 1
				}

			}
, 			{
				"box" : 				{
					"maxclass" : "newobj",
					"varname" : "sp[12]",
					"text" : "sprintf set %s_13",
					"linecount" : 2,
					"fontname" : "Verdana",
					"patching_rect" : [ 841.0, 90.0, 68.0, 33.0 ],
					"outlettype" : [ "" ],
					"fontsize" : 11.0,
					"numinlets" : 1,
					"id" : "obj-26",
					"numoutlets" : 1
				}

			}
, 			{
				"box" : 				{
					"maxclass" : "newobj",
					"varname" : "s[12]",
					"text" : "receive~ #1_13",
					"linecount" : 2,
					"fontname" : "Verdana",
					"patching_rect" : [ 841.0, 142.0, 64.0, 33.0 ],
					"outlettype" : [ "signal" ],
					"fontsize" : 11.0,
					"numinlets" : 1,
					"id" : "obj-27",
					"numoutlets" : 1
				}

			}
, 			{
				"box" : 				{
					"maxclass" : "newobj",
					"varname" : "sp[11]",
					"text" : "sprintf set %s_12",
					"linecount" : 2,
					"fontname" : "Verdana",
					"patching_rect" : [ 775.0, 90.0, 68.0, 33.0 ],
					"outlettype" : [ "" ],
					"fontsize" : 11.0,
					"numinlets" : 1,
					"id" : "obj-28",
					"numoutlets" : 1
				}

			}
, 			{
				"box" : 				{
					"maxclass" : "newobj",
					"varname" : "s[11]",
					"text" : "receive~ #1_12",
					"linecount" : 2,
					"fontname" : "Verdana",
					"patching_rect" : [ 775.0, 142.0, 64.0, 33.0 ],
					"outlettype" : [ "signal" ],
					"fontsize" : 11.0,
					"numinlets" : 1,
					"id" : "obj-29",
					"numoutlets" : 1
				}

			}
, 			{
				"box" : 				{
					"maxclass" : "newobj",
					"varname" : "sp[10]",
					"text" : "sprintf set %s_11",
					"linecount" : 2,
					"fontname" : "Verdana",
					"patching_rect" : [ 709.0, 90.0, 68.0, 33.0 ],
					"outlettype" : [ "" ],
					"fontsize" : 11.0,
					"numinlets" : 1,
					"id" : "obj-30",
					"numoutlets" : 1
				}

			}
, 			{
				"box" : 				{
					"maxclass" : "newobj",
					"varname" : "s[10]",
					"text" : "receive~ #1_11",
					"linecount" : 2,
					"fontname" : "Verdana",
					"patching_rect" : [ 709.0, 142.0, 64.0, 33.0 ],
					"outlettype" : [ "signal" ],
					"fontsize" : 11.0,
					"numinlets" : 1,
					"id" : "obj-31",
					"numoutlets" : 1
				}

			}
, 			{
				"box" : 				{
					"maxclass" : "newobj",
					"varname" : "sp[9]",
					"text" : "sprintf set %s_10",
					"linecount" : 2,
					"fontname" : "Verdana",
					"patching_rect" : [ 643.0, 90.0, 68.0, 33.0 ],
					"outlettype" : [ "" ],
					"fontsize" : 11.0,
					"numinlets" : 1,
					"id" : "obj-32",
					"numoutlets" : 1
				}

			}
, 			{
				"box" : 				{
					"maxclass" : "newobj",
					"varname" : "s[9]",
					"text" : "receive~ #1_10",
					"linecount" : 2,
					"fontname" : "Verdana",
					"patching_rect" : [ 643.0, 142.0, 64.0, 33.0 ],
					"outlettype" : [ "signal" ],
					"fontsize" : 11.0,
					"numinlets" : 1,
					"id" : "obj-33",
					"numoutlets" : 1
				}

			}
, 			{
				"box" : 				{
					"maxclass" : "newobj",
					"varname" : "sp[8]",
					"text" : "sprintf set %s_9",
					"linecount" : 2,
					"fontname" : "Verdana",
					"patching_rect" : [ 577.0, 90.0, 68.0, 33.0 ],
					"outlettype" : [ "" ],
					"fontsize" : 11.0,
					"numinlets" : 1,
					"id" : "obj-34",
					"numoutlets" : 1
				}

			}
, 			{
				"box" : 				{
					"maxclass" : "newobj",
					"varname" : "s[8]",
					"text" : "receive~ #1_9",
					"linecount" : 2,
					"fontname" : "Verdana",
					"patching_rect" : [ 577.0, 142.0, 64.0, 33.0 ],
					"outlettype" : [ "signal" ],
					"fontsize" : 11.0,
					"numinlets" : 1,
					"id" : "obj-35",
					"numoutlets" : 1
				}

			}
, 			{
				"box" : 				{
					"maxclass" : "newobj",
					"varname" : "sp[7]",
					"text" : "sprintf set %s_8",
					"linecount" : 2,
					"fontname" : "Verdana",
					"patching_rect" : [ 511.0, 90.0, 68.0, 33.0 ],
					"outlettype" : [ "" ],
					"fontsize" : 11.0,
					"numinlets" : 1,
					"id" : "obj-36",
					"numoutlets" : 1
				}

			}
, 			{
				"box" : 				{
					"maxclass" : "newobj",
					"varname" : "s[7]",
					"text" : "receive~ #1_8",
					"linecount" : 2,
					"fontname" : "Verdana",
					"patching_rect" : [ 511.0, 142.0, 64.0, 33.0 ],
					"outlettype" : [ "signal" ],
					"fontsize" : 11.0,
					"numinlets" : 1,
					"id" : "obj-37",
					"numoutlets" : 1
				}

			}
, 			{
				"box" : 				{
					"maxclass" : "newobj",
					"varname" : "sp[6]",
					"text" : "sprintf set %s_7",
					"linecount" : 2,
					"fontname" : "Verdana",
					"patching_rect" : [ 445.0, 90.0, 68.0, 33.0 ],
					"outlettype" : [ "" ],
					"fontsize" : 11.0,
					"numinlets" : 1,
					"id" : "obj-38",
					"numoutlets" : 1
				}

			}
, 			{
				"box" : 				{
					"maxclass" : "newobj",
					"varname" : "s[6]",
					"text" : "receive~ #1_7",
					"linecount" : 2,
					"fontname" : "Verdana",
					"patching_rect" : [ 445.0, 142.0, 64.0, 33.0 ],
					"outlettype" : [ "signal" ],
					"fontsize" : 11.0,
					"numinlets" : 1,
					"id" : "obj-39",
					"numoutlets" : 1
				}

			}
, 			{
				"box" : 				{
					"maxclass" : "newobj",
					"varname" : "sp[5]",
					"text" : "sprintf set %s_6",
					"linecount" : 2,
					"fontname" : "Verdana",
					"patching_rect" : [ 379.0, 90.0, 68.0, 33.0 ],
					"outlettype" : [ "" ],
					"fontsize" : 11.0,
					"numinlets" : 1,
					"id" : "obj-40",
					"numoutlets" : 1
				}

			}
, 			{
				"box" : 				{
					"maxclass" : "newobj",
					"varname" : "s[5]",
					"text" : "receive~ #1_6",
					"linecount" : 2,
					"fontname" : "Verdana",
					"patching_rect" : [ 379.0, 142.0, 64.0, 33.0 ],
					"outlettype" : [ "signal" ],
					"fontsize" : 11.0,
					"numinlets" : 1,
					"id" : "obj-41",
					"numoutlets" : 1
				}

			}
, 			{
				"box" : 				{
					"maxclass" : "newobj",
					"varname" : "sp[4]",
					"text" : "sprintf set %s_5",
					"linecount" : 2,
					"fontname" : "Verdana",
					"patching_rect" : [ 313.0, 90.0, 68.0, 33.0 ],
					"outlettype" : [ "" ],
					"fontsize" : 11.0,
					"numinlets" : 1,
					"id" : "obj-42",
					"numoutlets" : 1
				}

			}
, 			{
				"box" : 				{
					"maxclass" : "newobj",
					"varname" : "s[4]",
					"text" : "receive~ #1_5",
					"linecount" : 2,
					"fontname" : "Verdana",
					"patching_rect" : [ 313.0, 142.0, 64.0, 33.0 ],
					"outlettype" : [ "signal" ],
					"fontsize" : 11.0,
					"numinlets" : 1,
					"id" : "obj-43",
					"numoutlets" : 1
				}

			}
, 			{
				"box" : 				{
					"maxclass" : "newobj",
					"varname" : "sp[3]",
					"text" : "sprintf set %s_4",
					"linecount" : 2,
					"fontname" : "Verdana",
					"patching_rect" : [ 247.0, 90.0, 68.0, 33.0 ],
					"outlettype" : [ "" ],
					"fontsize" : 11.0,
					"numinlets" : 1,
					"id" : "obj-44",
					"numoutlets" : 1
				}

			}
, 			{
				"box" : 				{
					"maxclass" : "newobj",
					"varname" : "s[3]",
					"text" : "receive~ #1_4",
					"linecount" : 2,
					"fontname" : "Verdana",
					"patching_rect" : [ 247.0, 142.0, 64.0, 33.0 ],
					"outlettype" : [ "signal" ],
					"fontsize" : 11.0,
					"numinlets" : 1,
					"id" : "obj-45",
					"numoutlets" : 1
				}

			}
, 			{
				"box" : 				{
					"maxclass" : "newobj",
					"varname" : "sp[2]",
					"text" : "sprintf set %s_3",
					"linecount" : 2,
					"fontname" : "Verdana",
					"patching_rect" : [ 181.0, 90.0, 68.0, 33.0 ],
					"outlettype" : [ "" ],
					"fontsize" : 11.0,
					"numinlets" : 1,
					"id" : "obj-46",
					"numoutlets" : 1
				}

			}
, 			{
				"box" : 				{
					"maxclass" : "newobj",
					"varname" : "s[2]",
					"text" : "receive~ #1_3",
					"linecount" : 2,
					"fontname" : "Verdana",
					"patching_rect" : [ 181.0, 142.0, 64.0, 33.0 ],
					"outlettype" : [ "signal" ],
					"fontsize" : 11.0,
					"numinlets" : 1,
					"id" : "obj-47",
					"numoutlets" : 1
				}

			}
, 			{
				"box" : 				{
					"maxclass" : "newobj",
					"varname" : "sp[1]",
					"text" : "sprintf set %s_2",
					"linecount" : 2,
					"fontname" : "Verdana",
					"patching_rect" : [ 115.0, 90.0, 68.0, 33.0 ],
					"outlettype" : [ "" ],
					"fontsize" : 11.0,
					"numinlets" : 1,
					"id" : "obj-48",
					"numoutlets" : 1
				}

			}
, 			{
				"box" : 				{
					"maxclass" : "newobj",
					"varname" : "s[1]",
					"text" : "receive~ #1_2",
					"linecount" : 2,
					"fontname" : "Verdana",
					"patching_rect" : [ 115.0, 142.0, 64.0, 33.0 ],
					"outlettype" : [ "signal" ],
					"fontsize" : 11.0,
					"numinlets" : 1,
					"id" : "obj-49",
					"numoutlets" : 1
				}

			}
, 			{
				"box" : 				{
					"maxclass" : "newobj",
					"varname" : "sp[0]",
					"text" : "prepend set",
					"linecount" : 2,
					"fontname" : "Verdana",
					"patching_rect" : [ 61.0, 90.0, 58.0, 33.0 ],
					"outlettype" : [ "" ],
					"fontsize" : 11.0,
					"numinlets" : 1,
					"id" : "obj-50",
					"numoutlets" : 1
				}

			}
, 			{
				"box" : 				{
					"maxclass" : "newobj",
					"varname" : "s[0]",
					"text" : "receive~ #1",
					"linecount" : 2,
					"fontname" : "Verdana",
					"patching_rect" : [ 49.0, 142.0, 64.0, 33.0 ],
					"outlettype" : [ "signal" ],
					"fontsize" : 11.0,
					"numinlets" : 1,
					"id" : "obj-51",
					"numoutlets" : 1
				}

			}
, 			{
				"box" : 				{
					"maxclass" : "inlet",
					"varname" : "in[0]",
					"patching_rect" : [ 8.0, 34.0, 19.0, 19.0 ],
					"outlettype" : [ "" ],
					"numinlets" : 0,
					"id" : "obj-52",
					"numoutlets" : 1,
					"comment" : ""
				}

			}
, 			{
				"box" : 				{
					"maxclass" : "newobj",
					"text" : "route set",
					"fontname" : "Verdana",
					"patching_rect" : [ 8.0, 58.0, 60.0, 20.0 ],
					"outlettype" : [ "", "" ],
					"fontsize" : 11.0,
					"numinlets" : 1,
					"id" : "obj-53",
					"numoutlets" : 2
				}

			}
 ],
		"lines" : [ 			{
				"patchline" : 				{
					"source" : [ "obj-53", 0 ],
					"destination" : [ "obj-99", 0 ],
					"hidden" : 0,
					"midpoints" : [ 17.5, 85.0, 1576.5, 85.0 ]
				}

			}
, 			{
				"patchline" : 				{
					"source" : [ "obj-53", 0 ],
					"destination" : [ "obj-96", 0 ],
					"hidden" : 0,
					"midpoints" : [ 17.5, 85.0, 1510.5, 85.0 ]
				}

			}
, 			{
				"patchline" : 				{
					"source" : [ "obj-53", 0 ],
					"destination" : [ "obj-93", 0 ],
					"hidden" : 0,
					"midpoints" : [ 17.5, 85.0, 1444.5, 85.0 ]
				}

			}
, 			{
				"patchline" : 				{
					"source" : [ "obj-53", 0 ],
					"destination" : [ "obj-90", 0 ],
					"hidden" : 0,
					"midpoints" : [ 17.5, 85.0, 1378.5, 85.0 ]
				}

			}
, 			{
				"patchline" : 				{
					"source" : [ "obj-53", 0 ],
					"destination" : [ "obj-87", 0 ],
					"hidden" : 0,
					"midpoints" : [ 17.5, 85.0, 1312.5, 85.0 ]
				}

			}
, 			{
				"patchline" : 				{
					"source" : [ "obj-53", 0 ],
					"destination" : [ "obj-84", 0 ],
					"hidden" : 0,
					"midpoints" : [ 17.5, 85.0, 1246.5, 85.0 ]
				}

			}
, 			{
				"patchline" : 				{
					"source" : [ "obj-53", 0 ],
					"destination" : [ "obj-81", 0 ],
					"hidden" : 0,
					"midpoints" : [ 17.5, 85.0, 1180.5, 85.0 ]
				}

			}
, 			{
				"patchline" : 				{
					"source" : [ "obj-53", 0 ],
					"destination" : [ "obj-78", 0 ],
					"hidden" : 0,
					"midpoints" : [ 17.5, 85.0, 1114.5, 85.0 ]
				}

			}
, 			{
				"patchline" : 				{
					"source" : [ "obj-79", 0 ],
					"destination" : [ "obj-77", 0 ],
					"hidden" : 0,
					"midpoints" : [  ]
				}

			}
, 			{
				"patchline" : 				{
					"source" : [ "obj-78", 0 ],
					"destination" : [ "obj-79", 0 ],
					"hidden" : 0,
					"midpoints" : [  ]
				}

			}
, 			{
				"patchline" : 				{
					"source" : [ "obj-82", 0 ],
					"destination" : [ "obj-80", 0 ],
					"hidden" : 0,
					"midpoints" : [  ]
				}

			}
, 			{
				"patchline" : 				{
					"source" : [ "obj-81", 0 ],
					"destination" : [ "obj-82", 0 ],
					"hidden" : 0,
					"midpoints" : [  ]
				}

			}
, 			{
				"patchline" : 				{
					"source" : [ "obj-85", 0 ],
					"destination" : [ "obj-83", 0 ],
					"hidden" : 0,
					"midpoints" : [  ]
				}

			}
, 			{
				"patchline" : 				{
					"source" : [ "obj-84", 0 ],
					"destination" : [ "obj-85", 0 ],
					"hidden" : 0,
					"midpoints" : [  ]
				}

			}
, 			{
				"patchline" : 				{
					"source" : [ "obj-88", 0 ],
					"destination" : [ "obj-86", 0 ],
					"hidden" : 0,
					"midpoints" : [  ]
				}

			}
, 			{
				"patchline" : 				{
					"source" : [ "obj-87", 0 ],
					"destination" : [ "obj-88", 0 ],
					"hidden" : 0,
					"midpoints" : [  ]
				}

			}
, 			{
				"patchline" : 				{
					"source" : [ "obj-91", 0 ],
					"destination" : [ "obj-89", 0 ],
					"hidden" : 0,
					"midpoints" : [  ]
				}

			}
, 			{
				"patchline" : 				{
					"source" : [ "obj-90", 0 ],
					"destination" : [ "obj-91", 0 ],
					"hidden" : 0,
					"midpoints" : [  ]
				}

			}
, 			{
				"patchline" : 				{
					"source" : [ "obj-94", 0 ],
					"destination" : [ "obj-92", 0 ],
					"hidden" : 0,
					"midpoints" : [  ]
				}

			}
, 			{
				"patchline" : 				{
					"source" : [ "obj-93", 0 ],
					"destination" : [ "obj-94", 0 ],
					"hidden" : 0,
					"midpoints" : [  ]
				}

			}
, 			{
				"patchline" : 				{
					"source" : [ "obj-97", 0 ],
					"destination" : [ "obj-95", 0 ],
					"hidden" : 0,
					"midpoints" : [  ]
				}

			}
, 			{
				"patchline" : 				{
					"source" : [ "obj-96", 0 ],
					"destination" : [ "obj-97", 0 ],
					"hidden" : 0,
					"midpoints" : [  ]
				}

			}
, 			{
				"patchline" : 				{
					"source" : [ "obj-100", 0 ],
					"destination" : [ "obj-98", 0 ],
					"hidden" : 0,
					"midpoints" : [  ]
				}

			}
, 			{
				"patchline" : 				{
					"source" : [ "obj-99", 0 ],
					"destination" : [ "obj-100", 0 ],
					"hidden" : 0,
					"midpoints" : [  ]
				}

			}
, 			{
				"patchline" : 				{
					"source" : [ "obj-53", 1 ],
					"destination" : [ "obj-51", 0 ],
					"hidden" : 0,
					"midpoints" : [  ]
				}

			}
, 			{
				"patchline" : 				{
					"source" : [ "obj-51", 0 ],
					"destination" : [ "obj-16", 0 ],
					"hidden" : 0,
					"midpoints" : [  ]
				}

			}
, 			{
				"patchline" : 				{
					"source" : [ "obj-50", 0 ],
					"destination" : [ "obj-51", 0 ],
					"hidden" : 0,
					"midpoints" : [ 70.5, 136.0, 58.5, 136.0 ]
				}

			}
, 			{
				"patchline" : 				{
					"source" : [ "obj-53", 0 ],
					"destination" : [ "obj-50", 0 ],
					"hidden" : 0,
					"midpoints" : [ 17.5, 85.0, 70.5, 85.0 ]
				}

			}
, 			{
				"patchline" : 				{
					"source" : [ "obj-21", 0 ],
					"destination" : [ "obj-1", 0 ],
					"hidden" : 0,
					"midpoints" : [  ]
				}

			}
, 			{
				"patchline" : 				{
					"source" : [ "obj-20", 0 ],
					"destination" : [ "obj-21", 0 ],
					"hidden" : 0,
					"midpoints" : [  ]
				}

			}
, 			{
				"patchline" : 				{
					"source" : [ "obj-53", 0 ],
					"destination" : [ "obj-20", 0 ],
					"hidden" : 0,
					"midpoints" : [ 17.5, 85.0, 1048.5, 85.0 ]
				}

			}
, 			{
				"patchline" : 				{
					"source" : [ "obj-23", 0 ],
					"destination" : [ "obj-2", 0 ],
					"hidden" : 0,
					"midpoints" : [  ]
				}

			}
, 			{
				"patchline" : 				{
					"source" : [ "obj-22", 0 ],
					"destination" : [ "obj-23", 0 ],
					"hidden" : 0,
					"midpoints" : [  ]
				}

			}
, 			{
				"patchline" : 				{
					"source" : [ "obj-53", 0 ],
					"destination" : [ "obj-22", 0 ],
					"hidden" : 0,
					"midpoints" : [ 17.5, 85.0, 982.5, 85.0 ]
				}

			}
, 			{
				"patchline" : 				{
					"source" : [ "obj-25", 0 ],
					"destination" : [ "obj-3", 0 ],
					"hidden" : 0,
					"midpoints" : [  ]
				}

			}
, 			{
				"patchline" : 				{
					"source" : [ "obj-24", 0 ],
					"destination" : [ "obj-25", 0 ],
					"hidden" : 0,
					"midpoints" : [  ]
				}

			}
, 			{
				"patchline" : 				{
					"source" : [ "obj-53", 0 ],
					"destination" : [ "obj-24", 0 ],
					"hidden" : 0,
					"midpoints" : [ 17.5, 85.0, 916.5, 85.0 ]
				}

			}
, 			{
				"patchline" : 				{
					"source" : [ "obj-27", 0 ],
					"destination" : [ "obj-4", 0 ],
					"hidden" : 0,
					"midpoints" : [  ]
				}

			}
, 			{
				"patchline" : 				{
					"source" : [ "obj-26", 0 ],
					"destination" : [ "obj-27", 0 ],
					"hidden" : 0,
					"midpoints" : [  ]
				}

			}
, 			{
				"patchline" : 				{
					"source" : [ "obj-53", 0 ],
					"destination" : [ "obj-26", 0 ],
					"hidden" : 0,
					"midpoints" : [ 17.5, 85.0, 850.5, 85.0 ]
				}

			}
, 			{
				"patchline" : 				{
					"source" : [ "obj-29", 0 ],
					"destination" : [ "obj-5", 0 ],
					"hidden" : 0,
					"midpoints" : [  ]
				}

			}
, 			{
				"patchline" : 				{
					"source" : [ "obj-28", 0 ],
					"destination" : [ "obj-29", 0 ],
					"hidden" : 0,
					"midpoints" : [  ]
				}

			}
, 			{
				"patchline" : 				{
					"source" : [ "obj-53", 0 ],
					"destination" : [ "obj-28", 0 ],
					"hidden" : 0,
					"midpoints" : [ 17.5, 85.0, 784.5, 85.0 ]
				}

			}
, 			{
				"patchline" : 				{
					"source" : [ "obj-31", 0 ],
					"destination" : [ "obj-6", 0 ],
					"hidden" : 0,
					"midpoints" : [  ]
				}

			}
, 			{
				"patchline" : 				{
					"source" : [ "obj-30", 0 ],
					"destination" : [ "obj-31", 0 ],
					"hidden" : 0,
					"midpoints" : [  ]
				}

			}
, 			{
				"patchline" : 				{
					"source" : [ "obj-53", 0 ],
					"destination" : [ "obj-30", 0 ],
					"hidden" : 0,
					"midpoints" : [ 17.5, 85.0, 718.5, 85.0 ]
				}

			}
, 			{
				"patchline" : 				{
					"source" : [ "obj-33", 0 ],
					"destination" : [ "obj-7", 0 ],
					"hidden" : 0,
					"midpoints" : [  ]
				}

			}
, 			{
				"patchline" : 				{
					"source" : [ "obj-32", 0 ],
					"destination" : [ "obj-33", 0 ],
					"hidden" : 0,
					"midpoints" : [  ]
				}

			}
, 			{
				"patchline" : 				{
					"source" : [ "obj-53", 0 ],
					"destination" : [ "obj-32", 0 ],
					"hidden" : 0,
					"midpoints" : [ 17.5, 85.0, 652.5, 85.0 ]
				}

			}
, 			{
				"patchline" : 				{
					"source" : [ "obj-35", 0 ],
					"destination" : [ "obj-8", 0 ],
					"hidden" : 0,
					"midpoints" : [  ]
				}

			}
, 			{
				"patchline" : 				{
					"source" : [ "obj-34", 0 ],
					"destination" : [ "obj-35", 0 ],
					"hidden" : 0,
					"midpoints" : [  ]
				}

			}
, 			{
				"patchline" : 				{
					"source" : [ "obj-53", 0 ],
					"destination" : [ "obj-34", 0 ],
					"hidden" : 0,
					"midpoints" : [ 17.5, 85.0, 586.5, 85.0 ]
				}

			}
, 			{
				"patchline" : 				{
					"source" : [ "obj-37", 0 ],
					"destination" : [ "obj-9", 0 ],
					"hidden" : 0,
					"midpoints" : [  ]
				}

			}
, 			{
				"patchline" : 				{
					"source" : [ "obj-36", 0 ],
					"destination" : [ "obj-37", 0 ],
					"hidden" : 0,
					"midpoints" : [  ]
				}

			}
, 			{
				"patchline" : 				{
					"source" : [ "obj-53", 0 ],
					"destination" : [ "obj-36", 0 ],
					"hidden" : 0,
					"midpoints" : [ 17.5, 85.0, 520.5, 85.0 ]
				}

			}
, 			{
				"patchline" : 				{
					"source" : [ "obj-39", 0 ],
					"destination" : [ "obj-10", 0 ],
					"hidden" : 0,
					"midpoints" : [  ]
				}

			}
, 			{
				"patchline" : 				{
					"source" : [ "obj-38", 0 ],
					"destination" : [ "obj-39", 0 ],
					"hidden" : 0,
					"midpoints" : [  ]
				}

			}
, 			{
				"patchline" : 				{
					"source" : [ "obj-53", 0 ],
					"destination" : [ "obj-38", 0 ],
					"hidden" : 0,
					"midpoints" : [ 17.5, 85.0, 454.5, 85.0 ]
				}

			}
, 			{
				"patchline" : 				{
					"source" : [ "obj-41", 0 ],
					"destination" : [ "obj-11", 0 ],
					"hidden" : 0,
					"midpoints" : [  ]
				}

			}
, 			{
				"patchline" : 				{
					"source" : [ "obj-40", 0 ],
					"destination" : [ "obj-41", 0 ],
					"hidden" : 0,
					"midpoints" : [  ]
				}

			}
, 			{
				"patchline" : 				{
					"source" : [ "obj-53", 0 ],
					"destination" : [ "obj-40", 0 ],
					"hidden" : 0,
					"midpoints" : [ 17.5, 85.0, 388.5, 85.0 ]
				}

			}
, 			{
				"patchline" : 				{
					"source" : [ "obj-43", 0 ],
					"destination" : [ "obj-12", 0 ],
					"hidden" : 0,
					"midpoints" : [  ]
				}

			}
, 			{
				"patchline" : 				{
					"source" : [ "obj-42", 0 ],
					"destination" : [ "obj-43", 0 ],
					"hidden" : 0,
					"midpoints" : [  ]
				}

			}
, 			{
				"patchline" : 				{
					"source" : [ "obj-53", 0 ],
					"destination" : [ "obj-42", 0 ],
					"hidden" : 0,
					"midpoints" : [ 17.5, 85.0, 322.5, 85.0 ]
				}

			}
, 			{
				"patchline" : 				{
					"source" : [ "obj-45", 0 ],
					"destination" : [ "obj-13", 0 ],
					"hidden" : 0,
					"midpoints" : [  ]
				}

			}
, 			{
				"patchline" : 				{
					"source" : [ "obj-44", 0 ],
					"destination" : [ "obj-45", 0 ],
					"hidden" : 0,
					"midpoints" : [  ]
				}

			}
, 			{
				"patchline" : 				{
					"source" : [ "obj-53", 0 ],
					"destination" : [ "obj-44", 0 ],
					"hidden" : 0,
					"midpoints" : [ 17.5, 85.0, 256.5, 85.0 ]
				}

			}
, 			{
				"patchline" : 				{
					"source" : [ "obj-47", 0 ],
					"destination" : [ "obj-14", 0 ],
					"hidden" : 0,
					"midpoints" : [  ]
				}

			}
, 			{
				"patchline" : 				{
					"source" : [ "obj-46", 0 ],
					"destination" : [ "obj-47", 0 ],
					"hidden" : 0,
					"midpoints" : [  ]
				}

			}
, 			{
				"patchline" : 				{
					"source" : [ "obj-53", 0 ],
					"destination" : [ "obj-46", 0 ],
					"hidden" : 0,
					"midpoints" : [ 17.5, 85.0, 190.5, 85.0 ]
				}

			}
, 			{
				"patchline" : 				{
					"source" : [ "obj-49", 0 ],
					"destination" : [ "obj-15", 0 ],
					"hidden" : 0,
					"midpoints" : [  ]
				}

			}
, 			{
				"patchline" : 				{
					"source" : [ "obj-48", 0 ],
					"destination" : [ "obj-49", 0 ],
					"hidden" : 0,
					"midpoints" : [  ]
				}

			}
, 			{
				"patchline" : 				{
					"source" : [ "obj-53", 0 ],
					"destination" : [ "obj-48", 0 ],
					"hidden" : 0,
					"midpoints" : [ 17.5, 85.0, 124.5, 85.0 ]
				}

			}
, 			{
				"patchline" : 				{
					"source" : [ "obj-19", 0 ],
					"destination" : [ "obj-17", 0 ],
					"hidden" : 1,
					"midpoints" : [  ]
				}

			}
, 			{
				"patchline" : 				{
					"source" : [ "obj-52", 0 ],
					"destination" : [ "obj-53", 0 ],
					"hidden" : 0,
					"midpoints" : [  ]
				}

			}
 ]
	}

}
