{
	"patcher" : 	{
		"fileversion" : 1,
		"rect" : [ 581.0, 219.0, 298.0, 349.0 ],
		"bglocked" : 0,
		"defrect" : [ 581.0, 219.0, 298.0, 349.0 ],
		"openrect" : [ 0.0, 0.0, 0.0, 0.0 ],
		"openinpresentation" : 0,
		"default_fontsize" : 11.595187,
		"default_fontface" : 0,
		"default_fontname" : "Arial",
		"gridonopen" : 0,
		"gridsize" : [ 15.0, 15.0 ],
		"gridsnaponopen" : 0,
		"toolbarvisible" : 1,
		"boxanimatetime" : 200,
		"imprint" : 0,
		"metadata" : [  ],
		"boxes" : [ 			{
				"box" : 				{
					"maxclass" : "message",
					"text" : "set 2147483647",
					"linecount" : 6,
					"outlettype" : [ "" ],
					"fontname" : "Sans Serif",
					"patching_rect" : [ 154.0, 67.0, 27.0, 84.0 ],
					"fontsize" : 11.595187,
					"id" : "obj-1",
					"numinlets" : 2,
					"numoutlets" : 1
				}

			}
, 			{
				"box" : 				{
					"maxclass" : "newobj",
					"text" : "zl reg",
					"outlettype" : [ "", "" ],
					"fontname" : "Sans Serif",
					"patching_rect" : [ 22.0, 265.0, 52.0, 20.0 ],
					"fontsize" : 11.595187,
					"id" : "obj-2",
					"numinlets" : 2,
					"numoutlets" : 2
				}

			}
, 			{
				"box" : 				{
					"maxclass" : "newobj",
					"text" : "t b dump f clear b",
					"outlettype" : [ "bang", "dump", "float", "clear", "bang" ],
					"fontname" : "Sans Serif",
					"patching_rect" : [ 22.0, 39.0, 151.0, 20.0 ],
					"fontsize" : 11.595187,
					"id" : "obj-3",
					"numinlets" : 1,
					"numoutlets" : 5
				}

			}
, 			{
				"box" : 				{
					"maxclass" : "inlet",
					"outlettype" : [ "" ],
					"patching_rect" : [ 22.0, 16.0, 19.0, 19.0 ],
					"id" : "obj-4",
					"numinlets" : 0,
					"numoutlets" : 1,
					"comment" : ""
				}

			}
, 			{
				"box" : 				{
					"maxclass" : "outlet",
					"patching_rect" : [ 22.0, 291.0, 20.0, 20.0 ],
					"id" : "obj-5",
					"numinlets" : 1,
					"numoutlets" : 0,
					"comment" : ""
				}

			}
, 			{
				"box" : 				{
					"maxclass" : "newobj",
					"text" : "coll #1 #2",
					"outlettype" : [ "", "", "", "" ],
					"fontname" : "Sans Serif",
					"patching_rect" : [ 55.0, 67.0, 96.0, 20.0 ],
					"fontsize" : 11.595187,
					"id" : "obj-6",
					"numinlets" : 1,
					"numoutlets" : 4,
					"save" : [ "#N", "coll", "$1", ";" ],
					"saved_object_attributes" : 					{
						"embed" : 0
					}

				}

			}
, 			{
				"box" : 				{
					"maxclass" : "newobj",
					"text" : "b",
					"outlettype" : [ "bang", "bang" ],
					"fontname" : "Sans Serif",
					"patching_rect" : [ 55.0, 216.0, 24.0, 20.0 ],
					"fontsize" : 11.595187,
					"id" : "obj-7",
					"numinlets" : 1,
					"numoutlets" : 2
				}

			}
, 			{
				"box" : 				{
					"maxclass" : "newobj",
					"text" : "change 0.",
					"outlettype" : [ "", "int", "int" ],
					"fontname" : "Sans Serif",
					"patching_rect" : [ 55.0, 192.0, 61.0, 20.0 ],
					"fontsize" : 11.595187,
					"id" : "obj-8",
					"numinlets" : 1,
					"numoutlets" : 3
				}

			}
, 			{
				"box" : 				{
					"maxclass" : "newobj",
					"text" : "zl reg",
					"outlettype" : [ "", "" ],
					"fontname" : "Sans Serif",
					"patching_rect" : [ 55.0, 241.0, 76.0, 20.0 ],
					"fontsize" : 11.595187,
					"id" : "obj-9",
					"numinlets" : 2,
					"numoutlets" : 2
				}

			}
, 			{
				"box" : 				{
					"maxclass" : "newobj",
					"varname" : "abs",
					"text" : "abs 0.",
					"outlettype" : [ "float" ],
					"fontname" : "Sans Serif",
					"patching_rect" : [ 55.0, 134.0, 52.0, 20.0 ],
					"fontsize" : 11.595187,
					"id" : "obj-10",
					"numinlets" : 1,
					"numoutlets" : 1
				}

			}
, 			{
				"box" : 				{
					"maxclass" : "newobj",
					"varname" : "-",
					"text" : "- 0.",
					"outlettype" : [ "float" ],
					"fontname" : "Sans Serif",
					"patching_rect" : [ 55.0, 109.0, 52.0, 20.0 ],
					"fontsize" : 11.595187,
					"id" : "obj-11",
					"numinlets" : 2,
					"numoutlets" : 1
				}

			}
, 			{
				"box" : 				{
					"maxclass" : "newobj",
					"varname" : "max",
					"text" : "minmax",
					"outlettype" : [ "float", "float" ],
					"fontname" : "Sans Serif",
					"patching_rect" : [ 55.0, 162.0, 61.0, 20.0 ],
					"fontsize" : 11.595187,
					"id" : "obj-12",
					"numinlets" : 1,
					"numoutlets" : 2
				}

			}
 ],
		"lines" : [ 			{
				"patchline" : 				{
					"source" : [ "obj-3", 1 ],
					"destination" : [ "obj-6", 0 ],
					"hidden" : 0,
					"midpoints" : [ 64.5, 64.0, 64.5, 64.0 ]
				}

			}
, 			{
				"patchline" : 				{
					"source" : [ "obj-6", 0 ],
					"destination" : [ "obj-11", 0 ],
					"hidden" : 0,
					"midpoints" : [  ]
				}

			}
, 			{
				"patchline" : 				{
					"source" : [ "obj-6", 1 ],
					"destination" : [ "obj-9", 1 ],
					"hidden" : 0,
					"midpoints" : [ 90.166664, 96.0, 121.5, 96.0 ]
				}

			}
, 			{
				"patchline" : 				{
					"source" : [ "obj-4", 0 ],
					"destination" : [ "obj-3", 0 ],
					"hidden" : 0,
					"midpoints" : [  ]
				}

			}
, 			{
				"patchline" : 				{
					"source" : [ "obj-3", 0 ],
					"destination" : [ "obj-2", 0 ],
					"hidden" : 0,
					"midpoints" : [  ]
				}

			}
, 			{
				"patchline" : 				{
					"source" : [ "obj-2", 0 ],
					"destination" : [ "obj-5", 0 ],
					"hidden" : 0,
					"midpoints" : [  ]
				}

			}
, 			{
				"patchline" : 				{
					"source" : [ "obj-11", 0 ],
					"destination" : [ "obj-10", 0 ],
					"hidden" : 0,
					"midpoints" : [  ]
				}

			}
, 			{
				"patchline" : 				{
					"source" : [ "obj-10", 0 ],
					"destination" : [ "obj-12", 0 ],
					"hidden" : 0,
					"midpoints" : [  ]
				}

			}
, 			{
				"patchline" : 				{
					"source" : [ "obj-3", 3 ],
					"destination" : [ "obj-12", 0 ],
					"hidden" : 0,
					"midpoints" : [ 130.5, 158.0, 64.5, 158.0 ]
				}

			}
, 			{
				"patchline" : 				{
					"source" : [ "obj-12", 0 ],
					"destination" : [ "obj-8", 0 ],
					"hidden" : 0,
					"midpoints" : [  ]
				}

			}
, 			{
				"patchline" : 				{
					"source" : [ "obj-1", 0 ],
					"destination" : [ "obj-8", 0 ],
					"hidden" : 0,
					"midpoints" : [ 163.5, 187.0, 64.5, 187.0 ]
				}

			}
, 			{
				"patchline" : 				{
					"source" : [ "obj-8", 0 ],
					"destination" : [ "obj-7", 0 ],
					"hidden" : 0,
					"midpoints" : [  ]
				}

			}
, 			{
				"patchline" : 				{
					"source" : [ "obj-7", 0 ],
					"destination" : [ "obj-9", 0 ],
					"hidden" : 0,
					"midpoints" : [  ]
				}

			}
, 			{
				"patchline" : 				{
					"source" : [ "obj-9", 0 ],
					"destination" : [ "obj-2", 1 ],
					"hidden" : 0,
					"midpoints" : [  ]
				}

			}
, 			{
				"patchline" : 				{
					"source" : [ "obj-3", 4 ],
					"destination" : [ "obj-1", 0 ],
					"hidden" : 0,
					"midpoints" : [  ]
				}

			}
, 			{
				"patchline" : 				{
					"source" : [ "obj-3", 2 ],
					"destination" : [ "obj-11", 1 ],
					"hidden" : 0,
					"midpoints" : [  ]
				}

			}
 ]
	}

}
