{
	"patcher" : 	{
		"fileversion" : 1,
		"rect" : [ 9.0, 204.0, 1015.0, 294.0 ],
		"bglocked" : 0,
		"defrect" : [ 9.0, 204.0, 1015.0, 294.0 ],
		"openrect" : [ 0.0, 0.0, 0.0, 0.0 ],
		"openinpresentation" : 0,
		"default_fontsize" : 11.0,
		"default_fontface" : 0,
		"default_fontname" : "Verdana",
		"gridonopen" : 0,
		"gridsize" : [ 15.0, 15.0 ],
		"gridsnaponopen" : 0,
		"toolbarvisible" : 1,
		"boxanimatetime" : 200,
		"imprint" : 0,
		"enablehscroll" : 1,
		"enablevscroll" : 1,
		"devicewidth" : 0.0,
		"boxes" : [ 			{
				"box" : 				{
					"fontname" : "Verdana",
					"fontsize" : 11.0,
					"hidden" : 1,
					"id" : "obj-77",
					"maxclass" : "newobj",
					"numinlets" : 1,
					"numoutlets" : 2,
					"outlettype" : [ "", "" ],
					"patching_rect" : [ 11.0, 177.0, 110.0, 20.0 ],
					"text" : "patcherargs #1 2"
				}

			}
, 			{
				"box" : 				{
					"fontname" : "Verdana",
					"fontsize" : 11.0,
					"id" : "obj-76",
					"maxclass" : "newobj",
					"numinlets" : 1,
					"numoutlets" : 25,
					"outlettype" : [ "", "", "", "", "", "", "", "", "", "", "", "", "", "", "", "", "", "", "", "", "", "", "", "", "" ],
					"patching_rect" : [ 51.0, 59.0, 1603.0, 20.0 ],
					"text" : "route~ 24"
				}

			}
, 			{
				"box" : 				{
					"comment" : "",
					"id" : "obj-73",
					"maxclass" : "inlet",
					"numinlets" : 0,
					"numoutlets" : 1,
					"outlettype" : [ "" ],
					"patching_rect" : [ 1569.0, 9.0, 19.0, 19.0 ],
					"varname" : "in[23]"
				}

			}
, 			{
				"box" : 				{
					"fontname" : "Verdana",
					"fontsize" : 11.0,
					"id" : "obj-74",
					"linecount" : 2,
					"maxclass" : "newobj",
					"numinlets" : 1,
					"numoutlets" : 1,
					"outlettype" : [ "" ],
					"patching_rect" : [ 1577.0, 90.0, 68.0, 33.0 ],
					"text" : "sprintf set %s_24",
					"varname" : "sp[23]"
				}

			}
, 			{
				"box" : 				{
					"fontname" : "Verdana",
					"fontsize" : 11.0,
					"id" : "obj-75",
					"linecount" : 2,
					"maxclass" : "newobj",
					"numinlets" : 1,
					"numoutlets" : 0,
					"patching_rect" : [ 1569.0, 141.0, 65.0, 33.0 ],
					"text" : "send~ #1_24",
					"varname" : "s[23]"
				}

			}
, 			{
				"box" : 				{
					"comment" : "",
					"id" : "obj-70",
					"maxclass" : "inlet",
					"numinlets" : 0,
					"numoutlets" : 1,
					"outlettype" : [ "" ],
					"patching_rect" : [ 1503.0, 9.0, 19.0, 19.0 ],
					"varname" : "in[22]"
				}

			}
, 			{
				"box" : 				{
					"fontname" : "Verdana",
					"fontsize" : 11.0,
					"id" : "obj-71",
					"linecount" : 2,
					"maxclass" : "newobj",
					"numinlets" : 1,
					"numoutlets" : 1,
					"outlettype" : [ "" ],
					"patching_rect" : [ 1511.0, 90.0, 68.0, 33.0 ],
					"text" : "sprintf set %s_23",
					"varname" : "sp[22]"
				}

			}
, 			{
				"box" : 				{
					"fontname" : "Verdana",
					"fontsize" : 11.0,
					"id" : "obj-72",
					"linecount" : 2,
					"maxclass" : "newobj",
					"numinlets" : 1,
					"numoutlets" : 0,
					"patching_rect" : [ 1503.0, 141.0, 65.0, 33.0 ],
					"text" : "send~ #1_23",
					"varname" : "s[22]"
				}

			}
, 			{
				"box" : 				{
					"comment" : "",
					"id" : "obj-67",
					"maxclass" : "inlet",
					"numinlets" : 0,
					"numoutlets" : 1,
					"outlettype" : [ "" ],
					"patching_rect" : [ 1437.0, 9.0, 19.0, 19.0 ],
					"varname" : "in[21]"
				}

			}
, 			{
				"box" : 				{
					"fontname" : "Verdana",
					"fontsize" : 11.0,
					"id" : "obj-68",
					"linecount" : 2,
					"maxclass" : "newobj",
					"numinlets" : 1,
					"numoutlets" : 1,
					"outlettype" : [ "" ],
					"patching_rect" : [ 1445.0, 90.0, 68.0, 33.0 ],
					"text" : "sprintf set %s_22",
					"varname" : "sp[21]"
				}

			}
, 			{
				"box" : 				{
					"fontname" : "Verdana",
					"fontsize" : 11.0,
					"id" : "obj-69",
					"linecount" : 2,
					"maxclass" : "newobj",
					"numinlets" : 1,
					"numoutlets" : 0,
					"patching_rect" : [ 1437.0, 141.0, 65.0, 33.0 ],
					"text" : "send~ #1_22",
					"varname" : "s[21]"
				}

			}
, 			{
				"box" : 				{
					"comment" : "",
					"id" : "obj-64",
					"maxclass" : "inlet",
					"numinlets" : 0,
					"numoutlets" : 1,
					"outlettype" : [ "" ],
					"patching_rect" : [ 1371.0, 9.0, 19.0, 19.0 ],
					"varname" : "in[20]"
				}

			}
, 			{
				"box" : 				{
					"fontname" : "Verdana",
					"fontsize" : 11.0,
					"id" : "obj-65",
					"linecount" : 2,
					"maxclass" : "newobj",
					"numinlets" : 1,
					"numoutlets" : 1,
					"outlettype" : [ "" ],
					"patching_rect" : [ 1379.0, 90.0, 68.0, 33.0 ],
					"text" : "sprintf set %s_21",
					"varname" : "sp[20]"
				}

			}
, 			{
				"box" : 				{
					"fontname" : "Verdana",
					"fontsize" : 11.0,
					"id" : "obj-66",
					"linecount" : 2,
					"maxclass" : "newobj",
					"numinlets" : 1,
					"numoutlets" : 0,
					"patching_rect" : [ 1371.0, 141.0, 65.0, 33.0 ],
					"text" : "send~ #1_21",
					"varname" : "s[20]"
				}

			}
, 			{
				"box" : 				{
					"comment" : "",
					"id" : "obj-61",
					"maxclass" : "inlet",
					"numinlets" : 0,
					"numoutlets" : 1,
					"outlettype" : [ "" ],
					"patching_rect" : [ 1305.0, 9.0, 19.0, 19.0 ],
					"varname" : "in[19]"
				}

			}
, 			{
				"box" : 				{
					"fontname" : "Verdana",
					"fontsize" : 11.0,
					"id" : "obj-62",
					"linecount" : 2,
					"maxclass" : "newobj",
					"numinlets" : 1,
					"numoutlets" : 1,
					"outlettype" : [ "" ],
					"patching_rect" : [ 1313.0, 90.0, 68.0, 33.0 ],
					"text" : "sprintf set %s_20",
					"varname" : "sp[19]"
				}

			}
, 			{
				"box" : 				{
					"fontname" : "Verdana",
					"fontsize" : 11.0,
					"id" : "obj-63",
					"linecount" : 2,
					"maxclass" : "newobj",
					"numinlets" : 1,
					"numoutlets" : 0,
					"patching_rect" : [ 1305.0, 141.0, 65.0, 33.0 ],
					"text" : "send~ #1_20",
					"varname" : "s[19]"
				}

			}
, 			{
				"box" : 				{
					"comment" : "",
					"id" : "obj-58",
					"maxclass" : "inlet",
					"numinlets" : 0,
					"numoutlets" : 1,
					"outlettype" : [ "" ],
					"patching_rect" : [ 1239.0, 9.0, 19.0, 19.0 ],
					"varname" : "in[18]"
				}

			}
, 			{
				"box" : 				{
					"fontname" : "Verdana",
					"fontsize" : 11.0,
					"id" : "obj-59",
					"linecount" : 2,
					"maxclass" : "newobj",
					"numinlets" : 1,
					"numoutlets" : 1,
					"outlettype" : [ "" ],
					"patching_rect" : [ 1247.0, 90.0, 68.0, 33.0 ],
					"text" : "sprintf set %s_19",
					"varname" : "sp[18]"
				}

			}
, 			{
				"box" : 				{
					"fontname" : "Verdana",
					"fontsize" : 11.0,
					"id" : "obj-60",
					"linecount" : 2,
					"maxclass" : "newobj",
					"numinlets" : 1,
					"numoutlets" : 0,
					"patching_rect" : [ 1239.0, 141.0, 65.0, 33.0 ],
					"text" : "send~ #1_19",
					"varname" : "s[18]"
				}

			}
, 			{
				"box" : 				{
					"comment" : "",
					"id" : "obj-55",
					"maxclass" : "inlet",
					"numinlets" : 0,
					"numoutlets" : 1,
					"outlettype" : [ "" ],
					"patching_rect" : [ 1173.0, 9.0, 19.0, 19.0 ],
					"varname" : "in[17]"
				}

			}
, 			{
				"box" : 				{
					"fontname" : "Verdana",
					"fontsize" : 11.0,
					"id" : "obj-56",
					"linecount" : 2,
					"maxclass" : "newobj",
					"numinlets" : 1,
					"numoutlets" : 1,
					"outlettype" : [ "" ],
					"patching_rect" : [ 1181.0, 90.0, 68.0, 33.0 ],
					"text" : "sprintf set %s_18",
					"varname" : "sp[17]"
				}

			}
, 			{
				"box" : 				{
					"fontname" : "Verdana",
					"fontsize" : 11.0,
					"id" : "obj-57",
					"linecount" : 2,
					"maxclass" : "newobj",
					"numinlets" : 1,
					"numoutlets" : 0,
					"patching_rect" : [ 1173.0, 141.0, 65.0, 33.0 ],
					"text" : "send~ #1_18",
					"varname" : "s[17]"
				}

			}
, 			{
				"box" : 				{
					"comment" : "",
					"id" : "obj-17",
					"maxclass" : "inlet",
					"numinlets" : 0,
					"numoutlets" : 1,
					"outlettype" : [ "" ],
					"patching_rect" : [ 1107.0, 9.0, 19.0, 19.0 ],
					"varname" : "in[16]"
				}

			}
, 			{
				"box" : 				{
					"fontname" : "Verdana",
					"fontsize" : 11.0,
					"id" : "obj-53",
					"linecount" : 2,
					"maxclass" : "newobj",
					"numinlets" : 1,
					"numoutlets" : 1,
					"outlettype" : [ "" ],
					"patching_rect" : [ 1115.0, 90.0, 68.0, 33.0 ],
					"text" : "sprintf set %s_17",
					"varname" : "sp[16]"
				}

			}
, 			{
				"box" : 				{
					"fontname" : "Verdana",
					"fontsize" : 11.0,
					"id" : "obj-54",
					"linecount" : 2,
					"maxclass" : "newobj",
					"numinlets" : 1,
					"numoutlets" : 0,
					"patching_rect" : [ 1107.0, 141.0, 65.0, 33.0 ],
					"text" : "send~ #1_17",
					"varname" : "s[16]"
				}

			}
, 			{
				"box" : 				{
					"comment" : "",
					"id" : "obj-1",
					"maxclass" : "inlet",
					"numinlets" : 0,
					"numoutlets" : 1,
					"outlettype" : [ "" ],
					"patching_rect" : [ 1041.0, 9.0, 19.0, 19.0 ],
					"varname" : "in[15]"
				}

			}
, 			{
				"box" : 				{
					"comment" : "",
					"id" : "obj-2",
					"maxclass" : "inlet",
					"numinlets" : 0,
					"numoutlets" : 1,
					"outlettype" : [ "" ],
					"patching_rect" : [ 975.0, 9.0, 19.0, 19.0 ],
					"varname" : "in[14]"
				}

			}
, 			{
				"box" : 				{
					"comment" : "",
					"id" : "obj-3",
					"maxclass" : "inlet",
					"numinlets" : 0,
					"numoutlets" : 1,
					"outlettype" : [ "" ],
					"patching_rect" : [ 909.0, 9.0, 19.0, 19.0 ],
					"varname" : "in[13]"
				}

			}
, 			{
				"box" : 				{
					"comment" : "",
					"id" : "obj-4",
					"maxclass" : "inlet",
					"numinlets" : 0,
					"numoutlets" : 1,
					"outlettype" : [ "" ],
					"patching_rect" : [ 843.0, 9.0, 19.0, 19.0 ],
					"varname" : "in[12]"
				}

			}
, 			{
				"box" : 				{
					"comment" : "",
					"id" : "obj-5",
					"maxclass" : "inlet",
					"numinlets" : 0,
					"numoutlets" : 1,
					"outlettype" : [ "" ],
					"patching_rect" : [ 777.0, 9.0, 19.0, 19.0 ],
					"varname" : "in[11]"
				}

			}
, 			{
				"box" : 				{
					"comment" : "",
					"id" : "obj-6",
					"maxclass" : "inlet",
					"numinlets" : 0,
					"numoutlets" : 1,
					"outlettype" : [ "" ],
					"patching_rect" : [ 711.0, 9.0, 19.0, 19.0 ],
					"varname" : "in[10]"
				}

			}
, 			{
				"box" : 				{
					"comment" : "",
					"id" : "obj-7",
					"maxclass" : "inlet",
					"numinlets" : 0,
					"numoutlets" : 1,
					"outlettype" : [ "" ],
					"patching_rect" : [ 645.0, 9.0, 19.0, 19.0 ],
					"varname" : "in[9]"
				}

			}
, 			{
				"box" : 				{
					"comment" : "",
					"id" : "obj-8",
					"maxclass" : "inlet",
					"numinlets" : 0,
					"numoutlets" : 1,
					"outlettype" : [ "" ],
					"patching_rect" : [ 579.0, 9.0, 19.0, 19.0 ],
					"varname" : "in[8]"
				}

			}
, 			{
				"box" : 				{
					"comment" : "",
					"id" : "obj-9",
					"maxclass" : "inlet",
					"numinlets" : 0,
					"numoutlets" : 1,
					"outlettype" : [ "" ],
					"patching_rect" : [ 513.0, 9.0, 19.0, 19.0 ],
					"varname" : "in[7]"
				}

			}
, 			{
				"box" : 				{
					"comment" : "",
					"id" : "obj-10",
					"maxclass" : "inlet",
					"numinlets" : 0,
					"numoutlets" : 1,
					"outlettype" : [ "" ],
					"patching_rect" : [ 447.0, 9.0, 19.0, 19.0 ],
					"varname" : "in[6]"
				}

			}
, 			{
				"box" : 				{
					"comment" : "",
					"id" : "obj-11",
					"maxclass" : "inlet",
					"numinlets" : 0,
					"numoutlets" : 1,
					"outlettype" : [ "" ],
					"patching_rect" : [ 381.0, 9.0, 19.0, 19.0 ],
					"varname" : "in[5]"
				}

			}
, 			{
				"box" : 				{
					"comment" : "",
					"id" : "obj-12",
					"maxclass" : "inlet",
					"numinlets" : 0,
					"numoutlets" : 1,
					"outlettype" : [ "" ],
					"patching_rect" : [ 315.0, 9.0, 19.0, 19.0 ],
					"varname" : "in[4]"
				}

			}
, 			{
				"box" : 				{
					"comment" : "",
					"id" : "obj-13",
					"maxclass" : "inlet",
					"numinlets" : 0,
					"numoutlets" : 1,
					"outlettype" : [ "" ],
					"patching_rect" : [ 249.0, 9.0, 19.0, 19.0 ],
					"varname" : "in[3]"
				}

			}
, 			{
				"box" : 				{
					"comment" : "",
					"id" : "obj-14",
					"maxclass" : "inlet",
					"numinlets" : 0,
					"numoutlets" : 1,
					"outlettype" : [ "" ],
					"patching_rect" : [ 183.0, 9.0, 19.0, 19.0 ],
					"varname" : "in[2]"
				}

			}
, 			{
				"box" : 				{
					"comment" : "",
					"id" : "obj-15",
					"maxclass" : "inlet",
					"numinlets" : 0,
					"numoutlets" : 1,
					"outlettype" : [ "" ],
					"patching_rect" : [ 117.0, 9.0, 19.0, 19.0 ],
					"varname" : "in[1]"
				}

			}
, 			{
				"box" : 				{
					"fontname" : "Verdana",
					"fontsize" : 11.0,
					"hidden" : 1,
					"id" : "obj-16",
					"maxclass" : "newobj",
					"numinlets" : 1,
					"numoutlets" : 2,
					"outlettype" : [ "", "" ],
					"patching_rect" : [ 11.0, 224.0, 74.0, 20.0 ],
					"save" : [ "#N", "thispatcher", ";", "#Q", "end", ";" ],
					"text" : "thispatcher"
				}

			}
, 			{
				"box" : 				{
					"fontname" : "Verdana",
					"fontsize" : 11.0,
					"hidden" : 1,
					"id" : "obj-18",
					"maxclass" : "newobj",
					"numinlets" : 1,
					"numoutlets" : 1,
					"outlettype" : [ "" ],
					"patcher" : 					{
						"fileversion" : 1,
						"rect" : [ 266.0, 88.0, 443.0, 437.0 ],
						"bglocked" : 0,
						"defrect" : [ 266.0, 88.0, 443.0, 437.0 ],
						"openrect" : [ 0.0, 0.0, 0.0, 0.0 ],
						"openinpresentation" : 0,
						"default_fontsize" : 11.0,
						"default_fontface" : 0,
						"default_fontname" : "Verdana",
						"gridonopen" : 0,
						"gridsize" : [ 15.0, 15.0 ],
						"gridsnaponopen" : 0,
						"toolbarvisible" : 1,
						"boxanimatetime" : 200,
						"imprint" : 0,
						"enablehscroll" : 1,
						"enablevscroll" : 1,
						"devicewidth" : 0.0,
						"boxes" : [ 							{
								"box" : 								{
									"fontname" : "Verdana",
									"fontsize" : 11.0,
									"id" : "obj-1",
									"maxclass" : "newobj",
									"numinlets" : 2,
									"numoutlets" : 2,
									"outlettype" : [ "", "" ],
									"patching_rect" : [ 94.0, 113.0, 62.0, 20.0 ],
									"text" : "zl nth 2"
								}

							}
, 							{
								"box" : 								{
									"comment" : "",
									"id" : "obj-4",
									"maxclass" : "inlet",
									"numinlets" : 0,
									"numoutlets" : 1,
									"outlettype" : [ "" ],
									"patching_rect" : [ 94.0, 64.0, 20.0, 20.0 ]
								}

							}
, 							{
								"box" : 								{
									"fontname" : "Verdana",
									"fontsize" : 11.0,
									"id" : "obj-3",
									"maxclass" : "newobj",
									"numinlets" : 1,
									"numoutlets" : 1,
									"outlettype" : [ "" ],
									"patching_rect" : [ 94.0, 89.0, 62.0, 20.0 ],
									"text" : "deferlow"
								}

							}
, 							{
								"box" : 								{
									"fontname" : "Verdana",
									"fontsize" : 11.0,
									"id" : "obj-13",
									"maxclass" : "newobj",
									"numinlets" : 1,
									"numoutlets" : 2,
									"outlettype" : [ "", "" ],
									"patching_rect" : [ 94.0, 140.0, 100.0, 20.0 ],
									"text" : "js grandgate.js"
								}

							}
, 							{
								"box" : 								{
									"fontname" : "Verdana",
									"fontsize" : 11.0,
									"id" : "obj-5",
									"linecount" : 4,
									"maxclass" : "newobj",
									"numinlets" : 1,
									"numoutlets" : 1,
									"outlettype" : [ "" ],
									"patching_rect" : [ 171.72728, 246.39447, 51.0, 60.0 ],
									"text" : "sprintf script delete in[%i]"
								}

							}
, 							{
								"box" : 								{
									"fontname" : "Verdana",
									"fontsize" : 11.0,
									"id" : "obj-6",
									"linecount" : 4,
									"maxclass" : "newobj",
									"numinlets" : 1,
									"numoutlets" : 1,
									"outlettype" : [ "" ],
									"patching_rect" : [ 63.0, 246.39447, 51.0, 60.0 ],
									"text" : "sprintf script delete s[%i]"
								}

							}
, 							{
								"box" : 								{
									"fontname" : "Verdana",
									"fontsize" : 11.0,
									"id" : "obj-7",
									"linecount" : 4,
									"maxclass" : "newobj",
									"numinlets" : 1,
									"numoutlets" : 1,
									"outlettype" : [ "" ],
									"patching_rect" : [ 117.36364, 246.39447, 51.0, 60.0 ],
									"text" : "sprintf script delete sp[%i]"
								}

							}
, 							{
								"box" : 								{
									"fontname" : "Verdana",
									"fontsize" : 11.0,
									"id" : "obj-8",
									"maxclass" : "newobj",
									"numinlets" : 2,
									"numoutlets" : 1,
									"outlettype" : [ "int" ],
									"patching_rect" : [ 117.36364, 218.404846, 42.0, 20.0 ],
									"text" : "!- 24"
								}

							}
, 							{
								"box" : 								{
									"fontname" : "Verdana",
									"fontsize" : 11.0,
									"id" : "obj-9",
									"maxclass" : "newobj",
									"numinlets" : 2,
									"numoutlets" : 1,
									"outlettype" : [ "int" ],
									"patching_rect" : [ 93.636368, 166.743942, 48.0, 20.0 ],
									"text" : "!- 24"
								}

							}
, 							{
								"box" : 								{
									"fontname" : "Verdana",
									"fontsize" : 11.0,
									"id" : "obj-10",
									"maxclass" : "newobj",
									"numinlets" : 2,
									"numoutlets" : 3,
									"outlettype" : [ "bang", "bang", "int" ],
									"patching_rect" : [ 93.636368, 192.415222, 42.0, 20.0 ],
									"text" : "uzi"
								}

							}
, 							{
								"box" : 								{
									"comment" : "",
									"id" : "obj-12",
									"maxclass" : "outlet",
									"numinlets" : 1,
									"numoutlets" : 0,
									"patching_rect" : [ 117.36364, 319.806213, 20.0, 20.0 ]
								}

							}
 ],
						"lines" : [ 							{
								"patchline" : 								{
									"destination" : [ "obj-13", 0 ],
									"hidden" : 0,
									"midpoints" : [  ],
									"source" : [ "obj-1", 0 ]
								}

							}
, 							{
								"patchline" : 								{
									"destination" : [ "obj-8", 0 ],
									"hidden" : 0,
									"midpoints" : [  ],
									"source" : [ "obj-10", 2 ]
								}

							}
, 							{
								"patchline" : 								{
									"destination" : [ "obj-9", 0 ],
									"hidden" : 0,
									"midpoints" : [  ],
									"source" : [ "obj-13", 0 ]
								}

							}
, 							{
								"patchline" : 								{
									"destination" : [ "obj-1", 0 ],
									"hidden" : 0,
									"midpoints" : [  ],
									"source" : [ "obj-3", 0 ]
								}

							}
, 							{
								"patchline" : 								{
									"destination" : [ "obj-3", 0 ],
									"hidden" : 0,
									"midpoints" : [  ],
									"source" : [ "obj-4", 0 ]
								}

							}
, 							{
								"patchline" : 								{
									"destination" : [ "obj-12", 0 ],
									"hidden" : 0,
									"midpoints" : [ 181.22728, 309.010376, 126.86364, 309.010376 ],
									"source" : [ "obj-5", 0 ]
								}

							}
, 							{
								"patchline" : 								{
									"destination" : [ "obj-12", 0 ],
									"hidden" : 0,
									"midpoints" : [ 72.5, 309.010376, 126.86364, 309.010376 ],
									"source" : [ "obj-6", 0 ]
								}

							}
, 							{
								"patchline" : 								{
									"destination" : [ "obj-12", 0 ],
									"hidden" : 0,
									"midpoints" : [  ],
									"source" : [ "obj-7", 0 ]
								}

							}
, 							{
								"patchline" : 								{
									"destination" : [ "obj-5", 0 ],
									"hidden" : 0,
									"midpoints" : [ 126.86364, 242.076111, 181.22728, 242.076111 ],
									"source" : [ "obj-8", 0 ]
								}

							}
, 							{
								"patchline" : 								{
									"destination" : [ "obj-6", 0 ],
									"hidden" : 0,
									"midpoints" : [ 126.86364, 242.076111, 72.5, 242.076111 ],
									"source" : [ "obj-8", 0 ]
								}

							}
, 							{
								"patchline" : 								{
									"destination" : [ "obj-7", 0 ],
									"hidden" : 0,
									"midpoints" : [  ],
									"source" : [ "obj-8", 0 ]
								}

							}
, 							{
								"patchline" : 								{
									"destination" : [ "obj-10", 0 ],
									"hidden" : 0,
									"midpoints" : [  ],
									"source" : [ "obj-9", 0 ]
								}

							}
 ]
					}
,
					"patching_rect" : [ 11.0, 201.0, 74.0, 20.0 ],
					"saved_object_attributes" : 					{
						"default_fontname" : "Verdana",
						"fontname" : "Verdana",
						"default_fontsize" : 11.0,
						"globalpatchername" : "",
						"fontface" : 0,
						"fontsize" : 11.0,
						"default_fontface" : 0
					}
,
					"text" : "p Scripts"
				}

			}
, 			{
				"box" : 				{
					"fontname" : "Verdana",
					"fontsize" : 11.0,
					"id" : "obj-19",
					"linecount" : 2,
					"maxclass" : "newobj",
					"numinlets" : 1,
					"numoutlets" : 1,
					"outlettype" : [ "" ],
					"patching_rect" : [ 1049.0, 90.0, 68.0, 33.0 ],
					"text" : "sprintf set %s_16",
					"varname" : "sp[15]"
				}

			}
, 			{
				"box" : 				{
					"fontname" : "Verdana",
					"fontsize" : 11.0,
					"id" : "obj-20",
					"linecount" : 2,
					"maxclass" : "newobj",
					"numinlets" : 1,
					"numoutlets" : 0,
					"patching_rect" : [ 1041.0, 141.0, 65.0, 33.0 ],
					"text" : "send~ #1_16",
					"varname" : "s[15]"
				}

			}
, 			{
				"box" : 				{
					"fontname" : "Verdana",
					"fontsize" : 11.0,
					"id" : "obj-21",
					"linecount" : 2,
					"maxclass" : "newobj",
					"numinlets" : 1,
					"numoutlets" : 0,
					"patching_rect" : [ 975.0, 141.0, 65.0, 33.0 ],
					"text" : "send~ #1_15",
					"varname" : "s[14]"
				}

			}
, 			{
				"box" : 				{
					"fontname" : "Verdana",
					"fontsize" : 11.0,
					"id" : "obj-22",
					"linecount" : 2,
					"maxclass" : "newobj",
					"numinlets" : 1,
					"numoutlets" : 1,
					"outlettype" : [ "" ],
					"patching_rect" : [ 917.0, 90.0, 68.0, 33.0 ],
					"text" : "sprintf set %s_14",
					"varname" : "sp[13]"
				}

			}
, 			{
				"box" : 				{
					"fontname" : "Verdana",
					"fontsize" : 11.0,
					"id" : "obj-23",
					"linecount" : 2,
					"maxclass" : "newobj",
					"numinlets" : 1,
					"numoutlets" : 0,
					"patching_rect" : [ 909.0, 141.0, 65.0, 33.0 ],
					"text" : "send~ #1_14",
					"varname" : "s[13]"
				}

			}
, 			{
				"box" : 				{
					"fontname" : "Verdana",
					"fontsize" : 11.0,
					"id" : "obj-24",
					"linecount" : 2,
					"maxclass" : "newobj",
					"numinlets" : 1,
					"numoutlets" : 1,
					"outlettype" : [ "" ],
					"patching_rect" : [ 851.0, 90.0, 68.0, 33.0 ],
					"text" : "sprintf set %s_13",
					"varname" : "sp[12]"
				}

			}
, 			{
				"box" : 				{
					"fontname" : "Verdana",
					"fontsize" : 11.0,
					"id" : "obj-25",
					"linecount" : 2,
					"maxclass" : "newobj",
					"numinlets" : 1,
					"numoutlets" : 0,
					"patching_rect" : [ 843.0, 141.0, 65.0, 33.0 ],
					"text" : "send~ #1_13",
					"varname" : "s[12]"
				}

			}
, 			{
				"box" : 				{
					"fontname" : "Verdana",
					"fontsize" : 11.0,
					"id" : "obj-26",
					"linecount" : 2,
					"maxclass" : "newobj",
					"numinlets" : 1,
					"numoutlets" : 1,
					"outlettype" : [ "" ],
					"patching_rect" : [ 785.0, 90.0, 68.0, 33.0 ],
					"text" : "sprintf set %s_12",
					"varname" : "sp[11]"
				}

			}
, 			{
				"box" : 				{
					"fontname" : "Verdana",
					"fontsize" : 11.0,
					"id" : "obj-27",
					"linecount" : 2,
					"maxclass" : "newobj",
					"numinlets" : 1,
					"numoutlets" : 0,
					"patching_rect" : [ 777.0, 141.0, 65.0, 33.0 ],
					"text" : "send~ #1_12",
					"varname" : "s[11]"
				}

			}
, 			{
				"box" : 				{
					"fontname" : "Verdana",
					"fontsize" : 11.0,
					"id" : "obj-28",
					"linecount" : 2,
					"maxclass" : "newobj",
					"numinlets" : 1,
					"numoutlets" : 1,
					"outlettype" : [ "" ],
					"patching_rect" : [ 719.0, 90.0, 68.0, 33.0 ],
					"text" : "sprintf set %s_11",
					"varname" : "sp[10]"
				}

			}
, 			{
				"box" : 				{
					"fontname" : "Verdana",
					"fontsize" : 11.0,
					"id" : "obj-29",
					"linecount" : 2,
					"maxclass" : "newobj",
					"numinlets" : 1,
					"numoutlets" : 0,
					"patching_rect" : [ 711.0, 141.0, 65.0, 33.0 ],
					"text" : "send~ #1_11",
					"varname" : "s[10]"
				}

			}
, 			{
				"box" : 				{
					"fontname" : "Verdana",
					"fontsize" : 11.0,
					"id" : "obj-30",
					"linecount" : 2,
					"maxclass" : "newobj",
					"numinlets" : 1,
					"numoutlets" : 1,
					"outlettype" : [ "" ],
					"patching_rect" : [ 653.0, 90.0, 68.0, 33.0 ],
					"text" : "sprintf set %s_10",
					"varname" : "sp[9]"
				}

			}
, 			{
				"box" : 				{
					"fontname" : "Verdana",
					"fontsize" : 11.0,
					"id" : "obj-31",
					"linecount" : 2,
					"maxclass" : "newobj",
					"numinlets" : 1,
					"numoutlets" : 0,
					"patching_rect" : [ 645.0, 141.0, 65.0, 33.0 ],
					"text" : "send~ #1_10",
					"varname" : "s[9]"
				}

			}
, 			{
				"box" : 				{
					"fontname" : "Verdana",
					"fontsize" : 11.0,
					"id" : "obj-32",
					"linecount" : 2,
					"maxclass" : "newobj",
					"numinlets" : 1,
					"numoutlets" : 1,
					"outlettype" : [ "" ],
					"patching_rect" : [ 587.0, 90.0, 61.0, 33.0 ],
					"text" : "sprintf set %s_9",
					"varname" : "sp[8]"
				}

			}
, 			{
				"box" : 				{
					"fontname" : "Verdana",
					"fontsize" : 11.0,
					"id" : "obj-33",
					"linecount" : 2,
					"maxclass" : "newobj",
					"numinlets" : 1,
					"numoutlets" : 0,
					"patching_rect" : [ 579.0, 141.0, 66.0, 33.0 ],
					"text" : "send~ #1_9",
					"varname" : "s[8]"
				}

			}
, 			{
				"box" : 				{
					"fontname" : "Verdana",
					"fontsize" : 11.0,
					"id" : "obj-34",
					"linecount" : 2,
					"maxclass" : "newobj",
					"numinlets" : 1,
					"numoutlets" : 1,
					"outlettype" : [ "" ],
					"patching_rect" : [ 521.0, 90.0, 61.0, 33.0 ],
					"text" : "sprintf set %s_8",
					"varname" : "sp[7]"
				}

			}
, 			{
				"box" : 				{
					"fontname" : "Verdana",
					"fontsize" : 11.0,
					"id" : "obj-35",
					"linecount" : 2,
					"maxclass" : "newobj",
					"numinlets" : 1,
					"numoutlets" : 0,
					"patching_rect" : [ 513.0, 141.0, 66.0, 33.0 ],
					"text" : "send~ #1_8",
					"varname" : "s[7]"
				}

			}
, 			{
				"box" : 				{
					"fontname" : "Verdana",
					"fontsize" : 11.0,
					"id" : "obj-36",
					"linecount" : 2,
					"maxclass" : "newobj",
					"numinlets" : 1,
					"numoutlets" : 1,
					"outlettype" : [ "" ],
					"patching_rect" : [ 455.0, 90.0, 61.0, 33.0 ],
					"text" : "sprintf set %s_7",
					"varname" : "sp[6]"
				}

			}
, 			{
				"box" : 				{
					"fontname" : "Verdana",
					"fontsize" : 11.0,
					"id" : "obj-37",
					"linecount" : 2,
					"maxclass" : "newobj",
					"numinlets" : 1,
					"numoutlets" : 0,
					"patching_rect" : [ 447.0, 141.0, 66.0, 33.0 ],
					"text" : "send~ #1_7",
					"varname" : "s[6]"
				}

			}
, 			{
				"box" : 				{
					"fontname" : "Verdana",
					"fontsize" : 11.0,
					"id" : "obj-38",
					"linecount" : 2,
					"maxclass" : "newobj",
					"numinlets" : 1,
					"numoutlets" : 1,
					"outlettype" : [ "" ],
					"patching_rect" : [ 389.0, 90.0, 61.0, 33.0 ],
					"text" : "sprintf set %s_6",
					"varname" : "sp[5]"
				}

			}
, 			{
				"box" : 				{
					"fontname" : "Verdana",
					"fontsize" : 11.0,
					"id" : "obj-39",
					"linecount" : 2,
					"maxclass" : "newobj",
					"numinlets" : 1,
					"numoutlets" : 0,
					"patching_rect" : [ 381.0, 141.0, 66.0, 33.0 ],
					"text" : "send~ #1_6",
					"varname" : "s[5]"
				}

			}
, 			{
				"box" : 				{
					"fontname" : "Verdana",
					"fontsize" : 11.0,
					"id" : "obj-40",
					"linecount" : 2,
					"maxclass" : "newobj",
					"numinlets" : 1,
					"numoutlets" : 1,
					"outlettype" : [ "" ],
					"patching_rect" : [ 323.0, 90.0, 61.0, 33.0 ],
					"text" : "sprintf set %s_5",
					"varname" : "sp[4]"
				}

			}
, 			{
				"box" : 				{
					"fontname" : "Verdana",
					"fontsize" : 11.0,
					"id" : "obj-41",
					"linecount" : 2,
					"maxclass" : "newobj",
					"numinlets" : 1,
					"numoutlets" : 0,
					"patching_rect" : [ 315.0, 141.0, 66.0, 33.0 ],
					"text" : "send~ #1_5",
					"varname" : "s[4]"
				}

			}
, 			{
				"box" : 				{
					"fontname" : "Verdana",
					"fontsize" : 11.0,
					"id" : "obj-42",
					"linecount" : 2,
					"maxclass" : "newobj",
					"numinlets" : 1,
					"numoutlets" : 1,
					"outlettype" : [ "" ],
					"patching_rect" : [ 257.0, 90.0, 61.0, 33.0 ],
					"text" : "sprintf set %s_4",
					"varname" : "sp[3]"
				}

			}
, 			{
				"box" : 				{
					"fontname" : "Verdana",
					"fontsize" : 11.0,
					"id" : "obj-43",
					"linecount" : 2,
					"maxclass" : "newobj",
					"numinlets" : 1,
					"numoutlets" : 0,
					"patching_rect" : [ 249.0, 141.0, 66.0, 33.0 ],
					"text" : "send~ #1_4",
					"varname" : "s[3]"
				}

			}
, 			{
				"box" : 				{
					"fontname" : "Verdana",
					"fontsize" : 11.0,
					"id" : "obj-44",
					"linecount" : 2,
					"maxclass" : "newobj",
					"numinlets" : 1,
					"numoutlets" : 1,
					"outlettype" : [ "" ],
					"patching_rect" : [ 191.0, 90.0, 61.0, 33.0 ],
					"text" : "sprintf set %s_3",
					"varname" : "sp[2]"
				}

			}
, 			{
				"box" : 				{
					"fontname" : "Verdana",
					"fontsize" : 11.0,
					"id" : "obj-45",
					"linecount" : 2,
					"maxclass" : "newobj",
					"numinlets" : 1,
					"numoutlets" : 0,
					"patching_rect" : [ 183.0, 141.0, 66.0, 33.0 ],
					"text" : "send~ #1_3",
					"varname" : "s[2]"
				}

			}
, 			{
				"box" : 				{
					"fontname" : "Verdana",
					"fontsize" : 11.0,
					"id" : "obj-46",
					"linecount" : 2,
					"maxclass" : "newobj",
					"numinlets" : 1,
					"numoutlets" : 1,
					"outlettype" : [ "" ],
					"patching_rect" : [ 125.0, 90.0, 61.0, 33.0 ],
					"text" : "sprintf set %s_2",
					"varname" : "sp[1]"
				}

			}
, 			{
				"box" : 				{
					"fontname" : "Verdana",
					"fontsize" : 11.0,
					"id" : "obj-47",
					"linecount" : 2,
					"maxclass" : "newobj",
					"numinlets" : 1,
					"numoutlets" : 0,
					"patching_rect" : [ 117.0, 141.0, 66.0, 33.0 ],
					"text" : "send~ #1_2",
					"varname" : "s[1]"
				}

			}
, 			{
				"box" : 				{
					"fontname" : "Verdana",
					"fontsize" : 11.0,
					"id" : "obj-48",
					"linecount" : 2,
					"maxclass" : "newobj",
					"numinlets" : 1,
					"numoutlets" : 1,
					"outlettype" : [ "" ],
					"patching_rect" : [ 59.0, 90.0, 61.0, 33.0 ],
					"text" : "sprintf set %s_1",
					"varname" : "sp[0]"
				}

			}
, 			{
				"box" : 				{
					"fontname" : "Verdana",
					"fontsize" : 11.0,
					"id" : "obj-49",
					"linecount" : 2,
					"maxclass" : "newobj",
					"numinlets" : 1,
					"numoutlets" : 0,
					"patching_rect" : [ 51.0, 141.0, 67.0, 33.0 ],
					"text" : "send~ #1_1",
					"varname" : "s[0]"
				}

			}
, 			{
				"box" : 				{
					"comment" : "",
					"id" : "obj-50",
					"maxclass" : "inlet",
					"numinlets" : 0,
					"numoutlets" : 1,
					"outlettype" : [ "" ],
					"patching_rect" : [ 10.0, 9.0, 19.0, 19.0 ],
					"varname" : "in[0]"
				}

			}
, 			{
				"box" : 				{
					"fontname" : "Verdana",
					"fontsize" : 11.0,
					"id" : "obj-51",
					"maxclass" : "newobj",
					"numinlets" : 1,
					"numoutlets" : 2,
					"outlettype" : [ "", "" ],
					"patching_rect" : [ 10.0, 34.0, 60.0, 20.0 ],
					"text" : "route set"
				}

			}
, 			{
				"box" : 				{
					"fontname" : "Verdana",
					"fontsize" : 11.0,
					"id" : "obj-52",
					"linecount" : 2,
					"maxclass" : "newobj",
					"numinlets" : 1,
					"numoutlets" : 1,
					"outlettype" : [ "" ],
					"patching_rect" : [ 983.0, 90.0, 68.0, 33.0 ],
					"text" : "sprintf set %s_15",
					"varname" : "sp[14]"
				}

			}
 ],
		"lines" : [ 			{
				"patchline" : 				{
					"destination" : [ "obj-20", 0 ],
					"hidden" : 0,
					"midpoints" : [  ],
					"source" : [ "obj-1", 0 ]
				}

			}
, 			{
				"patchline" : 				{
					"destination" : [ "obj-37", 0 ],
					"hidden" : 0,
					"midpoints" : [  ],
					"source" : [ "obj-10", 0 ]
				}

			}
, 			{
				"patchline" : 				{
					"destination" : [ "obj-39", 0 ],
					"hidden" : 0,
					"midpoints" : [  ],
					"source" : [ "obj-11", 0 ]
				}

			}
, 			{
				"patchline" : 				{
					"destination" : [ "obj-41", 0 ],
					"hidden" : 0,
					"midpoints" : [  ],
					"source" : [ "obj-12", 0 ]
				}

			}
, 			{
				"patchline" : 				{
					"destination" : [ "obj-43", 0 ],
					"hidden" : 0,
					"midpoints" : [  ],
					"source" : [ "obj-13", 0 ]
				}

			}
, 			{
				"patchline" : 				{
					"destination" : [ "obj-45", 0 ],
					"hidden" : 0,
					"midpoints" : [  ],
					"source" : [ "obj-14", 0 ]
				}

			}
, 			{
				"patchline" : 				{
					"destination" : [ "obj-47", 0 ],
					"hidden" : 0,
					"midpoints" : [  ],
					"source" : [ "obj-15", 0 ]
				}

			}
, 			{
				"patchline" : 				{
					"destination" : [ "obj-54", 0 ],
					"hidden" : 0,
					"midpoints" : [  ],
					"source" : [ "obj-17", 0 ]
				}

			}
, 			{
				"patchline" : 				{
					"destination" : [ "obj-16", 0 ],
					"hidden" : 1,
					"midpoints" : [  ],
					"source" : [ "obj-18", 0 ]
				}

			}
, 			{
				"patchline" : 				{
					"destination" : [ "obj-20", 0 ],
					"hidden" : 0,
					"midpoints" : [  ],
					"source" : [ "obj-19", 0 ]
				}

			}
, 			{
				"patchline" : 				{
					"destination" : [ "obj-21", 0 ],
					"hidden" : 0,
					"midpoints" : [  ],
					"source" : [ "obj-2", 0 ]
				}

			}
, 			{
				"patchline" : 				{
					"destination" : [ "obj-23", 0 ],
					"hidden" : 0,
					"midpoints" : [  ],
					"source" : [ "obj-22", 0 ]
				}

			}
, 			{
				"patchline" : 				{
					"destination" : [ "obj-25", 0 ],
					"hidden" : 0,
					"midpoints" : [  ],
					"source" : [ "obj-24", 0 ]
				}

			}
, 			{
				"patchline" : 				{
					"destination" : [ "obj-27", 0 ],
					"hidden" : 0,
					"midpoints" : [  ],
					"source" : [ "obj-26", 0 ]
				}

			}
, 			{
				"patchline" : 				{
					"destination" : [ "obj-29", 0 ],
					"hidden" : 0,
					"midpoints" : [  ],
					"source" : [ "obj-28", 0 ]
				}

			}
, 			{
				"patchline" : 				{
					"destination" : [ "obj-23", 0 ],
					"hidden" : 0,
					"midpoints" : [  ],
					"source" : [ "obj-3", 0 ]
				}

			}
, 			{
				"patchline" : 				{
					"destination" : [ "obj-31", 0 ],
					"hidden" : 0,
					"midpoints" : [  ],
					"source" : [ "obj-30", 0 ]
				}

			}
, 			{
				"patchline" : 				{
					"destination" : [ "obj-33", 0 ],
					"hidden" : 0,
					"midpoints" : [  ],
					"source" : [ "obj-32", 0 ]
				}

			}
, 			{
				"patchline" : 				{
					"destination" : [ "obj-35", 0 ],
					"hidden" : 0,
					"midpoints" : [  ],
					"source" : [ "obj-34", 0 ]
				}

			}
, 			{
				"patchline" : 				{
					"destination" : [ "obj-37", 0 ],
					"hidden" : 0,
					"midpoints" : [  ],
					"source" : [ "obj-36", 0 ]
				}

			}
, 			{
				"patchline" : 				{
					"destination" : [ "obj-39", 0 ],
					"hidden" : 0,
					"midpoints" : [  ],
					"source" : [ "obj-38", 0 ]
				}

			}
, 			{
				"patchline" : 				{
					"destination" : [ "obj-25", 0 ],
					"hidden" : 0,
					"midpoints" : [  ],
					"source" : [ "obj-4", 0 ]
				}

			}
, 			{
				"patchline" : 				{
					"destination" : [ "obj-41", 0 ],
					"hidden" : 0,
					"midpoints" : [  ],
					"source" : [ "obj-40", 0 ]
				}

			}
, 			{
				"patchline" : 				{
					"destination" : [ "obj-43", 0 ],
					"hidden" : 0,
					"midpoints" : [  ],
					"source" : [ "obj-42", 0 ]
				}

			}
, 			{
				"patchline" : 				{
					"destination" : [ "obj-45", 0 ],
					"hidden" : 0,
					"midpoints" : [  ],
					"source" : [ "obj-44", 0 ]
				}

			}
, 			{
				"patchline" : 				{
					"destination" : [ "obj-47", 0 ],
					"hidden" : 0,
					"midpoints" : [  ],
					"source" : [ "obj-46", 0 ]
				}

			}
, 			{
				"patchline" : 				{
					"destination" : [ "obj-49", 0 ],
					"hidden" : 0,
					"midpoints" : [  ],
					"source" : [ "obj-48", 0 ]
				}

			}
, 			{
				"patchline" : 				{
					"destination" : [ "obj-27", 0 ],
					"hidden" : 0,
					"midpoints" : [  ],
					"source" : [ "obj-5", 0 ]
				}

			}
, 			{
				"patchline" : 				{
					"destination" : [ "obj-51", 0 ],
					"hidden" : 0,
					"midpoints" : [  ],
					"source" : [ "obj-50", 0 ]
				}

			}
, 			{
				"patchline" : 				{
					"destination" : [ "obj-19", 0 ],
					"hidden" : 0,
					"midpoints" : [ 19.5, 85.0, 1058.5, 85.0 ],
					"source" : [ "obj-51", 0 ]
				}

			}
, 			{
				"patchline" : 				{
					"destination" : [ "obj-22", 0 ],
					"hidden" : 0,
					"midpoints" : [ 19.5, 85.0, 926.5, 85.0 ],
					"source" : [ "obj-51", 0 ]
				}

			}
, 			{
				"patchline" : 				{
					"destination" : [ "obj-24", 0 ],
					"hidden" : 0,
					"midpoints" : [ 19.5, 85.0, 860.5, 85.0 ],
					"source" : [ "obj-51", 0 ]
				}

			}
, 			{
				"patchline" : 				{
					"destination" : [ "obj-26", 0 ],
					"hidden" : 0,
					"midpoints" : [ 19.5, 85.0, 794.5, 85.0 ],
					"source" : [ "obj-51", 0 ]
				}

			}
, 			{
				"patchline" : 				{
					"destination" : [ "obj-28", 0 ],
					"hidden" : 0,
					"midpoints" : [ 19.5, 85.0, 728.5, 85.0 ],
					"source" : [ "obj-51", 0 ]
				}

			}
, 			{
				"patchline" : 				{
					"destination" : [ "obj-30", 0 ],
					"hidden" : 0,
					"midpoints" : [ 19.5, 85.0, 662.5, 85.0 ],
					"source" : [ "obj-51", 0 ]
				}

			}
, 			{
				"patchline" : 				{
					"destination" : [ "obj-32", 0 ],
					"hidden" : 0,
					"midpoints" : [ 19.5, 85.0, 596.5, 85.0 ],
					"source" : [ "obj-51", 0 ]
				}

			}
, 			{
				"patchline" : 				{
					"destination" : [ "obj-34", 0 ],
					"hidden" : 0,
					"midpoints" : [ 19.5, 85.0, 530.5, 85.0 ],
					"source" : [ "obj-51", 0 ]
				}

			}
, 			{
				"patchline" : 				{
					"destination" : [ "obj-36", 0 ],
					"hidden" : 0,
					"midpoints" : [ 19.5, 85.0, 464.5, 85.0 ],
					"source" : [ "obj-51", 0 ]
				}

			}
, 			{
				"patchline" : 				{
					"destination" : [ "obj-38", 0 ],
					"hidden" : 0,
					"midpoints" : [ 19.5, 85.0, 398.5, 85.0 ],
					"source" : [ "obj-51", 0 ]
				}

			}
, 			{
				"patchline" : 				{
					"destination" : [ "obj-40", 0 ],
					"hidden" : 0,
					"midpoints" : [ 19.5, 85.0, 332.5, 85.0 ],
					"source" : [ "obj-51", 0 ]
				}

			}
, 			{
				"patchline" : 				{
					"destination" : [ "obj-42", 0 ],
					"hidden" : 0,
					"midpoints" : [ 19.5, 85.0, 266.5, 85.0 ],
					"source" : [ "obj-51", 0 ]
				}

			}
, 			{
				"patchline" : 				{
					"destination" : [ "obj-44", 0 ],
					"hidden" : 0,
					"midpoints" : [ 19.5, 85.0, 200.5, 85.0 ],
					"source" : [ "obj-51", 0 ]
				}

			}
, 			{
				"patchline" : 				{
					"destination" : [ "obj-46", 0 ],
					"hidden" : 0,
					"midpoints" : [ 19.5, 85.0, 134.5, 85.0 ],
					"source" : [ "obj-51", 0 ]
				}

			}
, 			{
				"patchline" : 				{
					"destination" : [ "obj-48", 0 ],
					"hidden" : 0,
					"midpoints" : [ 19.5, 85.0, 68.5, 85.0 ],
					"source" : [ "obj-51", 0 ]
				}

			}
, 			{
				"patchline" : 				{
					"destination" : [ "obj-52", 0 ],
					"hidden" : 0,
					"midpoints" : [ 19.5, 85.0, 992.5, 85.0 ],
					"source" : [ "obj-51", 0 ]
				}

			}
, 			{
				"patchline" : 				{
					"destination" : [ "obj-53", 0 ],
					"hidden" : 0,
					"midpoints" : [ 19.5, 85.0, 1124.5, 85.0 ],
					"source" : [ "obj-51", 0 ]
				}

			}
, 			{
				"patchline" : 				{
					"destination" : [ "obj-56", 0 ],
					"hidden" : 0,
					"midpoints" : [ 19.5, 85.0, 1190.5, 85.0 ],
					"source" : [ "obj-51", 0 ]
				}

			}
, 			{
				"patchline" : 				{
					"destination" : [ "obj-59", 0 ],
					"hidden" : 0,
					"midpoints" : [ 19.5, 85.0, 1256.5, 85.0 ],
					"source" : [ "obj-51", 0 ]
				}

			}
, 			{
				"patchline" : 				{
					"destination" : [ "obj-62", 0 ],
					"hidden" : 0,
					"midpoints" : [ 19.5, 85.0, 1322.5, 85.0 ],
					"source" : [ "obj-51", 0 ]
				}

			}
, 			{
				"patchline" : 				{
					"destination" : [ "obj-65", 0 ],
					"hidden" : 0,
					"midpoints" : [ 19.5, 85.0, 1388.5, 85.0 ],
					"source" : [ "obj-51", 0 ]
				}

			}
, 			{
				"patchline" : 				{
					"destination" : [ "obj-68", 0 ],
					"hidden" : 0,
					"midpoints" : [ 19.5, 85.0, 1454.5, 85.0 ],
					"source" : [ "obj-51", 0 ]
				}

			}
, 			{
				"patchline" : 				{
					"destination" : [ "obj-71", 0 ],
					"hidden" : 0,
					"midpoints" : [ 19.5, 85.0, 1520.5, 85.0 ],
					"source" : [ "obj-51", 0 ]
				}

			}
, 			{
				"patchline" : 				{
					"destination" : [ "obj-74", 0 ],
					"hidden" : 0,
					"midpoints" : [ 19.5, 85.0, 1586.5, 85.0 ],
					"source" : [ "obj-51", 0 ]
				}

			}
, 			{
				"patchline" : 				{
					"destination" : [ "obj-76", 0 ],
					"hidden" : 0,
					"midpoints" : [  ],
					"source" : [ "obj-51", 1 ]
				}

			}
, 			{
				"patchline" : 				{
					"destination" : [ "obj-21", 0 ],
					"hidden" : 0,
					"midpoints" : [  ],
					"source" : [ "obj-52", 0 ]
				}

			}
, 			{
				"patchline" : 				{
					"destination" : [ "obj-54", 0 ],
					"hidden" : 0,
					"midpoints" : [  ],
					"source" : [ "obj-53", 0 ]
				}

			}
, 			{
				"patchline" : 				{
					"destination" : [ "obj-57", 0 ],
					"hidden" : 0,
					"midpoints" : [  ],
					"source" : [ "obj-55", 0 ]
				}

			}
, 			{
				"patchline" : 				{
					"destination" : [ "obj-57", 0 ],
					"hidden" : 0,
					"midpoints" : [  ],
					"source" : [ "obj-56", 0 ]
				}

			}
, 			{
				"patchline" : 				{
					"destination" : [ "obj-60", 0 ],
					"hidden" : 0,
					"midpoints" : [  ],
					"source" : [ "obj-58", 0 ]
				}

			}
, 			{
				"patchline" : 				{
					"destination" : [ "obj-60", 0 ],
					"hidden" : 0,
					"midpoints" : [  ],
					"source" : [ "obj-59", 0 ]
				}

			}
, 			{
				"patchline" : 				{
					"destination" : [ "obj-29", 0 ],
					"hidden" : 0,
					"midpoints" : [  ],
					"source" : [ "obj-6", 0 ]
				}

			}
, 			{
				"patchline" : 				{
					"destination" : [ "obj-63", 0 ],
					"hidden" : 0,
					"midpoints" : [  ],
					"source" : [ "obj-61", 0 ]
				}

			}
, 			{
				"patchline" : 				{
					"destination" : [ "obj-63", 0 ],
					"hidden" : 0,
					"midpoints" : [  ],
					"source" : [ "obj-62", 0 ]
				}

			}
, 			{
				"patchline" : 				{
					"destination" : [ "obj-66", 0 ],
					"hidden" : 0,
					"midpoints" : [  ],
					"source" : [ "obj-64", 0 ]
				}

			}
, 			{
				"patchline" : 				{
					"destination" : [ "obj-66", 0 ],
					"hidden" : 0,
					"midpoints" : [  ],
					"source" : [ "obj-65", 0 ]
				}

			}
, 			{
				"patchline" : 				{
					"destination" : [ "obj-69", 0 ],
					"hidden" : 0,
					"midpoints" : [  ],
					"source" : [ "obj-67", 0 ]
				}

			}
, 			{
				"patchline" : 				{
					"destination" : [ "obj-69", 0 ],
					"hidden" : 0,
					"midpoints" : [  ],
					"source" : [ "obj-68", 0 ]
				}

			}
, 			{
				"patchline" : 				{
					"destination" : [ "obj-31", 0 ],
					"hidden" : 0,
					"midpoints" : [  ],
					"source" : [ "obj-7", 0 ]
				}

			}
, 			{
				"patchline" : 				{
					"destination" : [ "obj-72", 0 ],
					"hidden" : 0,
					"midpoints" : [  ],
					"source" : [ "obj-70", 0 ]
				}

			}
, 			{
				"patchline" : 				{
					"destination" : [ "obj-72", 0 ],
					"hidden" : 0,
					"midpoints" : [  ],
					"source" : [ "obj-71", 0 ]
				}

			}
, 			{
				"patchline" : 				{
					"destination" : [ "obj-75", 0 ],
					"hidden" : 0,
					"midpoints" : [  ],
					"source" : [ "obj-73", 0 ]
				}

			}
, 			{
				"patchline" : 				{
					"destination" : [ "obj-75", 0 ],
					"hidden" : 0,
					"midpoints" : [  ],
					"source" : [ "obj-74", 0 ]
				}

			}
, 			{
				"patchline" : 				{
					"destination" : [ "obj-20", 0 ],
					"hidden" : 0,
					"midpoints" : [  ],
					"source" : [ "obj-76", 15 ]
				}

			}
, 			{
				"patchline" : 				{
					"destination" : [ "obj-21", 0 ],
					"hidden" : 0,
					"midpoints" : [  ],
					"source" : [ "obj-76", 14 ]
				}

			}
, 			{
				"patchline" : 				{
					"destination" : [ "obj-23", 0 ],
					"hidden" : 0,
					"midpoints" : [  ],
					"source" : [ "obj-76", 13 ]
				}

			}
, 			{
				"patchline" : 				{
					"destination" : [ "obj-25", 0 ],
					"hidden" : 0,
					"midpoints" : [  ],
					"source" : [ "obj-76", 12 ]
				}

			}
, 			{
				"patchline" : 				{
					"destination" : [ "obj-27", 0 ],
					"hidden" : 0,
					"midpoints" : [  ],
					"source" : [ "obj-76", 11 ]
				}

			}
, 			{
				"patchline" : 				{
					"destination" : [ "obj-29", 0 ],
					"hidden" : 0,
					"midpoints" : [  ],
					"source" : [ "obj-76", 10 ]
				}

			}
, 			{
				"patchline" : 				{
					"destination" : [ "obj-31", 0 ],
					"hidden" : 0,
					"midpoints" : [  ],
					"source" : [ "obj-76", 9 ]
				}

			}
, 			{
				"patchline" : 				{
					"destination" : [ "obj-33", 0 ],
					"hidden" : 0,
					"midpoints" : [  ],
					"source" : [ "obj-76", 8 ]
				}

			}
, 			{
				"patchline" : 				{
					"destination" : [ "obj-35", 0 ],
					"hidden" : 0,
					"midpoints" : [  ],
					"source" : [ "obj-76", 7 ]
				}

			}
, 			{
				"patchline" : 				{
					"destination" : [ "obj-37", 0 ],
					"hidden" : 0,
					"midpoints" : [  ],
					"source" : [ "obj-76", 6 ]
				}

			}
, 			{
				"patchline" : 				{
					"destination" : [ "obj-39", 0 ],
					"hidden" : 0,
					"midpoints" : [  ],
					"source" : [ "obj-76", 5 ]
				}

			}
, 			{
				"patchline" : 				{
					"destination" : [ "obj-41", 0 ],
					"hidden" : 0,
					"midpoints" : [  ],
					"source" : [ "obj-76", 4 ]
				}

			}
, 			{
				"patchline" : 				{
					"destination" : [ "obj-43", 0 ],
					"hidden" : 0,
					"midpoints" : [  ],
					"source" : [ "obj-76", 3 ]
				}

			}
, 			{
				"patchline" : 				{
					"destination" : [ "obj-45", 0 ],
					"hidden" : 0,
					"midpoints" : [  ],
					"source" : [ "obj-76", 2 ]
				}

			}
, 			{
				"patchline" : 				{
					"destination" : [ "obj-47", 0 ],
					"hidden" : 0,
					"midpoints" : [  ],
					"source" : [ "obj-76", 1 ]
				}

			}
, 			{
				"patchline" : 				{
					"destination" : [ "obj-49", 0 ],
					"hidden" : 0,
					"midpoints" : [  ],
					"source" : [ "obj-76", 0 ]
				}

			}
, 			{
				"patchline" : 				{
					"destination" : [ "obj-54", 0 ],
					"hidden" : 0,
					"midpoints" : [  ],
					"source" : [ "obj-76", 16 ]
				}

			}
, 			{
				"patchline" : 				{
					"destination" : [ "obj-57", 0 ],
					"hidden" : 0,
					"midpoints" : [  ],
					"source" : [ "obj-76", 17 ]
				}

			}
, 			{
				"patchline" : 				{
					"destination" : [ "obj-60", 0 ],
					"hidden" : 0,
					"midpoints" : [  ],
					"source" : [ "obj-76", 18 ]
				}

			}
, 			{
				"patchline" : 				{
					"destination" : [ "obj-63", 0 ],
					"hidden" : 0,
					"midpoints" : [  ],
					"source" : [ "obj-76", 19 ]
				}

			}
, 			{
				"patchline" : 				{
					"destination" : [ "obj-66", 0 ],
					"hidden" : 0,
					"midpoints" : [  ],
					"source" : [ "obj-76", 20 ]
				}

			}
, 			{
				"patchline" : 				{
					"destination" : [ "obj-69", 0 ],
					"hidden" : 0,
					"midpoints" : [  ],
					"source" : [ "obj-76", 21 ]
				}

			}
, 			{
				"patchline" : 				{
					"destination" : [ "obj-72", 0 ],
					"hidden" : 0,
					"midpoints" : [  ],
					"source" : [ "obj-76", 22 ]
				}

			}
, 			{
				"patchline" : 				{
					"destination" : [ "obj-75", 0 ],
					"hidden" : 0,
					"midpoints" : [  ],
					"source" : [ "obj-76", 23 ]
				}

			}
, 			{
				"patchline" : 				{
					"destination" : [ "obj-18", 0 ],
					"hidden" : 1,
					"midpoints" : [  ],
					"source" : [ "obj-77", 0 ]
				}

			}
, 			{
				"patchline" : 				{
					"destination" : [ "obj-33", 0 ],
					"hidden" : 0,
					"midpoints" : [  ],
					"source" : [ "obj-8", 0 ]
				}

			}
, 			{
				"patchline" : 				{
					"destination" : [ "obj-35", 0 ],
					"hidden" : 0,
					"midpoints" : [  ],
					"source" : [ "obj-9", 0 ]
				}

			}
 ]
	}

}
