{
	"patcher" : 	{
		"fileversion" : 1,
		"rect" : [ 163.0, 87.0, 320.0, 388.0 ],
		"bglocked" : 0,
		"defrect" : [ 163.0, 87.0, 320.0, 388.0 ],
		"openrect" : [ 0.0, 0.0, 0.0, 0.0 ],
		"openinpresentation" : 0,
		"default_fontsize" : 11.0,
		"default_fontface" : 0,
		"default_fontname" : "Verdana",
		"gridonopen" : 0,
		"gridsize" : [ 15.0, 15.0 ],
		"gridsnaponopen" : 0,
		"toolbarvisible" : 1,
		"boxanimatetime" : 200,
		"imprint" : 0,
		"boxes" : [ 			{
				"box" : 				{
					"maxclass" : "newobj",
					"text" : "route done",
					"numinlets" : 1,
					"id" : "obj-25",
					"fontname" : "Verdana",
					"numoutlets" : 2,
					"outlettype" : [ "", "" ],
					"fontsize" : 11.0,
					"patching_rect" : [ 248.0, 46.0, 71.0, 20.0 ]
				}

			}
, 			{
				"box" : 				{
					"maxclass" : "newobj",
					"text" : "patcherargs",
					"numinlets" : 1,
					"id" : "obj-1",
					"fontname" : "Verdana",
					"numoutlets" : 2,
					"outlettype" : [ "", "" ],
					"fontsize" : 11.0,
					"patching_rect" : [ 235.895996, 19.0, 78.0, 20.0 ]
				}

			}
, 			{
				"box" : 				{
					"maxclass" : "newobj",
					"text" : "counter",
					"numinlets" : 5,
					"id" : "obj-3",
					"fontname" : "Verdana",
					"numoutlets" : 4,
					"outlettype" : [ "int", "", "", "int" ],
					"fontsize" : 11.0,
					"patching_rect" : [ 54.855999, 242.995514, 111.0, 20.0 ]
				}

			}
, 			{
				"box" : 				{
					"maxclass" : "newobj",
					"text" : "route bang",
					"numinlets" : 1,
					"id" : "obj-4",
					"fontname" : "Verdana",
					"numoutlets" : 2,
					"outlettype" : [ "", "" ],
					"fontsize" : 11.0,
					"patching_rect" : [ 162.311996, 46.314423, 69.0, 20.0 ]
				}

			}
, 			{
				"box" : 				{
					"maxclass" : "newobj",
					"text" : "prepend set",
					"numinlets" : 1,
					"id" : "obj-5",
					"fontname" : "Verdana",
					"numoutlets" : 1,
					"outlettype" : [ "" ],
					"fontsize" : 11.0,
					"patching_rect" : [ 212.039993, 83.291725, 74.0, 20.0 ]
				}

			}
, 			{
				"box" : 				{
					"maxclass" : "inlet",
					"numinlets" : 0,
					"id" : "obj-7",
					"numoutlets" : 1,
					"outlettype" : [ "" ],
					"patching_rect" : [ 162.311996, 19.0, 19.0, 19.0 ],
					"comment" : ""
				}

			}
, 			{
				"box" : 				{
					"maxclass" : "newobj",
					"text" : "delay 50",
					"numinlets" : 2,
					"id" : "obj-8",
					"fontname" : "Verdana",
					"numoutlets" : 1,
					"outlettype" : [ "bang" ],
					"fontsize" : 11.0,
					"patching_rect" : [ 54.855999, 217.34967, 56.0, 20.0 ]
				}

			}
, 			{
				"box" : 				{
					"maxclass" : "newobj",
					"text" : "b",
					"numinlets" : 1,
					"id" : "obj-9",
					"fontname" : "Verdana",
					"numoutlets" : 2,
					"outlettype" : [ "bang", "bang" ],
					"fontsize" : 11.0,
					"patching_rect" : [ 54.855999, 194.035248, 23.0, 20.0 ]
				}

			}
, 			{
				"box" : 				{
					"maxclass" : "newobj",
					"text" : "b",
					"numinlets" : 1,
					"id" : "obj-10",
					"fontname" : "Verdana",
					"numoutlets" : 2,
					"outlettype" : [ "bang", "bang" ],
					"fontsize" : 11.0,
					"patching_rect" : [ 246.408005, 256.647064, 23.0, 20.0 ]
				}

			}
, 			{
				"box" : 				{
					"maxclass" : "newobj",
					"text" : "int",
					"numinlets" : 2,
					"id" : "obj-11",
					"fontname" : "Verdana",
					"numoutlets" : 1,
					"outlettype" : [ "int" ],
					"fontsize" : 11.0,
					"patching_rect" : [ 246.408005, 286.127197, 28.0, 20.0 ]
				}

			}
, 			{
				"box" : 				{
					"maxclass" : "newobj",
					"text" : "atoi",
					"numinlets" : 3,
					"id" : "obj-12",
					"fontname" : "Verdana",
					"numoutlets" : 1,
					"outlettype" : [ "list" ],
					"fontsize" : 11.0,
					"patching_rect" : [ 280.279999, 208.355331, 32.0, 20.0 ]
				}

			}
, 			{
				"box" : 				{
					"maxclass" : "umenu",
					"numinlets" : 1,
					"id" : "obj-13",
					"fontname" : "Verdana",
					"numoutlets" : 3,
					"outlettype" : [ "int", "", "" ],
					"types" : [  ],
					"fontsize" : 11.0,
					"patching_rect" : [ 171.656006, 164.892227, 112.0, 20.0 ],
					"items" : [ "to MaxMSP 1", ",", "to MaxMSP 2", ",", "nanoKEY KEYBOARD", ",", "nanoKONTROL SLIDER/KNOB" ]
				}

			}
, 			{
				"box" : 				{
					"maxclass" : "newobj",
					"text" : "zl sub",
					"numinlets" : 2,
					"id" : "obj-14",
					"fontname" : "Verdana",
					"numoutlets" : 2,
					"outlettype" : [ "", "" ],
					"fontsize" : 11.0,
					"patching_rect" : [ 246.408005, 232.835495, 53.0, 20.0 ]
				}

			}
, 			{
				"box" : 				{
					"maxclass" : "newobj",
					"text" : "atoi",
					"numinlets" : 3,
					"id" : "obj-15",
					"fontname" : "Verdana",
					"numoutlets" : 1,
					"outlettype" : [ "list" ],
					"fontsize" : 11.0,
					"patching_rect" : [ 246.408005, 208.355331, 32.0, 20.0 ]
				}

			}
, 			{
				"box" : 				{
					"maxclass" : "message",
					"text" : "#1",
					"numinlets" : 2,
					"id" : "obj-16",
					"fontname" : "Verdana",
					"numoutlets" : 1,
					"outlettype" : [ "" ],
					"fontsize" : 11.0,
					"patching_rect" : [ 212.039993, 110.103317, 64.0, 18.0 ]
				}

			}
, 			{
				"box" : 				{
					"maxclass" : "newobj",
					"text" : "counter",
					"numinlets" : 5,
					"id" : "obj-17",
					"fontname" : "Verdana",
					"numoutlets" : 4,
					"outlettype" : [ "int", "", "", "int" ],
					"fontsize" : 11.0,
					"patching_rect" : [ 54.855999, 164.892227, 111.0, 20.0 ]
				}

			}
, 			{
				"box" : 				{
					"maxclass" : "newobj",
					"text" : "b",
					"numinlets" : 1,
					"id" : "obj-18",
					"fontname" : "Verdana",
					"numoutlets" : 2,
					"outlettype" : [ "bang", "bang" ],
					"fontsize" : 11.0,
					"patching_rect" : [ 54.855999, 139.246338, 23.0, 20.0 ]
				}

			}
, 			{
				"box" : 				{
					"maxclass" : "newobj",
					"text" : "midiinfo",
					"numinlets" : 2,
					"id" : "obj-19",
					"fontname" : "Verdana",
					"numoutlets" : 1,
					"outlettype" : [ "" ],
					"fontsize" : 11.0,
					"patching_rect" : [ 54.855999, 111.269035, 53.0, 20.0 ]
				}

			}
, 			{
				"box" : 				{
					"maxclass" : "newobj",
					"text" : "t 0",
					"numinlets" : 1,
					"id" : "obj-20",
					"fontname" : "Verdana",
					"numoutlets" : 1,
					"outlettype" : [ "int" ],
					"fontsize" : 11.0,
					"patching_rect" : [ 100.912003, 80.960289, 26.0, 20.0 ]
				}

			}
, 			{
				"box" : 				{
					"maxclass" : "umenu",
					"numinlets" : 1,
					"id" : "obj-21",
					"fontname" : "Verdana",
					"numoutlets" : 3,
					"outlettype" : [ "int", "", "" ],
					"types" : [  ],
					"fontsize" : 11.0,
					"patching_rect" : [ 54.855999, 315.270233, 156.0, 20.0 ],
					"items" : [ "to MaxMSP 1", ",", "to MaxMSP 2", ",", "nanoKEY KEYBOARD", ",", "nanoKONTROL SLIDER/KNOB" ]
				}

			}
, 			{
				"box" : 				{
					"maxclass" : "outlet",
					"numinlets" : 1,
					"id" : "obj-22",
					"numoutlets" : 0,
					"patching_rect" : [ 122.599998, 338.584656, 19.0, 19.0 ],
					"comment" : ""
				}

			}
, 			{
				"box" : 				{
					"maxclass" : "outlet",
					"numinlets" : 1,
					"id" : "obj-23",
					"numoutlets" : 0,
					"patching_rect" : [ 246.408005, 338.584656, 19.0, 19.0 ],
					"comment" : ""
				}

			}
, 			{
				"box" : 				{
					"maxclass" : "outlet",
					"numinlets" : 1,
					"id" : "obj-24",
					"numoutlets" : 0,
					"patching_rect" : [ 33.344002, 338.584656, 19.0, 19.0 ],
					"comment" : ""
				}

			}
 ],
		"lines" : [ 			{
				"patchline" : 				{
					"source" : [ "obj-7", 0 ],
					"destination" : [ "obj-20", 0 ],
					"hidden" : 0,
					"midpoints" : [ 171.811996, 41.0, 110.412003, 41.0 ]
				}

			}
, 			{
				"patchline" : 				{
					"source" : [ "obj-25", 0 ],
					"destination" : [ "obj-20", 0 ],
					"hidden" : 0,
					"midpoints" : [ 257.5, 73.0, 110.412003, 73.0 ]
				}

			}
, 			{
				"patchline" : 				{
					"source" : [ "obj-1", 1 ],
					"destination" : [ "obj-25", 0 ],
					"hidden" : 0,
					"midpoints" : [  ]
				}

			}
, 			{
				"patchline" : 				{
					"source" : [ "obj-20", 0 ],
					"destination" : [ "obj-3", 2 ],
					"hidden" : 0,
					"midpoints" : [  ]
				}

			}
, 			{
				"patchline" : 				{
					"source" : [ "obj-20", 0 ],
					"destination" : [ "obj-17", 2 ],
					"hidden" : 0,
					"midpoints" : [  ]
				}

			}
, 			{
				"patchline" : 				{
					"source" : [ "obj-20", 0 ],
					"destination" : [ "obj-19", 1 ],
					"hidden" : 0,
					"midpoints" : [  ]
				}

			}
, 			{
				"patchline" : 				{
					"source" : [ "obj-19", 0 ],
					"destination" : [ "obj-24", 0 ],
					"hidden" : 0,
					"midpoints" : [ 64.356003, 134.58345, 42.844002, 134.58345 ]
				}

			}
, 			{
				"patchline" : 				{
					"source" : [ "obj-11", 0 ],
					"destination" : [ "obj-24", 0 ],
					"hidden" : 0,
					"midpoints" : [ 255.908005, 310.607361, 42.844002, 310.607361 ]
				}

			}
, 			{
				"patchline" : 				{
					"source" : [ "obj-8", 0 ],
					"destination" : [ "obj-3", 0 ],
					"hidden" : 0,
					"midpoints" : [  ]
				}

			}
, 			{
				"patchline" : 				{
					"source" : [ "obj-19", 0 ],
					"destination" : [ "obj-21", 0 ],
					"hidden" : 0,
					"midpoints" : [ 64.356003, 134.58345, 50.183998, 134.58345, 50.183998, 310.607361, 64.356003, 310.607361 ]
				}

			}
, 			{
				"patchline" : 				{
					"source" : [ "obj-11", 0 ],
					"destination" : [ "obj-21", 0 ],
					"hidden" : 0,
					"midpoints" : [ 255.908005, 310.607361, 64.356003, 310.607361 ]
				}

			}
, 			{
				"patchline" : 				{
					"source" : [ "obj-21", 1 ],
					"destination" : [ "obj-22", 0 ],
					"hidden" : 0,
					"midpoints" : [  ]
				}

			}
, 			{
				"patchline" : 				{
					"source" : [ "obj-7", 0 ],
					"destination" : [ "obj-4", 0 ],
					"hidden" : 0,
					"midpoints" : [  ]
				}

			}
, 			{
				"patchline" : 				{
					"source" : [ "obj-19", 0 ],
					"destination" : [ "obj-13", 0 ],
					"hidden" : 0,
					"midpoints" : [ 64.356003, 134.58345, 181.156006, 134.58345 ]
				}

			}
, 			{
				"patchline" : 				{
					"source" : [ "obj-3", 0 ],
					"destination" : [ "obj-13", 0 ],
					"hidden" : 0,
					"midpoints" : [ 64.356003, 269.807129, 168.151993, 269.807129, 168.151993, 156.732162, 181.156006, 156.732162 ]
				}

			}
, 			{
				"patchline" : 				{
					"source" : [ "obj-1", 0 ],
					"destination" : [ "obj-5", 0 ],
					"hidden" : 0,
					"midpoints" : [ 245.395996, 78.628845, 221.539993, 78.628845 ]
				}

			}
, 			{
				"patchline" : 				{
					"source" : [ "obj-4", 1 ],
					"destination" : [ "obj-5", 0 ],
					"hidden" : 0,
					"midpoints" : [  ]
				}

			}
, 			{
				"patchline" : 				{
					"source" : [ "obj-5", 0 ],
					"destination" : [ "obj-16", 0 ],
					"hidden" : 0,
					"midpoints" : [  ]
				}

			}
, 			{
				"patchline" : 				{
					"source" : [ "obj-13", 1 ],
					"destination" : [ "obj-15", 0 ],
					"hidden" : 0,
					"midpoints" : [  ]
				}

			}
, 			{
				"patchline" : 				{
					"source" : [ "obj-15", 0 ],
					"destination" : [ "obj-14", 0 ],
					"hidden" : 0,
					"midpoints" : [  ]
				}

			}
, 			{
				"patchline" : 				{
					"source" : [ "obj-11", 0 ],
					"destination" : [ "obj-23", 0 ],
					"hidden" : 0,
					"midpoints" : [  ]
				}

			}
, 			{
				"patchline" : 				{
					"source" : [ "obj-3", 0 ],
					"destination" : [ "obj-11", 1 ],
					"hidden" : 0,
					"midpoints" : [ 64.356003, 281.464325, 264.90802, 281.464325 ]
				}

			}
, 			{
				"patchline" : 				{
					"source" : [ "obj-1", 0 ],
					"destination" : [ "obj-12", 0 ],
					"hidden" : 0,
					"midpoints" : [ 245.395996, 78.628845, 289.779999, 78.628845 ]
				}

			}
, 			{
				"patchline" : 				{
					"source" : [ "obj-4", 1 ],
					"destination" : [ "obj-12", 0 ],
					"hidden" : 0,
					"midpoints" : [ 221.811996, 78.628845, 289.779999, 78.628845 ]
				}

			}
, 			{
				"patchline" : 				{
					"source" : [ "obj-16", 0 ],
					"destination" : [ "obj-12", 0 ],
					"hidden" : 0,
					"midpoints" : [ 221.539993, 136.914886, 289.779999, 136.914886 ]
				}

			}
, 			{
				"patchline" : 				{
					"source" : [ "obj-12", 0 ],
					"destination" : [ "obj-14", 1 ],
					"hidden" : 0,
					"midpoints" : [  ]
				}

			}
, 			{
				"patchline" : 				{
					"source" : [ "obj-18", 0 ],
					"destination" : [ "obj-17", 0 ],
					"hidden" : 0,
					"midpoints" : [  ]
				}

			}
, 			{
				"patchline" : 				{
					"source" : [ "obj-19", 0 ],
					"destination" : [ "obj-18", 0 ],
					"hidden" : 0,
					"midpoints" : [  ]
				}

			}
, 			{
				"patchline" : 				{
					"source" : [ "obj-9", 0 ],
					"destination" : [ "obj-8", 0 ],
					"hidden" : 0,
					"midpoints" : [  ]
				}

			}
, 			{
				"patchline" : 				{
					"source" : [ "obj-17", 0 ],
					"destination" : [ "obj-9", 0 ],
					"hidden" : 0,
					"midpoints" : [  ]
				}

			}
, 			{
				"patchline" : 				{
					"source" : [ "obj-13", 0 ],
					"destination" : [ "obj-9", 0 ],
					"hidden" : 0,
					"midpoints" : [ 181.156006, 189.37236, 64.356003, 189.37236 ]
				}

			}
, 			{
				"patchline" : 				{
					"source" : [ "obj-10", 0 ],
					"destination" : [ "obj-11", 0 ],
					"hidden" : 0,
					"midpoints" : [  ]
				}

			}
, 			{
				"patchline" : 				{
					"source" : [ "obj-14", 0 ],
					"destination" : [ "obj-10", 0 ],
					"hidden" : 0,
					"midpoints" : [  ]
				}

			}
 ]
	}

}
