{
	"patcher" : 	{
		"fileversion" : 1,
		"rect" : [ 204.0, 234.0, 693.0, 335.0 ],
		"bglocked" : 0,
		"defrect" : [ 204.0, 234.0, 693.0, 335.0 ],
		"openrect" : [ 0.0, 0.0, 0.0, 0.0 ],
		"openinpresentation" : 0,
		"default_fontsize" : 11.0,
		"default_fontface" : 0,
		"default_fontname" : "Verdana",
		"gridonopen" : 0,
		"gridsize" : [ 15.0, 15.0 ],
		"gridsnaponopen" : 0,
		"toolbarvisible" : 1,
		"boxanimatetime" : 200,
		"imprint" : 0,
		"enablehscroll" : 1,
		"enablevscroll" : 1,
		"devicewidth" : 0.0,
		"boxes" : [ 			{
				"box" : 				{
					"maxclass" : "newobj",
					"text" : "unpack",
					"numoutlets" : 2,
					"outlettype" : [ "int", "int" ],
					"fontsize" : 11.0,
					"patching_rect" : [ 112.930908, 81.765182, 50.0, 20.0 ],
					"numinlets" : 1,
					"id" : "obj-1",
					"fontname" : "Verdana"
				}

			}
, 			{
				"box" : 				{
					"maxclass" : "newobj",
					"text" : "route int list",
					"numoutlets" : 3,
					"outlettype" : [ "", "", "" ],
					"fontsize" : 11.0,
					"patching_rect" : [ 62.347271, 57.36842, 121.0, 20.0 ],
					"numinlets" : 1,
					"id" : "obj-2",
					"fontname" : "Verdana"
				}

			}
, 			{
				"box" : 				{
					"maxclass" : "newobj",
					"text" : "s #1Ch",
					"numoutlets" : 0,
					"fontsize" : 11.0,
					"patching_rect" : [ 306.856354, 80.704453, 206.0, 20.0 ],
					"numinlets" : 1,
					"id" : "obj-3",
					"fontname" : "Verdana"
				}

			}
, 			{
				"box" : 				{
					"maxclass" : "newobj",
					"text" : "b 1",
					"numoutlets" : 1,
					"outlettype" : [ "bang" ],
					"fontsize" : 11.0,
					"patching_rect" : [ 284.56546, 156.259109, 28.0, 20.0 ],
					"numinlets" : 1,
					"id" : "obj-4",
					"fontname" : "Verdana"
				}

			}
, 			{
				"box" : 				{
					"maxclass" : "newobj",
					"text" : "t 1 0",
					"numoutlets" : 2,
					"outlettype" : [ "int", "int" ],
					"fontsize" : 11.0,
					"patching_rect" : [ 430.549103, 195.263153, 37.0, 20.0 ],
					"numinlets" : 1,
					"id" : "obj-5",
					"fontname" : "Verdana"
				}

			}
, 			{
				"box" : 				{
					"maxclass" : "newobj",
					"text" : "t 1 0",
					"numoutlets" : 2,
					"outlettype" : [ "int", "int" ],
					"fontsize" : 11.0,
					"patching_rect" : [ 172.925461, 195.263153, 37.0, 20.0 ],
					"numinlets" : 1,
					"id" : "obj-6",
					"fontname" : "Verdana"
				}

			}
, 			{
				"box" : 				{
					"maxclass" : "newobj",
					"text" : "coll Fadercurve",
					"linecount" : 2,
					"numoutlets" : 4,
					"outlettype" : [ "", "", "", "" ],
					"fontsize" : 11.0,
					"patching_rect" : [ 521.070923, 57.36842, 89.0, 33.0 ],
					"numinlets" : 1,
					"id" : "obj-7",
					"fontname" : "Verdana",
					"saved_object_attributes" : 					{
						"embed" : 0
					}

				}

			}
, 			{
				"box" : 				{
					"maxclass" : "message",
					"numoutlets" : 1,
					"outlettype" : [ "" ],
					"fontsize" : 11.0,
					"patching_rect" : [ 393.023651, 261.785431, 163.0, 18.0 ],
					"numinlets" : 2,
					"id" : "obj-8",
					"fontname" : "Verdana"
				}

			}
, 			{
				"box" : 				{
					"maxclass" : "newobj",
					"text" : "sprintf set \\; %sVol \\$1",
					"numoutlets" : 1,
					"outlettype" : [ "" ],
					"fontsize" : 11.0,
					"patching_rect" : [ 393.023651, 227.085022, 160.0, 20.0 ],
					"numinlets" : 1,
					"id" : "obj-9",
					"fontname" : "Verdana"
				}

			}
, 			{
				"box" : 				{
					"maxclass" : "newobj",
					"text" : "gate",
					"numoutlets" : 1,
					"outlettype" : [ "" ],
					"fontsize" : 11.0,
					"patching_rect" : [ 556.47998, 227.085022, 35.0, 20.0 ],
					"numinlets" : 2,
					"id" : "obj-10",
					"fontname" : "Verdana"
				}

			}
, 			{
				"box" : 				{
					"maxclass" : "newobj",
					"text" : "gate",
					"numoutlets" : 1,
					"outlettype" : [ "" ],
					"fontsize" : 11.0,
					"patching_rect" : [ 592.947266, 227.085022, 35.0, 20.0 ],
					"numinlets" : 2,
					"id" : "obj-11",
					"fontname" : "Verdana"
				}

			}
, 			{
				"box" : 				{
					"maxclass" : "newobj",
					"text" : "ctlout 7",
					"numoutlets" : 0,
					"fontsize" : 11.0,
					"patching_rect" : [ 592.947266, 261.785431, 57.0, 20.0 ],
					"numinlets" : 3,
					"id" : "obj-12",
					"fontname" : "Verdana"
				}

			}
, 			{
				"box" : 				{
					"maxclass" : "inlet",
					"numoutlets" : 1,
					"outlettype" : [ "" ],
					"patching_rect" : [ 606.945435, 16.0, 20.0, 20.0 ],
					"numinlets" : 0,
					"id" : "obj-13",
					"comment" : ""
				}

			}
, 			{
				"box" : 				{
					"maxclass" : "comment",
					"text" : "Midich",
					"numoutlets" : 0,
					"fontsize" : 11.0,
					"patching_rect" : [ 148.398178, 18.121458, 45.0, 20.0 ],
					"numinlets" : 1,
					"id" : "obj-14",
					"fontname" : "Verdana"
				}

			}
, 			{
				"box" : 				{
					"maxclass" : "outlet",
					"numoutlets" : 0,
					"patching_rect" : [ 200.983643, 80.704453, 20.0, 20.0 ],
					"numinlets" : 1,
					"id" : "obj-15",
					"comment" : ""
				}

			}
, 			{
				"box" : 				{
					"maxclass" : "newobj",
					"text" : "St.Soundport #1",
					"numoutlets" : 1,
					"outlettype" : [ "" ],
					"fontsize" : 11.0,
					"patching_rect" : [ 200.983643, 57.36842, 315.0, 20.0 ],
					"numinlets" : 1,
					"id" : "obj-16",
					"fontname" : "Verdana"
				}

			}
, 			{
				"box" : 				{
					"maxclass" : "newobj",
					"text" : "flush",
					"numoutlets" : 2,
					"outlettype" : [ "int", "int" ],
					"fontsize" : 11.0,
					"patching_rect" : [ 62.347271, 127.376511, 53.0, 20.0 ],
					"numinlets" : 2,
					"id" : "obj-17",
					"fontname" : "Verdana"
				}

			}
, 			{
				"box" : 				{
					"maxclass" : "message",
					"numoutlets" : 1,
					"outlettype" : [ "" ],
					"fontsize" : 11.0,
					"patching_rect" : [ 163.514542, 261.785431, 189.0, 18.0 ],
					"numinlets" : 2,
					"id" : "obj-18",
					"fontname" : "Verdana"
				}

			}
, 			{
				"box" : 				{
					"maxclass" : "newobj",
					"text" : "sprintf set \\; %sNotes \\$1 \\$2",
					"numoutlets" : 1,
					"outlettype" : [ "" ],
					"fontsize" : 11.0,
					"patching_rect" : [ 163.514542, 227.085022, 193.0, 20.0 ],
					"numinlets" : 1,
					"id" : "obj-19",
					"fontname" : "Verdana"
				}

			}
, 			{
				"box" : 				{
					"maxclass" : "newobj",
					"text" : "pack",
					"numoutlets" : 1,
					"outlettype" : [ "" ],
					"fontsize" : 11.0,
					"patching_rect" : [ 374.083649, 195.263153, 36.0, 20.0 ],
					"numinlets" : 2,
					"id" : "obj-20",
					"fontname" : "Verdana"
				}

			}
, 			{
				"box" : 				{
					"maxclass" : "newobj",
					"text" : "gate",
					"numoutlets" : 1,
					"outlettype" : [ "" ],
					"fontsize" : 11.0,
					"patching_rect" : [ 357.732727, 227.085022, 35.0, 20.0 ],
					"numinlets" : 2,
					"id" : "obj-21",
					"fontname" : "Verdana"
				}

			}
, 			{
				"box" : 				{
					"maxclass" : "newobj",
					"text" : "gate",
					"numoutlets" : 1,
					"outlettype" : [ "" ],
					"fontsize" : 11.0,
					"patching_rect" : [ 62.347271, 227.085022, 35.0, 20.0 ],
					"numinlets" : 2,
					"id" : "obj-22",
					"fontname" : "Verdana"
				}

			}
, 			{
				"box" : 				{
					"maxclass" : "newobj",
					"text" : "route Sampler Synth Effect Off",
					"numoutlets" : 5,
					"outlettype" : [ "", "", "", "", "" ],
					"fontsize" : 11.0,
					"patching_rect" : [ 163.514542, 127.376511, 181.0, 20.0 ],
					"numinlets" : 1,
					"id" : "obj-23",
					"fontname" : "Verdana"
				}

			}
, 			{
				"box" : 				{
					"maxclass" : "inlet",
					"numoutlets" : 1,
					"outlettype" : [ "" ],
					"patching_rect" : [ 129.57637, 16.0, 20.0, 20.0 ],
					"numinlets" : 0,
					"id" : "obj-24",
					"comment" : ""
				}

			}
, 			{
				"box" : 				{
					"maxclass" : "inlet",
					"numoutlets" : 1,
					"outlettype" : [ "" ],
					"patching_rect" : [ 96.461815, 16.0, 20.0, 20.0 ],
					"numinlets" : 0,
					"id" : "obj-25",
					"comment" : ""
				}

			}
, 			{
				"box" : 				{
					"maxclass" : "inlet",
					"numoutlets" : 1,
					"outlettype" : [ "" ],
					"patching_rect" : [ 62.347271, 16.0, 20.0, 20.0 ],
					"numinlets" : 0,
					"id" : "obj-26",
					"comment" : ""
				}

			}
, 			{
				"box" : 				{
					"maxclass" : "newobj",
					"text" : "noteout",
					"numoutlets" : 0,
					"fontsize" : 11.0,
					"patching_rect" : [ 62.347271, 261.785431, 87.0, 20.0 ],
					"numinlets" : 3,
					"id" : "obj-27",
					"fontname" : "Verdana"
				}

			}
, 			{
				"box" : 				{
					"maxclass" : "comment",
					"text" : "to MidiMenu",
					"numoutlets" : 0,
					"fontsize" : 11.0,
					"patching_rect" : [ 220.981812, 80.704453, 84.0, 20.0 ],
					"numinlets" : 1,
					"id" : "obj-28",
					"fontname" : "Verdana"
				}

			}
, 			{
				"box" : 				{
					"maxclass" : "comment",
					"text" : "NoteNo. & Midiports/Sampler",
					"linecount" : 4,
					"numoutlets" : 0,
					"fontsize" : 11.0,
					"patching_rect" : [ 0.0, 17.060728, 62.0, 60.0 ],
					"numinlets" : 1,
					"id" : "obj-29",
					"fontname" : "Verdana"
				}

			}
, 			{
				"box" : 				{
					"maxclass" : "comment",
					"text" : "vel",
					"numoutlets" : 0,
					"fontsize" : 11.0,
					"patching_rect" : [ 76.463638, 38.275303, 27.0, 20.0 ],
					"numinlets" : 1,
					"id" : "obj-30",
					"fontname" : "Verdana"
				}

			}
, 			{
				"box" : 				{
					"maxclass" : "comment",
					"text" : "Volume",
					"numoutlets" : 0,
					"fontsize" : 11.0,
					"patching_rect" : [ 558.714539, 18.121458, 52.0, 20.0 ],
					"numinlets" : 1,
					"id" : "obj-31",
					"fontname" : "Verdana"
				}

			}
 ],
		"lines" : [ 			{
				"patchline" : 				{
					"source" : [ "obj-23", 1 ],
					"destination" : [ "obj-4", 0 ],
					"hidden" : 0,
					"midpoints" : [ 213.514542, 150.0, 294.06546, 150.0 ]
				}

			}
, 			{
				"patchline" : 				{
					"source" : [ "obj-23", 1 ],
					"destination" : [ "obj-6", 0 ],
					"hidden" : 0,
					"midpoints" : [ 213.514542, 164.0, 182.425461, 164.0 ]
				}

			}
, 			{
				"patchline" : 				{
					"source" : [ "obj-23", 1 ],
					"destination" : [ "obj-9", 0 ],
					"hidden" : 0,
					"midpoints" : [ 213.514542, 222.0, 402.523651, 222.0 ]
				}

			}
, 			{
				"patchline" : 				{
					"source" : [ "obj-23", 1 ],
					"destination" : [ "obj-19", 0 ],
					"hidden" : 0,
					"midpoints" : [ 213.514542, 222.0, 173.014542, 222.0 ]
				}

			}
, 			{
				"patchline" : 				{
					"source" : [ "obj-23", 2 ],
					"destination" : [ "obj-19", 0 ],
					"hidden" : 0,
					"midpoints" : [ 254.014542, 222.842102, 173.014542, 222.842102 ]
				}

			}
, 			{
				"patchline" : 				{
					"source" : [ "obj-23", 2 ],
					"destination" : [ "obj-9", 0 ],
					"hidden" : 0,
					"midpoints" : [ 254.014542, 222.842102, 402.523651, 222.842102 ]
				}

			}
, 			{
				"patchline" : 				{
					"source" : [ "obj-23", 2 ],
					"destination" : [ "obj-4", 0 ],
					"hidden" : 0,
					"midpoints" : [ 254.014542, 150.07692, 294.06546, 150.07692 ]
				}

			}
, 			{
				"patchline" : 				{
					"source" : [ "obj-23", 2 ],
					"destination" : [ "obj-6", 0 ],
					"hidden" : 0,
					"midpoints" : [ 254.014542, 164.502029, 182.425461, 164.502029 ]
				}

			}
, 			{
				"patchline" : 				{
					"source" : [ "obj-23", 3 ],
					"destination" : [ "obj-4", 0 ],
					"hidden" : 0,
					"midpoints" : [  ]
				}

			}
, 			{
				"patchline" : 				{
					"source" : [ "obj-23", 4 ],
					"destination" : [ "obj-27", 0 ],
					"hidden" : 0,
					"midpoints" : [ 335.014526, 253.299591, 71.847275, 253.299591 ]
				}

			}
, 			{
				"patchline" : 				{
					"source" : [ "obj-23", 4 ],
					"destination" : [ "obj-5", 0 ],
					"hidden" : 0,
					"midpoints" : [ 335.014526, 162.380569, 440.049103, 162.380569 ]
				}

			}
, 			{
				"patchline" : 				{
					"source" : [ "obj-23", 4 ],
					"destination" : [ "obj-12", 0 ],
					"hidden" : 0,
					"midpoints" : [ 335.014526, 253.299591, 602.447266, 253.299591 ]
				}

			}
, 			{
				"patchline" : 				{
					"source" : [ "obj-2", 2 ],
					"destination" : [ "obj-23", 0 ],
					"hidden" : 0,
					"midpoints" : [  ]
				}

			}
, 			{
				"patchline" : 				{
					"source" : [ "obj-23", 0 ],
					"destination" : [ "obj-19", 0 ],
					"hidden" : 0,
					"midpoints" : [  ]
				}

			}
, 			{
				"patchline" : 				{
					"source" : [ "obj-23", 0 ],
					"destination" : [ "obj-6", 0 ],
					"hidden" : 0,
					"midpoints" : [ 173.014542, 164.502029, 182.425461, 164.502029 ]
				}

			}
, 			{
				"patchline" : 				{
					"source" : [ "obj-23", 0 ],
					"destination" : [ "obj-9", 0 ],
					"hidden" : 0,
					"midpoints" : [ 173.014542, 222.842102, 402.523651, 222.842102 ]
				}

			}
, 			{
				"patchline" : 				{
					"source" : [ "obj-23", 0 ],
					"destination" : [ "obj-4", 0 ],
					"hidden" : 0,
					"midpoints" : [ 173.014542, 150.07692, 294.06546, 150.07692 ]
				}

			}
, 			{
				"patchline" : 				{
					"source" : [ "obj-26", 0 ],
					"destination" : [ "obj-2", 0 ],
					"hidden" : 0,
					"midpoints" : [  ]
				}

			}
, 			{
				"patchline" : 				{
					"source" : [ "obj-1", 0 ],
					"destination" : [ "obj-17", 0 ],
					"hidden" : 0,
					"midpoints" : [ 122.430908, 107.222672, 71.847275, 107.222672 ]
				}

			}
, 			{
				"patchline" : 				{
					"source" : [ "obj-2", 0 ],
					"destination" : [ "obj-17", 0 ],
					"hidden" : 0,
					"midpoints" : [  ]
				}

			}
, 			{
				"patchline" : 				{
					"source" : [ "obj-5", 0 ],
					"destination" : [ "obj-22", 0 ],
					"hidden" : 0,
					"midpoints" : [ 440.049103, 220.720642, 71.847275, 220.720642 ]
				}

			}
, 			{
				"patchline" : 				{
					"source" : [ "obj-6", 1 ],
					"destination" : [ "obj-22", 0 ],
					"hidden" : 0,
					"midpoints" : [ 200.425461, 220.720642, 71.847275, 220.720642 ]
				}

			}
, 			{
				"patchline" : 				{
					"source" : [ "obj-22", 0 ],
					"destination" : [ "obj-27", 0 ],
					"hidden" : 0,
					"midpoints" : [  ]
				}

			}
, 			{
				"patchline" : 				{
					"source" : [ "obj-17", 0 ],
					"destination" : [ "obj-22", 1 ],
					"hidden" : 0,
					"midpoints" : [ 71.847275, 186.777328, 87.847275, 186.777328 ]
				}

			}
, 			{
				"patchline" : 				{
					"source" : [ "obj-1", 1 ],
					"destination" : [ "obj-17", 1 ],
					"hidden" : 0,
					"midpoints" : [ 153.430908, 113.587044, 105.847275, 113.587044 ]
				}

			}
, 			{
				"patchline" : 				{
					"source" : [ "obj-25", 0 ],
					"destination" : [ "obj-17", 1 ],
					"hidden" : 0,
					"midpoints" : [  ]
				}

			}
, 			{
				"patchline" : 				{
					"source" : [ "obj-17", 1 ],
					"destination" : [ "obj-27", 1 ],
					"hidden" : 0,
					"midpoints" : [  ]
				}

			}
, 			{
				"patchline" : 				{
					"source" : [ "obj-2", 1 ],
					"destination" : [ "obj-1", 0 ],
					"hidden" : 0,
					"midpoints" : [  ]
				}

			}
, 			{
				"patchline" : 				{
					"source" : [ "obj-24", 0 ],
					"destination" : [ "obj-27", 2 ],
					"hidden" : 0,
					"midpoints" : [  ]
				}

			}
, 			{
				"patchline" : 				{
					"source" : [ "obj-21", 0 ],
					"destination" : [ "obj-18", 0 ],
					"hidden" : 0,
					"midpoints" : [ 367.232727, 257.542511, 173.014542, 257.542511 ]
				}

			}
, 			{
				"patchline" : 				{
					"source" : [ "obj-19", 0 ],
					"destination" : [ "obj-18", 0 ],
					"hidden" : 0,
					"midpoints" : [  ]
				}

			}
, 			{
				"patchline" : 				{
					"source" : [ "obj-16", 0 ],
					"destination" : [ "obj-15", 0 ],
					"hidden" : 0,
					"midpoints" : [  ]
				}

			}
, 			{
				"patchline" : 				{
					"source" : [ "obj-24", 0 ],
					"destination" : [ "obj-3", 0 ],
					"hidden" : 0,
					"midpoints" : [ 139.07637, 45.700405, 316.356354, 45.700405 ]
				}

			}
, 			{
				"patchline" : 				{
					"source" : [ "obj-5", 1 ],
					"destination" : [ "obj-21", 0 ],
					"hidden" : 0,
					"midpoints" : [ 458.049103, 217.538467, 367.232727, 217.538467 ]
				}

			}
, 			{
				"patchline" : 				{
					"source" : [ "obj-6", 0 ],
					"destination" : [ "obj-21", 0 ],
					"hidden" : 0,
					"midpoints" : [ 182.425461, 217.538467, 367.232727, 217.538467 ]
				}

			}
, 			{
				"patchline" : 				{
					"source" : [ "obj-17", 0 ],
					"destination" : [ "obj-20", 0 ],
					"hidden" : 0,
					"midpoints" : [ 71.847275, 186.777328, 383.583649, 186.777328 ]
				}

			}
, 			{
				"patchline" : 				{
					"source" : [ "obj-20", 0 ],
					"destination" : [ "obj-21", 1 ],
					"hidden" : 0,
					"midpoints" : [  ]
				}

			}
, 			{
				"patchline" : 				{
					"source" : [ "obj-10", 0 ],
					"destination" : [ "obj-8", 0 ],
					"hidden" : 0,
					"midpoints" : [ 565.97998, 257.542511, 402.523651, 257.542511 ]
				}

			}
, 			{
				"patchline" : 				{
					"source" : [ "obj-9", 0 ],
					"destination" : [ "obj-8", 0 ],
					"hidden" : 0,
					"midpoints" : [  ]
				}

			}
, 			{
				"patchline" : 				{
					"source" : [ "obj-17", 1 ],
					"destination" : [ "obj-20", 1 ],
					"hidden" : 0,
					"midpoints" : [ 105.847275, 182.534409, 400.583649, 182.534409 ]
				}

			}
, 			{
				"patchline" : 				{
					"source" : [ "obj-13", 0 ],
					"destination" : [ "obj-7", 0 ],
					"hidden" : 0,
					"midpoints" : [ 616.445435, 39.336033, 530.570923, 39.336033 ]
				}

			}
, 			{
				"patchline" : 				{
					"source" : [ "obj-6", 0 ],
					"destination" : [ "obj-10", 0 ],
					"hidden" : 0,
					"midpoints" : [ 182.425461, 217.538467, 565.97998, 217.538467 ]
				}

			}
, 			{
				"patchline" : 				{
					"source" : [ "obj-5", 1 ],
					"destination" : [ "obj-10", 0 ],
					"hidden" : 0,
					"midpoints" : [ 458.049103, 217.538467, 565.97998, 217.538467 ]
				}

			}
, 			{
				"patchline" : 				{
					"source" : [ "obj-7", 0 ],
					"destination" : [ "obj-10", 1 ],
					"hidden" : 0,
					"midpoints" : [ 530.570923, 97.676117, 581.97998, 97.676117 ]
				}

			}
, 			{
				"patchline" : 				{
					"source" : [ "obj-6", 1 ],
					"destination" : [ "obj-11", 0 ],
					"hidden" : 0,
					"midpoints" : [ 200.425461, 220.720642, 602.447266, 220.720642 ]
				}

			}
, 			{
				"patchline" : 				{
					"source" : [ "obj-5", 0 ],
					"destination" : [ "obj-11", 0 ],
					"hidden" : 0,
					"midpoints" : [ 440.049103, 220.720642, 602.447266, 220.720642 ]
				}

			}
, 			{
				"patchline" : 				{
					"source" : [ "obj-11", 0 ],
					"destination" : [ "obj-12", 0 ],
					"hidden" : 0,
					"midpoints" : [  ]
				}

			}
, 			{
				"patchline" : 				{
					"source" : [ "obj-13", 0 ],
					"destination" : [ "obj-11", 1 ],
					"hidden" : 0,
					"midpoints" : [  ]
				}

			}
, 			{
				"patchline" : 				{
					"source" : [ "obj-24", 0 ],
					"destination" : [ "obj-12", 2 ],
					"hidden" : 0,
					"midpoints" : [ 139.07637, 50.700405, 640.447266, 50.700405 ]
				}

			}
, 			{
				"patchline" : 				{
					"source" : [ "obj-4", 0 ],
					"destination" : [ "obj-17", 0 ],
					"hidden" : 0,
					"midpoints" : [ 294.06546, 179.291504, 394.736359, 179.291504, 394.736359, 123.133606, 71.847275, 123.133606 ]
				}

			}
 ]
	}

}
