{
	"patcher" : 	{
		"fileversion" : 1,
		"rect" : [ 91.0, 153.0, 387.0, 309.0 ],
		"bglocked" : 0,
		"defrect" : [ 91.0, 153.0, 387.0, 309.0 ],
		"openrect" : [ 0.0, 0.0, 0.0, 0.0 ],
		"openinpresentation" : 0,
		"default_fontsize" : 11.0,
		"default_fontface" : 0,
		"default_fontname" : "Verdana",
		"gridonopen" : 0,
		"gridsize" : [ 15.0, 15.0 ],
		"gridsnaponopen" : 0,
		"toolbarvisible" : 1,
		"boxanimatetime" : 200,
		"imprint" : 0,
		"metadata" : [  ],
		"boxes" : [ 			{
				"box" : 				{
					"maxclass" : "newobj",
					"text" : "print more",
					"linecount" : 2,
					"fontsize" : 11.0,
					"id" : "obj-1",
					"patching_rect" : [ 221.268295, 94.0, 38.0, 33.0 ],
					"numinlets" : 1,
					"fontname" : "Verdana",
					"numoutlets" : 0
				}

			}
, 			{
				"box" : 				{
					"maxclass" : "number",
					"htextcolor" : [ 0.870588, 0.870588, 0.870588, 1.0 ],
					"fontsize" : 11.0,
					"triscale" : 0.9,
					"id" : "obj-2",
					"patching_rect" : [ 259.32193, 94.0, 37.0, 20.0 ],
					"numinlets" : 1,
					"bgcolor" : [ 0.866667, 0.866667, 0.866667, 1.0 ],
					"fontname" : "Verdana",
					"numoutlets" : 2,
					"outlettype" : [ "int", "bang" ]
				}

			}
, 			{
				"box" : 				{
					"maxclass" : "newobj",
					"text" : "print 5",
					"linecount" : 2,
					"fontsize" : 11.0,
					"id" : "obj-3",
					"patching_rect" : [ 188.21463, 94.0, 35.0, 33.0 ],
					"numinlets" : 1,
					"fontname" : "Verdana",
					"numoutlets" : 0
				}

			}
, 			{
				"box" : 				{
					"maxclass" : "newobj",
					"text" : "print 4",
					"linecount" : 2,
					"fontsize" : 11.0,
					"id" : "obj-4",
					"patching_rect" : [ 155.16098, 94.0, 35.0, 33.0 ],
					"numinlets" : 1,
					"fontname" : "Verdana",
					"numoutlets" : 0
				}

			}
, 			{
				"box" : 				{
					"maxclass" : "newobj",
					"text" : "print 3",
					"linecount" : 2,
					"fontsize" : 11.0,
					"id" : "obj-5",
					"patching_rect" : [ 122.107315, 94.0, 35.0, 33.0 ],
					"numinlets" : 1,
					"fontname" : "Verdana",
					"numoutlets" : 0
				}

			}
, 			{
				"box" : 				{
					"maxclass" : "newobj",
					"text" : "St.Copyright 2005-2008",
					"linecount" : 2,
					"fontsize" : 11.0,
					"id" : "obj-6",
					"patching_rect" : [ 56.0, 135.0, 82.0, 33.0 ],
					"numinlets" : 2,
					"fontname" : "Verdana",
					"numoutlets" : 0
				}

			}
, 			{
				"box" : 				{
					"maxclass" : "number",
					"htextcolor" : [ 0.870588, 0.870588, 0.870588, 1.0 ],
					"fontsize" : 11.0,
					"triscale" : 0.9,
					"id" : "obj-7",
					"patching_rect" : [ 11.0, 66.0, 37.0, 20.0 ],
					"numinlets" : 1,
					"bgcolor" : [ 0.866667, 0.866667, 0.866667, 1.0 ],
					"fontname" : "Verdana",
					"numoutlets" : 2,
					"outlettype" : [ "int", "bang" ]
				}

			}
, 			{
				"box" : 				{
					"maxclass" : "flonum",
					"htextcolor" : [ 0.870588, 0.870588, 0.870588, 1.0 ],
					"fontsize" : 11.0,
					"triscale" : 0.9,
					"id" : "obj-8",
					"patching_rect" : [ 11.0, 38.0, 37.0, 20.0 ],
					"numinlets" : 1,
					"bgcolor" : [ 0.866667, 0.866667, 0.866667, 1.0 ],
					"fontname" : "Verdana",
					"numoutlets" : 2,
					"outlettype" : [ "float", "bang" ]
				}

			}
, 			{
				"box" : 				{
					"maxclass" : "newobj",
					"text" : "print 2",
					"linecount" : 2,
					"fontsize" : 11.0,
					"id" : "obj-9",
					"patching_rect" : [ 89.053658, 94.0, 35.0, 33.0 ],
					"numinlets" : 1,
					"fontname" : "Verdana",
					"numoutlets" : 0
				}

			}
, 			{
				"box" : 				{
					"maxclass" : "newobj",
					"text" : "print 1",
					"linecount" : 2,
					"fontsize" : 11.0,
					"id" : "obj-10",
					"patching_rect" : [ 56.0, 94.0, 35.0, 33.0 ],
					"numinlets" : 1,
					"fontname" : "Verdana",
					"numoutlets" : 0
				}

			}
, 			{
				"box" : 				{
					"maxclass" : "message",
					"text" : "different",
					"fontsize" : 11.0,
					"id" : "obj-11",
					"patching_rect" : [ 185.0, 25.0, 60.0, 18.0 ],
					"numinlets" : 2,
					"fontname" : "Verdana",
					"numoutlets" : 1,
					"outlettype" : [ "" ]
				}

			}
, 			{
				"box" : 				{
					"maxclass" : "message",
					"text" : "other",
					"fontsize" : 11.0,
					"id" : "obj-12",
					"patching_rect" : [ 142.0, 25.0, 41.0, 18.0 ],
					"numinlets" : 2,
					"fontname" : "Verdana",
					"numoutlets" : 1,
					"outlettype" : [ "" ]
				}

			}
, 			{
				"box" : 				{
					"maxclass" : "message",
					"text" : "same",
					"fontsize" : 11.0,
					"id" : "obj-13",
					"patching_rect" : [ 100.0, 25.0, 40.0, 18.0 ],
					"numinlets" : 2,
					"fontname" : "Verdana",
					"numoutlets" : 1,
					"outlettype" : [ "" ]
				}

			}
, 			{
				"box" : 				{
					"maxclass" : "message",
					"text" : "same again",
					"linecount" : 2,
					"fontsize" : 11.0,
					"id" : "obj-14",
					"patching_rect" : [ 56.0, 25.0, 42.0, 31.0 ],
					"numinlets" : 2,
					"fontname" : "Verdana",
					"numoutlets" : 1,
					"outlettype" : [ "" ]
				}

			}
, 			{
				"box" : 				{
					"maxclass" : "newobj",
					"text" : "St.ChangeShift 6",
					"fontsize" : 11.0,
					"id" : "obj-15",
					"patching_rect" : [ 56.0, 66.0, 217.0, 20.0 ],
					"numinlets" : 2,
					"fontname" : "Verdana",
					"numoutlets" : 7,
					"outlettype" : [ "", "", "", "", "", "", "int" ]
				}

			}
, 			{
				"box" : 				{
					"maxclass" : "comment",
					"text" : "Like St.Change it is a Change object for more than just integers. But it will output same occurances out the middle outputs in a shifting manner. The most right output will count how often the same input happened. Right inlet sets without output. The parameter determines the number of outs, up to 64.",
					"linecount" : 10,
					"fontsize" : 11.0,
					"id" : "obj-16",
					"patching_rect" : [ 155.0, 138.0, 195.0, 140.0 ],
					"numinlets" : 1,
					"fontname" : "Verdana",
					"numoutlets" : 0
				}

			}
 ],
		"lines" : [ 			{
				"patchline" : 				{
					"source" : [ "obj-11", 0 ],
					"destination" : [ "obj-15", 0 ],
					"hidden" : 0,
					"midpoints" : [ 194.5, 61.0, 65.5, 61.0 ]
				}

			}
, 			{
				"patchline" : 				{
					"source" : [ "obj-12", 0 ],
					"destination" : [ "obj-15", 0 ],
					"hidden" : 0,
					"midpoints" : [ 151.5, 61.0, 65.5, 61.0 ]
				}

			}
, 			{
				"patchline" : 				{
					"source" : [ "obj-13", 0 ],
					"destination" : [ "obj-15", 0 ],
					"hidden" : 0,
					"midpoints" : [ 109.5, 61.0, 65.5, 61.0 ]
				}

			}
, 			{
				"patchline" : 				{
					"source" : [ "obj-15", 6 ],
					"destination" : [ "obj-2", 0 ],
					"hidden" : 0,
					"midpoints" : [  ]
				}

			}
, 			{
				"patchline" : 				{
					"source" : [ "obj-15", 5 ],
					"destination" : [ "obj-1", 0 ],
					"hidden" : 0,
					"midpoints" : [  ]
				}

			}
, 			{
				"patchline" : 				{
					"source" : [ "obj-15", 4 ],
					"destination" : [ "obj-3", 0 ],
					"hidden" : 0,
					"midpoints" : [  ]
				}

			}
, 			{
				"patchline" : 				{
					"source" : [ "obj-15", 3 ],
					"destination" : [ "obj-4", 0 ],
					"hidden" : 0,
					"midpoints" : [  ]
				}

			}
, 			{
				"patchline" : 				{
					"source" : [ "obj-15", 2 ],
					"destination" : [ "obj-5", 0 ],
					"hidden" : 0,
					"midpoints" : [  ]
				}

			}
, 			{
				"patchline" : 				{
					"source" : [ "obj-15", 1 ],
					"destination" : [ "obj-9", 0 ],
					"hidden" : 0,
					"midpoints" : [  ]
				}

			}
, 			{
				"patchline" : 				{
					"source" : [ "obj-15", 0 ],
					"destination" : [ "obj-10", 0 ],
					"hidden" : 0,
					"midpoints" : [  ]
				}

			}
, 			{
				"patchline" : 				{
					"source" : [ "obj-14", 0 ],
					"destination" : [ "obj-15", 0 ],
					"hidden" : 0,
					"midpoints" : [  ]
				}

			}
, 			{
				"patchline" : 				{
					"source" : [ "obj-8", 0 ],
					"destination" : [ "obj-15", 0 ],
					"hidden" : 0,
					"midpoints" : [ 20.5, 61.0, 65.5, 61.0 ]
				}

			}
, 			{
				"patchline" : 				{
					"source" : [ "obj-7", 0 ],
					"destination" : [ "obj-15", 0 ],
					"hidden" : 0,
					"midpoints" : [ 20.5, 90.0, 52.0, 90.0, 52.0, 61.0, 65.5, 61.0 ]
				}

			}
 ]
	}

}
