{
	"patcher" : 	{
		"fileversion" : 1,
		"rect" : [ 48.0, 45.0, 513.0, 522.0 ],
		"bglocked" : 0,
		"defrect" : [ 48.0, 45.0, 513.0, 522.0 ],
		"openrect" : [ 0.0, 0.0, 0.0, 0.0 ],
		"openinpresentation" : 0,
		"default_fontsize" : 11.0,
		"default_fontface" : 0,
		"default_fontname" : "Verdana",
		"gridonopen" : 0,
		"gridsize" : [ 15.0, 15.0 ],
		"gridsnaponopen" : 0,
		"toolbarvisible" : 1,
		"boxanimatetime" : 200,
		"imprint" : 0,
		"enablehscroll" : 1,
		"enablevscroll" : 1,
		"devicewidth" : 0.0,
		"boxes" : [ 			{
				"box" : 				{
					"fontname" : "Arial",
					"fontsize" : 11.595187,
					"id" : "obj-14",
					"maxclass" : "newobj",
					"numinlets" : 1,
					"numoutlets" : 1,
					"outlettype" : [ "" ],
					"patching_rect" : [ 88.0, 112.0, 70.0, 20.0 ],
					"text" : "prepend set"
				}

			}
, 			{
				"box" : 				{
					"candicane2" : [ 0.145098, 0.203922, 0.356863, 1.0 ],
					"candicane3" : [ 0.290196, 0.411765, 0.713726, 1.0 ],
					"candicane4" : [ 0.439216, 0.619608, 0.070588, 1.0 ],
					"candicane5" : [ 0.584314, 0.827451, 0.431373, 1.0 ],
					"candicane6" : [ 0.733333, 0.035294, 0.788235, 1.0 ],
					"candicane7" : [ 0.878431, 0.243137, 0.145098, 1.0 ],
					"candicane8" : [ 0.027451, 0.447059, 0.501961, 1.0 ],
					"id" : "obj-15",
					"maxclass" : "multislider",
					"numinlets" : 1,
					"numoutlets" : 2,
					"outlettype" : [ "", "" ],
					"patching_rect" : [ 88.0, 35.0, 173.0, 69.0 ],
					"peakcolor" : [ 0.498039, 0.498039, 0.498039, 1.0 ],
					"setminmax" : [ 0.0, 1.0 ],
					"setstyle" : 1,
					"size" : 64,
					"slidercolor" : [ 0.337255, 0.176471, 0.329412, 1.0 ]
				}

			}
, 			{
				"box" : 				{
					"id" : "obj-20",
					"maxclass" : "button",
					"numinlets" : 1,
					"numoutlets" : 1,
					"outlettype" : [ "bang" ],
					"patching_rect" : [ 56.0, 34.0, 20.0, 20.0 ]
				}

			}
, 			{
				"box" : 				{
					"fontname" : "Arial",
					"fontsize" : 11.595187,
					"id" : "obj-21",
					"maxclass" : "newobj",
					"numinlets" : 1,
					"numoutlets" : 1,
					"outlettype" : [ "signal" ],
					"patching_rect" : [ 56.0, 145.0, 38.0, 20.0 ],
					"text" : "click~"
				}

			}
, 			{
				"box" : 				{
					"args" : [ "Reverb" ],
					"id" : "obj-82",
					"maxclass" : "bpatcher",
					"name" : "St.Sends~.maxpat",
					"numinlets" : 3,
					"numoutlets" : 0,
					"patching_rect" : [ 56.0, 181.0, 40.0, 33.0 ],
					"presentation" : 1,
					"presentation_rect" : [ 127.777779, 202.0, 40.0, 65.0 ],
					"prototypename" : "St.Sends~",
					"varname" : "Sends[1]"
				}

			}
, 			{
				"box" : 				{
					"args" : [ 1, "@r_", "AD", "@s", "DA", "@ctlin", "+-1", 16, "@Master", 7, 16 ],
					"id" : "obj-50",
					"lockeddragscroll" : 1,
					"maxclass" : "bpatcher",
					"name" : "St.Level~.maxpat",
					"numinlets" : 2,
					"numoutlets" : 2,
					"outlettype" : [ "signal", "" ],
					"patching_rect" : [ 38.0, 223.0, 24.0, 156.0 ],
					"presentation" : 1,
					"presentation_rect" : [ 150.0, 111.0, 24.0, 156.0 ],
					"prototypename" : "St.Level~",
					"varname" : "Fader[1]"
				}

			}
, 			{
				"box" : 				{
					"args" : [ 8, "@dB", 0.0 ],
					"bgcolor" : [ 1.0, 1.0, 1.0, 0.0 ],
					"id" : "obj-49",
					"maxclass" : "bpatcher",
					"name" : "St.DA~.maxpat",
					"numinlets" : 3,
					"numoutlets" : 2,
					"offset" : [ 5.0, 7.0 ],
					"outlettype" : [ "", "" ],
					"patching_rect" : [ 131.0, 327.0, 136.0, 54.0 ],
					"presentation" : 1,
					"presentation_rect" : [ 156.0, 61.0, 136.0, 54.0 ],
					"prototypename" : "St.DA~"
				}

			}
, 			{
				"box" : 				{
					"args" : [ "@s", "DA" ],
					"id" : "obj-3",
					"maxclass" : "bpatcher",
					"name" : "St.Reverb~.maxpat",
					"numinlets" : 1,
					"numoutlets" : 1,
					"outlettype" : [ "" ],
					"patching_rect" : [ 134.0, 188.0, 167.0, 119.0 ],
					"varname" : "St.Reverb~"
				}

			}
 ],
		"lines" : [ 			{
				"patchline" : 				{
					"destination" : [ "obj-21", 0 ],
					"hidden" : 0,
					"midpoints" : [ 97.5, 141.0, 65.5, 141.0 ],
					"source" : [ "obj-14", 0 ]
				}

			}
, 			{
				"patchline" : 				{
					"destination" : [ "obj-14", 0 ],
					"hidden" : 0,
					"midpoints" : [  ],
					"source" : [ "obj-15", 0 ]
				}

			}
, 			{
				"patchline" : 				{
					"destination" : [ "obj-21", 0 ],
					"hidden" : 0,
					"midpoints" : [  ],
					"source" : [ "obj-20", 0 ]
				}

			}
, 			{
				"patchline" : 				{
					"destination" : [ "obj-50", 0 ],
					"hidden" : 0,
					"midpoints" : [ 65.5, 171.0, 47.5, 171.0 ],
					"source" : [ "obj-21", 0 ]
				}

			}
, 			{
				"patchline" : 				{
					"destination" : [ "obj-82", 0 ],
					"hidden" : 0,
					"midpoints" : [  ],
					"source" : [ "obj-21", 0 ]
				}

			}
, 			{
				"patchline" : 				{
					"destination" : [ "obj-82", 2 ],
					"hidden" : 0,
					"midpoints" : [ 47.5, 388.0, 104.75, 388.0, 104.75, 171.0, 86.5, 171.0 ],
					"source" : [ "obj-50", 0 ]
				}

			}
 ]
	}

}
