{
	"patcher" : 	{
		"fileversion" : 1,
		"rect" : [ 306.0, 105.0, 463.0, 503.0 ],
		"bglocked" : 0,
		"defrect" : [ 306.0, 105.0, 463.0, 503.0 ],
		"openrect" : [ 0.0, 0.0, 0.0, 0.0 ],
		"openinpresentation" : 0,
		"default_fontsize" : 11.0,
		"default_fontface" : 0,
		"default_fontname" : "Verdana",
		"gridonopen" : 0,
		"gridsize" : [ 15.0, 15.0 ],
		"gridsnaponopen" : 0,
		"toolbarvisible" : 1,
		"boxanimatetime" : 200,
		"imprint" : 0,
		"metadata" : [  ],
		"boxes" : [ 			{
				"box" : 				{
					"maxclass" : "newobj",
					"text" : "t 2 i",
					"fontname" : "Verdana",
					"numinlets" : 1,
					"patching_rect" : [ 191.018112, 294.398712, 35.0, 20.0 ],
					"fontsize" : 11.0,
					"numoutlets" : 2,
					"outlettype" : [ "int", "int" ],
					"id" : "obj-1"
				}

			}
, 			{
				"box" : 				{
					"maxclass" : "newobj",
					"text" : "pow",
					"fontname" : "Verdana",
					"numinlets" : 2,
					"patching_rect" : [ 191.018112, 320.192932, 35.0, 20.0 ],
					"fontsize" : 11.0,
					"numoutlets" : 1,
					"outlettype" : [ "float" ],
					"id" : "obj-2"
				}

			}
, 			{
				"box" : 				{
					"maxclass" : "newobj",
					"text" : "* 1.",
					"fontname" : "Verdana",
					"numinlets" : 2,
					"patching_rect" : [ 80.223625, 349.672058, 115.0, 20.0 ],
					"fontsize" : 11.0,
					"numoutlets" : 1,
					"outlettype" : [ "float" ],
					"id" : "obj-3"
				}

			}
, 			{
				"box" : 				{
					"maxclass" : "inlet",
					"numinlets" : 0,
					"patching_rect" : [ 191.018112, 11.0, 20.0, 20.0 ],
					"numoutlets" : 1,
					"outlettype" : [ "" ],
					"id" : "obj-4",
					"comment" : ""
				}

			}
, 			{
				"box" : 				{
					"maxclass" : "newobj",
					"text" : "t 1",
					"fontname" : "Verdana",
					"numinlets" : 1,
					"patching_rect" : [ 46.611813, 59.816719, 29.0, 20.0 ],
					"fontsize" : 11.0,
					"numoutlets" : 1,
					"outlettype" : [ "int" ],
					"id" : "obj-5"
				}

			}
, 			{
				"box" : 				{
					"maxclass" : "newobj",
					"text" : "sel bang 0",
					"fontname" : "Verdana",
					"numinlets" : 1,
					"patching_rect" : [ 13.0, 36.109325, 86.0, 20.0 ],
					"fontsize" : 11.0,
					"numoutlets" : 3,
					"outlettype" : [ "bang", "bang", "" ],
					"id" : "obj-6"
				}

			}
, 			{
				"box" : 				{
					"maxclass" : "newobj",
					"text" : "t i i",
					"fontname" : "Verdana",
					"numinlets" : 1,
					"patching_rect" : [ 80.223625, 86.816719, 37.0, 20.0 ],
					"fontsize" : 11.0,
					"numoutlets" : 2,
					"outlettype" : [ "int", "int" ],
					"id" : "obj-7"
				}

			}
, 			{
				"box" : 				{
					"maxclass" : "newobj",
					"text" : "+ 1",
					"fontname" : "Verdana",
					"numinlets" : 2,
					"patching_rect" : [ 46.611813, 164.199356, 28.0, 20.0 ],
					"fontsize" : 11.0,
					"numoutlets" : 1,
					"outlettype" : [ "int" ],
					"id" : "obj-8"
				}

			}
, 			{
				"box" : 				{
					"maxclass" : "newobj",
					"text" : "gate 2",
					"fontname" : "Verdana",
					"numinlets" : 2,
					"patching_rect" : [ 46.611813, 266.147888, 52.0, 20.0 ],
					"fontsize" : 11.0,
					"numoutlets" : 2,
					"outlettype" : [ "", "" ],
					"id" : "obj-9"
				}

			}
, 			{
				"box" : 				{
					"maxclass" : "newobj",
					"text" : "!/ 1.",
					"fontname" : "Verdana",
					"numinlets" : 2,
					"patching_rect" : [ 46.611813, 319.192932, 129.0, 20.0 ],
					"fontsize" : 11.0,
					"numoutlets" : 1,
					"outlettype" : [ "float" ],
					"id" : "obj-10"
				}

			}
, 			{
				"box" : 				{
					"maxclass" : "newobj",
					"text" : ">=",
					"fontname" : "Verdana",
					"numinlets" : 2,
					"patching_rect" : [ 46.611813, 135.948563, 30.0, 20.0 ],
					"fontsize" : 11.0,
					"numoutlets" : 1,
					"outlettype" : [ "int" ],
					"id" : "obj-11"
				}

			}
, 			{
				"box" : 				{
					"maxclass" : "newobj",
					"text" : "abs",
					"fontname" : "Verdana",
					"numinlets" : 1,
					"patching_rect" : [ 80.223625, 111.382637, 28.0, 20.0 ],
					"fontsize" : 11.0,
					"numoutlets" : 1,
					"outlettype" : [ "int" ],
					"id" : "obj-12"
				}

			}
, 			{
				"box" : 				{
					"maxclass" : "inlet",
					"numinlets" : 0,
					"patching_rect" : [ 300.220459, 11.0, 20.0, 20.0 ],
					"numoutlets" : 1,
					"outlettype" : [ "" ],
					"id" : "obj-13",
					"comment" : ""
				}

			}
, 			{
				"box" : 				{
					"maxclass" : "newobj",
					"text" : "ntom",
					"fontname" : "Verdana",
					"numinlets" : 1,
					"patching_rect" : [ 291.302368, 164.199356, 37.0, 20.0 ],
					"fontsize" : 11.0,
					"numoutlets" : 1,
					"outlettype" : [ "" ],
					"id" : "obj-14"
				}

			}
, 			{
				"box" : 				{
					"maxclass" : "newobj",
					"text" : "ctof",
					"fontname" : "Verdana",
					"numinlets" : 2,
					"patching_rect" : [ 223.119675, 237.89711, 38.0, 20.0 ],
					"fontsize" : 11.0,
					"numoutlets" : 1,
					"outlettype" : [ "" ],
					"id" : "obj-15"
				}

			}
, 			{
				"box" : 				{
					"maxclass" : "newobj",
					"text" : "route int float",
					"fontname" : "Verdana",
					"numinlets" : 1,
					"patching_rect" : [ 223.119675, 135.948563, 87.0, 20.0 ],
					"fontsize" : 11.0,
					"numoutlets" : 3,
					"outlettype" : [ "", "", "" ],
					"id" : "obj-16"
				}

			}
, 			{
				"box" : 				{
					"maxclass" : "newobj",
					"text" : "patcherargs",
					"fontname" : "Verdana",
					"numinlets" : 1,
					"patching_rect" : [ 223.119675, 11.0, 74.0, 20.0 ],
					"fontsize" : 11.0,
					"numoutlets" : 2,
					"outlettype" : [ "", "" ],
					"id" : "obj-17"
				}

			}
, 			{
				"box" : 				{
					"maxclass" : "inlet",
					"numinlets" : 0,
					"patching_rect" : [ 13.0, 11.0, 20.0, 20.0 ],
					"numoutlets" : 1,
					"outlettype" : [ "" ],
					"id" : "obj-18",
					"comment" : ""
				}

			}
, 			{
				"box" : 				{
					"maxclass" : "newobj",
					"text" : "t i i i",
					"fontname" : "Verdana",
					"numinlets" : 1,
					"patching_rect" : [ 80.223625, 135.948563, 75.0, 20.0 ],
					"fontsize" : 11.0,
					"numoutlets" : 3,
					"outlettype" : [ "int", "int", "int" ],
					"id" : "obj-19"
				}

			}
, 			{
				"box" : 				{
					"maxclass" : "newobj",
					"text" : "int",
					"fontname" : "Verdana",
					"numinlets" : 2,
					"patching_rect" : [ 157.406296, 266.147888, 34.0, 20.0 ],
					"fontsize" : 11.0,
					"numoutlets" : 1,
					"outlettype" : [ "int" ],
					"id" : "obj-20"
				}

			}
, 			{
				"box" : 				{
					"maxclass" : "newobj",
					"text" : "- 1",
					"fontname" : "Verdana",
					"numinlets" : 2,
					"patching_rect" : [ 199.732285, 213.331192, 24.0, 20.0 ],
					"fontsize" : 11.0,
					"numoutlets" : 1,
					"outlettype" : [ "int" ],
					"id" : "obj-21"
				}

			}
, 			{
				"box" : 				{
					"maxclass" : "newobj",
					"text" : "t 1",
					"fontname" : "Verdana",
					"numinlets" : 1,
					"patching_rect" : [ 172.344879, 213.331192, 24.0, 20.0 ],
					"fontsize" : 11.0,
					"numoutlets" : 1,
					"outlettype" : [ "int" ],
					"id" : "obj-22"
				}

			}
, 			{
				"box" : 				{
					"maxclass" : "newobj",
					"text" : "<<",
					"fontname" : "Verdana",
					"numinlets" : 2,
					"patching_rect" : [ 172.344879, 237.89711, 47.0, 20.0 ],
					"fontsize" : 11.0,
					"numoutlets" : 1,
					"outlettype" : [ "int" ],
					"id" : "obj-23"
				}

			}
, 			{
				"box" : 				{
					"maxclass" : "message",
					"text" : "break",
					"fontname" : "Verdana",
					"numinlets" : 2,
					"patching_rect" : [ 112.590553, 266.147888, 40.0, 18.0 ],
					"fontsize" : 11.0,
					"numoutlets" : 1,
					"outlettype" : [ "" ],
					"id" : "obj-24"
				}

			}
, 			{
				"box" : 				{
					"maxclass" : "newobj",
					"text" : "sel 0",
					"fontname" : "Verdana",
					"numinlets" : 2,
					"patching_rect" : [ 112.590553, 237.89711, 54.0, 20.0 ],
					"fontsize" : 11.0,
					"numoutlets" : 2,
					"outlettype" : [ "bang", "" ],
					"id" : "obj-25"
				}

			}
, 			{
				"box" : 				{
					"maxclass" : "newobj",
					"text" : "int",
					"fontname" : "Verdana",
					"numinlets" : 2,
					"patching_rect" : [ 112.590553, 188.765274, 42.0, 20.0 ],
					"fontsize" : 11.0,
					"numoutlets" : 1,
					"outlettype" : [ "int" ],
					"id" : "obj-26"
				}

			}
, 			{
				"box" : 				{
					"maxclass" : "newobj",
					"text" : "uzi 32",
					"fontname" : "Verdana",
					"numinlets" : 2,
					"patching_rect" : [ 112.590553, 164.199356, 54.0, 20.0 ],
					"fontsize" : 11.0,
					"numoutlets" : 3,
					"outlettype" : [ "bang", "bang", "int" ],
					"id" : "obj-27"
				}

			}
, 			{
				"box" : 				{
					"maxclass" : "newobj",
					"text" : ">>",
					"fontname" : "Verdana",
					"numinlets" : 2,
					"patching_rect" : [ 112.590553, 213.331192, 54.0, 20.0 ],
					"fontsize" : 11.0,
					"numoutlets" : 1,
					"outlettype" : [ "int" ],
					"id" : "obj-28"
				}

			}
, 			{
				"box" : 				{
					"maxclass" : "newobj",
					"text" : "/ 1.",
					"fontname" : "Verdana",
					"numinlets" : 2,
					"patching_rect" : [ 80.223625, 294.398712, 81.0, 20.0 ],
					"fontsize" : 11.0,
					"numoutlets" : 1,
					"outlettype" : [ "float" ],
					"id" : "obj-29"
				}

			}
, 			{
				"box" : 				{
					"maxclass" : "newobj",
					"text" : "ftom 0.",
					"fontname" : "Verdana",
					"numinlets" : 1,
					"patching_rect" : [ 207.201569, 409.858521, 59.0, 20.0 ],
					"fontsize" : 11.0,
					"numoutlets" : 1,
					"outlettype" : [ "" ],
					"id" : "obj-30"
				}

			}
, 			{
				"box" : 				{
					"maxclass" : "newobj",
					"text" : "* 261.62558",
					"fontname" : "Verdana",
					"numinlets" : 2,
					"patching_rect" : [ 148.692123, 379.151154, 93.0, 20.0 ],
					"fontsize" : 11.0,
					"numoutlets" : 1,
					"outlettype" : [ "float" ],
					"id" : "obj-31"
				}

			}
, 			{
				"box" : 				{
					"maxclass" : "outlet",
					"numinlets" : 1,
					"patching_rect" : [ 207.201569, 435.65274, 20.0, 20.0 ],
					"numoutlets" : 0,
					"id" : "obj-32",
					"comment" : "Midinote (Float)"
				}

			}
, 			{
				"box" : 				{
					"maxclass" : "comment",
					"text" : "Midinote (float)",
					"fontname" : "Verdana",
					"numinlets" : 1,
					"patching_rect" : [ 227.119675, 435.65274, 96.0, 20.0 ],
					"fontsize" : 11.0,
					"numoutlets" : 0,
					"id" : "obj-33"
				}

			}
, 			{
				"box" : 				{
					"maxclass" : "outlet",
					"numinlets" : 1,
					"patching_rect" : [ 148.692123, 435.65274, 20.0, 20.0 ],
					"numoutlets" : 0,
					"id" : "obj-34",
					"comment" : "Frequency"
				}

			}
, 			{
				"box" : 				{
					"maxclass" : "comment",
					"text" : "freq",
					"fontname" : "Verdana",
					"numinlets" : 1,
					"patching_rect" : [ 168.610229, 435.65274, 34.0, 20.0 ],
					"fontsize" : 11.0,
					"numoutlets" : 0,
					"id" : "obj-35"
				}

			}
, 			{
				"box" : 				{
					"maxclass" : "outlet",
					"numinlets" : 1,
					"patching_rect" : [ 80.223625, 435.65274, 20.0, 20.0 ],
					"numoutlets" : 0,
					"id" : "obj-36",
					"comment" : "Ratio"
				}

			}
, 			{
				"box" : 				{
					"maxclass" : "comment",
					"text" : "ratio",
					"fontname" : "Verdana",
					"numinlets" : 1,
					"patching_rect" : [ 100.141739, 435.65274, 39.0, 20.0 ],
					"fontsize" : 11.0,
					"numoutlets" : 0,
					"id" : "obj-37"
				}

			}
 ],
		"lines" : [ 			{
				"patchline" : 				{
					"source" : [ "obj-16", 2 ],
					"destination" : [ "obj-14", 0 ],
					"hidden" : 0,
					"midpoints" : [  ]
				}

			}
, 			{
				"patchline" : 				{
					"source" : [ "obj-16", 1 ],
					"destination" : [ "obj-31", 1 ],
					"hidden" : 0,
					"midpoints" : [ 266.61969, 295.627014, 232.192123, 295.627014 ]
				}

			}
, 			{
				"patchline" : 				{
					"source" : [ "obj-15", 0 ],
					"destination" : [ "obj-31", 1 ],
					"hidden" : 0,
					"midpoints" : [  ]
				}

			}
, 			{
				"patchline" : 				{
					"source" : [ "obj-14", 0 ],
					"destination" : [ "obj-15", 0 ],
					"hidden" : 0,
					"midpoints" : [  ]
				}

			}
, 			{
				"patchline" : 				{
					"source" : [ "obj-16", 0 ],
					"destination" : [ "obj-15", 0 ],
					"hidden" : 0,
					"midpoints" : [  ]
				}

			}
, 			{
				"patchline" : 				{
					"source" : [ "obj-17", 0 ],
					"destination" : [ "obj-16", 0 ],
					"hidden" : 0,
					"midpoints" : [  ]
				}

			}
, 			{
				"patchline" : 				{
					"source" : [ "obj-13", 0 ],
					"destination" : [ "obj-16", 0 ],
					"hidden" : 0,
					"midpoints" : [ 309.720459, 132.263672, 232.619675, 132.263672 ]
				}

			}
, 			{
				"patchline" : 				{
					"source" : [ "obj-1", 1 ],
					"destination" : [ "obj-2", 1 ],
					"hidden" : 0,
					"midpoints" : [  ]
				}

			}
, 			{
				"patchline" : 				{
					"source" : [ "obj-11", 0 ],
					"destination" : [ "obj-21", 1 ],
					"hidden" : 0,
					"midpoints" : [  ]
				}

			}
, 			{
				"patchline" : 				{
					"source" : [ "obj-30", 0 ],
					"destination" : [ "obj-32", 0 ],
					"hidden" : 0,
					"midpoints" : [  ]
				}

			}
, 			{
				"patchline" : 				{
					"source" : [ "obj-31", 0 ],
					"destination" : [ "obj-30", 0 ],
					"hidden" : 0,
					"midpoints" : [ 158.192123, 403.717072, 216.701569, 403.717072 ]
				}

			}
, 			{
				"patchline" : 				{
					"source" : [ "obj-21", 0 ],
					"destination" : [ "obj-23", 1 ],
					"hidden" : 0,
					"midpoints" : [  ]
				}

			}
, 			{
				"patchline" : 				{
					"source" : [ "obj-27", 2 ],
					"destination" : [ "obj-21", 0 ],
					"hidden" : 0,
					"midpoints" : [  ]
				}

			}
, 			{
				"patchline" : 				{
					"source" : [ "obj-2", 0 ],
					"destination" : [ "obj-3", 1 ],
					"hidden" : 0,
					"midpoints" : [  ]
				}

			}
, 			{
				"patchline" : 				{
					"source" : [ "obj-1", 0 ],
					"destination" : [ "obj-2", 0 ],
					"hidden" : 0,
					"midpoints" : [  ]
				}

			}
, 			{
				"patchline" : 				{
					"source" : [ "obj-4", 0 ],
					"destination" : [ "obj-1", 0 ],
					"hidden" : 0,
					"midpoints" : [  ]
				}

			}
, 			{
				"patchline" : 				{
					"source" : [ "obj-23", 0 ],
					"destination" : [ "obj-20", 1 ],
					"hidden" : 0,
					"midpoints" : [  ]
				}

			}
, 			{
				"patchline" : 				{
					"source" : [ "obj-22", 0 ],
					"destination" : [ "obj-23", 0 ],
					"hidden" : 0,
					"midpoints" : [  ]
				}

			}
, 			{
				"patchline" : 				{
					"source" : [ "obj-27", 0 ],
					"destination" : [ "obj-22", 0 ],
					"hidden" : 0,
					"midpoints" : [  ]
				}

			}
, 			{
				"patchline" : 				{
					"source" : [ "obj-20", 0 ],
					"destination" : [ "obj-10", 1 ],
					"hidden" : 0,
					"midpoints" : [  ]
				}

			}
, 			{
				"patchline" : 				{
					"source" : [ "obj-20", 0 ],
					"destination" : [ "obj-29", 1 ],
					"hidden" : 0,
					"midpoints" : [  ]
				}

			}
, 			{
				"patchline" : 				{
					"source" : [ "obj-25", 0 ],
					"destination" : [ "obj-20", 0 ],
					"hidden" : 0,
					"midpoints" : [ 122.090553, 262.463013, 166.906296, 262.463013 ]
				}

			}
, 			{
				"patchline" : 				{
					"source" : [ "obj-27", 2 ],
					"destination" : [ "obj-28", 1 ],
					"hidden" : 0,
					"midpoints" : [  ]
				}

			}
, 			{
				"patchline" : 				{
					"source" : [ "obj-31", 0 ],
					"destination" : [ "obj-34", 0 ],
					"hidden" : 0,
					"midpoints" : [  ]
				}

			}
, 			{
				"patchline" : 				{
					"source" : [ "obj-3", 0 ],
					"destination" : [ "obj-31", 0 ],
					"hidden" : 0,
					"midpoints" : [ 89.723625, 374.237976, 158.192123, 374.237976 ]
				}

			}
, 			{
				"patchline" : 				{
					"source" : [ "obj-19", 2 ],
					"destination" : [ "obj-26", 1 ],
					"hidden" : 0,
					"midpoints" : [  ]
				}

			}
, 			{
				"patchline" : 				{
					"source" : [ "obj-25", 0 ],
					"destination" : [ "obj-24", 0 ],
					"hidden" : 0,
					"midpoints" : [  ]
				}

			}
, 			{
				"patchline" : 				{
					"source" : [ "obj-28", 0 ],
					"destination" : [ "obj-25", 0 ],
					"hidden" : 0,
					"midpoints" : [  ]
				}

			}
, 			{
				"patchline" : 				{
					"source" : [ "obj-26", 0 ],
					"destination" : [ "obj-28", 0 ],
					"hidden" : 0,
					"midpoints" : [  ]
				}

			}
, 			{
				"patchline" : 				{
					"source" : [ "obj-27", 0 ],
					"destination" : [ "obj-26", 0 ],
					"hidden" : 0,
					"midpoints" : [  ]
				}

			}
, 			{
				"patchline" : 				{
					"source" : [ "obj-19", 1 ],
					"destination" : [ "obj-27", 0 ],
					"hidden" : 0,
					"midpoints" : [  ]
				}

			}
, 			{
				"patchline" : 				{
					"source" : [ "obj-24", 0 ],
					"destination" : [ "obj-27", 0 ],
					"hidden" : 0,
					"midpoints" : [ 122.090553, 289.485535, 107.611031, 289.485535, 107.611031, 160.514465, 122.090553, 160.514465 ]
				}

			}
, 			{
				"patchline" : 				{
					"source" : [ "obj-3", 0 ],
					"destination" : [ "obj-36", 0 ],
					"hidden" : 0,
					"midpoints" : [  ]
				}

			}
, 			{
				"patchline" : 				{
					"source" : [ "obj-29", 0 ],
					"destination" : [ "obj-3", 0 ],
					"hidden" : 0,
					"midpoints" : [  ]
				}

			}
, 			{
				"patchline" : 				{
					"source" : [ "obj-10", 0 ],
					"destination" : [ "obj-3", 0 ],
					"hidden" : 0,
					"midpoints" : [ 56.111813, 344.75885, 89.723625, 344.75885 ]
				}

			}
, 			{
				"patchline" : 				{
					"source" : [ "obj-6", 0 ],
					"destination" : [ "obj-3", 0 ],
					"hidden" : 0,
					"midpoints" : [ 22.5, 344.75885, 89.723625, 344.75885 ]
				}

			}
, 			{
				"patchline" : 				{
					"source" : [ "obj-9", 1 ],
					"destination" : [ "obj-29", 0 ],
					"hidden" : 0,
					"midpoints" : [  ]
				}

			}
, 			{
				"patchline" : 				{
					"source" : [ "obj-19", 0 ],
					"destination" : [ "obj-9", 1 ],
					"hidden" : 0,
					"midpoints" : [  ]
				}

			}
, 			{
				"patchline" : 				{
					"source" : [ "obj-12", 0 ],
					"destination" : [ "obj-19", 0 ],
					"hidden" : 0,
					"midpoints" : [  ]
				}

			}
, 			{
				"patchline" : 				{
					"source" : [ "obj-7", 0 ],
					"destination" : [ "obj-12", 0 ],
					"hidden" : 0,
					"midpoints" : [  ]
				}

			}
, 			{
				"patchline" : 				{
					"source" : [ "obj-5", 0 ],
					"destination" : [ "obj-7", 0 ],
					"hidden" : 0,
					"midpoints" : [ 56.111813, 83.0, 89.723625, 83.0 ]
				}

			}
, 			{
				"patchline" : 				{
					"source" : [ "obj-6", 2 ],
					"destination" : [ "obj-7", 0 ],
					"hidden" : 0,
					"midpoints" : [  ]
				}

			}
, 			{
				"patchline" : 				{
					"source" : [ "obj-9", 0 ],
					"destination" : [ "obj-10", 0 ],
					"hidden" : 0,
					"midpoints" : [  ]
				}

			}
, 			{
				"patchline" : 				{
					"source" : [ "obj-8", 0 ],
					"destination" : [ "obj-9", 0 ],
					"hidden" : 0,
					"midpoints" : [  ]
				}

			}
, 			{
				"patchline" : 				{
					"source" : [ "obj-11", 0 ],
					"destination" : [ "obj-8", 0 ],
					"hidden" : 0,
					"midpoints" : [  ]
				}

			}
, 			{
				"patchline" : 				{
					"source" : [ "obj-7", 1 ],
					"destination" : [ "obj-11", 0 ],
					"hidden" : 0,
					"midpoints" : [  ]
				}

			}
, 			{
				"patchline" : 				{
					"source" : [ "obj-6", 1 ],
					"destination" : [ "obj-5", 0 ],
					"hidden" : 0,
					"midpoints" : [  ]
				}

			}
, 			{
				"patchline" : 				{
					"source" : [ "obj-18", 0 ],
					"destination" : [ "obj-6", 0 ],
					"hidden" : 0,
					"midpoints" : [  ]
				}

			}
 ]
	}

}
