{
	"patcher" : 	{
		"fileversion" : 1,
		"appversion" : 		{
			"major" : 5,
			"minor" : 1,
			"revision" : 9
		}
,
		"rect" : [ 94.0, 116.0, 693.0, 378.0 ],
		"bglocked" : 0,
		"defrect" : [ 94.0, 116.0, 693.0, 378.0 ],
		"openrect" : [ 0.0, 0.0, 0.0, 0.0 ],
		"openinpresentation" : 0,
		"default_fontsize" : 11.0,
		"default_fontface" : 0,
		"default_fontname" : "Verdana",
		"gridonopen" : 0,
		"gridsize" : [ 15.0, 15.0 ],
		"gridsnaponopen" : 0,
		"toolbarvisible" : 1,
		"boxanimatetime" : 200,
		"imprint" : 0,
		"enablehscroll" : 1,
		"enablevscroll" : 1,
		"devicewidth" : 0.0,
		"boxes" : [ 			{
				"box" : 				{
					"fontname" : "Verdana",
					"fontsize" : 11.0,
					"id" : "obj-13",
					"maxclass" : "newobj",
					"numinlets" : 24,
					"numoutlets" : 1,
					"outlettype" : [ "" ],
					"patching_rect" : [ 54.0, 67.0, 296.0, 20.0 ],
					"text" : "multicore~ 24"
				}

			}
, 			{
				"box" : 				{
					"fontname" : "Verdana",
					"fontsize" : 11.0,
					"id" : "obj-12",
					"maxclass" : "newobj",
					"numinlets" : 1,
					"numoutlets" : 25,
					"outlettype" : [ "", "", "", "", "", "", "", "", "", "", "", "", "", "", "", "", "", "", "", "", "", "", "", "", "" ],
					"patching_rect" : [ 54.0, 35.0, 308.0, 20.0 ],
					"text" : "route~ 24"
				}

			}
, 			{
				"box" : 				{
					"fontname" : "Verdana",
					"fontsize" : 11.0,
					"id" : "obj-1",
					"linecount" : 2,
					"maxclass" : "newobj",
					"numinlets" : 1,
					"numoutlets" : 1,
					"outlettype" : [ "" ],
					"patching_rect" : [ 389.166656, 105.0, 68.0, 33.0 ],
					"text" : "prepend jit_matrix"
				}

			}
, 			{
				"box" : 				{
					"comment" : "messages",
					"id" : "obj-2",
					"maxclass" : "outlet",
					"numinlets" : 1,
					"numoutlets" : 0,
					"patching_rect" : [ 580.0, 150.0, 19.0, 19.0 ]
				}

			}
, 			{
				"box" : 				{
					"comment" : "list",
					"id" : "obj-3",
					"maxclass" : "outlet",
					"numinlets" : 1,
					"numoutlets" : 0,
					"patching_rect" : [ 541.833313, 150.0, 19.0, 19.0 ]
				}

			}
, 			{
				"box" : 				{
					"comment" : "float",
					"id" : "obj-4",
					"maxclass" : "outlet",
					"numinlets" : 1,
					"numoutlets" : 0,
					"patching_rect" : [ 503.666687, 150.0, 19.0, 19.0 ]
				}

			}
, 			{
				"box" : 				{
					"comment" : "int",
					"id" : "obj-5",
					"maxclass" : "outlet",
					"numinlets" : 1,
					"numoutlets" : 0,
					"patching_rect" : [ 465.5, 150.0, 19.0, 19.0 ]
				}

			}
, 			{
				"box" : 				{
					"comment" : "bang",
					"id" : "obj-6",
					"maxclass" : "outlet",
					"numinlets" : 1,
					"numoutlets" : 0,
					"patching_rect" : [ 427.333344, 150.0, 19.0, 19.0 ]
				}

			}
, 			{
				"box" : 				{
					"comment" : "jitter",
					"id" : "obj-7",
					"maxclass" : "outlet",
					"numinlets" : 1,
					"numoutlets" : 0,
					"patching_rect" : [ 389.0, 150.0, 19.0, 19.0 ]
				}

			}
, 			{
				"box" : 				{
					"comment" : "signal",
					"id" : "obj-8",
					"maxclass" : "outlet",
					"numinlets" : 1,
					"numoutlets" : 0,
					"patching_rect" : [ 54.0, 150.0, 19.0, 19.0 ]
				}

			}
, 			{
				"box" : 				{
					"comment" : "",
					"id" : "obj-9",
					"maxclass" : "inlet",
					"numinlets" : 0,
					"numoutlets" : 1,
					"outlettype" : [ "jit_matrix" ],
					"patching_rect" : [ 54.0, 7.0, 19.0, 19.0 ]
				}

			}
, 			{
				"box" : 				{
					"fontname" : "Verdana",
					"fontsize" : 11.0,
					"id" : "obj-10",
					"maxclass" : "message",
					"numinlets" : 2,
					"numoutlets" : 1,
					"outlettype" : [ "" ],
					"patching_rect" : [ 72.0, 105.0, 77.0, 18.0 ],
					"text" : "channels $1"
				}

			}
, 			{
				"box" : 				{
					"fontname" : "Verdana",
					"fontsize" : 11.0,
					"id" : "obj-11",
					"maxclass" : "newobj",
					"numinlets" : 1,
					"numoutlets" : 7,
					"outlettype" : [ "", "", "", "", "", "", "" ],
					"patching_rect" : [ 351.0, 67.0, 248.0, 20.0 ],
					"text" : "route channels jit_matrix bang int float list"
				}

			}
 ],
		"lines" : [ 			{
				"patchline" : 				{
					"destination" : [ "obj-7", 0 ],
					"hidden" : 0,
					"midpoints" : [  ],
					"source" : [ "obj-1", 0 ]
				}

			}
, 			{
				"patchline" : 				{
					"destination" : [ "obj-8", 0 ],
					"hidden" : 0,
					"midpoints" : [ 81.5, 130.0, 63.5, 130.0 ],
					"source" : [ "obj-10", 0 ]
				}

			}
, 			{
				"patchline" : 				{
					"destination" : [ "obj-1", 0 ],
					"hidden" : 0,
					"midpoints" : [  ],
					"source" : [ "obj-11", 1 ]
				}

			}
, 			{
				"patchline" : 				{
					"destination" : [ "obj-10", 0 ],
					"hidden" : 0,
					"midpoints" : [ 360.5, 95.5, 81.5, 95.5 ],
					"source" : [ "obj-11", 0 ]
				}

			}
, 			{
				"patchline" : 				{
					"destination" : [ "obj-2", 0 ],
					"hidden" : 0,
					"midpoints" : [  ],
					"source" : [ "obj-11", 6 ]
				}

			}
, 			{
				"patchline" : 				{
					"destination" : [ "obj-3", 0 ],
					"hidden" : 0,
					"midpoints" : [  ],
					"source" : [ "obj-11", 5 ]
				}

			}
, 			{
				"patchline" : 				{
					"destination" : [ "obj-4", 0 ],
					"hidden" : 0,
					"midpoints" : [  ],
					"source" : [ "obj-11", 4 ]
				}

			}
, 			{
				"patchline" : 				{
					"destination" : [ "obj-5", 0 ],
					"hidden" : 0,
					"midpoints" : [  ],
					"source" : [ "obj-11", 3 ]
				}

			}
, 			{
				"patchline" : 				{
					"destination" : [ "obj-6", 0 ],
					"hidden" : 0,
					"midpoints" : [  ],
					"source" : [ "obj-11", 2 ]
				}

			}
, 			{
				"patchline" : 				{
					"destination" : [ "obj-11", 0 ],
					"hidden" : 0,
					"midpoints" : [  ],
					"source" : [ "obj-12", 24 ]
				}

			}
, 			{
				"patchline" : 				{
					"destination" : [ "obj-13", 23 ],
					"hidden" : 0,
					"midpoints" : [  ],
					"source" : [ "obj-12", 23 ]
				}

			}
, 			{
				"patchline" : 				{
					"destination" : [ "obj-13", 22 ],
					"hidden" : 0,
					"midpoints" : [  ],
					"source" : [ "obj-12", 22 ]
				}

			}
, 			{
				"patchline" : 				{
					"destination" : [ "obj-13", 21 ],
					"hidden" : 0,
					"midpoints" : [  ],
					"source" : [ "obj-12", 21 ]
				}

			}
, 			{
				"patchline" : 				{
					"destination" : [ "obj-13", 20 ],
					"hidden" : 0,
					"midpoints" : [  ],
					"source" : [ "obj-12", 20 ]
				}

			}
, 			{
				"patchline" : 				{
					"destination" : [ "obj-13", 19 ],
					"hidden" : 0,
					"midpoints" : [  ],
					"source" : [ "obj-12", 19 ]
				}

			}
, 			{
				"patchline" : 				{
					"destination" : [ "obj-13", 18 ],
					"hidden" : 0,
					"midpoints" : [  ],
					"source" : [ "obj-12", 18 ]
				}

			}
, 			{
				"patchline" : 				{
					"destination" : [ "obj-13", 17 ],
					"hidden" : 0,
					"midpoints" : [  ],
					"source" : [ "obj-12", 17 ]
				}

			}
, 			{
				"patchline" : 				{
					"destination" : [ "obj-13", 16 ],
					"hidden" : 0,
					"midpoints" : [  ],
					"source" : [ "obj-12", 16 ]
				}

			}
, 			{
				"patchline" : 				{
					"destination" : [ "obj-13", 15 ],
					"hidden" : 0,
					"midpoints" : [  ],
					"source" : [ "obj-12", 15 ]
				}

			}
, 			{
				"patchline" : 				{
					"destination" : [ "obj-13", 14 ],
					"hidden" : 0,
					"midpoints" : [  ],
					"source" : [ "obj-12", 14 ]
				}

			}
, 			{
				"patchline" : 				{
					"destination" : [ "obj-13", 13 ],
					"hidden" : 0,
					"midpoints" : [  ],
					"source" : [ "obj-12", 13 ]
				}

			}
, 			{
				"patchline" : 				{
					"destination" : [ "obj-13", 12 ],
					"hidden" : 0,
					"midpoints" : [  ],
					"source" : [ "obj-12", 12 ]
				}

			}
, 			{
				"patchline" : 				{
					"destination" : [ "obj-13", 11 ],
					"hidden" : 0,
					"midpoints" : [  ],
					"source" : [ "obj-12", 11 ]
				}

			}
, 			{
				"patchline" : 				{
					"destination" : [ "obj-13", 10 ],
					"hidden" : 0,
					"midpoints" : [  ],
					"source" : [ "obj-12", 10 ]
				}

			}
, 			{
				"patchline" : 				{
					"destination" : [ "obj-13", 9 ],
					"hidden" : 0,
					"midpoints" : [  ],
					"source" : [ "obj-12", 9 ]
				}

			}
, 			{
				"patchline" : 				{
					"destination" : [ "obj-13", 8 ],
					"hidden" : 0,
					"midpoints" : [  ],
					"source" : [ "obj-12", 8 ]
				}

			}
, 			{
				"patchline" : 				{
					"destination" : [ "obj-13", 7 ],
					"hidden" : 0,
					"midpoints" : [  ],
					"source" : [ "obj-12", 7 ]
				}

			}
, 			{
				"patchline" : 				{
					"destination" : [ "obj-13", 6 ],
					"hidden" : 0,
					"midpoints" : [  ],
					"source" : [ "obj-12", 6 ]
				}

			}
, 			{
				"patchline" : 				{
					"destination" : [ "obj-13", 5 ],
					"hidden" : 0,
					"midpoints" : [  ],
					"source" : [ "obj-12", 5 ]
				}

			}
, 			{
				"patchline" : 				{
					"destination" : [ "obj-13", 4 ],
					"hidden" : 0,
					"midpoints" : [  ],
					"source" : [ "obj-12", 4 ]
				}

			}
, 			{
				"patchline" : 				{
					"destination" : [ "obj-13", 3 ],
					"hidden" : 0,
					"midpoints" : [  ],
					"source" : [ "obj-12", 3 ]
				}

			}
, 			{
				"patchline" : 				{
					"destination" : [ "obj-13", 2 ],
					"hidden" : 0,
					"midpoints" : [  ],
					"source" : [ "obj-12", 2 ]
				}

			}
, 			{
				"patchline" : 				{
					"destination" : [ "obj-13", 1 ],
					"hidden" : 0,
					"midpoints" : [  ],
					"source" : [ "obj-12", 1 ]
				}

			}
, 			{
				"patchline" : 				{
					"destination" : [ "obj-13", 0 ],
					"hidden" : 0,
					"midpoints" : [  ],
					"source" : [ "obj-12", 0 ]
				}

			}
, 			{
				"patchline" : 				{
					"destination" : [ "obj-8", 0 ],
					"hidden" : 0,
					"midpoints" : [  ],
					"source" : [ "obj-13", 0 ]
				}

			}
, 			{
				"patchline" : 				{
					"destination" : [ "obj-12", 0 ],
					"hidden" : 0,
					"midpoints" : [  ],
					"source" : [ "obj-9", 0 ]
				}

			}
 ]
	}

}
